<?xml version="1.0" encoding="UTF-8" standalone="no"?>
<svg
   xmlns:dc="http://purl.org/dc/elements/1.1/"
   xmlns:cc="http://creativecommons.org/ns#"
   xmlns:rdf="http://www.w3.org/1999/02/22-rdf-syntax-ns#"
   xmlns:svg="http://www.w3.org/2000/svg"
   xmlns="http://www.w3.org/2000/svg"
   viewBox="0 0 754.90295 1551.515"
   height="1551.515"
   width="754.90295"
   xml:space="preserve"
   version="1.1"
   id="svg4212"><metadata
     id="metadata4218"><rdf:RDF><cc:Work
         rdf:about=""><dc:format>image/svg+xml</dc:format><dc:type
           rdf:resource="http://purl.org/dc/dcmitype/StillImage" /><dc:title></dc:title></cc:Work></rdf:RDF></metadata><defs
     id="defs4216"><clipPath
       id="clipPath4238"
       clipPathUnits="userSpaceOnUse"><path
         id="path4240"
         d="m 0,1242.325 603.922,0 0,-533.855 -603.922,0 0,533.855 z" /></clipPath><clipPath
       id="clipPath4246"
       clipPathUnits="userSpaceOnUse"><path
         id="path4248"
         d="M 0,0 604,0 604,1242 0,1242 0,0 Z" /></clipPath><clipPath
       id="clipPath4250"
       clipPathUnits="userSpaceOnUse"><path
         id="path4252"
         d="m -12.207,1243.113 617,0 0,-1243 -617,0 0,1243 z" /></clipPath><clipPath
       id="clipPath4254"
       clipPathUnits="userSpaceOnUse"><path
         id="path4256"
         d="M 0,0 604,0 604,1242 0,1242 0,0 Z" /></clipPath><clipPath
       id="clipPath4258"
       clipPathUnits="userSpaceOnUse"><path
         id="path4260"
         d="M 0,0 604,0 604,1242 0,1242 0,0 Z" /></clipPath></defs><g
     transform="matrix(1.25,0,0,-1.25,0,1551.515)"
     id="g4220"><g
       id="g4222"><path
         id="path4224"
         style="fill:#ffffff;fill-opacity:1;fill-rule:nonzero;stroke:none"
         d="m 198.453,685.919 207.016,0 0,-685.918 -207.016,0 0,685.918 z" /><path
         id="path4226"
         style="fill:#ffffff;fill-opacity:1;fill-rule:nonzero;stroke:none"
         d="m 226.465,0.353 c -15.152,0 -27.434,12.265 -27.434,27.418 l 0,630.339 c 0,15.137 12.282,27.418 27.434,27.418 l 150.973,0 c 15.156,0 27.457,-12.281 27.457,-27.418 l 0,-630.339 c 0,-15.153 -12.301,-27.418 -27.457,-27.418" /><path
         id="path4228"
         style="fill:#000000;fill-opacity:1;fill-rule:nonzero;stroke:none"
         d="m 199.363,27.771 0,630.339 c 0,14.934 12.153,27.067 27.102,27.067 l 150.973,0 c 14.949,0 27.105,-12.133 27.105,-27.067 l 0,-630.339 c 0,-14.934 -12.156,-27.067 -27.105,-27.067 l -150.973,0 c -14.949,0 -27.102,12.133 -27.102,27.067 z m 27.102,658.093 c -15.32,0 -27.789,-12.449 -27.789,-27.754 l 0,-630.339 c 0,-15.321 12.469,-27.754 27.789,-27.754 l 150.973,0 c 15.32,0 27.789,12.433 27.789,27.754 l 0,630.339 c 0,15.305 -12.469,27.754 -27.789,27.754" /><path
         id="path4230"
         style="fill:#000000;fill-opacity:1;fill-rule:nonzero;stroke:none"
         d="m 387.738,27.771 c 0,-5.688 -4.613,-10.282 -10.3,-10.282 l -150.973,0 c -5.668,0 -10.281,4.594 -10.281,10.282 l 0,630.339 c 0,5.668 4.613,10.282 10.281,10.282 l 150.973,0 c 5.687,0 10.3,-4.614 10.3,-10.282 l 0,-630.339 z m -10.3,650.906 -150.973,0 c -11.375,0 -20.582,-9.207 -20.582,-20.567 l 0,-630.339 c 0,-11.375 9.207,-20.563 20.582,-20.563 l 150.973,0 c 11.375,0 20.582,9.188 20.582,20.563 l 0,630.339 c 0,11.36 -9.207,20.567 -20.582,20.567" /><path
         id="path4232"
         style="fill:#c1121c;fill-opacity:1;fill-rule:nonzero;stroke:none"
         d="m 387.738,343.052 -171.722,99.004 0,72.012 171.722,-98.985 0,-72.031 z m 0,-150.879 -171.722,98.988 0,72.012 171.722,-98.988 0,-72.012 z m 0,-150.895 -171.722,99.004 0,72.012 171.722,-99.004" /></g><g
       id="g4234"><g
         clip-path="url(#clipPath4238)"
         id="g4236"><g
           transform="translate(0,-0.787964)"
           id="g4242"><g
             id="g4244" /><g
             id="g4262"><g
               id="g4264"
               clip-path="url(#clipPath4246)"><g
                 id="g4266" /><g
                 id="g4268"><g
                   id="g4270"
                   clip-path="url(#clipPath4250)"><g
                     id="g4272"><g
                       id="g4274" /><g
                       id="g4276"><g
                         id="g4278"
                         clip-path="url(#clipPath4254)"><g
                           id="g4280" /><g
                           id="g4282"><path
                             id="path4284"
                             style="fill:#ffffff;fill-opacity:1;fill-rule:nonzero;stroke:none"
                             d="M 278.047,1227.543 4.449,753.746 C 2.223,749.297 0,744.848 0,739.289 0,723.719 13.344,711.484 28.914,711.484 l 546.09,0 c 5.562,0 10.012,1.114 14.457,3.336 13.348,7.785 17.797,25.582 10.012,38.926 l -272.489,473.797 c -3.336,3.336 -6.671,7.785 -11.121,10.008 -13.347,7.785 -30.031,3.34 -37.816,-10.008 z" /></g></g></g></g><g
                     id="g4286"><g
                       id="g4288" /><g
                       id="g4290"><g
                         id="g4292"
                         clip-path="url(#clipPath4258)"><g
                           id="g4294"><path
                             id="path4296"
                             style="fill:#000000;fill-opacity:1;fill-rule:nonzero;stroke:none"
                             d="m 28.914,711.484 c -15.57,0 -27.805,13.348 -27.805,27.805 0,5.559 1.114,10.008 3.34,14.457 l 273.598,472.684 c 5.562,8.898 14.461,14.461 24.469,14.461 4.449,0 8.898,-1.114 13.347,-4.45 4.45,-2.226 7.785,-5.562 10.008,-10.011 L 599.473,753.746 c 7.785,-13.344 3.336,-30.027 -10.012,-37.812 -4.445,-2.227 -8.895,-4.45 -14.457,-4.45 l -546.09,0 z M 302.516,1242 c -10.008,0 -20.02,-5.559 -25.578,-14.457 L 3.336,753.746 C 1.109,749.297 0,744.848 0,739.289 0,723.719 13.344,710.371 28.914,710.371 l 546.09,0 c 5.562,0 10.012,2.227 14.457,4.449 10.012,5.563 14.461,14.457 14.461,24.469 0,5.559 -1.113,10.008 -3.336,14.457 l -273.602,473.797 c -2.226,4.449 -6.671,7.785 -10.011,10.008 -5.559,3.34 -10.008,4.449 -14.457,4.449" /></g></g></g></g></g></g></g></g></g></g></g><g
       id="g4298"><path
         id="path4300"
         style="fill:#c1121c;fill-opacity:1;fill-rule:nonzero;stroke:none"
         d="m 302.691,1230.083 c -6.476,0.192 -12.687,-2.773 -15.746,-8.89 L 13.344,747.396 c -2.223,-2.223 -2.223,-5.559 -2.223,-8.895 0,-10.008 7.785,-17.797 17.793,-17.797 l 546.09,0 c 3.336,0 6.672,1.114 10.008,2.227 7.785,5.558 11.121,16.683 5.562,24.465 l -272.488,473.797 c -2.223,2.226 -4.453,4.449 -6.676,6.675 -2.781,1.391 -5.777,2.129 -8.719,2.215 z m -0.175,-90.082 211.316,-364.797 -422.633,0 211.317,364.797 z" /><path
         id="path4302"
         style="fill:#000000;fill-opacity:1;fill-rule:nonzero;stroke:none"
         d="m 224.664,810.794 0,8.895 -8.898,0 0,16.683 8.898,0 0,68.957 -8.898,0 0,17.797 8.898,0 0,7.785 8.895,17.793 7.785,-17.793 0,-7.785 17.797,0 0,7.785 8.898,17.793 7.785,-17.793 0,-7.785 17.797,0 0,7.785 8.895,17.793 7.785,-17.793 0,-7.785 17.797,0 0,7.785 8.894,17.793 7.785,-17.793 0,-7.785 17.797,0 0,7.785 8.899,17.793 7.785,-17.793 0,-7.785 8.898,0 0,-17.797 -8.898,0 0,-68.957 8.898,0 0,-16.683 -8.898,0 0,-8.895 -16.684,0 0,8.895 -17.797,0 0,-8.895 -16.679,0 0,8.895 -17.797,0 0,-8.895 -16.68,0 0,8.895 -17.797,0 0,-8.895 -16.683,0 0,8.895 -17.797,0 0,-8.895 -16.68,0 z" /><path
         id="path4304"
         style="fill:#ffffff;fill-opacity:1;fill-rule:nonzero;stroke:none"
         d="m 362.574,836.372 -17.797,0 0,68.957 17.797,0 0,-68.957 z m -34.476,0 -17.797,0 0,68.957 17.797,0 0,-68.957 z m -34.477,0 -17.797,0 0,68.957 17.797,0 0,-68.957 z m -52.277,0 0,68.957 17.797,0 0,-68.957" /></g></g></svg>