<?xml version="1.0" encoding="UTF-8" standalone="no"?>
<svg
   viewBox="0 0 600.995 600.995"
   height="600.995"
   width="600.995"
   xml:space="preserve"
   version="1.1"
   id="svg4873"
   sodipodi:docname="DE:265.svg"
   inkscape:version="1.1.2 (0a00cf5339, 2022-02-04)"
   xmlns:inkscape="http://www.inkscape.org/namespaces/inkscape"
   xmlns:sodipodi="http://sodipodi.sourceforge.net/DTD/sodipodi-0.dtd"
   xmlns="http://www.w3.org/2000/svg"
   xmlns:svg="http://www.w3.org/2000/svg"
   xmlns:rdf="http://www.w3.org/1999/02/22-rdf-syntax-ns#"
   xmlns:cc="http://creativecommons.org/ns#"
   xmlns:dc="http://purl.org/dc/elements/1.1/"><sodipodi:namedview
     id="namedview37"
     pagecolor="#ffffff"
     bordercolor="#666666"
     borderopacity="1.0"
     inkscape:pageshadow="2"
     inkscape:pageopacity="0.0"
     inkscape:pagecheckerboard="0"
     showgrid="false"
     inkscape:zoom="1.4292964"
     inkscape:cx="300.4975"
     inkscape:cy="300.84732"
     inkscape:window-width="1920"
     inkscape:window-height="1011"
     inkscape:window-x="0"
     inkscape:window-y="32"
     inkscape:window-maximized="1"
     inkscape:current-layer="svg4873" /><metadata
     id="metadata4879"><rdf:RDF><cc:Work
         rdf:about=""><dc:format>image/svg+xml</dc:format><dc:type
           rdf:resource="http://purl.org/dc/dcmitype/StillImage" /></cc:Work></rdf:RDF></metadata><defs
     id="defs4877" /><path
     id="path4885"
     style="fill:#ffffff;fill-opacity:1;fill-rule:nonzero;stroke:none;stroke-width:1.25"
     d="m 600.4975,300.49749 c 0,165.68875 -134.31125,300 -300,300 -165.6875,0 -300,-134.31125 -300,-300 0,-165.6875 134.3125,-300 300,-300 165.68875,0 300,134.3125 300,300 z" /><path
     id="path4887"
     style="fill:#000000;fill-opacity:1;fill-rule:nonzero;stroke:none;stroke-width:1.25"
     d="M 300.4975,-1e-5 C 134.54125,-1e-5 0,134.54124 0,300.49749 c 0,165.9575 134.54125,300.49875 300.4975,300.49875 165.9575,0 300.49875,-134.54125 300.49875,-300.49875 C 600.99625,134.54124 466.455,-1e-5 300.4975,-1e-5 Z m 0,0.4975 c 165.68875,0 300,134.3125 300,300 0,165.68875 -134.31125,300 -300,300 -165.6875,0 -300,-134.31125 -300,-300 0,-165.6875 134.3125,-300 300,-300 z" /><path
     id="path4889"
     style="fill:#c1121c;fill-opacity:1;fill-rule:nonzero;stroke:none;stroke-width:1.25"
     d="m 300.4975,10.49749 c -159.6825,0 -290,130.3175 -290,290 0,159.68375 130.3175,290 290,290 159.68375,0 290,-130.31625 290,-290 0,-159.6825 -130.31625,-290 -290,-290 z m 0,80.40125 c 116.23625,0 209.6,93.36375 209.6,209.59875 0,116.23625 -93.36375,209.6 -209.6,209.6 -116.235,0 -209.59875,-93.36375 -209.59875,-209.6 0,-116.235 93.36375,-209.59875 209.59875,-209.59875 z" /><path
     id="path4891"
     style="fill:#000000;fill-opacity:1;fill-rule:nonzero;stroke:none;stroke-width:1.25"
     d="m 29.79,30.35624 v 0.03 h -0.02875 z" /><path
     id="path4893"
     style="fill:#000000;fill-opacity:1;fill-rule:nonzero;stroke:none;stroke-width:1.25"
     d="M 29.76125,30.35624 H 29.79 v 0.02875 h -0.02875 z" /><path
     id="path4895"
     style="fill:#000000;fill-opacity:1;fill-rule:nonzero;stroke:none;stroke-width:1.25"
     d="m 29.76125,30.38624 v -0.03 l 0.02875,0.03 z m 0.02875,0 -0.02875,-0.03 v 0.03 z" /><path
     id="path4897"
     style="fill:#000000;fill-opacity:1;fill-rule:nonzero;stroke:none;stroke-width:1.25"
     d="M 29.82375,30.38624 H 29.76125 29.79 v -0.03 z" /><path
     id="path4899"
     style="fill:#000000;fill-opacity:1;fill-rule:nonzero;stroke:none;stroke-width:1.25"
     d="m 29.76125,30.38624 v -0.03 0.03 l 0.02875,-0.03 z" /><path
     id="path4901"
     style="fill:#000000;fill-opacity:1;fill-rule:nonzero;stroke:none;stroke-width:1.25"
     d="M 29.76125,30.35624 H 29.79 v 0.02875 h -0.02875 z" /><path
     id="path4903"
     style="fill:#000000;fill-opacity:1;fill-rule:nonzero;stroke:none;stroke-width:1.25"
     d="m 29.82375,30.35624 v 0.05875 h -0.0625 z" /><path
     id="path4905"
     style="fill:#000000;fill-opacity:1;fill-rule:nonzero;stroke:none;stroke-width:1.25"
     d="M 29.76125,30.35624 H 29.825 v 0.05875 h -0.06375 z" /><path
     id="path4907"
     style="fill:#000000;fill-opacity:1;fill-rule:nonzero;stroke:none;stroke-width:1.25"
     d="m 29.76125,30.41499 v -0.05875 l 0.0625,0.05875 z m 0.0625,0 -0.0625,-0.05875 v 0.05875 z" /><path
     id="path4909"
     style="fill:#000000;fill-opacity:1;fill-rule:nonzero;stroke:none;stroke-width:1.25"
     d="M 29.82375,30.41499 H 29.76125 29.79 v -0.05875 z" /><path
     id="path4911"
     style="fill:#000000;fill-opacity:1;fill-rule:nonzero;stroke:none;stroke-width:1.25"
     d="m 29.76125,30.41499 v -0.05875 0.05875 l 0.0625,-0.05875 z" /><path
     id="path4913"
     style="fill:#000000;fill-opacity:1;fill-rule:nonzero;stroke:none;stroke-width:1.25"
     d="M 29.76125,30.35624 H 29.825 v 0.05875 h -0.06375 z" /><path
     id="path4915"
     style="fill:#000000;fill-opacity:1;fill-rule:nonzero;stroke:none;stroke-width:1.25"
     d="m 29.82375,30.35624 v 0.05875 h -0.0625 z" /><path
     id="path4917"
     style="fill:#000000;fill-opacity:1;fill-rule:nonzero;stroke:none;stroke-width:1.25"
     d="M 29.76125,30.35624 H 29.825 v 0.05875 h -0.06375 z" /><path
     id="path4919"
     style="fill:#000000;fill-opacity:1;fill-rule:nonzero;stroke:none;stroke-width:1.25"
     d="m 29.76125,30.41499 v -0.05875 l 0.0625,0.05875 z m 0.0625,0 -0.0625,-0.05875 v 0.05875 z" /><path
     id="path4921"
     style="fill:#000000;fill-opacity:1;fill-rule:nonzero;stroke:none;stroke-width:1.25"
     d="M 29.82375,30.41499 H 29.76125 29.79 v -0.05875 z" /><path
     id="path4923"
     style="fill:#000000;fill-opacity:1;fill-rule:nonzero;stroke:none;stroke-width:1.25"
     d="m 29.76125,30.41499 v -0.05875 0.05875 l 0.0625,-0.05875 z" /><path
     id="path4925"
     style="fill:#000000;fill-opacity:1;fill-rule:nonzero;stroke:none;stroke-width:1.25"
     d="M 29.76125,30.35624 H 29.825 v 0.05875 h -0.06375 z" /><path
     id="path4927"
     style="fill:#000000;fill-opacity:1;fill-rule:nonzero;stroke:none;stroke-width:1.25"
     d="m 29.82375,30.35624 v 0.05875 h -0.0625 z" /><path
     id="path4929"
     style="fill:#000000;fill-opacity:1;fill-rule:nonzero;stroke:none;stroke-width:1.25"
     d="M 29.76125,30.35624 H 29.825 v 0.05875 h -0.06375 z" /><path
     id="path4931"
     style="fill:#000000;fill-opacity:1;fill-rule:nonzero;stroke:none;stroke-width:1.25"
     d="m 29.76125,30.41499 v -0.05875 l 0.0625,0.05875 z m 0.0625,0 -0.0625,-0.05875 v 0.05875 z" /><path
     id="path4933"
     style="fill:#000000;fill-opacity:1;fill-rule:nonzero;stroke:none;stroke-width:1.25"
     d="M 29.82375,30.41499 H 29.76125 29.79 v -0.05875 z" /><path
     id="path4935"
     style="fill:#000000;fill-opacity:1;fill-rule:nonzero;stroke:none;stroke-width:1.25"
     d="m 29.76125,30.41499 v -0.05875 0.05875 l 0.0625,-0.05875 z" /><path
     id="path4937"
     style="fill:#000000;fill-opacity:1;fill-rule:nonzero;stroke:none;stroke-width:1.25"
     d="M 29.76125,30.35624 H 29.825 v 0.05875 h -0.06375 z" /><path
     id="path4939"
     style="fill:#000000;fill-opacity:1;fill-rule:nonzero;stroke:none;stroke-width:1.25"
     d="m 300.5075,451.86999 74.2975,42.2075 c -47.8275,18.35375 -100.77125,18.35375 -148.61375,0" /><path
     id="path4941"
     style="fill:#000000;fill-opacity:1;fill-rule:nonzero;stroke:none;stroke-width:1.25"
     d="m 300.5075,149.12624 -74.31625,-42.1925 c 47.8425,-18.36875 100.78625,-18.36875 148.61375,0" /><path
     id="path4943"
     style="fill:#000000;fill-opacity:1;fill-rule:nonzero;stroke:none;stroke-width:1.25"
     d="m 360.615,395.65374 v -101.9475 h 20.38125 v 10.19 c 5.62,-10.55125 18.75,-14.53625 29.30625,-8.91625 3.37375,1.8025 6.22125,4.46375 8.2375,7.72 7.71,-10.9325 22.7925,-13.555 33.74,-5.85875 6.45,4.54 10.28375,11.91875 10.28375,19.80875 v 79.00375 H 442.1625 v -72.62625 c 0,-5.635 -4.555,-10.21 -10.19,-10.21 -5.635,0 -10.21,4.575 -10.21,10.21 v 72.62625 h -20.38125 v -72.62625 c 0,-5.635 -4.56,-10.21 -10.19,-10.21 -5.635,0 -10.195,4.575 -10.195,10.21 v 72.62625 z"
     sodipodi:nodetypes="cccccccsccsssccssscc" /><text
     xml:space="preserve"
     style="font-size:266.667px;line-height:1.25;font-family:sans-serif;word-spacing:0px"
     x="159.95125"
     y="395.87671"
     id="text869"><tspan
       sodipodi:role="line"
       id="tspan867"
       x="159.95125"
       y="395.87671"
       style="font-size:266.667px;fill:#ff00ff">x</tspan></text></svg>
