<?xml version="1.0" encoding="UTF-8" standalone="no"?>
<svg
   viewBox="0 0 600.995 600.995"
   height="600.995"
   width="600.995"
   xml:space="preserve"
   version="1.1"
   id="svg3508"
   sodipodi:docname="maxspeed.svg"
   inkscape:version="1.1.2 (0a00cf5339, 2022-02-04)"
   xmlns:inkscape="http://www.inkscape.org/namespaces/inkscape"
   xmlns:sodipodi="http://sodipodi.sourceforge.net/DTD/sodipodi-0.dtd"
   xmlns="http://www.w3.org/2000/svg"
   xmlns:svg="http://www.w3.org/2000/svg"
   xmlns:rdf="http://www.w3.org/1999/02/22-rdf-syntax-ns#"
   xmlns:cc="http://creativecommons.org/ns#"
   xmlns:dc="http://purl.org/dc/elements/1.1/"><sodipodi:namedview
     id="namedview36"
     pagecolor="#ffffff"
     bordercolor="#666666"
     borderopacity="1.0"
     inkscape:pageshadow="2"
     inkscape:pageopacity="0.0"
     inkscape:pagecheckerboard="0"
     showgrid="false"
     inkscape:zoom="1.4292964"
     inkscape:cx="300.4975"
     inkscape:cy="300.14768"
     inkscape:window-width="1920"
     inkscape:window-height="1011"
     inkscape:window-x="0"
     inkscape:window-y="32"
     inkscape:window-maximized="1"
     inkscape:current-layer="svg3508" /><metadata
     id="metadata3514"><rdf:RDF><cc:Work
         rdf:about=""><dc:format>image/svg+xml</dc:format><dc:type
           rdf:resource="http://purl.org/dc/dcmitype/StillImage" /></cc:Work></rdf:RDF></metadata><defs
     id="defs3512" /><path
     id="path3520"
     style="fill:#ffffff;fill-opacity:1;fill-rule:nonzero;stroke:none;stroke-width:1.25"
     d="m 600.4975,300.49749 c 0,165.68875 -134.31125,300 -300,300 -165.6875,0 -300,-134.31125 -300,-300 0,-165.6875 134.3125,-300 300,-300 165.68875,0 300,134.3125 300,300 z" /><text
     xml:space="preserve"
     style="font-size:333.333px;line-height:1.25;font-family:sans-serif;word-spacing:0px"
     x="301.59442"
     y="426.93185"
     id="text4666-3"><tspan
       sodipodi:role="line"
       id="tspan4664-6"
       x="301.59442"
       y="426.93185"
       style="font-size:333.333px;fill:#0000ff">?</tspan></text><path
     id="path3522"
     style="fill:#000000;fill-opacity:1;fill-rule:nonzero;stroke:none;stroke-width:1.25"
     d="M 300.4975,-1e-5 C 134.54125,-1e-5 0,134.54124 0,300.49749 c 0,165.9575 134.54125,300.49875 300.4975,300.49875 165.9575,0 300.49875,-134.54125 300.49875,-300.49875 C 600.99625,134.54124 466.455,-1e-5 300.4975,-1e-5 Z m 0,0.4975 c 165.68875,0 300,134.3125 300,300 0,165.68875 -134.31125,300 -300,300 -165.6875,0 -300,-134.31125 -300,-300 0,-165.6875 134.3125,-300 300,-300 z" /><path
     id="path3524"
     style="fill:#c1121c;fill-opacity:1;fill-rule:nonzero;stroke:none;stroke-width:1.25"
     d="m 300.4975,10.49749 c -159.6825,0 -290,130.3175 -290,290 0,159.68375 130.3175,290 290,290 159.68375,0 290,-130.31625 290,-290 0,-159.6825 -130.31625,-290 -290,-290 z m 0,80.40125 c 116.23625,0 209.6,93.36375 209.6,209.59875 0,116.23625 -93.36375,209.6 -209.6,209.6 -116.235,0 -209.59875,-93.36375 -209.59875,-209.6 0,-116.235 93.36375,-209.59875 209.59875,-209.59875 z" /><path
     id="path3526"
     style="fill:#000000;fill-opacity:1;fill-rule:nonzero;stroke:none;stroke-width:1.25"
     d="m 29.79,30.35624 v 0.03 h -0.02875 z" /><path
     id="path3528"
     style="fill:#000000;fill-opacity:1;fill-rule:nonzero;stroke:none;stroke-width:1.25"
     d="M 29.76125,30.35624 H 29.79 v 0.02875 h -0.02875 z" /><path
     id="path3530"
     style="fill:#000000;fill-opacity:1;fill-rule:nonzero;stroke:none;stroke-width:1.25"
     d="m 29.76125,30.38624 v -0.03 l 0.02875,0.03 z m 0.02875,0 -0.02875,-0.03 v 0.03 z" /><path
     id="path3532"
     style="fill:#000000;fill-opacity:1;fill-rule:nonzero;stroke:none;stroke-width:1.25"
     d="M 29.82375,30.38624 H 29.76125 29.79 v -0.03 z" /><path
     id="path3534"
     style="fill:#000000;fill-opacity:1;fill-rule:nonzero;stroke:none;stroke-width:1.25"
     d="m 29.76125,30.38624 v -0.03 0.03 l 0.02875,-0.03 z" /><path
     id="path3536"
     style="fill:#000000;fill-opacity:1;fill-rule:nonzero;stroke:none;stroke-width:1.25"
     d="M 29.76125,30.35624 H 29.79 v 0.02875 h -0.02875 z" /><path
     id="path3538"
     style="fill:#000000;fill-opacity:1;fill-rule:nonzero;stroke:none;stroke-width:1.25"
     d="m 29.82375,30.35624 v 0.05875 h -0.0625 z" /><path
     id="path3540"
     style="fill:#000000;fill-opacity:1;fill-rule:nonzero;stroke:none;stroke-width:1.25"
     d="M 29.76125,30.35624 H 29.825 v 0.05875 h -0.06375 z" /><path
     id="path3542"
     style="fill:#000000;fill-opacity:1;fill-rule:nonzero;stroke:none;stroke-width:1.25"
     d="m 29.76125,30.41499 v -0.05875 l 0.0625,0.05875 z m 0.0625,0 -0.0625,-0.05875 v 0.05875 z" /><path
     id="path3544"
     style="fill:#000000;fill-opacity:1;fill-rule:nonzero;stroke:none;stroke-width:1.25"
     d="M 29.82375,30.41499 H 29.76125 29.79 v -0.05875 z" /><path
     id="path3546"
     style="fill:#000000;fill-opacity:1;fill-rule:nonzero;stroke:none;stroke-width:1.25"
     d="m 29.76125,30.41499 v -0.05875 0.05875 l 0.0625,-0.05875 z" /><path
     id="path3548"
     style="fill:#000000;fill-opacity:1;fill-rule:nonzero;stroke:none;stroke-width:1.25"
     d="M 29.76125,30.35624 H 29.825 v 0.05875 h -0.06375 z" /><path
     id="path3550"
     style="fill:#000000;fill-opacity:1;fill-rule:nonzero;stroke:none;stroke-width:1.25"
     d="m 29.82375,30.35624 v 0.05875 h -0.0625 z" /><path
     id="path3552"
     style="fill:#000000;fill-opacity:1;fill-rule:nonzero;stroke:none;stroke-width:1.25"
     d="M 29.76125,30.35624 H 29.825 v 0.05875 h -0.06375 z" /><path
     id="path3554"
     style="fill:#000000;fill-opacity:1;fill-rule:nonzero;stroke:none;stroke-width:1.25"
     d="m 29.76125,30.41499 v -0.05875 l 0.0625,0.05875 z m 0.0625,0 -0.0625,-0.05875 v 0.05875 z" /><path
     id="path3556"
     style="fill:#000000;fill-opacity:1;fill-rule:nonzero;stroke:none;stroke-width:1.25"
     d="M 29.82375,30.41499 H 29.76125 29.79 v -0.05875 z" /><path
     id="path3558"
     style="fill:#000000;fill-opacity:1;fill-rule:nonzero;stroke:none;stroke-width:1.25"
     d="m 29.76125,30.41499 v -0.05875 0.05875 l 0.0625,-0.05875 z" /><path
     id="path3560"
     style="fill:#000000;fill-opacity:1;fill-rule:nonzero;stroke:none;stroke-width:1.25"
     d="M 29.76125,30.35624 H 29.825 v 0.05875 h -0.06375 z" /><path
     id="path3562"
     style="fill:#000000;fill-opacity:1;fill-rule:nonzero;stroke:none;stroke-width:1.25"
     d="m 29.82375,30.35624 v 0.05875 h -0.0625 z" /><path
     id="path3564"
     style="fill:#000000;fill-opacity:1;fill-rule:nonzero;stroke:none;stroke-width:1.25"
     d="M 29.76125,30.35624 H 29.825 v 0.05875 h -0.06375 z" /><path
     id="path3566"
     style="fill:#000000;fill-opacity:1;fill-rule:nonzero;stroke:none;stroke-width:1.25"
     d="m 29.76125,30.41499 v -0.05875 l 0.0625,0.05875 z m 0.0625,0 -0.0625,-0.05875 v 0.05875 z" /><path
     id="path3568"
     style="fill:#000000;fill-opacity:1;fill-rule:nonzero;stroke:none;stroke-width:1.25"
     d="M 29.82375,30.41499 H 29.76125 29.79 v -0.05875 z" /><path
     id="path3570"
     style="fill:#000000;fill-opacity:1;fill-rule:nonzero;stroke:none;stroke-width:1.25"
     d="m 29.76125,30.41499 v -0.05875 0.05875 l 0.0625,-0.05875 z" /><path
     id="path3572"
     style="fill:#000000;fill-opacity:1;fill-rule:nonzero;stroke:none;stroke-width:1.25"
     d="M 29.76125,30.35624 H 29.825 v 0.05875 h -0.06375 z" /><text
     xml:space="preserve"
     style="font-size:333.333px;line-height:1.25;font-family:sans-serif;word-spacing:0px"
     x="134.20419"
     y="422.57422"
     id="text4666"><tspan
       sodipodi:role="line"
       id="tspan4664"
       x="134.20419"
       y="422.57422"
       style="font-size:333.333px;fill:#0000ff">?</tspan></text></svg>
