<?xml version="1.0" encoding="UTF-8" standalone="no"?>
<svg
   xmlns:dc="http://purl.org/dc/elements/1.1/"
   xmlns:cc="http://creativecommons.org/ns#"
   xmlns:rdf="http://www.w3.org/1999/02/22-rdf-syntax-ns#"
   xmlns:svg="http://www.w3.org/2000/svg"
   xmlns="http://www.w3.org/2000/svg"
   viewBox="0 0 600 900"
   height="900"
   width="600"
   xml:space="preserve"
   id="svg9684"
   version="1.1"><metadata
     id="metadata9690"><rdf:RDF><cc:Work
         rdf:about=""><dc:format>image/svg+xml</dc:format><dc:type
           rdf:resource="http://purl.org/dc/dcmitype/StillImage" /><dc:title></dc:title></cc:Work></rdf:RDF></metadata><defs
     id="defs9688" /><g
     transform="matrix(1.3333333,0,0,-1.3333333,0,900)"
     id="g9692"><g
       id="g9694"><path
         id="path9696"
         style="fill:#ffffff;fill-opacity:1;fill-rule:nonzero;stroke:none"
         d="M 28.543,674.777 C 0.16,674.777 0.223,646.52 0.223,646.52 V 28.48 c 0,0 -0.063,-28.253 28.32,-28.253 h 392.914 c 28.383,0 28.316,28.253 28.316,28.253 v 618.04 c 0,0 0.067,28.257 -28.316,28.257 z" /><path
         id="path9698"
         style="fill:#000000;fill-opacity:1;fill-rule:nonzero;stroke:none"
         d="M 27.969,667.793 C 7.641,667.828 7.715,647.531 7.715,647.531 V 27.898 c 0,0 -0.074,-20.293 20.254,-20.257 h 394.5 c 20.328,-0.036 20.246,20.257 20.246,20.257 v 619.633 c 0,0 0.082,20.297 -20.246,20.262 z m 0,-11.25 h 394.5 c 0,0 8.976,-0.359 8.996,-9.012 V 27.898 c -0.02,-8.652 -8.996,-9.007 -8.996,-9.007 h -394.5 c 0,0 -8.981,0.355 -9.004,9.007 v 619.633 c 0.023,8.653 9.004,9.012 9.004,9.012 z" /><path
         id="path9700"
         style="fill:#000000;fill-opacity:1;fill-rule:nonzero;stroke:none"
         d="M 28.543,675 C 14.277,675 7.098,667.867 3.539,660.746 -0.02,653.629 0,646.516 0,646.516 V 28.48 c 0,0 -0.02,-7.109 3.539,-14.226 C 7.098,7.137 14.277,0 28.543,0 h 392.914 c 14.266,0 21.445,7.137 25.004,14.254 3.559,7.117 3.539,14.23 3.539,14.23 v 618.032 c 0,0.004 0.02,7.113 -3.539,14.23 C 442.902,667.863 435.723,675 421.457,675 Z m 0,-0.223 h 392.914 c 28.383,0 28.316,-28.257 28.316,-28.257 V 28.48 c 0,0 0.067,-28.253 -28.316,-28.253 H 28.543 C 0.16,0.227 0.223,28.48 0.223,28.48 v 618.04 c 0,0 -0.063,28.257 28.32,28.257 z" /><path
         id="path9702"
         style="fill:#f0c900;fill-opacity:1;fill-rule:nonzero;stroke:none"
         d="m 67.559,450.211 c 0,86.937 70.726,157.664 157.66,157.664 86.937,0 157.656,-70.727 157.656,-157.664 0,-86.926 -70.719,-157.649 -157.656,-157.649 -86.934,0 -157.66,70.723 -157.66,157.649" /><path
         id="path9704"
         style="fill:#008754;fill-opacity:1;fill-rule:nonzero;stroke:none"
         d="m 225.219,600.281 c -82.879,0 -150.071,-67.179 -150.071,-150.07 0,-82.875 67.192,-150.07 150.071,-150.07 82.883,0 150.07,67.195 150.07,150.07 0,82.891 -67.187,150.07 -150.07,150.07 z m 0,-39.488 c 61.078,0 110.582,-49.504 110.582,-110.582 0,-61.063 -49.504,-110.57 -110.582,-110.57 -61.063,0 -110.582,49.507 -110.582,110.57 0,61.078 49.519,110.582 110.582,110.582 z" /><path
         id="path9706"
         style="fill:#008754;fill-opacity:1;fill-rule:nonzero;stroke:none"
         d="m 166.918,368.598 v 163.238 h 24.777 v -69.961 h 67.043 v 69.961 h 24.774 V 368.598 h -24.774 v 71.418 h -67.043 v -71.418" /><path
         id="path9708"
         style="fill:#000000;fill-opacity:1;fill-rule:nonzero;stroke:none"
         d="m 86.895,272.441 c 0,0 -21.215,0.094 -21.215,-21.082 V 57.277 c 0,-21.172 21.215,-21.086 21.215,-21.086 h 276.32 c 0,0 21.215,-0.086 21.215,21.086 v 194.082 c 0,21.176 -21.215,21.082 -21.215,21.082 z m 0,-7.906 h 276.32 c 7.324,0 13.262,-5.898 13.262,-13.176 V 57.277 c 0,-7.277 -5.938,-13.179 -13.262,-13.179 H 86.895 c -7.321,0 -13.258,5.902 -13.258,13.179 v 194.082 c 0,7.278 5.937,13.176 13.258,13.176 z" /><path
         id="path9710"
         style="fill:#000000;fill-opacity:1;fill-rule:nonzero;stroke:none"
         d="m 143.465,211.91 c 0,3.473 -1.078,6.383 -3.305,8.317 -1.707,1.539 -3.816,2.453 -7.578,3.023 l -4.613,0.68 c -1.883,0.285 -3.535,0.972 -4.555,1.882 -1.086,0.969 -1.543,2.278 -1.543,3.762 0,3.59 2.621,6.324 7.41,6.324 3.418,0 6.324,-0.742 8.828,-3.136 l 3.934,3.875 c -3.477,3.25 -7.238,4.617 -12.594,4.617 -8.429,0 -13.558,-4.848 -13.558,-11.906 0,-3.309 0.968,-5.871 2.961,-7.75 1.765,-1.657 4.39,-2.793 7.691,-3.25 l 4.789,-0.684 c 2.395,-0.34 3.414,-0.738 4.441,-1.711 1.082,-0.965 1.594,-2.449 1.594,-4.215 0,-3.933 -3.074,-6.211 -8.371,-6.211 -4.164,0 -7.406,0.914 -10.371,3.875 l -4.105,-4.043 c 3.878,-3.933 8.265,-5.355 14.363,-5.355 8.484,0 14.582,4.445 14.582,11.906" /><path
         id="path9712"
         style="fill:#000000;fill-opacity:1;fill-rule:nonzero;stroke:none"
         d="m 171.941,204.105 -3.988,3.817 c -1.816,-1.996 -3.242,-2.734 -5.523,-2.734 -2.223,0 -4.102,0.914 -5.356,2.562 -1.25,1.598 -1.707,3.703 -1.707,7.066 0,3.364 0.457,5.411 1.707,7.008 1.254,1.653 3.133,2.567 5.356,2.567 2.281,0 3.707,-0.743 5.523,-2.739 l 3.988,3.875 c -2.734,2.903 -5.523,4.047 -9.511,4.047 -6.492,0 -12.875,-3.933 -12.875,-14.758 0,-10.824 6.383,-14.812 12.875,-14.812 3.988,0 6.777,1.195 9.511,4.101" /><path
         id="path9714"
         style="fill:#000000;fill-opacity:1;fill-rule:nonzero;stroke:none"
         d="m 198.938,200.344 v 18.633 c 0,6.265 -3.59,10.597 -10.032,10.597 -2.847,0 -5.468,-1.082 -7.465,-3.25 v 14.59 h -5.804 v -40.57 h 5.804 v 17.718 c 0,4.336 2.625,6.329 5.871,6.329 3.25,0 5.813,-1.942 5.813,-6.329 v -17.718 h 5.813" /><path
         id="path9716"
         style="fill:#000000;fill-opacity:1;fill-rule:nonzero;stroke:none"
         d="m 229.445,200.344 v 28.886 h -5.808 v -17.605 c 0,-4.445 -2.735,-6.437 -5.985,-6.437 -3.246,0 -5.808,1.937 -5.808,6.437 v 17.605 h -5.813 v -18.46 c 0,-3.247 0.684,-5.981 2.907,-8.145 1.707,-1.652 4.16,-2.621 7.124,-2.621 2.903,0 5.692,1.082 7.688,3.246 v -2.906 h 5.695" /><path
         id="path9718"
         style="fill:#000000;fill-opacity:1;fill-rule:nonzero;stroke:none"
         d="m 247.035,200.344 v 4.957 h -2.562 c -2.34,0 -3.137,1.14 -3.137,3.363 v 32.25 h -5.809 v -32.59 c 0,-4.277 2.391,-7.98 7.918,-7.98 h 3.59" /><path
         id="path9720"
         style="fill:#000000;fill-opacity:1;fill-rule:nonzero;stroke:none"
         d="m 275.492,214.816 c 0,4.387 -0.344,9.286 -3.246,12.196 -1.598,1.593 -4.101,2.562 -7.012,2.562 -3.074,0 -5.464,-0.742 -7.574,-3.25 v 14.59 h -5.812 v -40.57 h 5.699 v 3.074 c 2.164,-2.617 4.5,-3.414 7.633,-3.414 2.906,0 5.468,0.969 7.066,2.562 2.902,2.903 3.246,7.864 3.246,12.25 m -5.812,0 c 0,-5.128 -0.739,-9.628 -5.985,-9.628 -5.238,0 -6.035,4.5 -6.035,9.628 0,5.125 0.797,9.575 6.035,9.575 5.246,0 5.985,-4.45 5.985,-9.575" /><path
         id="path9722"
         style="fill:#000000;fill-opacity:1;fill-rule:nonzero;stroke:none"
         d="m 304.969,200.344 v 28.886 h -5.809 v -17.605 c 0,-4.445 -2.734,-6.437 -5.98,-6.437 -3.25,0 -5.813,1.937 -5.813,6.437 v 17.605 h -5.812 v -18.46 c 0,-3.247 0.683,-5.981 2.906,-8.145 1.711,-1.652 4.156,-2.621 7.121,-2.621 2.906,0 5.699,1.082 7.691,3.246 v -2.906 h 5.696" /><path
         id="path9724"
         style="fill:#000000;fill-opacity:1;fill-rule:nonzero;stroke:none"
         d="m 335.59,209.176 c 0,5.129 -3.192,7.691 -8.606,8.148 l -4.558,0.399 c -3.074,0.281 -3.988,1.593 -3.988,3.304 0,2.164 1.765,3.703 5.242,3.703 2.734,0 5.297,-0.574 7.121,-2.105 l 3.648,3.699 c -2.676,2.336 -6.383,3.25 -10.711,3.25 -6.039,0 -10.883,-3.191 -10.883,-8.832 0,-5.07 3.133,-7.523 8.547,-7.976 l 4.614,-0.399 c 2.793,-0.23 3.875,-1.48 3.875,-3.418 0,-2.734 -2.793,-3.988 -6.325,-3.988 -2.847,0 -5.984,0.625 -8.32,3.019 l -3.816,-3.816 c 3.422,-3.363 7.41,-4.16 12.136,-4.16 6.895,0 12.024,3.129 12.024,9.172" /><path
         id="path9726"
         style="fill:#000000;fill-opacity:1;fill-rule:nonzero;stroke:none"
         d="m 161.547,168.195 h -0.082 l -4.277,-14.32 h -3.633 l -6.532,20.453 h 4.356 l 3.914,-14.32 h 0.078 l 4.641,14.32 h 2.984 l 4.641,-14.32 h 0.082 l 3.91,14.32 h 4.359 l -6.535,-20.453 h -3.633 l -4.273,14.32" /><path
         id="path9728"
         style="fill:#000000;fill-opacity:1;fill-rule:nonzero;stroke:none"
         d="m 181.859,162.551 c 0,-1.696 0.461,-2.961 1.375,-3.793 0.911,-0.836 2.086,-1.254 3.512,-1.254 0.777,0 1.559,0.18 2.336,0.527 0.809,0.348 1.523,0.832 2.141,1.449 l 2.984,-2.542 c -1.023,-1.18 -2.164,-2.028 -3.43,-2.536 -1.265,-0.511 -2.582,-0.769 -3.957,-0.769 -1.047,0 -2.109,0.144 -3.183,0.445 -1.075,0.293 -2.055,0.832 -2.946,1.613 -0.859,0.778 -1.574,1.84 -2.136,3.188 -0.539,1.34 -0.805,3.062 -0.805,5.16 0,1.992 0.25,3.66 0.762,5.004 0.515,1.344 1.172,2.422 1.98,3.227 0.805,0.835 1.707,1.425 2.699,1.777 1,0.351 1.993,0.523 2.989,0.523 1.129,0 2.207,-0.203 3.222,-0.605 1.024,-0.406 1.914,-0.981 2.664,-1.735 0.782,-0.757 1.399,-1.668 1.856,-2.746 0.461,-1.046 0.687,-2.23 0.687,-3.546 v -3.387 h -12.75 m 8.637,3.387 c -0.055,1.554 -0.484,2.742 -1.293,3.546 -0.805,0.809 -1.812,1.211 -3.023,1.211 -1.211,0 -2.219,-0.402 -3.028,-1.211 -0.804,-0.804 -1.238,-1.992 -1.293,-3.546 h 8.637" /><path
         id="path9730"
         style="fill:#000000;fill-opacity:1;fill-rule:nonzero;stroke:none"
         d="m 198.926,174.328 h 4.113 v -2.18 h 0.082 c 0.645,0.809 1.41,1.411 2.301,1.817 0.914,0.402 1.918,0.605 3.027,0.605 0.832,0 1.598,-0.148 2.297,-0.445 0.699,-0.266 1.359,-0.645 1.977,-1.129 l -2.985,-3.551 c -0.484,0.379 -0.929,0.633 -1.332,0.77 -0.375,0.156 -0.836,0.238 -1.371,0.238 -0.512,0 -1.008,-0.082 -1.492,-0.238 -0.457,-0.164 -0.875,-0.422 -1.254,-0.77 -0.371,-0.347 -0.684,-0.789 -0.926,-1.328 -0.215,-0.539 -0.324,-1.183 -0.324,-1.941 v -12.301 h -4.113 v 20.453" /><path
         id="path9732"
         style="fill:#000000;fill-opacity:1;fill-rule:nonzero;stroke:none"
         d="m 214.602,182.598 h 4.117 V 164.73 h 0.082 l 7.867,9.598 h 4.918 l -7.059,-7.988 8.032,-12.465 h -5.164 l -5.45,9.559 -3.226,-3.668 v -5.891 h -4.117 v 28.723" /><path
         id="path9734"
         style="fill:#000000;fill-opacity:1;fill-rule:nonzero;stroke:none"
         d="m 235.805,180.543 h 4.117 v -6.215 h 2.984 v -3.144 h -2.984 v -11.903 c 0,-0.566 0.105,-0.969 0.324,-1.211 0.238,-0.215 0.613,-0.324 1.129,-0.324 h 1.531 v -3.871 h -2.136 c -1.454,0 -2.653,0.43 -3.594,1.293 -0.91,0.887 -1.371,2.133 -1.371,3.75 v 12.266 h -2.055 v 3.144 h 2.055 v 6.215" /><path
         id="path9736"
         style="fill:#000000;fill-opacity:1;fill-rule:nonzero;stroke:none"
         d="m 257.484,155.691 h -0.082 c -0.433,-0.699 -1.035,-1.222 -1.816,-1.574 -0.75,-0.324 -1.828,-0.484 -3.227,-0.484 -1.129,0 -2.148,0.16 -3.066,0.484 -0.887,0.321 -1.641,0.754 -2.258,1.289 -0.617,0.567 -1.086,1.227 -1.41,1.977 -0.328,0.781 -0.488,1.617 -0.488,2.504 0,0.801 0.136,1.574 0.402,2.301 0.297,0.75 0.715,1.394 1.254,1.933 0.566,0.563 1.266,1.012 2.098,1.332 0.832,0.324 1.8,0.485 2.906,0.485 h 5.687 v 2.132 c 0,0.973 -0.339,1.641 -1.007,2.024 -0.645,0.398 -1.711,0.601 -3.192,0.601 -1.074,0 -1.894,-0.121 -2.461,-0.359 -0.562,-0.215 -1.031,-0.625 -1.41,-1.211 l -3.226,2.461 c 0.777,1.102 1.738,1.867 2.859,2.297 1.164,0.461 2.508,0.687 4.043,0.687 1.258,0 2.418,-0.121 3.461,-0.363 1.051,-0.215 1.941,-0.59 2.668,-1.129 0.75,-0.512 1.328,-1.195 1.734,-2.058 0.43,-0.86 0.641,-1.922 0.641,-3.188 v -13.957 h -4.11 v 1.816 m 0,6.86 h -4.922 c -1.21,0 -2.109,-0.231 -2.703,-0.688 -0.566,-0.429 -0.847,-1.023 -0.847,-1.773 0,-0.703 0.293,-1.305 0.886,-1.817 0.59,-0.515 1.586,-0.769 2.985,-0.769 0.859,0 1.574,0.027 2.14,0.086 0.59,0.078 1.059,0.238 1.407,0.48 0.382,0.242 0.648,0.59 0.812,1.047 0.16,0.485 0.242,1.133 0.242,1.938 v 1.496" /><path
         id="path9738"
         style="fill:#000000;fill-opacity:1;fill-rule:nonzero;stroke:none"
         d="m 278.418,156.012 c -0.645,-0.7 -1.422,-1.278 -2.336,-1.731 -0.914,-0.433 -1.894,-0.648 -2.945,-0.648 -1.348,0 -2.473,0.265 -3.391,0.805 -0.891,0.539 -1.558,1.101 -2.016,1.695 -0.296,0.379 -0.539,0.742 -0.726,1.094 -0.192,0.347 -0.352,0.789 -0.484,1.328 -0.11,0.539 -0.188,1.238 -0.243,2.097 -0.054,0.86 -0.082,2.004 -0.082,3.43 0,1.426 0.028,2.566 0.082,3.426 0.055,0.863 0.133,1.562 0.243,2.097 0.132,0.567 0.292,1.024 0.484,1.375 0.187,0.348 0.43,0.711 0.726,1.086 0.458,0.594 1.125,1.161 2.016,1.7 0.918,0.535 2.043,0.804 3.391,0.804 1.051,0 1.988,-0.203 2.82,-0.605 0.863,-0.406 1.684,-1.008 2.461,-1.817 v 2.18 h 4.117 v -19.969 c 0,-1.531 -0.242,-2.863 -0.723,-3.996 -0.488,-1.125 -1.148,-2.054 -1.98,-2.781 -0.805,-0.754 -1.75,-1.305 -2.824,-1.656 -1.074,-0.375 -2.192,-0.563 -3.348,-0.563 -1.316,0 -2.609,0.325 -3.871,0.969 -1.238,0.617 -2.316,1.438 -3.23,2.461 l 3.187,2.539 c 0.512,-0.512 1.102,-0.941 1.774,-1.293 0.703,-0.371 1.437,-0.562 2.218,-0.562 1.371,0 2.489,0.378 3.348,1.132 0.891,0.75 1.332,1.852 1.332,3.305 v 2.098 m -8.106,8.07 v -1.977 c 0.024,-0.511 0.063,-0.945 0.122,-1.293 0.054,-0.32 0.132,-0.593 0.242,-0.804 0.109,-0.215 0.254,-0.446 0.445,-0.688 0.293,-0.379 0.695,-0.742 1.207,-1.09 0.539,-0.32 1.223,-0.484 2.059,-0.484 0.804,0 1.465,0.164 1.972,0.484 0.539,0.348 0.957,0.711 1.254,1.09 0.188,0.242 0.336,0.473 0.446,0.688 0.109,0.211 0.183,0.484 0.238,0.804 0.055,0.348 0.082,0.782 0.082,1.293 0.027,0.512 0.039,1.168 0.039,1.977 0,0.832 -0.012,1.508 -0.039,2.016 0,0.515 -0.027,0.925 -0.082,1.254 -0.055,0.347 -0.129,0.628 -0.238,0.843 -0.11,0.215 -0.258,0.446 -0.446,0.688 -0.297,0.371 -0.715,0.722 -1.254,1.047 -0.507,0.351 -1.168,0.523 -1.972,0.523 -0.836,0 -1.52,-0.172 -2.059,-0.523 -0.512,-0.325 -0.914,-0.676 -1.207,-1.047 -0.191,-0.242 -0.336,-0.473 -0.445,-0.688 -0.11,-0.215 -0.188,-0.496 -0.242,-0.843 -0.059,-0.329 -0.094,-0.739 -0.122,-1.254 v -2.016" /><path
         id="path9740"
         style="fill:#000000;fill-opacity:1;fill-rule:nonzero;stroke:none"
         d="m 288.488,160.129 c 0.883,-0.863 1.84,-1.524 2.864,-1.977 1.019,-0.433 2.218,-0.648 3.589,-0.648 1.184,0 2.153,0.215 2.903,0.648 0.754,0.453 1.129,1.114 1.129,1.977 0,0.726 -0.239,1.219 -0.727,1.492 -0.48,0.297 -1.074,0.473 -1.773,0.524 l -3.629,0.32 c -1.696,0.137 -3.106,0.687 -4.235,1.656 -1.105,0.996 -1.656,2.379 -1.656,4.152 0,1.051 0.184,1.969 0.567,2.747 0.398,0.781 0.937,1.425 1.609,1.937 0.699,0.535 1.508,0.938 2.422,1.207 0.941,0.27 1.953,0.406 3.027,0.406 1.801,0 3.332,-0.258 4.598,-0.765 1.265,-0.485 2.406,-1.16 3.429,-2.02 l -2.539,-2.984 c -0.808,0.562 -1.64,1.023 -2.504,1.371 -0.859,0.351 -1.855,0.523 -2.984,0.523 -1.316,0 -2.23,-0.242 -2.746,-0.726 -0.508,-0.457 -0.762,-1.035 -0.762,-1.731 0,-0.457 0.184,-0.875 0.563,-1.254 0.402,-0.371 1.117,-0.601 2.137,-0.683 l 3.39,-0.242 c 1.051,-0.082 1.949,-0.297 2.703,-0.649 0.75,-0.32 1.371,-0.765 1.856,-1.328 0.484,-0.539 0.832,-1.172 1.047,-1.894 0.214,-0.704 0.32,-1.454 0.32,-2.262 0,-0.996 -0.211,-1.883 -0.645,-2.664 -0.425,-0.778 -1.031,-1.434 -1.812,-1.977 -0.754,-0.539 -1.656,-0.953 -2.707,-1.25 -1.016,-0.269 -2.117,-0.402 -3.305,-0.402 -1.668,0 -3.254,0.297 -4.758,0.887 -1.507,0.617 -2.921,1.546 -4.238,2.781 l 2.867,2.828" /><path
         id="path9742"
         style="fill:#000000;fill-opacity:1;fill-rule:nonzero;stroke:none"
         d="m 121.227,133.453 h 14.687 v -3.699 l -8.742,-22.117 h -4.129 l 8.734,22.117 h -6.851 v -3.734 h -3.699 v 7.433" /><path
         id="path9744"
         style="fill:#000000;fill-opacity:1;fill-rule:nonzero;stroke:none"
         d="m 140.219,119.531 h 10.918 v -3.699 h -10.918 z" /><path
         id="path9746"
         style="fill:#000000;fill-opacity:1;fill-rule:nonzero;stroke:none"
         d="m 162.723,107.637 h -4.133 l 5.437,10.918 h -0.07 c -0.269,-0.121 -0.578,-0.207 -0.945,-0.254 -0.364,-0.047 -0.7,-0.078 -1.016,-0.078 -0.82,0 -1.605,0.136 -2.355,0.402 -0.723,0.293 -1.379,0.727 -1.957,1.305 -0.559,0.578 -1.004,1.32 -1.34,2.211 -0.344,0.921 -0.508,2.007 -0.508,3.265 0,1.477 0.219,2.731 0.648,3.77 0.438,1.062 1.004,1.922 1.707,2.574 0.727,0.676 1.536,1.164 2.43,1.453 0.918,0.309 1.859,0.473 2.828,0.473 0.895,0 1.762,-0.184 2.61,-0.547 0.871,-0.363 1.644,-0.883 2.316,-1.559 0.68,-0.679 1.223,-1.511 1.637,-2.504 0.406,-0.964 0.613,-2.054 0.613,-3.261 0,-1.571 -0.328,-3.008 -0.977,-4.317 l -6.925,-13.851 m 0.507,13.851 c 1.016,0 1.883,0.34 2.61,1.016 0.722,0.703 1.09,1.777 1.09,3.226 0,1.45 -0.34,2.516 -1.016,3.192 -0.656,0.703 -1.547,1.051 -2.684,1.051 -0.433,0 -0.871,-0.086 -1.304,-0.254 -0.438,-0.145 -0.832,-0.387 -1.196,-0.723 -0.339,-0.34 -0.628,-0.773 -0.871,-1.305 -0.218,-0.535 -0.328,-1.187 -0.328,-1.961 0,-1.449 0.364,-2.523 1.09,-3.226 0.723,-0.676 1.59,-1.016 2.609,-1.016" /><path
         id="path9748"
         style="fill:#000000;fill-opacity:1;fill-rule:nonzero;stroke:none"
         d="m 177.695,107.637 v 25.816 h 3.7 v -9.211 h 0.074 c 0.383,0.586 0.847,1.055 1.375,1.414 0.554,0.391 1.258,0.582 2.101,0.582 h 0.293 c 0.871,-0.07 1.664,-0.445 2.395,-1.121 0.746,-0.679 1.121,-1.805 1.121,-3.375 v -14.105 h -3.695 v 12.73 c 0,0.676 -0.161,1.207 -0.473,1.594 -0.316,0.387 -0.762,0.582 -1.34,0.582 -0.68,0 -1.16,-0.219 -1.453,-0.652 -0.266,-0.438 -0.398,-1.067 -0.398,-1.887 v -12.367 h -3.7" /><path
         id="path9750"
         style="fill:#000000;fill-opacity:1;fill-rule:nonzero;stroke:none"
         d="m 239.414,129.539 -3.66,-2.684 v 3.915 l 3.66,2.683 h 3.699 v -25.816 h -3.699 v 21.902" /><path
         id="path9752"
         style="fill:#000000;fill-opacity:1;fill-rule:nonzero;stroke:none"
         d="m 254.449,129.539 -3.66,-2.684 v 3.915 l 3.66,2.683 h 3.699 v -25.816 h -3.699 v 21.902" /><path
         id="path9754"
         style="fill:#000000;fill-opacity:1;fill-rule:nonzero;stroke:none"
         d="m 264.371,119.531 h 10.914 v -3.699 h -10.914 z" /><path
         id="path9756"
         style="fill:#000000;fill-opacity:1;fill-rule:nonzero;stroke:none"
         d="m 284.625,129.539 -3.66,-2.684 v 3.915 l 3.66,2.683 h 3.699 v -25.816 h -3.699 v 21.902" /><path
         id="path9758"
         style="fill:#000000;fill-opacity:1;fill-rule:nonzero;stroke:none"
         d="m 300.305,122.578 h 1.265 c 1.235,0 2.203,0.336 2.903,1.016 0.722,0.699 1.086,1.582 1.086,2.644 0,0.535 -0.094,1.016 -0.289,1.453 -0.196,0.457 -0.469,0.856 -0.836,1.196 -0.336,0.34 -0.735,0.601 -1.196,0.797 -0.457,0.191 -0.941,0.293 -1.449,0.293 -0.769,0 -1.512,-0.258 -2.211,-0.762 -0.699,-0.512 -1.148,-1.297 -1.34,-2.36 h -3.699 c 0.07,0.918 0.316,1.79 0.727,2.614 0.41,0.82 0.929,1.543 1.554,2.172 0.657,0.632 1.395,1.125 2.215,1.488 0.82,0.363 1.692,0.547 2.61,0.547 1.16,0 2.199,-0.211 3.117,-0.621 0.945,-0.41 1.738,-0.965 2.394,-1.664 0.676,-0.68 1.196,-1.465 1.559,-2.36 0.363,-0.867 0.543,-1.777 0.543,-2.722 0,-0.989 -0.196,-1.954 -0.578,-2.895 -0.364,-0.922 -1.086,-1.73 -2.18,-2.434 1.094,-0.699 1.863,-1.558 2.324,-2.574 0.481,-0.988 0.723,-2.015 0.723,-3.078 0,-1.211 -0.203,-2.297 -0.617,-3.266 -0.387,-0.964 -0.938,-1.8 -1.668,-2.503 -0.7,-0.672 -1.532,-1.204 -2.5,-1.594 -0.942,-0.363 -1.957,-0.539 -3.043,-0.539 -0.875,0 -1.719,0.14 -2.539,0.429 -0.797,0.29 -1.524,0.715 -2.176,1.27 -0.656,0.555 -1.207,1.246 -1.668,2.066 -0.461,0.821 -0.774,1.778 -0.941,2.864 h 3.699 c 0.336,-0.891 0.793,-1.606 1.375,-2.137 0.582,-0.531 1.402,-0.801 2.465,-0.801 0.507,0 0.992,0.102 1.449,0.293 0.484,0.192 0.91,0.461 1.273,0.801 0.36,0.359 0.649,0.793 0.871,1.305 0.215,0.504 0.325,1.07 0.325,1.703 0,1.304 -0.403,2.304 -1.196,3.004 -0.777,0.726 -1.707,1.093 -2.793,1.093 h -1.558 v 3.262" /><path
         id="path9760"
         style="fill:#000000;fill-opacity:1;fill-rule:nonzero;stroke:none"
         d="m 317.824,107.637 v 25.816 h 3.699 v -9.211 h 0.071 c 0.39,0.586 0.847,1.055 1.379,1.414 0.558,0.391 1.261,0.582 2.105,0.582 h 0.289 c 0.867,-0.07 1.668,-0.445 2.391,-1.121 0.746,-0.679 1.125,-1.805 1.125,-3.375 v -14.105 h -3.699 v 12.73 c 0,0.676 -0.157,1.207 -0.473,1.594 -0.313,0.387 -0.758,0.582 -1.34,0.582 -0.672,0 -1.16,-0.219 -1.449,-0.652 -0.266,-0.438 -0.399,-1.067 -0.399,-1.887 v -12.367 h -3.699" /><path
         id="path9762"
         style="fill:#000000;fill-opacity:1;fill-rule:nonzero;stroke:none"
         d="m 336.578,62.5 v 2.07 c -1.402,-1.547 -3.133,-2.32 -5.18,-2.32 -1.312,0 -2.418,0.258 -3.304,0.773 -0.879,0.528 -1.539,1.082 -1.989,1.665 -0.582,0.746 -0.984,1.539 -1.199,2.374 -0.207,0.836 -0.312,2.649 -0.312,5.434 0,2.781 0.105,4.59 0.312,5.43 0.215,0.84 0.617,1.636 1.199,2.394 0.45,0.567 1.11,1.118 1.989,1.645 0.886,0.543 1.992,0.812 3.304,0.812 1.961,0 3.684,-0.793 5.18,-2.379 v 2.145 h 4.039 V 62.949 c 0,-3.019 -0.883,-5.242 -2.648,-6.672 -1.75,-1.429 -3.77,-2.144 -6.051,-2.144 -1.285,0 -2.547,0.308 -3.785,0.926 -1.238,0.621 -2.301,1.433 -3.192,2.437 l 3.133,2.492 c 0.492,-0.488 1.071,-0.914 1.738,-1.273 0.684,-0.363 1.411,-0.543 2.188,-0.543 1.34,0 2.434,0.375 3.285,1.121 0.863,0.746 1.293,1.816 1.293,3.207 z m -7.945,9.996 c 0,-1.613 0.043,-2.68 0.117,-3.211 0.094,-0.527 0.316,-1.015 0.68,-1.465 0.269,-0.363 0.668,-0.711 1.195,-1.047 0.527,-0.335 1.199,-0.503 2.012,-0.503 0.785,0 1.437,0.168 1.953,0.503 0.527,0.336 0.933,0.684 1.215,1.047 0.347,0.45 0.558,0.938 0.636,1.465 0.094,0.531 0.137,1.598 0.137,3.211 0,1.609 -0.043,2.68 -0.137,3.207 -0.078,0.527 -0.289,1.027 -0.636,1.488 -0.282,0.348 -0.688,0.688 -1.215,1.024 -0.516,0.347 -1.168,0.519 -1.953,0.519 -0.813,0 -1.485,-0.172 -2.012,-0.519 -0.527,-0.336 -0.926,-0.676 -1.195,-1.024 -0.364,-0.461 -0.586,-0.961 -0.68,-1.488 -0.074,-0.527 -0.117,-1.598 -0.117,-3.207 z" /><path
         id="path9764"
         style="fill:#000000;fill-opacity:1;fill-rule:nonzero;stroke:none"
         d="m 101.539,62.406 v 1.778 h -0.078 c -0.371,-0.696 -0.934,-1.2 -1.68,-1.508 -0.797,-0.336 -1.84,-0.504 -3.129,-0.504 -2.218,0.051 -3.894,0.644 -5.027,1.781 -1.238,1.133 -1.855,2.582 -1.855,4.344 0,1.68 0.535,3.082 1.605,4.219 1.066,1.132 2.645,1.711 4.734,1.738 h 5.43 v 2.129 c 0.016,1.773 -1.32,2.637 -4,2.586 -0.93,0 -1.703,-0.102 -2.32,-0.313 -0.606,-0.269 -1.063,-0.687 -1.371,-1.254 l -3.094,2.434 c 1.496,2 3.691,2.973 6.594,2.922 2.433,0.023 4.394,-0.453 5.871,-1.43 1.457,-1.019 2.199,-2.746 2.226,-5.18 V 62.406 Z m 0,7.055 v 1.465 h -4.695 c -2.297,-0.059 -3.426,-0.871 -3.403,-2.434 0,-0.668 0.297,-1.25 0.891,-1.738 0.566,-0.527 1.504,-0.793 2.801,-0.793 1.648,-0.023 2.808,0.172 3.48,0.598 0.617,0.429 0.926,1.39 0.926,2.902 z" /><path
         id="path9766"
         style="fill:#000000;fill-opacity:1;fill-rule:nonzero;stroke:none"
         d="m 109.852,69.211 v 13.332 h 4.039 V 70.578 c 0,-1.363 0.375,-2.426 1.121,-3.187 0.758,-0.746 1.722,-1.121 2.879,-1.121 1.121,0 2.054,0.375 2.804,1.121 0.758,0.761 1.141,1.824 1.141,3.187 v 11.965 h 4.039 V 62.484 h -4.039 v 2.121 h -0.078 c -1.25,-1.57 -2.977,-2.355 -5.18,-2.355 -1.586,0 -3.109,0.586 -4.562,1.758 -1.442,1.183 -2.164,2.922 -2.164,5.203 z" /><path
         id="path9768"
         style="fill:#000000;fill-opacity:1;fill-rule:nonzero;stroke:none"
         d="m 138.551,77.75 v 3.789 h 2.418 c 1.418,0 2.129,0.781 2.129,2.34 0,1.031 -0.211,1.746 -0.621,2.144 -0.735,0.594 -1.899,0.872 -3.5,0.832 -1.469,-0.039 -2.489,-0.273 -3.071,-0.699 -0.57,-0.406 -0.871,-1.023 -0.91,-1.832 v -21.84 h -4.039 v 21.84 c 0,2.199 0.789,3.844 2.379,4.93 1.598,1.094 3.613,1.641 6.047,1.641 2.293,0 4.156,-0.614 5.586,-1.836 1.445,-1.211 2.168,-2.832 2.168,-4.852 0,-2.18 -0.965,-3.676 -2.883,-4.484 1.918,-0.77 2.883,-2.239 2.883,-4.387 v -7.168 c 0,-1.578 -0.516,-2.918 -1.551,-4.023 -1.016,-1.11 -2.359,-1.661 -4.016,-1.661 h -2.492 v 3.786 h 1.406 c 1.743,0 2.614,0.703 2.614,2.109 v 7.035 c 0,1.555 -0.739,2.336 -2.207,2.336 z" /><path
         id="path9770"
         style="fill:#000000;fill-opacity:1;fill-rule:nonzero;stroke:none"
         d="m 167.758,70.988 h -12.485 c 0,-1.648 0.446,-2.886 1.332,-3.711 0.903,-0.824 2.047,-1.238 3.442,-1.238 1.66,0 3.129,0.645 4.402,1.934 l 2.918,-2.493 c -0.984,-1.164 -2.109,-1.992 -3.359,-2.496 -1.238,-0.492 -2.531,-0.734 -3.887,-0.734 -2.059,0 -4.055,0.664 -5.992,1.992 -1.93,1.34 -2.899,4.07 -2.899,8.196 0,3.902 0.891,6.601 2.668,8.093 1.793,1.496 3.661,2.246 5.606,2.246 2.203,0 4.129,-0.769 5.777,-2.3 1.653,-1.52 2.477,-3.579 2.477,-6.165 z m -12.485,3.324 h 8.461 c -0.058,1.508 -0.484,2.657 -1.273,3.461 -0.785,0.797 -1.773,1.196 -2.957,1.196 -1.199,0 -2.199,-0.399 -2.996,-1.196 -0.785,-0.804 -1.199,-1.953 -1.235,-3.461 z" /><path
         id="path9772"
         style="fill:#000000;fill-opacity:1;fill-rule:nonzero;stroke:none"
         d="m 172.008,62.484 v 20.059 h 4.039 v -2.145 h 0.078 c 1.254,1.586 2.992,2.379 5.219,2.379 1.468,0 2.867,-0.515 4.195,-1.547 l -2.918,-3.48 c -0.879,0.66 -1.766,0.984 -2.668,0.984 -0.992,0 -1.894,-0.332 -2.707,-1.004 -0.797,-0.652 -1.199,-1.718 -1.199,-3.187 V 62.484 Z" /><path
         id="path9774"
         style="fill:#000000;fill-opacity:1;fill-rule:nonzero;stroke:none"
         d="m 197.68,65.828 2.824,2.781 c 1.75,-1.714 3.859,-2.57 6.32,-2.57 1.149,0 2.094,0.211 2.84,0.637 0.746,0.441 1.125,1.082 1.125,1.933 0,1.172 -0.82,1.832 -2.457,1.969 l -3.559,0.332 c -1.664,0.129 -3.039,0.676 -4.132,1.645 -1.094,0.961 -1.645,2.308 -1.645,4.039 0,2.035 0.715,3.574 2.145,4.617 1.429,1.043 3.211,1.566 5.336,1.566 1.75,0 3.253,-0.254 4.5,-0.754 1.253,-0.488 2.375,-1.144 3.367,-1.972 l -2.492,-2.938 c -0.801,0.543 -1.629,0.985 -2.477,1.332 -0.852,0.348 -1.816,0.524 -2.898,0.524 -1.289,0 -2.188,-0.235 -2.688,-0.696 -0.5,-0.449 -0.754,-1.023 -0.754,-1.722 0,-0.438 0.188,-0.84 0.559,-1.215 0.375,-0.371 1.07,-0.598 2.09,-0.676 l 3.324,-0.23 c 2.07,-0.145 3.562,-0.789 4.465,-1.934 0.898,-1.137 1.355,-2.496 1.355,-4.082 0,-1.969 -0.808,-3.488 -2.418,-4.559 -1.613,-1.066 -3.578,-1.605 -5.898,-1.605 -3.332,0 -6.278,1.191 -8.832,3.578 z" /><path
         id="path9776"
         style="fill:#000000;fill-opacity:1;fill-rule:nonzero;stroke:none"
         d="m 231.055,62.406 v 1.778 h -0.078 c -0.375,-0.696 -0.934,-1.2 -1.68,-1.508 -0.805,-0.336 -1.848,-0.504 -3.133,-0.504 -2.219,0.051 -3.891,0.644 -5.027,1.781 -1.235,1.133 -1.856,2.582 -1.856,4.344 0,1.68 0.539,3.082 1.606,4.219 1.07,1.132 2.648,1.711 4.734,1.738 h 5.434 v 2.129 c 0.011,1.773 -1.325,2.637 -4.004,2.586 -0.926,0 -1.699,-0.102 -2.317,-0.313 -0.605,-0.269 -1.062,-0.687 -1.375,-1.254 l -3.089,2.434 c 1.492,2 3.691,2.973 6.589,2.922 2.438,0.023 4.391,-0.453 5.875,-1.43 1.457,-1.019 2.2,-2.746 2.223,-5.18 V 62.406 Z m 0,7.055 v 1.465 h -4.7 c -2.293,-0.059 -3.429,-0.871 -3.402,-2.434 0,-0.668 0.297,-1.25 0.891,-1.738 0.566,-0.527 1.5,-0.793 2.804,-0.793 1.649,-0.023 2.809,0.172 3.481,0.598 0.613,0.429 0.926,1.39 0.926,2.902 z" /><path
         id="path9778"
         style="fill:#000000;fill-opacity:1;fill-rule:nonzero;stroke:none"
         d="m 239.598,62.484 v 20.059 h 4.039 v -2.145 h 0.078 c 1.273,1.586 3.012,2.379 5.215,2.379 1.406,0 2.523,-0.254 3.347,-0.754 0.825,-0.503 1.594,-1.121 2.317,-1.855 1.586,1.738 3.699,2.609 6.34,2.609 1.558,0 3.062,-0.593 4.504,-1.777 1.457,-1.188 2.183,-2.914 2.183,-5.18 V 62.484 h -4.043 V 74.43 c 0,1.351 -0.375,2.406 -1.137,3.168 -0.761,0.761 -1.699,1.136 -2.824,1.136 -1.156,0 -2.117,-0.375 -2.879,-1.136 -0.746,-0.762 -1.121,-1.817 -1.121,-3.168 V 62.484 h -4.019 V 74.43 c 0,1.351 -0.379,2.406 -1.141,3.168 -0.758,0.761 -1.699,1.136 -2.82,1.136 -1.16,0 -2.121,-0.375 -2.879,-1.136 -0.75,-0.762 -1.121,-1.817 -1.121,-3.168 V 62.484 Z" /><path
         id="path9780"
         style="fill:#000000;fill-opacity:1;fill-rule:nonzero;stroke:none"
         d="m 270.773,65.828 2.821,2.781 c 1.754,-1.714 3.859,-2.57 6.32,-2.57 1.145,0 2.094,0.211 2.84,0.637 0.746,0.441 1.121,1.082 1.121,1.933 0,1.172 -0.816,1.832 -2.453,1.969 l -3.555,0.332 c -1.664,0.129 -3.043,0.676 -4.14,1.645 -1.094,0.961 -1.641,2.308 -1.641,4.039 0,2.035 0.715,3.574 2.144,4.617 1.43,1.043 3.211,1.566 5.336,1.566 1.754,0 3.254,-0.254 4.504,-0.754 1.25,-0.488 2.368,-1.144 3.364,-1.972 l -2.496,-2.938 c -0.797,0.543 -1.622,0.985 -2.473,1.332 -0.848,0.348 -1.817,0.524 -2.899,0.524 -1.289,0 -2.183,-0.235 -2.683,-0.696 -0.508,-0.449 -0.758,-1.023 -0.758,-1.722 0,-0.438 0.187,-0.84 0.563,-1.215 0.371,-0.371 1.07,-0.598 2.085,-0.676 l 3.325,-0.23 c 2.074,-0.145 3.562,-0.789 4.464,-1.934 0.903,-1.137 1.352,-2.496 1.352,-4.082 0,-1.969 -0.805,-3.488 -2.418,-4.559 -1.605,-1.066 -3.57,-1.605 -5.891,-1.605 -3.339,0 -6.285,1.191 -8.832,3.578 z" /><path
         id="path9782"
         style="fill:#000000;fill-opacity:1;fill-rule:nonzero;stroke:none"
         d="m 293.746,82.543 v 6.09 h 4.039 v -6.09 h 2.938 v -3.09 h -2.938 V 67.777 c 0,-1.004 0.477,-1.507 1.43,-1.507 h 1.508 v -3.786 h -2.106 c -1.406,0 -2.574,0.422 -3.5,1.274 -0.914,0.847 -1.371,2.07 -1.371,3.652 v 12.043 h -2.012 v 3.09 z" /><path
         id="path9784"
         style="fill:#000000;fill-opacity:1;fill-rule:nonzero;stroke:none"
         d="m 315.121,62.406 v 1.778 h -0.078 c -0.371,-0.696 -0.934,-1.2 -1.68,-1.508 -0.801,-0.336 -1.843,-0.504 -3.133,-0.504 -2.214,0.051 -3.89,0.644 -5.023,1.781 -1.238,1.133 -1.855,2.582 -1.855,4.344 0,1.68 0.535,3.082 1.601,4.219 1.07,1.132 2.649,1.711 4.738,1.738 h 5.43 v 2.129 c 0.016,1.773 -1.316,2.637 -4,2.586 -0.93,0 -1.703,-0.102 -2.32,-0.313 -0.606,-0.269 -1.063,-0.687 -1.371,-1.254 l -3.094,2.434 c 1.496,2 3.691,2.973 6.59,2.922 2.437,0.023 4.398,-0.453 5.875,-1.43 1.457,-1.019 2.199,-2.746 2.222,-5.18 V 62.406 Z m 0,7.055 v 1.465 h -4.695 c -2.297,-0.059 -3.426,-0.871 -3.403,-2.434 0,-0.668 0.297,-1.25 0.891,-1.738 0.563,-0.527 1.5,-0.793 2.801,-0.793 1.648,-0.023 2.808,0.172 3.48,0.598 0.617,0.429 0.926,1.39 0.926,2.902 z" /><path
         id="path9786"
         style="fill:#000000;fill-opacity:1;fill-rule:nonzero;stroke:none"
         d="m 343.199,65.828 2.821,2.781 c 1.753,-1.714 3.859,-2.57 6.32,-2.57 1.144,0 2.094,0.211 2.84,0.637 0.746,0.441 1.121,1.082 1.121,1.933 0,1.172 -0.817,1.832 -2.453,1.969 l -3.555,0.332 c -1.664,0.129 -3.043,0.676 -4.141,1.645 -1.093,0.961 -1.64,2.308 -1.64,4.039 0,2.035 0.715,3.574 2.148,4.617 1.426,1.043 3.207,1.566 5.332,1.566 1.754,0 3.254,-0.254 4.504,-0.754 1.25,-0.488 2.367,-1.144 3.363,-1.972 l -2.496,-2.938 c -0.797,0.543 -1.621,0.985 -2.472,1.332 -0.848,0.348 -1.817,0.524 -2.899,0.524 -1.289,0 -2.183,-0.235 -2.683,-0.696 -0.508,-0.449 -0.758,-1.023 -0.758,-1.722 0,-0.438 0.187,-0.84 0.562,-1.215 0.371,-0.371 1.067,-0.598 2.086,-0.676 l 3.324,-0.23 c 2.075,-0.145 3.567,-0.789 4.465,-1.934 0.903,-1.137 1.352,-2.496 1.352,-4.082 0,-1.969 -0.805,-3.488 -2.414,-4.559 -1.61,-1.066 -3.574,-1.605 -5.895,-1.605 -3.34,0 -6.281,1.191 -8.832,3.578 z" /></g></g></svg>