<?xml version="1.0" encoding="UTF-8" standalone="no"?>
<svg
   viewBox="0 0 600.995 600.995"
   height="600.995"
   width="600.995"
   xml:space="preserve"
   id="svg4827"
   version="1.1"
   sodipodi:docname="DE:262.svg"
   inkscape:version="1.1.2 (0a00cf5339, 2022-02-04)"
   xmlns:inkscape="http://www.inkscape.org/namespaces/inkscape"
   xmlns:sodipodi="http://sodipodi.sourceforge.net/DTD/sodipodi-0.dtd"
   xmlns="http://www.w3.org/2000/svg"
   xmlns:svg="http://www.w3.org/2000/svg"
   xmlns:rdf="http://www.w3.org/1999/02/22-rdf-syntax-ns#"
   xmlns:cc="http://creativecommons.org/ns#"
   xmlns:dc="http://purl.org/dc/elements/1.1/"><sodipodi:namedview
     id="namedview38"
     pagecolor="#ffffff"
     bordercolor="#666666"
     borderopacity="1.0"
     inkscape:pageshadow="2"
     inkscape:pageopacity="0.0"
     inkscape:pagecheckerboard="0"
     showgrid="false"
     inkscape:zoom="1.4292964"
     inkscape:cx="300.4975"
     inkscape:cy="300.84732"
     inkscape:window-width="1920"
     inkscape:window-height="1011"
     inkscape:window-x="0"
     inkscape:window-y="32"
     inkscape:window-maximized="1"
     inkscape:current-layer="svg4827" /><metadata
     id="metadata4833"><rdf:RDF><cc:Work
         rdf:about=""><dc:format>image/svg+xml</dc:format><dc:type
           rdf:resource="http://purl.org/dc/dcmitype/StillImage" /></cc:Work></rdf:RDF></metadata><defs
     id="defs4831" /><path
     id="path4839"
     style="fill:#ffffff;fill-opacity:1;fill-rule:nonzero;stroke:none;stroke-width:1.33333"
     d="m 600.49998,300.50033 c 0,165.68666 -134.31199,299.99999 -299.99999,299.99999 C 134.812,600.50032 0.49999999,466.18699 0.49999999,300.50033 0.49999999,134.81233 134.812,0.50033835 300.49999,0.50033835 c 165.688,0 299.99999,134.31199165 299.99999,299.99999165 z" /><path
     id="path4841"
     style="fill:#000000;fill-opacity:1;fill-rule:nonzero;stroke:none;stroke-width:1.33333"
     d="M 300.49999,3.383582e-4 C 134.54133,3.383582e-4 0,134.54167 0,300.50033 c 0,165.95333 134.54133,300.49466 300.49999,300.49466 165.95333,0 300.49466,-134.54133 300.49466,-300.49466 C 600.99465,134.54167 466.45332,3.383582e-4 300.49999,3.383582e-4 Z m 0,0.4999999918 c 165.688,0 299.99999,134.31199165 299.99999,299.99999165 0,165.68666 -134.31199,299.99999 -299.99999,299.99999 C 134.812,600.50032 0.49999999,466.18699 0.49999999,300.50033 0.49999999,134.81233 134.812,0.50033835 300.49999,0.50033835 Z" /><path
     id="path4843"
     style="fill:#c1121c;fill-opacity:1;fill-rule:nonzero;stroke:none;stroke-width:1.33333"
     d="M 300.49999,10.500338 C 140.812,10.500338 10.5,140.81233 10.5,300.50033 c 0,159.68133 130.312,289.99999 289.99999,289.99999 159.68267,0 290,-130.31866 290,-289.99999 0,-159.688 -130.31733,-289.999992 -290,-289.999992 z m 0,80.401331 c 116.23467,0 209.59866,93.358661 209.59866,209.598661 0,116.23466 -93.36399,209.59866 -209.59866,209.59866 -116.23999,0 -209.598659,-93.364 -209.598659,-209.59866 0,-116.24 93.358669,-209.598661 209.598659,-209.598661 z" /><path
     id="path4845"
     style="fill:#000000;fill-opacity:1;fill-rule:nonzero;stroke:none;stroke-width:1.33333"
     d="m 29.791999,30.353671 v 0.032 h -0.032 z" /><path
     id="path4847"
     style="fill:#000000;fill-opacity:1;fill-rule:nonzero;stroke:none;stroke-width:1.33333"
     d="m 29.759999,30.353671 h 0.03067 v 0.03067 h -0.03067 z" /><path
     id="path4849"
     style="fill:#000000;fill-opacity:1;fill-rule:nonzero;stroke:none;stroke-width:1.33333"
     d="m 29.759999,30.385671 v -0.032 l 0.032,0.032 z m 0.032,0 -0.032,-0.032 v 0.032 z" /><path
     id="path4851"
     style="fill:#000000;fill-opacity:1;fill-rule:nonzero;stroke:none;stroke-width:1.33333"
     d="m 29.822666,30.385671 h -0.06267 0.032 v -0.032 z" /><path
     id="path4853"
     style="fill:#000000;fill-opacity:1;fill-rule:nonzero;stroke:none;stroke-width:1.33333"
     d="m 29.759999,30.385671 v -0.032 0.032 l 0.032,-0.032 z" /><path
     id="path4855"
     style="fill:#000000;fill-opacity:1;fill-rule:nonzero;stroke:none;stroke-width:1.33333"
     d="m 29.759999,30.353671 h 0.03067 v 0.03067 h -0.03067 z" /><path
     id="path4857"
     style="fill:#000000;fill-opacity:1;fill-rule:nonzero;stroke:none;stroke-width:1.33333"
     d="m 29.822666,30.353671 v 0.06267 h -0.06267 z" /><path
     id="path4859"
     style="fill:#000000;fill-opacity:1;fill-rule:nonzero;stroke:none;stroke-width:1.33333"
     d="m 29.759999,30.353671 h 0.06267 v 0.06267 h -0.06267 z" /><path
     id="path4861"
     style="fill:#000000;fill-opacity:1;fill-rule:nonzero;stroke:none;stroke-width:1.33333"
     d="m 29.759999,30.416338 v -0.06267 l 0.06267,0.06267 z m 0.06267,0 -0.06267,-0.06267 v 0.06267 z" /><path
     id="path4863"
     style="fill:#000000;fill-opacity:1;fill-rule:nonzero;stroke:none;stroke-width:1.33333"
     d="m 29.822666,30.416338 h -0.06267 0.032 v -0.06267 z" /><path
     id="path4865"
     style="fill:#000000;fill-opacity:1;fill-rule:nonzero;stroke:none;stroke-width:1.33333"
     d="m 29.759999,30.416338 v -0.06267 0.06267 l 0.06267,-0.06267 z" /><path
     id="path4867"
     style="fill:#000000;fill-opacity:1;fill-rule:nonzero;stroke:none;stroke-width:1.33333"
     d="m 29.759999,30.353671 h 0.06267 v 0.06267 h -0.06267 z" /><path
     id="path4869"
     style="fill:#000000;fill-opacity:1;fill-rule:nonzero;stroke:none;stroke-width:1.33333"
     d="m 29.822666,30.353671 v 0.06267 h -0.06267 z" /><path
     id="path4871"
     style="fill:#000000;fill-opacity:1;fill-rule:nonzero;stroke:none;stroke-width:1.33333"
     d="m 29.759999,30.353671 h 0.06267 v 0.06267 h -0.06267 z" /><path
     id="path4873"
     style="fill:#000000;fill-opacity:1;fill-rule:nonzero;stroke:none;stroke-width:1.33333"
     d="m 29.759999,30.416338 v -0.06267 l 0.06267,0.06267 z m 0.06267,0 -0.06267,-0.06267 v 0.06267 z" /><path
     id="path4875"
     style="fill:#000000;fill-opacity:1;fill-rule:nonzero;stroke:none;stroke-width:1.33333"
     d="m 29.822666,30.416338 h -0.06267 0.032 v -0.06267 z" /><path
     id="path4877"
     style="fill:#000000;fill-opacity:1;fill-rule:nonzero;stroke:none;stroke-width:1.33333"
     d="m 29.759999,30.416338 v -0.06267 0.06267 l 0.06267,-0.06267 z" /><path
     id="path4879"
     style="fill:#000000;fill-opacity:1;fill-rule:nonzero;stroke:none;stroke-width:1.33333"
     d="m 29.759999,30.353671 h 0.06267 v 0.06267 h -0.06267 z" /><path
     id="path4881"
     style="fill:#000000;fill-opacity:1;fill-rule:nonzero;stroke:none;stroke-width:1.33333"
     d="m 29.822666,30.353671 v 0.06267 h -0.06267 z" /><path
     id="path4883"
     style="fill:#000000;fill-opacity:1;fill-rule:nonzero;stroke:none;stroke-width:1.33333"
     d="m 29.759999,30.353671 h 0.06267 v 0.06267 h -0.06267 z" /><path
     id="path4885"
     style="fill:#000000;fill-opacity:1;fill-rule:nonzero;stroke:none;stroke-width:1.33333"
     d="m 29.759999,30.416338 v -0.06267 l 0.06267,0.06267 z m 0.06267,0 -0.06267,-0.06267 v 0.06267 z" /><path
     id="path4887"
     style="fill:#000000;fill-opacity:1;fill-rule:nonzero;stroke:none;stroke-width:1.33333"
     d="m 29.822666,30.416338 h -0.06267 0.032 v -0.06267 z" /><path
     id="path4889"
     style="fill:#000000;fill-opacity:1;fill-rule:nonzero;stroke:none;stroke-width:1.33333"
     d="m 29.759999,30.416338 v -0.06267 0.06267 l 0.06267,-0.06267 z" /><path
     id="path4891"
     style="fill:#000000;fill-opacity:1;fill-rule:nonzero;stroke:none;stroke-width:1.33333"
     d="m 29.759999,30.353671 h 0.06267 v 0.06267 h -0.06267 z" /><path
     id="path4899"
     style="fill:#000000;fill-opacity:1;fill-rule:nonzero;stroke:none;stroke-width:1.33333"
     d="m 416.30666,278.511 h -12.78534 v 20.05733 h 12.78534 v 77.21333 c 0,13.536 7.772,29.83333 30.83333,29.83333 h 10.532 V 381.547 c -11.28133,0 -15.79733,-0.75467 -15.79733,-12.536 v -70.44267 h 15.79733 V 278.511 h -15.79733 v -38.60933 h -25.568 z" /><text
     xml:space="preserve"
     style="font-size:333.333px;line-height:1.25;font-family:sans-serif;word-spacing:0px"
     x="144.40285"
     y="408.27853"
     id="text1664"><tspan
       sodipodi:role="line"
       id="tspan1662"
       x="144.40285"
       y="408.27853"
       style="font-size:333.333px;fill:#ff00ff">X</tspan></text></svg>
