<?xml version="1.0" encoding="UTF-8" standalone="no"?>
<svg
   id="svg6600"
   version="1.1"
   xml:space="preserve"
   width="901"
   height="901"
   viewBox="0 0 901 901"
   sodipodi:docname="Zeichen_206_-_Halt!_Vorfahrt_gewähren!_StVO_1970.svg"
   inkscape:version="1.1.2 (b8e25be833, 2022-02-05)"
   xmlns:inkscape="http://www.inkscape.org/namespaces/inkscape"
   xmlns:sodipodi="http://sodipodi.sourceforge.net/DTD/sodipodi-0.dtd"
   xmlns="http://www.w3.org/2000/svg"
   xmlns:svg="http://www.w3.org/2000/svg"
   xmlns:rdf="http://www.w3.org/1999/02/22-rdf-syntax-ns#"
   xmlns:cc="http://creativecommons.org/ns#"
   xmlns:dc="http://purl.org/dc/elements/1.1/"><sodipodi:namedview
     id="namedview11"
     pagecolor="#ffffff"
     bordercolor="#666666"
     borderopacity="1.0"
     inkscape:pageshadow="2"
     inkscape:pageopacity="0.0"
     inkscape:pagecheckerboard="0"
     showgrid="false"
     inkscape:object-paths="false"
     inkscape:snap-intersection-paths="false"
     inkscape:snap-smooth-nodes="false"
     inkscape:snap-bbox="false"
     inkscape:snap-bbox-edge-midpoints="false"
     inkscape:bbox-nodes="false"
     showguides="true"
     inkscape:guide-bbox="true"
     inkscape:snap-bbox-midpoints="false"
     inkscape:zoom="0.86459489"
     inkscape:cx="450.5"
     inkscape:cy="450.5"
     inkscape:window-width="1920"
     inkscape:window-height="1001"
     inkscape:window-x="-9"
     inkscape:window-y="-9"
     inkscape:window-maximized="1"
     inkscape:current-layer="svg6600" /><metadata
     id="metadata6606"><rdf:RDF><cc:Work
         rdf:about=""><dc:format>image/svg+xml</dc:format><dc:type
           rdf:resource="http://purl.org/dc/dcmitype/StillImage" /></cc:Work></rdf:RDF></metadata><defs
     id="defs6604" /><g
     id="g6608"
     transform="matrix(1.25,0,0,-1.25,0,900.99999)"><g
       id="g6610"><path
         d="m 225.20793,0.399992 c -8.91827,0 -17.46118,3.5390821 -23.76887,9.843954 L 10.24397,201.43905 C 3.93908,207.74392 0.4,216.28964 0.4,225.19662 v 270.40393 c 0,8.90978 3.53908,17.45269 9.84397,23.75755 l 191.19509,191.20641 c 6.30769,6.2964 14.8506,9.83548 23.76887,9.83548 h 270.39546 c 8.90697,0 17.46115,-3.53908 23.75757,-9.83548 L 710.56735,519.3581 c 6.2936,-6.30486 9.83266,-14.84777 9.83266,-23.75755 V 225.19662 c 0,-8.90698 -3.53906,-17.4527 -9.83266,-23.75757 L 519.36096,10.243946 C 513.06454,3.9390741 504.51036,0.399992 495.60339,0.399992 H 225.20793"
         style="display:inline;fill:#ffffff;fill-opacity:1;fill-rule:evenodd;stroke:#000000;stroke-width:0.8;stroke-linecap:butt;stroke-linejoin:miter;stroke-miterlimit:3;stroke-dasharray:none;stroke-opacity:1"
         id="path108"
         inkscape:label="path6612" /><path
         d="M 226.20133,36.403238 36.406064,226.19851 V 494.60995 L 226.20133,684.4052 H 494.60995 L 684.40523,494.60995 V 226.19851 L 494.60995,36.403238 H 226.20133"
         style="display:inline;fill:#c1121c;fill-opacity:1;fill-rule:evenodd;stroke:none;stroke-width:2.82224"
         id="path110"
         inkscape:label="path6614" /><path
         id="path4479-4"
         style="fill:#ffffff;fill-opacity:1;stroke-width:13.8189;stroke-linecap:round;stroke-linejoin:round"
         d="m 143.49577,479.48469 c -28.24979,-4.7e-4 -51.150402,-22.90178 -51.150002,-51.15156 v -34.78282 c 4.64e-4,-28.24918 22.900252,-51.1481 51.150002,-51.14844 8.36401,-4.4e-4 15.14319,-6.78031 15.14375,-15.14374 v -34.78282 c 3e-4,-8.36403 -6.77972,-15.14474 -15.14375,-15.14531 -8.36465,-3e-4 -15.14561,6.78066 -15.14531,15.14531 v 17.39062 H 92.345768 l -0.0016,-17.39062 c -4e-4,-28.25039 22.901172,-51.15196 51.151562,-51.15156 28.24978,4.6e-4 51.1504,22.90178 51.15,51.15156 v 34.78282 c -4.7e-4,28.24917 -22.90025,51.14965 -51.15,51.15 -8.36401,4.4e-4 -15.14319,6.77875 -15.14375,15.14218 v 34.78282 c -3e-4,8.36403 6.77972,15.14474 15.14375,15.14531 8.36465,2.9e-4 15.14561,-6.78067 15.14531,-15.14531 l -0.002,-17.39064 h 36.00625 l 0.002,17.39064 c 4e-4,28.25039 -22.90117,51.15196 -51.15156,51.15156 z m 279.1875,0 c -28.24982,0 -51.15,-22.90018 -51.15,-51.15 V 292.47531 c 0,-28.24982 22.90018,-51.15156 51.15,-51.15156 28.24983,0 51.15156,22.90174 51.15156,51.15156 v 135.85938 c 0,28.24982 -22.90173,51.15 -51.15156,51.15 z m 103.48276,-0.80313 V 242.12844 h 36.00469 l 5e-5,100.27343 h 15.14531 c 28.24982,0 51.1516,22.90174 51.15156,51.15157 l -5e-5,33.97812 c -4e-5,28.24982 -22.90173,51.15 -51.15156,51.15 z m -294.22807,0 v -36.00625 h 33.14843 V 242.12844 h 36.00625 v 200.54687 h 33.14844 v 36.00625 z m 190.74531,-35.20312 c 8.36423,0 15.14531,-6.77952 15.14531,-15.14375 V 292.47531 c 0,-8.36423 -6.78108,-15.14531 -15.14531,-15.14531 -8.36423,0 -15.14531,6.78108 -15.14531,15.14531 v 135.85938 c 0,8.36423 6.78108,15.14375 15.14531,15.14375 z m 154.63276,-0.80313 c 8.36423,0 15.14531,-6.77952 15.14531,-15.14375 l 5e-5,-33.97812 c 10e-6,-8.36423 -6.78108,-15.14531 -15.14531,-15.14531 h -15.14531 l -10e-5,64.26718 z"
         sodipodi:nodetypes="sccccccccccscccccccccccscsssssccccssssccscccccccscssssscssscccs"
         inkscape:label="path6616" /></g></g></svg>
