<?xml version="1.0" encoding="UTF-8" standalone="no"?>
<svg
   viewBox="0 0 600.995 600.995"
   height="600.995"
   width="600.995"
   xml:space="preserve"
   version="1.1"
   id="svg5766"
   sodipodi:docname="DE:263.svg"
   inkscape:version="1.1.2 (0a00cf5339, 2022-02-04)"
   xmlns:inkscape="http://www.inkscape.org/namespaces/inkscape"
   xmlns:sodipodi="http://sodipodi.sourceforge.net/DTD/sodipodi-0.dtd"
   xmlns="http://www.w3.org/2000/svg"
   xmlns:svg="http://www.w3.org/2000/svg"
   xmlns:rdf="http://www.w3.org/1999/02/22-rdf-syntax-ns#"
   xmlns:cc="http://creativecommons.org/ns#"
   xmlns:dc="http://purl.org/dc/elements/1.1/"><sodipodi:namedview
     id="namedview37"
     pagecolor="#ffffff"
     bordercolor="#666666"
     borderopacity="1.0"
     inkscape:pageshadow="2"
     inkscape:pageopacity="0.0"
     inkscape:pagecheckerboard="0"
     showgrid="false"
     inkscape:zoom="1.4292964"
     inkscape:cx="300.4975"
     inkscape:cy="281.25726"
     inkscape:window-width="1920"
     inkscape:window-height="1011"
     inkscape:window-x="0"
     inkscape:window-y="32"
     inkscape:window-maximized="1"
     inkscape:current-layer="svg5766" /><metadata
     id="metadata5772"><rdf:RDF><cc:Work
         rdf:about=""><dc:format>image/svg+xml</dc:format><dc:type
           rdf:resource="http://purl.org/dc/dcmitype/StillImage" /></cc:Work></rdf:RDF></metadata><defs
     id="defs5770" /><path
     id="path5778"
     style="fill:#ffffff;fill-opacity:1;fill-rule:nonzero;stroke:none;stroke-width:1.25"
     d="m 600.4975,300.49749 c 0,165.68875 -134.31125,300 -300,300 -165.6875,0 -300,-134.31125 -300,-300 0,-165.6875 134.3125,-300 300,-300 165.68875,0 300,134.3125 300,300 z"
     sodipodi:nodetypes="sssss" /><path
     id="path5780"
     style="fill:#000000;fill-opacity:1;fill-rule:nonzero;stroke:none;stroke-width:1.25"
     d="M 300.4975,-1e-5 C 134.54125,-1e-5 0,134.54124 0,300.49749 c 0,165.9575 134.54125,300.49875 300.4975,300.49875 165.9575,0 300.49875,-134.54125 300.49875,-300.49875 C 600.99625,134.54124 466.455,-1e-5 300.4975,-1e-5 Z m 0,0.4975 c 165.68875,0 300,134.3125 300,300 0,165.68875 -134.31125,300 -300,300 -165.6875,0 -300,-134.31125 -300,-300 0,-165.6875 134.3125,-300 300,-300 z"
     sodipodi:nodetypes="ssssssssss" /><path
     id="path5782"
     style="fill:#c1121c;fill-opacity:1;fill-rule:nonzero;stroke:none;stroke-width:1.25"
     d="m 300.4975,10.49749 c -159.6825,0 -290,130.3175 -290,290 0,159.68375 130.3175,290 290,290 159.68375,0 290,-130.31625 290,-290 0,-159.6825 -130.31625,-290 -290,-290 z m 0,80.40125 c 116.23625,0 209.6,93.36375 209.6,209.59875 0,116.23625 -93.36375,209.6 -209.6,209.6 -116.235,0 -209.59875,-93.36375 -209.59875,-209.6 0,-116.235 93.36375,-209.59875 209.59875,-209.59875 z"
     sodipodi:nodetypes="ssssssssss" /><path
     id="path5784"
     style="fill:#000000;fill-opacity:1;fill-rule:nonzero;stroke:none;stroke-width:1.25"
     d="m 29.79,30.35624 v 0.03 h -0.02875 z"
     sodipodi:nodetypes="cccc" /><path
     id="path5786"
     style="fill:#000000;fill-opacity:1;fill-rule:nonzero;stroke:none;stroke-width:1.25"
     d="M 29.76125,30.35624 H 29.79 v 0.02875 h -0.02875 z"
     sodipodi:nodetypes="ccccc" /><path
     id="path5788"
     style="fill:#000000;fill-opacity:1;fill-rule:nonzero;stroke:none;stroke-width:1.25"
     d="m 29.76125,30.38624 v -0.03 l 0.02875,0.03 z m 0.02875,0 -0.02875,-0.03 v 0.03 z"
     sodipodi:nodetypes="cccccccc" /><path
     id="path5790"
     style="fill:#000000;fill-opacity:1;fill-rule:nonzero;stroke:none;stroke-width:1.25"
     d="M 29.82375,30.38624 H 29.76125 29.79 v -0.03 z"
     sodipodi:nodetypes="ccccc" /><path
     id="path5792"
     style="fill:#000000;fill-opacity:1;fill-rule:nonzero;stroke:none;stroke-width:1.25"
     d="m 29.76125,30.38624 v -0.03 0.03 l 0.02875,-0.03 z"
     sodipodi:nodetypes="ccccc" /><path
     id="path5794"
     style="fill:#000000;fill-opacity:1;fill-rule:nonzero;stroke:none;stroke-width:1.25"
     d="M 29.76125,30.35624 H 29.79 v 0.02875 h -0.02875 z"
     sodipodi:nodetypes="ccccc" /><path
     id="path5796"
     style="fill:#000000;fill-opacity:1;fill-rule:nonzero;stroke:none;stroke-width:1.25"
     d="m 29.82375,30.35624 v 0.05875 h -0.0625 z"
     sodipodi:nodetypes="cccc" /><path
     id="path5798"
     style="fill:#000000;fill-opacity:1;fill-rule:nonzero;stroke:none;stroke-width:1.25"
     d="M 29.76125,30.35624 H 29.825 v 0.05875 h -0.06375 z"
     sodipodi:nodetypes="ccccc" /><path
     id="path5800"
     style="fill:#000000;fill-opacity:1;fill-rule:nonzero;stroke:none;stroke-width:1.25"
     d="m 29.76125,30.41499 v -0.05875 l 0.0625,0.05875 z m 0.0625,0 -0.0625,-0.05875 v 0.05875 z"
     sodipodi:nodetypes="cccccccc" /><path
     id="path5802"
     style="fill:#000000;fill-opacity:1;fill-rule:nonzero;stroke:none;stroke-width:1.25"
     d="M 29.82375,30.41499 H 29.76125 29.79 v -0.05875 z"
     sodipodi:nodetypes="ccccc" /><path
     id="path5804"
     style="fill:#000000;fill-opacity:1;fill-rule:nonzero;stroke:none;stroke-width:1.25"
     d="m 29.76125,30.41499 v -0.05875 0.05875 l 0.0625,-0.05875 z"
     sodipodi:nodetypes="ccccc" /><path
     id="path5806"
     style="fill:#000000;fill-opacity:1;fill-rule:nonzero;stroke:none;stroke-width:1.25"
     d="M 29.76125,30.35624 H 29.825 v 0.05875 h -0.06375 z"
     sodipodi:nodetypes="ccccc" /><path
     id="path5808"
     style="fill:#000000;fill-opacity:1;fill-rule:nonzero;stroke:none;stroke-width:1.25"
     d="m 29.82375,30.35624 v 0.05875 h -0.0625 z"
     sodipodi:nodetypes="cccc" /><path
     id="path5810"
     style="fill:#000000;fill-opacity:1;fill-rule:nonzero;stroke:none;stroke-width:1.25"
     d="M 29.76125,30.35624 H 29.825 v 0.05875 h -0.06375 z"
     sodipodi:nodetypes="ccccc" /><path
     id="path5812"
     style="fill:#000000;fill-opacity:1;fill-rule:nonzero;stroke:none;stroke-width:1.25"
     d="m 29.76125,30.41499 v -0.05875 l 0.0625,0.05875 z m 0.0625,0 -0.0625,-0.05875 v 0.05875 z"
     sodipodi:nodetypes="cccccccc" /><path
     id="path5814"
     style="fill:#000000;fill-opacity:1;fill-rule:nonzero;stroke:none;stroke-width:1.25"
     d="M 29.82375,30.41499 H 29.76125 29.79 v -0.05875 z"
     sodipodi:nodetypes="ccccc" /><path
     id="path5816"
     style="fill:#000000;fill-opacity:1;fill-rule:nonzero;stroke:none;stroke-width:1.25"
     d="m 29.76125,30.41499 v -0.05875 0.05875 l 0.0625,-0.05875 z"
     sodipodi:nodetypes="ccccc" /><path
     id="path5818"
     style="fill:#000000;fill-opacity:1;fill-rule:nonzero;stroke:none;stroke-width:1.25"
     d="M 29.76125,30.35624 H 29.825 v 0.05875 h -0.06375 z"
     sodipodi:nodetypes="ccccc" /><path
     id="path5820"
     style="fill:#000000;fill-opacity:1;fill-rule:nonzero;stroke:none;stroke-width:1.25"
     d="m 29.82375,30.35624 v 0.05875 h -0.0625 z"
     sodipodi:nodetypes="cccc" /><path
     id="path5822"
     style="fill:#000000;fill-opacity:1;fill-rule:nonzero;stroke:none;stroke-width:1.25"
     d="M 29.76125,30.35624 H 29.825 v 0.05875 h -0.06375 z"
     sodipodi:nodetypes="ccccc" /><path
     id="path5824"
     style="fill:#000000;fill-opacity:1;fill-rule:nonzero;stroke:none;stroke-width:1.25"
     d="m 29.76125,30.41499 v -0.05875 l 0.0625,0.05875 z m 0.0625,0 -0.0625,-0.05875 v 0.05875 z"
     sodipodi:nodetypes="cccccccc" /><path
     id="path5826"
     style="fill:#000000;fill-opacity:1;fill-rule:nonzero;stroke:none;stroke-width:1.25"
     d="M 29.82375,30.41499 H 29.76125 29.79 v -0.05875 z"
     sodipodi:nodetypes="ccccc" /><path
     id="path5828"
     style="fill:#000000;fill-opacity:1;fill-rule:nonzero;stroke:none;stroke-width:1.25"
     d="m 29.76125,30.41499 v -0.05875 0.05875 l 0.0625,-0.05875 z"
     sodipodi:nodetypes="ccccc" /><path
     id="path5830"
     style="fill:#000000;fill-opacity:1;fill-rule:nonzero;stroke:none;stroke-width:1.25"
     d="M 29.76125,30.35624 H 29.825 v 0.05875 h -0.06375 z"
     sodipodi:nodetypes="ccccc" /><path
     id="path5832"
     style="fill:#000000;fill-opacity:1;fill-rule:nonzero;stroke:none;stroke-width:1.25"
     d="m 419.44875,427.94374 c -4.6825,0 -8.49125,-3.79375 -8.49125,-8.495 v -84.96625 c 0,-4.6875 3.80875,-8.49625 8.49125,-8.49625 h 25.4975 c 4.6875,0 8.49625,3.80875 8.49625,8.49625 v 84.96625 c 0,4.70125 -3.80875,8.495 -8.49625,8.495 z m -212.4075,0 c -4.7025,0 -8.50625,-3.79375 -8.50625,-8.495 v -84.96625 c 0,-4.6875 3.80375,-8.49625 8.50625,-8.49625 H 232.525 c 4.70125,0 8.49125,3.80875 8.49125,8.49625 v 23.36875 c 0,4.7025 3.8075,8.50625 8.51,8.50625 h 16.1425 c 4.36,0 8.555,-1.68 11.71375,-4.7025 l 5.5325,-5.25375 c 9.85375,-9.39 25.3125,-9.39 35.16625,0 l 5.5325,5.25375 c 3.15875,3.0225 7.3675,4.7025 11.7325,4.7025 H 351.485 c 4.6875,0 8.49,-3.80375 8.49,-8.50625 v -23.36875 c 0,-4.6875 3.80875,-8.49625 8.49625,-8.49625 H 393.97 c 4.6825,0 8.49125,3.80875 8.49125,8.49625 v 84.96625 c 0,4.70125 -3.80875,8.495 -8.49125,8.495 h -25.49875 c -4.6875,0 -8.49625,-3.79375 -8.49625,-8.495 v -23.355 c 0,-4.7025 -3.8025,-8.49125 -8.49,-8.49125 h -16.13875 c -4.365,0 -8.57375,1.665 -11.7325,4.6875 l -5.5325,5.26875 c -9.85375,9.375 -25.3125,9.375 -35.16625,0 l -5.5325,-5.26875 c -3.15875,-3.0225 -7.35375,-4.6875 -11.71375,-4.6875 h -16.1425 c -4.7025,0 -8.51,3.78875 -8.51,8.49125 v 23.355 c 0,4.70125 -3.79,8.495 -8.49125,8.495 z m -50.97625,0 c -4.7025,0 -8.51125,-3.79375 -8.51125,-8.495 v -84.96625 c 0,-4.6875 3.80875,-8.49625 8.51125,-8.49625 h 25.4825 c 4.6825,0 8.49125,3.80875 8.49125,8.49625 v 84.96625 c 0,4.70125 -3.80875,8.495 -8.49125,8.495"
     sodipodi:nodetypes="ssssssssssssssssssccccssssssssssssssccccsssssscssssssc" /><path
     id="path5834"
     style="fill:#000000;fill-opacity:1;fill-rule:nonzero;stroke:none;stroke-width:1.25"
     d="m 300.5075,333.64749 -33.46625,-33.46625 v -18.59 l 26.02,26.02125 V 266.72874 H 307.935 v 40.88375 l 26.02,-26.02125 v 18.59"
     sodipodi:nodetypes="ccccccccc" /><path
     id="path5836"
     style="fill:#000000;fill-opacity:1;fill-rule:nonzero;stroke:none;stroke-width:1.25"
     d="M 365.14125,249.51124 H 353.75 c -11.31375,0 -20.47375,-9.155 -20.47375,-20.47375 V 173.28124 H 324.17 v -14.795 h 9.10625 v -27.305 H 351.485 v 27.305 h 13.65625 v 14.795 H 351.485 v 53.47625 c 0,3.145 2.54375,5.68875 5.6875,5.68875 h 7.96875 z"
     sodipodi:nodetypes="cssccccccccccsscc" /><text
     xml:space="preserve"
     style="font-size:160px;line-height:1.25;font-family:sans-serif;word-spacing:0px"
     x="201.86188"
     y="245.40071"
     id="text1067"><tspan
       sodipodi:role="line"
       id="tspan1065"
       x="201.86188"
       y="245.40071"
       style="font-size:160px;fill:#ff00ff">x</tspan></text></svg>
