<?xml version="1.0" encoding="UTF-8" standalone="no"?>
<svg
   xmlns:dc="http://purl.org/dc/elements/1.1/"
   xmlns:cc="http://creativecommons.org/ns#"
   xmlns:rdf="http://www.w3.org/1999/02/22-rdf-syntax-ns#"
   xmlns:svg="http://www.w3.org/2000/svg"
   xmlns="http://www.w3.org/2000/svg"
   viewBox="0 0 900 600"
   height="600"
   width="900"
   xml:space="preserve"
   version="1.1"
   id="svg18948"><metadata
     id="metadata18954"><rdf:RDF><cc:Work
         rdf:about=""><dc:format>image/svg+xml</dc:format><dc:type
           rdf:resource="http://purl.org/dc/dcmitype/StillImage" /><dc:title></dc:title></cc:Work></rdf:RDF></metadata><defs
     id="defs18952" /><g
     transform="matrix(1.25,0,0,-1.25,0,600)"
     id="g18956"><g
       id="g18958"><path
         id="path18960"
         style="fill:#f0c900;fill-opacity:1;fill-rule:evenodd;stroke:none"
         d="m 30,480 c 0,0 -29.977,0.008 -30,-30 L 0,30 C 0,30 -0.082,0 30,0 l 660,0 c 30.082,0 30,30 30,30 l 0,420 c -0.023,30.008 -30,30 -30,30 l -660,0 z" /><path
         id="path18962"
         style="fill:#c1121c;fill-opacity:1;fill-rule:evenodd;stroke:none"
         d="m 14.969,40.855 602.871,196.692 89.515,0 -1.214,-31.664 L 126.41,16.496 28.367,15.887 14.969,26.238 l 0,14.617 z" /><path
         id="path18964"
         style="fill:#000000;fill-opacity:1;fill-rule:evenodd;stroke:none"
         d="M 30,472 C 30,472 8.012,471.961 8,450 L 8,30 C 8,30 7.992,7.98 30,8 l 660.074,0 c 22.008,-0.02 22,22 22,22 l 0,420 c -0.011,21.961 -22,22 -22,22 L 30,472 Z m 0,-12 660.074,0 c 0,0 9.942,-0.004 9.961,-10 0.352,-54.297 0.449,-130.887 0.445,-204 l -680.886,0 c -0.004,73.113 0.094,149.703 0.445,204 0.016,9.996 9.961,10 9.961,10 z M 19.598,234 700.477,234 C 700.449,126.559 700.211,30 700.211,30 700.176,20.27 690.074,20 690.074,20 L 30,20 c 0,0 -10.102,0.27 -10.141,10 0,0 -0.238,96.559 -0.261,204 z" /><path
         id="path18966"
         style="fill:#ffffff;fill-opacity:1;fill-rule:nonzero;stroke:none"
         d="m 30,460 c 0,0 -9.945,-0.004 -9.961,-10 C 19.688,395.703 19.59,319.113 19.594,246 l 680.886,0 c 0.004,73.113 -0.093,149.703 -0.445,204 -0.019,9.996 -9.961,10 -9.961,10 L 30,460 Z" /><path
         id="path18968"
         style="fill:#000000;fill-opacity:1;fill-rule:nonzero;stroke:none"
         d="m 306.824,267.855 0,50.508 7.223,0 0,-31.57 13.98,17.129 8.567,0 -12.176,-13.965 13.977,-22.102 -9.024,0 -9.469,16.688 -5.855,-6.316 0,-10.372" /><path
         id="path18970"
         style="fill:#000000;fill-opacity:1;fill-rule:nonzero;stroke:none"
         d="m 344.699,267.855 0,36.067 7.219,0 0,-4.051 c 4.234,5.215 11.898,6.039 17.133,1.805 0.801,-0.656 1.543,-1.41 2.148,-2.266 4.727,5.793 13.258,6.645 19.035,1.918 3.153,-2.574 4.973,-6.414 4.973,-10.469 l 0,-23.004 -7.219,0 0,22.102 c 0,3.988 -3.218,7.207 -7.207,7.207 -3.988,0 -7.218,-3.219 -7.218,-7.207 l 0,-22.102 -7.219,0 0,22.102 c 0,3.988 -3.235,7.207 -7.203,7.207 -3.989,0 -7.223,-3.219 -7.223,-7.207 l 0,-22.102" /><path
         id="path18972"
         style="fill:#000000;fill-opacity:1;fill-rule:nonzero;stroke:none"
         d="m 516.145,413.77 c 0.121,0.8 0.347,1.609 0.871,2.148 0.574,0.687 1.523,0.969 2.441,1.102 0.805,0.117 1.578,0.078 2.332,0.05 l 6.91,0 0,11.668 -7.121,0 c -1.25,0.012 -2.496,0.051 -3.726,-0.078 -1.414,-0.121 -2.789,-0.461 -4.137,-0.953 -2.625,-0.934 -5.039,-2.543 -6.809,-4.711 -1.953,-2.23 -3.203,-5.101 -3.543,-7.988 -0.148,-1.317 -0.121,-2.645 -0.105,-3.957 l 0,-7.727 -6.32,0 0,-10.129 6.32,0 0,-53.425 12.797,0 0,53.425 12.636,0 0,10.129 -12.636,0 0,8.633 c 0,0.606 0,1.211 0.082,1.82 l 0.008,-0.007 z m -32.247,-10.782 c -2.261,0.739 -4.625,1.164 -6.988,1.133 -2.855,0.024 -5.726,-0.59 -8.387,-1.742 -2.41,-0.981 -4.66,-2.375 -6.496,-4.199 -0.609,-0.575 -1.164,-1.2 -1.707,-1.84 l 0,6.976 -12.734,0 0,-63.554 12.734,0 0,38.48 c 0.051,0.969 0.106,1.938 0.282,2.887 0.261,1.789 0.968,3.547 2.035,5.008 0.933,1.359 2.195,2.492 3.656,3.328 2.281,1.496 5.039,2.265 7.746,2.019 2.168,-0.117 4.281,-0.882 6.055,-2.082 0.543,-0.363 1.051,-0.757 1.562,-1.168 l 8.942,11.094 c -0.41,0.328 -0.805,0.656 -1.231,0.953 -1.625,1.231 -3.512,2.082 -5.465,2.707 l -0.004,0 z m -66.503,-37.957 c -0.094,-1.066 -0.2,-2.148 -0.461,-3.199 -0.559,-2.348 -1.871,-4.562 -3.625,-6.234 -1.332,-1.348 -2.907,-2.379 -4.629,-3.035 -1.43,-0.559 -2.989,-0.856 -4.512,-0.856 -2.691,-0.062 -5.418,0.707 -7.648,2.215 -1.821,1.133 -3.317,2.742 -4.364,4.598 -0.691,1.226 -1.199,2.543 -1.429,3.902 -0.18,0.871 -0.243,1.758 -0.313,2.609 l 0,13.426 c 0.094,1.18 0.231,2.344 0.508,3.461 0.594,2.168 1.891,4.148 3.598,5.711 2.507,2.426 5.937,3.906 9.367,3.855 3.117,0.121 6.222,-1.031 8.664,-3.101 2.363,-1.856 4.121,-4.563 4.578,-7.434 0.148,-0.801 0.215,-1.656 0.266,-2.492 l 0,-13.426 z m 7.25,28.817 c -2.461,3.297 -5.645,5.972 -9.305,7.711 -3.426,1.707 -7.281,2.578 -11.141,2.562 -4.004,0.078 -8.023,-0.805 -11.633,-2.562 -3.937,-1.801 -7.386,-4.676 -9.929,-8.239 -2.297,-3.05 -3.907,-6.625 -4.528,-10.336 -0.25,-1.511 -0.328,-3.004 -0.445,-4.527 l 0,-13.426 c 0.066,-1.343 0.149,-2.722 0.328,-4.086 0.41,-3.148 1.528,-6.234 3.215,-9.007 2.547,-4.446 6.535,-8.075 11.145,-10.274 3.593,-1.82 7.597,-2.754 11.617,-2.707 4.429,-0.055 8.894,1.082 12.715,3.332 3.988,2.149 7.304,5.481 9.617,9.402 1.855,2.973 3.101,6.286 3.547,9.7 0.148,1.195 0.195,2.429 0.261,3.64 l 0,13.426 c -0.117,1.574 -0.211,3.133 -0.523,4.66 -0.609,3.887 -2.449,7.594 -4.941,10.731 z M 347.52,365.195 c -0.012,-1.246 -0.012,-2.476 -0.262,-3.691 -0.508,-2.656 -2.082,-5.188 -4.266,-6.91 -2.265,-1.953 -5.187,-3 -8.14,-2.938 -2.954,-0.062 -5.907,1.004 -8.188,2.957 -2.215,1.754 -3.82,4.313 -4.266,7.039 -0.246,1.149 -0.261,2.348 -0.281,3.543 l 0,12.868 c 0.055,1.261 0.094,2.542 0.375,3.773 0.563,2.527 2.055,4.906 4.121,6.562 2.317,2.02 5.414,3.086 8.453,2.969 2.543,0.016 5.036,-0.765 7.137,-2.293 2.676,-1.855 4.711,-4.828 5.121,-7.961 0.18,-1 0.18,-2.035 0.196,-3.05 l 0,-12.868 z m 0,30.95 c -0.477,0.558 -0.95,1.117 -1.477,1.66 -1.887,2.015 -4.301,3.59 -6.891,4.691 -2.675,1.133 -5.562,1.738 -8.484,1.641 -5.727,0.09 -11.633,-2.528 -15.559,-6.91 -3.261,-3.364 -5.281,-7.825 -5.675,-12.356 -0.129,-1.441 -0.079,-2.906 -0.051,-4.348 l 0,-18.23 c -0.067,-1.805 -0.117,-3.578 0.18,-5.352 0.507,-5.347 3.937,-10.519 8.5,-13.734 3.609,-2.742 7.957,-4.215 12.371,-4.25 3.281,-0.09 6.613,0.609 9.586,2.016 2.066,0.957 3.988,2.25 5.609,3.808 0.672,0.625 1.281,1.297 1.887,1.969 l 0,-6.988 12.703,0 0,88.972 -12.703,0 0,-32.589 0.004,0 z M 287.871,373.91 c -2.066,1.625 -4.527,2.789 -7.07,3.399 -2.774,0.754 -5.68,0.867 -8.551,1 -1.738,0.078 -3.477,0.179 -5.234,0.226 -1.641,0.082 -3.266,0.082 -4.809,0.641 -1.363,0.426 -2.609,1.262 -3.398,2.461 -0.735,1.066 -1.082,2.445 -0.934,3.726 0.129,1.164 0.641,2.25 1.379,3.133 0.723,0.871 1.641,1.559 2.656,2.004 1.922,0.898 4.121,1 6.27,0.934 3.086,-0.055 6.074,-0.364 8.961,-1.262 2.574,-0.758 5.07,-1.953 7.203,-3.578 0.461,-0.348 0.918,-0.723 1.375,-1.082 l 7.894,10.468 c -0.656,0.489 -1.328,0.985 -2,1.446 -2.953,2.113 -6.351,3.64 -9.847,4.691 -4.364,1.395 -8.942,2.035 -13.586,2.004 -4.168,0.024 -8.453,-0.512 -12.141,-2.367 -3.137,-1.457 -5.879,-3.856 -7.762,-6.793 -1.89,-2.723 -2.988,-5.953 -3.136,-9.254 -0.211,-2.707 0.246,-5.465 1.297,-7.992 1.05,-2.738 2.82,-5.199 5.054,-7.07 1.985,-1.758 4.379,-3.036 6.906,-3.758 1.907,-0.559 3.875,-0.789 5.825,-0.969 2.398,-0.215 4.793,-0.313 7.172,-0.328 2.117,-0.027 4.218,0 6.269,-0.625 1.246,-0.36 2.477,-0.949 3.316,-1.918 0.903,-0.984 1.344,-2.379 1.344,-3.789 0.067,-1.676 -0.558,-3.399 -1.691,-4.516 -1.031,-1.101 -2.508,-1.656 -4.004,-2.066 -2.789,-0.852 -5.563,-1.18 -8.367,-1.082 -2.922,0.051 -5.86,0.57 -8.633,1.574 -2.902,0.969 -5.66,2.461 -7.91,4.48 -0.508,0.457 -1.016,0.934 -1.508,1.442 l -9.106,-9.059 c 0.293,-0.308 0.606,-0.636 0.918,-0.933 3.036,-3.153 6.957,-5.364 11.079,-6.957 4.671,-1.922 9.613,-3.036 14.601,-3.184 3.578,-0.144 7.188,0.215 10.715,1.07 3.004,0.703 5.891,1.754 8.402,3.508 2.969,1.953 5.368,4.86 6.762,8.172 1.133,2.563 1.641,5.367 1.492,8.141 -0.066,2.922 -0.886,5.824 -2.312,8.367 -1.199,2.219 -2.856,4.183 -4.891,5.695 z m -75.269,42.336 12.621,0 0,12.484 -12.621,0 0,-12.484 z m 0,-76.484 12.621,0 0,63.554 -12.621,0 0,-63.554 z m -31.805,27.617 c 0.07,-1.656 0.133,-3.332 -0.145,-4.988 -0.394,-2.774 -1.789,-5.516 -3.922,-7.399 -2.101,-2.004 -4.988,-3.137 -7.89,-3.234 -3.008,-0.199 -6.039,0.656 -8.387,2.508 -2.512,1.793 -4.301,4.66 -4.859,7.632 -0.278,1.543 -0.242,3.133 -0.211,4.692 l 0,36.726 -12.656,0 0,-40.976 c -0.024,-1.524 -0.063,-3.067 0.132,-4.578 0.282,-3.414 1.641,-6.793 3.696,-9.582 2.082,-3.051 4.953,-5.465 8.285,-7.024 2.973,-1.508 6.301,-2.281 9.633,-2.199 3.035,0.016 6.054,0.754 8.828,2.051 2.066,0.937 3.988,2.199 5.562,3.773 0.692,0.692 1.297,1.461 1.934,2.219 l 0,-7.238 12.723,0 0,63.554 -12.723,0 0,-35.937 z m -67.492,3.543 c -0.078,-1.277 -0.149,-2.59 -0.356,-3.871 -0.676,-3.645 -2.629,-7.121 -5.484,-9.668 -2.477,-2.41 -5.676,-4.051 -8.973,-4.512 -1.054,-0.16 -2.121,-0.23 -3.187,-0.293 l -18.492,0 0,63.539 18.609,0 c 1.574,-0.094 3.148,-0.199 4.644,-0.558 2.672,-0.661 5.153,-2.118 7.235,-4.055 2.168,-1.922 3.89,-4.316 4.777,-6.941 0.852,-2.329 1.031,-4.84 1.227,-7.352 l 0,-26.289 z m 3.234,49.656 c -4.379,4.07 -9.848,6.844 -15.539,7.711 -1.855,0.281 -3.742,0.363 -5.613,0.445 l -32.047,0 0,-88.976 31.328,0 c 2.082,0.055 4.152,0.094 6.199,0.445 5.973,0.738 11.668,3.891 16.035,8.305 4.692,4.414 7.973,10.203 9.188,16.308 0.394,2.02 0.574,4.055 0.769,6.106 l 0,26.289 c -0.117,2.23 -0.23,4.43 -0.656,6.594 -0.949,6.386 -4.644,12.39 -9.664,16.773" /><path
         id="path18974"
         style="fill:#000000;fill-opacity:1;fill-rule:nonzero;stroke:none"
         d="m 351.477,299.969 c 0.211,0.261 0.441,0.523 0.671,0.769 1.114,1.168 2.508,2.067 4.02,2.676 1.656,0.688 3.43,1.066 5.184,0.984 1.691,-0.027 3.367,-0.476 4.941,-1.214 1.477,-0.672 2.84,-1.575 3.824,-2.821 0.231,-0.277 0.426,-0.558 0.637,-0.855 0.348,0.394 0.711,0.789 1.086,1.133 1.18,1.168 2.609,2.086 4.148,2.707 1.742,0.754 3.66,1.101 5.582,1.05 2.067,-0.011 4.133,-0.492 5.926,-1.46 1.867,-0.934 3.461,-2.395 4.692,-4.118 1.226,-1.625 2.113,-3.547 2.378,-5.531 0.18,-1.016 0.18,-2.066 0.18,-3.101 l 0,-22.317 -7.156,0 0,21.399 c 0,0.687 0,1.378 -0.117,2.066 -0.231,1.512 -1.016,2.953 -2.184,4.008 -1.211,1.164 -2.836,1.883 -4.496,1.949 -1.574,0.121 -3.18,-0.344 -4.477,-1.293 -1.722,-1.168 -2.972,-3.117 -3.136,-5.105 -0.078,-0.543 -0.078,-1.082 -0.078,-1.625 l 0,-21.399 -7.188,0 0,21.399 c 0.012,0.593 0.027,1.199 -0.039,1.789 -0.215,1.511 -0.969,3.004 -2.102,4.086 -1.261,1.296 -3,2.101 -4.757,2.132 -1.657,0.118 -3.328,-0.441 -4.645,-1.476 -1.445,-1.035 -2.512,-2.61 -2.789,-4.285 -0.129,-0.754 -0.129,-1.493 -0.117,-2.246 l 0,-21.399 -7.235,0 0,36.07 7.235,0 0,-3.972 0.012,0 z m -37.942,-21.614 0,-10.484 -7.234,0 0,50.492 7.234,0 0,-31.39 13.965,16.968 8.617,0 -12.16,-13.867 13.981,-22.203 -9.059,0 -9.453,16.738 -5.891,-6.254 z m -62.617,-3.199 19.312,0 0,-7.285 -28.863,0 0,6.762 20.281,25.613 c 0.364,0.606 0.707,1.215 0.969,1.871 0.363,0.918 0.496,1.922 0.41,2.906 -0.078,1.165 -0.461,2.266 -1.097,3.231 -0.559,0.953 -1.332,1.742 -2.266,2.312 -1.164,0.789 -2.629,1.184 -4.039,1.137 -1.379,-0.015 -2.738,-0.461 -3.855,-1.246 -0.918,-0.609 -1.688,-1.445 -2.231,-2.398 -0.492,-0.821 -0.805,-1.774 -0.887,-2.723 -0.027,-0.281 -0.027,-0.559 -0.054,-0.856 l -7.235,0 c -0.011,0.348 -0.011,0.676 0,1.02 0.028,1.574 0.442,3.148 1.082,4.594 1.051,2.461 2.789,4.644 5.008,6.136 2.313,1.676 5.184,2.594 8.039,2.594 2.641,0.106 5.281,-0.574 7.563,-1.937 2.285,-1.297 4.218,-3.25 5.433,-5.547 1.184,-2.149 1.739,-4.61 1.707,-7.106 0.028,-2.246 -0.425,-4.496 -1.527,-6.382 -0.426,-0.821 -0.984,-1.575 -1.543,-2.329" /><path
         id="path18976"
         style="fill:#000000;fill-opacity:1;fill-rule:nonzero;stroke:none"
         d="m 555.168,130.492 c -0.672,4.625 -2.891,9.059 -5.875,12.781 -2.609,3.348 -5.809,6.153 -9.52,8.157 -4.496,2.609 -9.73,3.988 -14.914,3.972 -4.117,0.078 -8.187,-0.738 -12.027,-2.3 -4.055,-1.493 -7.828,-3.774 -10.801,-6.825 -0.687,-0.707 -1.328,-1.476 -1.965,-2.214 l 0,10.171 -18.628,0 0,-92.761 18.628,0 0,57.367 c 0.278,2.265 0.555,4.562 1.407,6.66 1.285,3.742 4.285,6.945 7.863,8.977 3.102,1.886 6.644,2.89 10.187,2.691 3.875,-0.063 7.747,-1.523 10.735,-4.051 2.906,-2.265 5.055,-5.449 6.039,-8.879 0.523,-1.758 0.738,-3.578 0.933,-5.398 l 0,-57.367 18.446,0 0,62.386 c -0.051,2.219 -0.106,4.43 -0.512,6.633 l 0.004,0 z m -107.945,12.781 c -2.59,3.348 -5.809,6.153 -9.5,8.157 -4.496,2.609 -9.731,3.988 -14.93,3.972 -4.105,0.078 -8.172,-0.738 -12.016,-2.3 -4.066,-1.493 -7.839,-3.774 -10.797,-6.825 -0.687,-0.707 -1.343,-1.476 -1.984,-2.214 l 0,10.171 -18.609,0 0,-92.761 18.609,0 0,57.367 c 0.297,2.265 0.559,4.562 1.414,6.66 1.278,3.742 4.297,6.945 7.86,8.977 3.101,1.886 6.644,2.89 10.187,2.691 3.871,-0.063 7.746,-1.523 10.75,-4.051 2.906,-2.265 5.039,-5.449 6.039,-8.879 0.508,-1.758 0.723,-3.578 0.934,-5.398 l 0,-57.367 18.445,0 0,62.386 c -0.055,2.219 -0.094,4.43 -0.508,6.633 -0.691,4.625 -2.906,9.059 -5.894,12.781 z M 335.348,98.379 c -0.168,-1.578 -0.313,-3.152 -0.676,-4.711 -0.82,-3.398 -2.723,-6.629 -5.301,-9.074 -1.918,-1.953 -4.246,-3.461 -6.758,-4.434 -2.101,-0.82 -4.351,-1.246 -6.597,-1.277 -3.907,-0.082 -7.895,1.066 -11.129,3.265 -2.672,1.641 -4.871,4.004 -6.364,6.727 -1.035,1.758 -1.773,3.691 -2.117,5.695 -0.246,1.231 -0.343,2.528 -0.445,3.809 l 0,19.574 c 0.148,1.707 0.312,3.414 0.738,5.039 0.856,3.149 2.758,6.055 5.27,8.352 3.64,3.511 8.648,5.676 13.648,5.613 4.547,0.16 9.094,-1.512 12.656,-4.512 3.446,-2.726 6.02,-6.648 6.661,-10.832 0.23,-1.215 0.312,-2.445 0.41,-3.66 l 0,-19.574 0.004,0 z m 10.597,42.055 c -3.609,4.761 -8.269,8.714 -13.605,11.211 -5.004,2.523 -10.633,3.773 -16.242,3.757 -5.875,0.129 -11.75,-1.148 -16.985,-3.757 -5.761,-2.61 -10.797,-6.797 -14.488,-11.997 -3.383,-4.449 -5.73,-9.683 -6.617,-15.113 -0.375,-2.168 -0.488,-4.363 -0.637,-6.582 l 0,-19.574 c 0.078,-2.004 0.195,-4.004 0.457,-5.977 0.59,-4.609 2.235,-9.105 4.711,-13.125 3.711,-6.515 9.516,-11.816 16.242,-15.015 5.254,-2.657 11.094,-4.039 16.953,-3.953 6.465,-0.079 12.965,1.574 18.559,4.839 5.828,3.165 10.668,8.004 14.047,13.715 2.691,4.352 4.547,9.192 5.168,14.2 0.215,1.753 0.297,3.542 0.379,5.316 l 0,19.574 c -0.164,2.297 -0.309,4.563 -0.739,6.793 -0.918,5.676 -3.574,11.094 -7.203,15.688 z M 231.652,88.023 c -2.511,-3.546 -6.398,-6.187 -10.531,-7.089 -2.301,-0.606 -4.695,-0.672 -7.078,-0.723 l -30.652,0 0,39.402 30.754,0 c 2.082,-0.015 4.168,-0.054 6.218,-0.445 4.055,-0.805 7.942,-3.102 10.586,-6.383 2.871,-3.265 4.399,-7.566 4.496,-11.93 0.278,-4.562 -1.004,-9.191 -3.793,-12.832 z m -48.261,86.184 30.144,0 c 1.906,-0.055 3.809,-0.094 5.649,-0.496 3.707,-0.785 7.183,-3.02 9.695,-6.055 2.871,-3.23 4.562,-7.449 4.562,-11.679 0.18,-4.172 -1.281,-8.321 -3.921,-11.653 -2.446,-3.332 -6.055,-5.859 -9.926,-6.629 -1.891,-0.461 -3.856,-0.507 -5.828,-0.543 l -30.375,0 0,37.055 z m 55.91,-47.328 c -0.707,0.476 -1.446,0.937 -2.153,1.379 0.625,0.492 1.247,0.984 1.891,1.476 3.969,3.168 7.399,7.239 9.613,11.848 2.465,4.875 3.532,10.391 3.266,15.934 -0.09,7.961 -3.02,15.984 -8.418,21.906 -5.184,6.223 -12.914,10.289 -20.789,11.437 -3.086,0.477 -6.219,0.477 -9.324,0.496 l -49.555,0 0,-129.882 50.477,0 c 3.511,0.011 7.023,0.027 10.488,0.687 8.055,1.133 15.851,5.68 21.051,12.227 5.449,6.234 8.367,14.457 8.351,22.597 0.164,6.137 -1.328,12.223 -4.297,17.606 -2.48,4.906 -6.136,9.254 -10.601,12.289" /><path
         id="path18978"
         style="fill:#000000;fill-opacity:1;fill-rule:evenodd;stroke:none"
         d="m 572.09,396.98 0.199,-25.753 33.805,33.437 0,-119.57 20.824,-0.199 0,119.57 33.82,-33.438 0.184,25.754 -44.371,43.719 -44.461,-43.52 z" /></g></g></svg>