<?xml version="1.0" encoding="UTF-8" standalone="no"?>
<svg
   xmlns:dc="http://purl.org/dc/elements/1.1/"
   xmlns:cc="http://creativecommons.org/ns#"
   xmlns:rdf="http://www.w3.org/1999/02/22-rdf-syntax-ns#"
   xmlns:svg="http://www.w3.org/2000/svg"
   xmlns="http://www.w3.org/2000/svg"
   viewBox="0 0 601 601"
   height="601"
   width="601"
   xml:space="preserve"
   version="1.1"
   id="svg5531"><metadata
     id="metadata5537"><rdf:RDF><cc:Work
         rdf:about=""><dc:format>image/svg+xml</dc:format><dc:type
           rdf:resource="http://purl.org/dc/dcmitype/StillImage" /><dc:title></dc:title></cc:Work></rdf:RDF></metadata><defs
     id="defs5535" /><g
     transform="matrix(1.25,0,0,-1.25,0,600.99998)"
     id="g5539"><g
       id="g5541"><path
         id="path5543"
         style="fill:#ffffff;fill-opacity:1;fill-rule:nonzero;stroke:none"
         d="m 480.398,240.402 c 0,-132.551 -107.449,-240 -240,-240 -132.546,0 -240,107.449 -240,240 0,132.546 107.454,240 240,240 132.551,0 240,-107.454 240,-240 z" /><path
         id="path5545"
         style="fill:#000000;fill-opacity:1;fill-rule:nonzero;stroke:none"
         d="m 295.965,292.417 0,62.918 9.547,0 0,-53.937 30.703,0 0,-8.981 -40.25,0 z m -48.348,0 0,62.918 9.551,0 0,-53.937 30.703,0 0,-8.981 -40.254,0 z m -56.043,31.438 c 0,7.57 0.199,12.449 0.602,14.64 0.406,2.184 1.121,4.196 2.16,6.047 1.469,2.731 3.879,5.309 7.234,7.727 3.352,2.418 7.508,3.629 12.457,3.629 4.926,0 9.059,-1.211 12.418,-3.629 3.352,-2.418 5.793,-4.996 7.317,-7.727 1.008,-1.851 1.715,-3.863 2.121,-6.047 0.398,-2.191 0.601,-7.07 0.601,-14.64 0,-7.575 -0.203,-12.453 -0.601,-14.645 -0.406,-2.187 -1.113,-4.203 -2.121,-6.039 -1.524,-2.766 -3.965,-5.336 -7.317,-7.711 -3.359,-2.379 -7.496,-3.562 -12.418,-3.562 -4.949,0 -9.105,1.183 -12.457,3.562 -3.355,2.375 -5.765,4.945 -7.234,7.711 -1.039,1.836 -1.754,3.852 -2.16,6.039 -0.403,2.192 -0.602,7.07 -0.602,14.645 z m 9.539,0 c 0,-6.481 0.223,-10.684 0.672,-12.614 0.442,-1.929 1.285,-3.671 2.524,-5.222 0.953,-1.27 2.246,-2.352 3.886,-3.258 1.641,-0.91 3.578,-1.363 5.828,-1.363 2.247,0 4.188,0.453 5.832,1.363 1.637,0.906 2.934,1.988 3.883,3.258 1.242,1.551 2.086,3.293 2.528,5.222 0.445,1.93 0.672,6.133 0.672,12.614 0,6.445 -0.227,10.632 -0.672,12.562 -0.442,1.93 -1.286,3.703 -2.528,5.317 -0.949,1.203 -2.246,2.269 -3.883,3.191 -1.644,0.926 -3.585,1.383 -5.832,1.383 -2.25,0 -4.187,-0.457 -5.828,-1.383 -1.64,-0.922 -2.933,-1.988 -3.886,-3.191 -1.239,-1.614 -2.082,-3.387 -2.524,-5.317 -0.449,-1.93 -0.672,-6.117 -0.672,-12.562 z m -56.531,-31.438 0,7.945 28.59,46.508 -27.418,0 0,8.465 39.082,0 0,-7.168 -28.676,-46.769 28.676,0 0,-8.977 -40.254,0 0,-0.004 z" /><path
         id="path5547"
         style="fill:#c1121c;fill-opacity:1;fill-rule:nonzero;stroke:none"
         d="m 240.398,472.402 c -127.746,0 -232,-104.254 -232,-232 0,-127.75 104.254,-232 232,-232 127.75,0 232,104.25 232,232 0,127.746 -104.25,232 -232,232 z m 0,-19.204 c 118.008,0 212.801,-94.793 212.801,-212.796 0,-118.012 -94.793,-212.801 -212.801,-212.801 -118.007,0 -212.796,94.789 -212.796,212.801 0,118.003 94.789,212.796 212.796,212.796 z" /><path
         id="path5549"
         style="fill:#000000;fill-opacity:1;fill-rule:nonzero;stroke:none"
         d="m 23.836,456.515 0,-0.028 -0.024,0 0.024,0.028 z" /><path
         id="path5551"
         style="fill:#000000;fill-opacity:1;fill-rule:nonzero;stroke:none"
         d="m 23.812,456.515 0.023,0 0,-0.023 -0.023,0 0,0.023 z" /><path
         id="path5553"
         style="fill:#000000;fill-opacity:1;fill-rule:nonzero;stroke:none"
         d="m 23.812,456.487 0,0.028 0.024,-0.028 -0.024,0 z m 0.024,0 -0.024,0.028 0,-0.028 0.024,0 z" /><path
         id="path5555"
         style="fill:#000000;fill-opacity:1;fill-rule:nonzero;stroke:none"
         d="m 23.859,456.487 -0.047,0 0.024,0 0,0.028 0.027,-0.028 -0.004,0 z" /><path
         id="path5557"
         style="fill:#000000;fill-opacity:1;fill-rule:nonzero;stroke:none"
         d="m 23.812,456.487 0,0.028 0,-0.028 0.024,0.028 -0.024,-0.028 z" /><path
         id="path5559"
         style="fill:#000000;fill-opacity:1;fill-rule:nonzero;stroke:none"
         d="m 23.812,456.515 0.023,0 0,-0.023 -0.023,0 0,0.023 z" /><path
         id="path5561"
         style="fill:#000000;fill-opacity:1;fill-rule:nonzero;stroke:none"
         d="m 23.859,456.515 0,-0.047 -0.047,0 0.047,0.047 z" /><path
         id="path5563"
         style="fill:#000000;fill-opacity:1;fill-rule:nonzero;stroke:none"
         d="m 23.812,456.515 0.051,0 0,-0.047 -0.051,0 0,0.047 z" /><path
         id="path5565"
         style="fill:#000000;fill-opacity:1;fill-rule:nonzero;stroke:none"
         d="m 23.812,456.464 0,0.051 0.047,-0.051 -0.047,0 z m 0.047,0 -0.047,0.051 0,-0.051 0.047,0 z" /><path
         id="path5567"
         style="fill:#000000;fill-opacity:1;fill-rule:nonzero;stroke:none"
         d="m 23.859,456.464 -0.047,0 0.024,0 0,0.051 0.027,-0.051 -0.004,0 z" /><path
         id="path5569"
         style="fill:#000000;fill-opacity:1;fill-rule:nonzero;stroke:none"
         d="m 23.812,456.464 0,0.051 0,-0.051 0.047,0.051 -0.047,-0.051 z" /><path
         id="path5571"
         style="fill:#000000;fill-opacity:1;fill-rule:nonzero;stroke:none"
         d="m 23.812,456.515 0.051,0 0,-0.047 -0.051,0 0,0.047 z" /><path
         id="path5573"
         style="fill:#000000;fill-opacity:1;fill-rule:nonzero;stroke:none"
         d="m 23.859,456.515 0,-0.047 -0.047,0 0.047,0.047 z" /><path
         id="path5575"
         style="fill:#000000;fill-opacity:1;fill-rule:nonzero;stroke:none"
         d="m 23.812,456.515 0.051,0 0,-0.047 -0.051,0 0,0.047 z" /><path
         id="path5577"
         style="fill:#000000;fill-opacity:1;fill-rule:nonzero;stroke:none"
         d="m 23.812,456.464 0,0.051 0.047,-0.051 -0.047,0 z m 0.047,0 -0.047,0.051 0,-0.051 0.047,0 z" /><path
         id="path5579"
         style="fill:#000000;fill-opacity:1;fill-rule:nonzero;stroke:none"
         d="m 23.859,456.464 -0.047,0 0.024,0 0,0.051 0.027,-0.051 -0.004,0 z" /><path
         id="path5581"
         style="fill:#000000;fill-opacity:1;fill-rule:nonzero;stroke:none"
         d="m 23.812,456.464 0,0.051 0,-0.051 0.047,0.051 -0.047,-0.051 z" /><path
         id="path5583"
         style="fill:#000000;fill-opacity:1;fill-rule:nonzero;stroke:none"
         d="m 23.812,456.515 0.051,0 0,-0.047 -0.051,0 0,0.047 z" /><path
         id="path5585"
         style="fill:#000000;fill-opacity:1;fill-rule:nonzero;stroke:none"
         d="m 23.859,456.515 0,-0.047 -0.047,0 0.047,0.047 z" /><path
         id="path5587"
         style="fill:#000000;fill-opacity:1;fill-rule:nonzero;stroke:none"
         d="m 23.812,456.515 0.051,0 0,-0.047 -0.051,0 0,0.047 z" /><path
         id="path5589"
         style="fill:#000000;fill-opacity:1;fill-rule:nonzero;stroke:none"
         d="m 23.812,456.464 0,0.051 0.047,-0.051 -0.047,0 z m 0.047,0 -0.047,0.051 0,-0.051 0.047,0 z" /><path
         id="path5591"
         style="fill:#000000;fill-opacity:1;fill-rule:nonzero;stroke:none"
         d="m 23.859,456.464 -0.047,0 0.024,0 0,0.051 0.027,-0.051 -0.004,0 z" /><path
         id="path5593"
         style="fill:#000000;fill-opacity:1;fill-rule:nonzero;stroke:none"
         d="m 23.812,456.464 0,0.051 0,-0.051 0.047,0.051 -0.047,-0.051 z" /><path
         id="path5595"
         style="fill:#000000;fill-opacity:1;fill-rule:nonzero;stroke:none"
         d="m 23.812,456.515 0.051,0 0,-0.047 -0.051,0 0,0.047 z" /><path
         id="path5597"
         style="fill:#000000;fill-opacity:1;fill-rule:nonzero;stroke:none"
         d="m 76.398,276.402 c -19.878,0 -36,-16.122 -36,-36 0,-19.883 16.122,-36 36,-36 l 328,0 c 19.883,0 36,16.117 36,36 0,19.878 -16.117,36 -36,36 l -328,0 z" /><path
         id="path5599"
         style="fill:#000000;fill-opacity:1;fill-rule:nonzero;stroke:none"
         d="m 356.621,125.48 0,62.922 40.246,0 0,-9.028 -30.703,0 0,-17.918 26.172,0 0,-8.511 -26.172,0 0,-18.481 30.703,0 0,-8.984 -40.246,0 z m -59.086,0 0,62.922 9.02,0 28.461,-44.743 0.168,0 0,44.743 9.589,0 0,-62.922 -9.027,0 -28.453,44.742 -0.219,0 0,-44.742 -9.543,0 0.004,0 z m -58.973,0.047 22.973,62.957 7.86,0 22.976,-62.957 -10.023,0 -4.832,14.199 -23.883,0 -5.008,-14.199 -10.063,0 z m 17.876,22.625 18.226,0 c -1.324,3.886 -2.367,6.929 -3.133,9.132 -0.761,2.2 -1.422,4.153 -1.984,5.852 -0.563,1.699 -1.129,3.426 -1.707,5.184 -0.574,1.753 -1.34,4.128 -2.289,7.125 -1.004,-3.11 -1.813,-5.594 -2.414,-7.458 -0.61,-1.855 -1.192,-3.644 -1.754,-5.375 -0.563,-1.726 -1.207,-3.652 -1.945,-5.785 -0.731,-2.132 -1.731,-5.027 -3,-8.675 z m -67.415,-1.379 0,41.629 9.547,0 0,-40.551 c 0,-4.348 1.231,-7.664 3.696,-9.957 2.457,-2.289 5.504,-3.43 9.132,-3.43 3.625,0 6.668,1.141 9.133,3.43 2.461,2.293 3.887,5.613 3.696,9.957 l 0,40.551 9.543,0 0,-41.629 c 0,-6.571 -2.176,-11.84 -6.524,-15.828 -4.348,-3.993 -9.629,-5.981 -15.848,-5.981 -6.246,0 -11.535,1.988 -15.871,5.981 -4.332,3.988 -6.5,9.265 -6.5,15.828 l -0.004,0 z m -52.41,10.144 c 0,7.574 0.199,12.453 0.602,14.641 0.402,2.187 1.125,4.203 2.16,6.047 1.469,2.734 3.875,5.308 7.234,7.73 3.352,2.418 7.508,3.625 12.457,3.625 4.922,0 9.059,-1.207 12.418,-3.625 3.352,-2.422 5.793,-4.996 7.317,-7.73 1.008,-1.844 1.715,-3.86 2.121,-6.047 0.402,-2.188 0.601,-7.067 0.601,-14.641 0,-7.57 -0.199,-12.449 -0.601,-14.64 -0.406,-2.188 -1.113,-4.204 -2.121,-6.047 -1.524,-2.762 -3.965,-5.328 -7.317,-7.703 -3.359,-2.379 -7.496,-3.567 -12.418,-3.567 -4.953,0 -9.105,1.188 -12.457,3.567 -3.359,2.375 -5.765,4.941 -7.234,7.703 -1.035,1.843 -1.758,3.859 -2.16,6.047 -0.403,2.187 -0.602,7.07 -0.602,14.64 z m 9.539,0 c 0,-6.476 0.219,-10.683 0.668,-12.609 0.446,-1.93 1.289,-3.672 2.524,-5.227 0.953,-1.265 2.246,-2.351 3.886,-3.261 1.641,-0.907 3.586,-1.36 5.832,-1.36 2.247,0 4.188,0.453 5.833,1.36 1.636,0.91 2.937,1.996 3.882,3.261 1.243,1.555 2.086,3.297 2.528,5.227 0.445,1.926 0.668,6.129 0.668,12.609 0,6.449 -0.223,10.637 -0.668,12.567 -0.442,1.929 -1.285,3.699 -2.528,5.312 -0.945,1.207 -2.246,2.274 -3.882,3.191 -1.645,0.922 -3.586,1.387 -5.833,1.387 -2.246,0 -4.191,-0.465 -5.832,-1.387 -1.64,-0.917 -2.933,-1.984 -3.886,-3.191 -1.235,-1.613 -2.078,-3.383 -2.524,-5.312 -0.449,-1.93 -0.668,-6.118 -0.668,-12.567 z m -62.226,-31.441 0,62.926 22.023,0 c 8.613,0 15.004,-3.528 19.176,-10.582 1.555,-2.68 2.504,-5.184 2.852,-7.512 0.343,-2.336 0.515,-6.793 0.515,-13.391 0,-7.078 -0.234,-11.812 -0.711,-14.183 -0.476,-2.379 -1.418,-4.653 -2.828,-6.848 -1.875,-2.934 -4.441,-5.406 -7.707,-7.406 -3.269,-2 -7.234,-3 -11.898,-3 l -21.422,0 0,-0.004 z m 9.547,53.898 0,-44.91 11.445,0 c 5.238,0 9.125,1.828 11.656,5.484 1.039,1.586 1.692,3.293 1.969,5.118 0.273,1.828 0.41,5.664 0.41,11.511 0,5.641 -0.152,9.539 -0.453,11.703 -0.305,2.161 -1.09,4.102 -2.352,5.829 -2.621,3.515 -6.363,5.269 -11.23,5.269 l -11.445,0 0,-0.004 z" /><path
         id="path5601"
         style="fill:#000000;fill-opacity:1;fill-rule:nonzero;stroke:none"
         d="M 240.398,480.8 C 107.633,480.8 0,373.167 0,240.402 0,107.632 107.633,-0.001 240.398,-0.001 c 132.77,0 240.403,107.633 240.403,240.403 0,132.765 -107.633,240.398 -240.403,240.398 z m 0,-0.398 c 132.551,0 240,-107.454 240,-240 0,-132.551 -107.449,-240 -240,-240 -132.546,0 -240,107.449 -240,240 0,132.546 107.454,240 240,240 z" /></g></g></svg>