<?xml version="1.0" encoding="UTF-8" standalone="no"?>
<!-- Created with Inkscape (http://www.inkscape.org/) -->

<svg
   width="441.41669mm"
   height="289.4454mm"
   viewBox="0 0 441.41668 289.4454"
   version="1.1"
   id="svg432"
   inkscape:version="1.1.2 (0a00cf5339, 2022-02-04)"
   sodipodi:docname="DE:386.3.svg"
   xmlns:inkscape="http://www.inkscape.org/namespaces/inkscape"
   xmlns:sodipodi="http://sodipodi.sourceforge.net/DTD/sodipodi-0.dtd"
   xmlns="http://www.w3.org/2000/svg"
   xmlns:svg="http://www.w3.org/2000/svg">
  <sodipodi:namedview
     id="namedview434"
     pagecolor="#ffffff"
     bordercolor="#666666"
     borderopacity="1.0"
     inkscape:pageshadow="2"
     inkscape:pageopacity="0.0"
     inkscape:pagecheckerboard="0"
     inkscape:document-units="mm"
     showgrid="false"
     inkscape:zoom="0.047827669"
     inkscape:cx="250.90079"
     inkscape:cy="-292.71759"
     inkscape:window-width="1547"
     inkscape:window-height="749"
     inkscape:window-x="508"
     inkscape:window-y="131"
     inkscape:window-maximized="0"
     inkscape:current-layer="layer1" />
  <defs
     id="defs429">
    <clipPath
       id="clipPath27392"
       clipPathUnits="userSpaceOnUse">
      <path
         id="path27390"
         d="M 39,41 H 2662 V 1761 H 39 Z" />
    </clipPath>
  </defs>
  <g
     inkscape:label="Layer 1"
     inkscape:groupmode="layer"
     id="layer1"
     transform="translate(-46.230068,182.19631)">
    <g
       transform="matrix(0.16838197,0,0,-0.16838197,39.511291,114.24941)"
       id="g27384">
      <g
         id="g27386">
        <g
           clip-path="url(#clipPath27392)"
           id="g27388">
          <g
             id="g27394">
            <path
               id="path27396"
               style="fill:#633a34;fill-opacity:1;fill-rule:evenodd;stroke:none"
               d="m 107.207,41.574 h -3.375 l -3.582,0.512 -3.379,0.172 -3.242,0.68 -3.035,0.683 -3.375,1.024 -3.071,1.023 -3.207,1.328 -2.902,1.367 -2.863,1.364 -2.899,1.535 -2.695,2.011 -2.73,1.879 -2.356,1.84 -2.558,2.047 -2.387,2.391 -2.352,2.179 -1.879,2.731 -2.011,2.387 -1.875,2.527 -2.047,2.695 -1.332,2.899 -1.535,2.863 -1.364,3.07 -1.195,3.039 -1.16,3.239 -1.024,3.207 -0.679,3.207 -0.684,3.242 -0.172,3.375 -0.34,3.582 v 1590.816 l 0.34,3.547 0.172,3.242 0.684,3.379 0.679,3.207 1.024,3.239 1.16,3.207 1.195,3.07 1.364,3.035 1.535,2.902 1.332,2.696 2.047,2.898 1.875,2.524 2.011,2.558 1.879,2.524 2.352,2.39 2.387,2.184 2.558,2.047 2.356,1.875 2.73,1.84 2.695,2.046 2.899,1.536 2.863,1.367 2.902,1.328 3.207,1.367 3.071,0.852 3.375,1.195 3.035,0.648 3.242,0.68 3.379,0.172 3.582,0.512 h 2493.664 l 3.41,-0.512 3.379,-0.172 3.41,-0.68 3.035,-0.648 3.411,-1.195 3.039,-0.852 3.238,-1.367 2.867,-1.328 2.863,-1.367 2.731,-1.536 2.898,-2.046 2.696,-1.84 2.39,-1.875 2.524,-2.047 2.351,-2.184 2.391,-2.39 1.875,-2.524 2.047,-2.558 1.844,-2.524 2.046,-2.898 1.329,-2.696 1.535,-2.902 1.367,-3.035 1.191,-3.07 0.989,-3.207 1.23,-3.239 0.648,-3.207 0.68,-3.379 0.172,-3.242 0.34,-3.547 V 105.672 l -0.34,-3.582 -0.172,-3.375 -0.68,-3.242 -0.648,-3.207 -1.23,-3.207 -0.989,-3.239 -1.191,-3.039 -1.367,-3.07 -1.535,-2.863 -1.329,-2.899 -2.046,-2.695 -1.844,-2.527 -2.047,-2.387 -1.875,-2.731 -2.391,-2.179 -2.351,-2.391 -2.524,-2.047 -2.39,-1.84 -2.696,-1.879 -2.898,-2.011 -2.731,-1.535 -2.863,-1.364 -2.867,-1.367 -3.238,-1.328 -3.039,-1.023 -3.411,-1.024 -3.035,-0.683 -3.41,-0.68 -3.379,-0.172 -3.41,-0.512 z" />
            <path
               id="path27398"
               style="fill:#ffffff;fill-opacity:1;fill-rule:evenodd;stroke:none"
               d="m 148.398,276.039 -0.679,3.035 -0.856,3.071 -0.816,2.867 -0.684,2.386 9.145,16.102 9.48,15.59 9.657,15.25 10.027,15.078 9.996,14.602 10.336,14.429 10.68,13.883 10.675,13.715 11.02,13.406 11.359,13.235 11.36,12.863 11.703,12.551 11.871,12.386 12.211,12.039 12.347,11.84 12.555,11.699 12.727,11.36 13.062,11.191 13.203,10.883 13.578,10.641 13.543,10.543 13.918,10.336 14.055,10.164 14.395,9.996 14.601,9.824 14.738,9.656 15.114,9.516 15.078,9.484 15.418,9.176 15.762,9.144 15.757,8.969 16.137,8.805 17.09,6.273 17.125,6.141 16.957,5.902 17.125,5.766 17.125,5.594 17.125,5.425 17.125,5.254 17.125,5.082 17.125,4.946 17.293,4.742 17.094,4.57 17.293,4.403 17.297,4.23 17.296,4.094 17.293,3.887 17.297,3.89 17.465,3.547 17.465,3.414 17.434,3.41 17.636,3.035 17.465,3.036 17.637,2.902 17.808,2.695 17.774,2.559 17.808,2.351 17.805,2.387 17.981,2.047 17.976,2.016 18.113,1.875 18.149,1.671 18.148,1.707 18.285,1.364 -0.136,-6.617 -0.512,-6.278 -0.852,-6.277 -1.195,-5.902 -1.363,-5.934 -1.5,-5.801 -1.879,-5.73 -2.047,-5.594 -2.012,-5.629 -2.386,-5.598 -2.391,-5.73 -2.523,-5.594 -5.082,-11.531 -5.082,-11.871 -9.348,-0.684 -18.625,-1.703 -9.348,-0.683 -9.312,-0.852 -9.145,-0.648 -9.347,-0.852 -9.313,-0.856 -3.887,-5.082 -3.718,-5.082 -3.754,-5.117 -3.375,-5.219 -3.414,-5.253 -3.207,-5.082 -3.207,-5.29 -2.899,-5.253 -2.867,-5.219 -2.899,-5.289 -2.695,-5.422 -2.558,-5.426 -4.911,-10.676 -4.742,-11.019 -4.433,-11.02 -4.231,-11.187 -4.23,-11.192 -3.891,-11.531 -3.887,-11.527 -3.925,-11.703 -4.059,-11.836 -3.891,-12.215 -11.359,-1.875 -11.188,-2.012 -11.191,-2.047 -11.359,-2.047 -11.188,-2.011 -11.359,-2.219 -11.192,-2.219 -11.187,-2.183 -6.961,-7.469 -7.129,-7.438 -6.926,-7.468 -6.957,-7.473 -6.961,-7.473 -6.957,-7.433 -6.925,-7.473 -6.961,-7.437 -6.957,-7.641 -6.961,-7.469 -6.754,-7.473 -6.957,-7.605 -6.961,-7.645 -6.754,-7.433 -6.789,-7.645 -6.789,-7.64 -4.399,-11.496 -4.265,-11.36 -4.231,-11.699 -4.23,-11.531 -4.231,-11.703 -4.23,-11.7 -4.434,-11.871 -4.23,-11.703 -33.907,-0.168 -33.91,-0.172 -34.047,-0.136 -33.941,-0.34 -33.875,-0.207 -33.91,-0.137 -34.078,-0.168 -33.91,-0.207 -33.907,-0.137 -33.91,-0.168 -34.078,-0.343 -33.875,-0.168 -67.82,-0.344 -34.078,-0.168 z" />
            <path
               id="path27400"
               style="fill:#ffffff;fill-opacity:1;fill-rule:evenodd;stroke:none"
               d="m 1100.285,803.762 -5.594,1.535 -5.765,1.535 -5.934,1.332 -6.109,1.363 -12.383,2.559 -12.859,2.184 -12.895,2.214 -13.238,2.356 -13.031,2.387 -12.895,2.73 -6.445,1.5 -12.555,3.414 -6.105,1.84 -5.903,2.047 -5.937,2.012 -5.594,2.39 -5.594,2.524 -5.426,2.73 -5.082,3.07 -4.945,3.204 -4.742,3.378 -4.402,3.719 -4.227,3.922 -3.926,4.231 -3.547,4.605 -16.613,3.719 -16.441,3.547 -16.274,3.55 -15.929,3.75 -15.934,3.719 -15.758,3.891 -15.59,4.094 -15.453,4.398 -7.609,2.355 -7.641,2.387 -7.609,2.559 -7.641,2.523 -7.469,2.731 -7.609,2.867 -7.469,3.066 -7.472,3.039 -7.438,3.239 -7.469,3.378 -7.3,3.547 -7.473,3.719 -7.266,3.754 -7.3,4.059 -7.266,4.23 -7.301,4.434 -13.918,2.355 -14.055,2.387 -13.917,2.183 -13.883,2.387 -13.918,2.184 -13.715,2.219 -13.715,2.046 -13.574,2.012 -22.723,-1.672 -22.719,-1.875 -22.718,-1.707 -22.719,-1.84 -22.551,-1.707 -22.719,-1.875 -22.718,-1.672 -22.516,-1.878 -22.719,-1.875 -22.722,-1.844 -22.547,-1.875 -22.551,-1.875 -22.547,-1.844 -22.551,-1.875 -22.547,-1.875 -22.55,-2.016 v 700.317 l 144.097,0.308 144.094,0.34 144.266,0.512 144.097,0.344 144.094,0.34 144.266,0.339 144.097,0.344 144.094,0.512 144.266,0.34 144.265,0.172 144.098,0.339 144.266,0.34 144.265,0.172 144.266,0.309 144.266,0.168 144.437,0.343 v -627.042 l -31.008,-1.364 -27.156,-1.195 -23.707,-1.024 -20.539,-0.851 -17.774,-0.852 -15.281,-0.855 -13.031,-0.649 -11.188,-0.679 -9.859,-0.856 -8.461,-0.679 -7.609,-0.856 -7.129,-1.023 -6.957,-0.989 -7.133,-1.023 -7.469,-1.363 -8.121,-1.535 7.438,33.226 7.812,33.395 7.985,33.398 8.117,33.738 8.324,33.739 8.117,33.738 8.156,33.91 7.981,33.906 7.777,33.91 7.438,34.079 3.754,16.921 3.546,16.989 3.411,16.922 3.379,17.125 3.242,16.953 3.035,16.953 2.863,16.957 2.902,16.953 2.524,16.953 2.559,16.785 2.218,16.953 2.18,16.957 -6.273,-0.171 h -6.11 l -6.242,-0.34 -6.106,-0.684 -20.195,-87.808 -17.465,-77.129 -15.25,-66.797 -13.203,-57.653 -11.187,-48.984 -9.52,-41.004 -7.945,-34.25 -6.621,-27.976 -5.422,-22.547 -4.402,-17.977 -3.547,-14.055 -3.071,-10.882 -2.523,-8.801 -2.391,-7.133 -2.215,-6.617 -2.355,-6.414 -3.207,0.172 -3.238,0.34 -3.039,0.511 -3.071,0.512 -2.898,0.648 -2.863,0.684 -2.696,0.852 -2.73,1.023 -2.696,1.195 -2.73,1.16 -2.559,1.196 -2.691,1.531 -2.559,1.535 -2.527,1.672 -2.559,1.707 -2.523,1.875 6.074,28.145 6.106,27.972 5.968,27.973 6.075,27.973 6.105,28.113 6.106,27.973 6.277,27.972 12.211,55.946 6.277,27.972 6.106,27.973 6.246,27.805 6.14,27.972 6.243,27.801 6.277,27.973 6.105,27.804 -3.378,0.34 -3.582,0.512 -3.375,0.34 -3.379,0.343 -3.379,0.34 -3.41,0.512 -3.239,0.34 -3.039,0.344 -6.277,-27.668 -6.274,-27.633 -6.109,-27.629 -6.277,-27.77 -6.071,-27.668 -6.277,-27.8 -6.105,-27.801 -6.278,-27.633 -6.105,-27.769 -6.106,-27.801 -6.074,-27.805 -6.141,-27.836 -6.07,-27.769 -6.109,-27.801 -6.106,-27.973 -5.933,-27.805 -5.086,2.696 -4.946,2.73 -4.742,2.524 -4.742,2.386 -4.742,2.356 -4.738,2.558 -4.743,2.387 -4.605,2.356 6.309,31.351 5.39,27.801 4.945,24.766 4.403,21.867 3.89,19.82 3.75,18.149 3.547,17.125 3.551,16.273 3.375,16.27 3.754,16.613 3.887,17.469 4.437,18.828 4.707,20.843 5.422,23.063 6.11,26.098 6.957,29.507 -3.887,0.852 -3.754,0.648 -3.891,0.852 -3.886,0.684 -3.922,0.683 -3.856,0.512 -3.926,0.512 -3.886,0.511 -4.606,-20.539 -4.57,-20.672 -4.711,-20.504 -4.602,-20.671 -4.402,-20.536 -4.57,-20.503 -4.574,-20.672 -4.602,-20.536 -4.402,-20.503 -4.571,-20.672 -4.402,-20.535 -4.57,-20.676 -4.403,-20.5 -4.433,-20.504 -4.571,-20.707 -4.433,-20.5 -18.285,-1.024 -17.637,-1.332 -17.297,-1.363 -16.785,-1.875 -8.117,-1.023 -8.153,-1.024 -7.949,-1.16 -7.984,-1.367 -7.981,-1.363 -7.777,-1.536 -7.781,-1.5 -7.809,-1.707 -7.812,-1.875 -7.61,-2.015 -7.64,-2.215 -7.606,-2.184 -7.812,-2.386 -7.641,-2.559 -7.609,-2.695 -7.813,-2.903 -7.812,-3.035 -7.778,-3.207 -7.812,-3.582 -7.777,-3.547 -7.981,-3.718 -8.121,-4.094 -7.981,-4.059 -8.324,-4.402 -8.289,0.344 -8.324,0.339 -8.289,0.34 -8.324,0.344 -8.121,0.305 -8.325,0.172 -8.117,0.339 -8.324,0.172 -8.117,0.34 -8.121,0.172 -8.153,0.172 -8.152,0.34 -8.289,0.172 -8.156,0.168 -8.117,0.171 -8.153,0.172 -5.426,-10.168 -5.421,-10.164 -5.426,-10.168 -5.422,-10.199 -5.426,-10.164 -5.426,-10.168 -5.422,-10.164 -5.425,-10.168 -8.289,-0.852 -7.641,-1.023 -7.129,-0.852 -6.586,-1.195 -6.308,-1.16 -5.903,-1.535 -5.765,-1.535 -5.594,-1.844 -5.461,-2.047 -5.387,-2.387 -5.426,-2.695 -5.425,-2.898 -5.797,-3.379 -5.903,-3.719 -6.105,-4.09 -6.617,-4.402 v 10.508 l 6.105,4.093 5.934,3.547 5.937,3.207 5.594,2.899 5.766,2.523 5.593,2.391 5.731,1.84 5.765,1.707 5.801,1.535 5.903,1.363 6.105,1.16 6.277,1.196 13.235,1.875 14.566,2.046 4.574,10.168 4.946,10.164 4.742,9.997 4.91,10.164 5.082,10.031 4.914,10.164 5.082,9.824 5.086,9.828 13.063,0.168 11.496,0.172 10.371,0.168 h 31.012 l 6.273,-0.168 6.109,-0.34 6.106,-0.172 6.277,-0.511 6.582,-0.512 7.129,-0.512 7.984,-0.683 8.973,-0.817 9.996,-0.855 10.711,5.593 10.676,5.426 10.473,5.254 10.371,5.082 10.508,4.914 10.335,4.742 10.508,4.434 10.508,4.059 5.25,1.843 5.254,1.875 5.426,1.875 5.422,1.672 5.425,1.707 5.594,1.364 5.629,1.503 5.563,1.364 5.765,1.195 5.762,1.191 5.937,1.024 5.938,0.851 6.105,0.821 6.106,0.683 12.555,1.024 -0.344,23.742 -0.34,23.742 -0.34,23.539 -0.344,23.742 -0.339,23.743 -0.172,23.711 -0.34,23.57 -0.172,23.746 -0.34,23.742 -0.172,23.539 -0.168,23.571 -0.172,23.742 -0.339,23.539 -0.172,23.574 -0.172,23.57 -0.168,23.575 H 1972.5 l -0.34,-5.594 -0.512,-5.426 -0.339,-5.422 -0.344,-5.598 -0.512,-5.421 -0.34,-5.594 -0.34,-5.426 -0.343,-5.426 -4.399,0.684 -4.23,0.683 -4.266,0.477 -4.058,0.512 -4.231,0.511 -4.058,0.512 -4.094,0.34 -3.891,0.344 -1.191,5.082 -1.024,5.254 -1.195,5.082 -1.16,5.082 -1.195,5.082 -1.192,5.086 -1.195,5.117 -1.16,5.082 -8.153,-8.324 -8.121,-8.461 -7.98,-8.492 -7.985,-8.633 -7.777,-8.836 -7.301,-8.969 -3.547,-4.574 -3.547,-4.606 -3.41,-4.707 -3.207,-4.773 -3.242,-4.742 -3.035,-4.914 -2.898,-4.742 -2.696,-5.082 -2.73,-4.915 -2.356,-5.082 -2.386,-5.253 -2.047,-5.118 -2.012,-5.39 -1.707,-5.285 -1.535,-5.426 -1.328,-5.594 -1.024,-5.559 -0.855,-5.628 -0.68,-5.735 -0.512,-5.933 -4.914,0.82 -4.91,0.68 -4.914,0.511 -9.484,1.024 -4.743,0.343 -4.57,0.512 -4.777,0.34 -1.024,4.23 -0.988,4.399 -1.023,4.23 -0.852,4.438 -0.851,4.226 -0.856,4.403 -0.851,4.23 -0.684,4.434 -4.707,-0.172 -4.606,-0.168 -4.742,-0.172 -4.57,-0.168 -4.742,-0.344 -4.571,-0.339 -4.777,-0.512 -4.57,-0.34 v -36.605 l -5.426,0.82 -5.422,0.68 -5.426,0.511 -5.422,0.512 -5.425,0.512 -5.422,0.343 -5.426,0.512 -5.422,0.34 -0.512,4.23 -0.343,4.231 -0.34,4.094 -0.34,4.058 -0.512,3.887 -0.308,4.063 -0.34,3.921 -0.512,3.891 -6.621,-0.344 -6.445,-0.679 -6.617,-0.512 -6.586,-0.684 -6.481,-0.683 -6.414,-0.649 -12.555,-1.703 v -36.469 l -10.847,-7.437 -10.676,-7.469 -10.68,-7.609 -10.508,-7.469 -10.675,-7.645 -10.539,-7.605 -10.34,-7.641 -10.504,-7.812 -0.172,-3.379 0.172,-3.547 0.168,-3.754 0.344,-3.715 1.191,-8.293 1.367,-9.343 1.672,-10.168 1.531,-11.36 0.856,-6.277 0.851,-6.445 0.684,-6.926 0.68,-7.301 -1.875,-8.836 -1.704,-8.801 -1.707,-8.8 -1.671,-8.836 -1.875,-8.801 -1.672,-8.801 -1.707,-8.836 -1.707,-8.973 -1.672,-8.835 -1.703,-8.801 -1.707,-9.008 -1.536,-8.801 -1.671,-8.973 -1.536,-9.003 -1.703,-8.973 -1.535,-8.973 -3.891,-1.535 -3.718,-1.703 -3.547,-1.535 -3.754,-1.504 -3.547,-1.535 -3.582,-1.703 -3.379,-1.5 -3.547,-1.536 -3.07,-8.667 -2.863,-8.801 -3.071,-8.801 -2.695,-8.836 -2.898,-8.973 -2.696,-9.004 -2.695,-8.972 -2.73,-9.004 -7.473,-2.356 -6.582,-2.011 -5.969,-2.047 -5.254,-1.875 -4.742,-2.047 -4.23,-2.016 -2.047,-1.191 -1.844,-1.195 -1.875,-1.161 -1.875,-1.195 -1.707,-1.363 -1.5,-1.363 -1.707,-1.536 -1.535,-1.671 -3.035,-3.411 -2.868,-4.062 -3.07,-4.399 -3.203,-5.085 -3.242,-5.762 -3.547,-6.449 -4.574,-1.364 -4.739,-0.992 -4.605,-1.191 -4.742,-1.196 -4.575,-1.195 -4.738,-1.191 -4.574,-1.16 -4.773,-1.196 v 11.36 l 0.167,11.359 v 22.723 l 0.172,11.359 0.172,11.324 0.168,11.36 0.512,11.359 -14.055,0.172 -13.406,0.34 -6.414,0.172 h -6.445 l -6.278,-0.34 -6.105,-0.344 -6.106,-0.512 -6.109,-0.988 -3.035,-0.512 -3.071,-0.683 -3.035,-0.852 -3.07,-0.851 -2.867,-0.852 -3.07,-1.16 -3.036,-1.196 -3.035,-1.363 -3.07,-1.367 -3.035,-1.672 -3.071,-1.703 -3.207,-1.879 -1.879,-9.48 -1.703,-9.317 -1.843,-9.515 -1.704,-9.313 -1.535,-9.484 -1.672,-9.348 -1.535,-9.484 -1.535,-9.313 -8.633,-1.191 -8.836,-1.196 -8.629,-1.195 -8.835,-1.363 -8.629,-1.16 -8.805,-1.364 -8.664,-1.367 -8.801,-1.16 -8.664,-1.363 -8.801,-1.363 -8.664,-1.364 -8.804,-1.332 -8.629,-1.363 -8.836,-1.367 -8.629,-1.364 -8.836,-1.332 -1.844,-3.921 -2.047,-4.059 -1.875,-3.891 -1.844,-4.093 -1.875,-3.887 -1.707,-4.231 -1.671,-4.058 -1.536,-4.266 -3.546,-0.476 -3.411,-0.344 -3.547,-0.512 -3.414,-0.34 -3.375,-0.683 -3.207,-0.512 -3.242,-0.68 z" />
            <path
               id="path27402"
               style="fill:#ffffff;fill-opacity:1;fill-rule:evenodd;stroke:none"
               d="m 1741.754,1174.684 -1.16,1.879 -1.024,1.671 -0.851,1.875 -0.856,1.875 -0.679,1.672 -0.684,1.875 -0.512,1.879 -0.511,1.84 -0.684,3.754 -0.512,3.719 -0.168,3.89 v 3.922 l 0.168,3.887 0.172,4.062 0.34,4.059 0.344,4.094 0.851,8.289 0.512,8.492 h 25.926 v -57.48 l -5.422,-0.852 -5.254,-1.363 -5.254,-1.332 z" />
            <path
               id="path27404"
               style="fill:#ffffff;fill-opacity:1;fill-rule:evenodd;stroke:none"
               d="m 1772.773,1179.941 v 57.481 l 5.457,-0.68 5.563,-1.023 5.766,-1.024 5.933,-1.367 -0.34,-6.785 -0.308,-6.586 -0.375,-6.617 -0.305,-6.789 -0.375,-6.617 -0.172,-6.586 -0.137,-6.618 v -6.789 z" />
          </g>
        </g>
      </g>
    </g>
  </g>
</svg>
