<?xml version="1.0" encoding="UTF-8" standalone="no"?>
<svg xmlns="http://www.w3.org/2000/svg" xml:space="preserve" viewBox="0 0 1001.037 444.67349">
  <g transform="matrix(1.25 0 0 -1.25 0 444.6735)">
    <path fill="#fff" d="m28.43 355.317-1.438-.047-1.414-.094-1.387-.168-1.414-.242-1.339-.359-1.293-.332-1.317-.457-1.293-.504-1.269-.524-1.196-.648-1.148-.645-1.125-.765-1.102-.793-1.054-.789-1.028-.91-.984-.911-.91-.98-.91-1.004-.836-1.055-.743-1.101-.765-1.125-.649-1.172-.644-1.246-.551-1.195-.504-1.293-.453-1.317-.383-1.293-.312-1.344-.239-1.386-.167-1.414-.145-1.387V26.907l.145-1.391.167-1.41.239-1.391.312-1.339.383-1.293.453-1.293.504-1.317.551-1.246.644-1.195.649-1.149.765-1.148.743-1.102.836-1.031.91-1.004.91-1.008.984-.91 1.028-.883 1.054-.863 1.102-.742 1.125-.742 1.148-.645 1.196-.672 1.269-.527 1.293-.504 1.317-.453 1.293-.406 1.339-.289 1.414-.239 1.387-.144 1.414-.168h746.863l1.415.168 1.386.144 1.414.239 1.364.289 1.293.406 1.293.453 1.293.504 1.218.527 1.176.672 1.219.645 1.152.742 1.098.742 1.031.863 1.027.883.985.91.91 1.008.91 1.004.789 1.031.789 1.102.766 1.148.648 1.149.645 1.195.551 1.246.503 1.317.454 1.293.336 1.293.359 1.339.238 1.391.168 1.41.098 1.391.047 1.437v299.035l-.047 1.438-.098 1.387-.168 1.414-.238 1.386-.359 1.344-.336 1.293-.454 1.317-.503 1.293-.551 1.195-.645 1.246-.648 1.172-.766 1.125-.789 1.101-.789 1.055-.91 1.004-.91.98-.985.911-1.027.91-1.031.789-1.098.793-1.152.765-1.219.645-1.176.648-1.218.524-1.293.504-1.293.457-1.293.332-1.364.359-1.414.242-1.386.168-1.415.094-1.437.047H28.43z"/>
    <path d="m28.43 355.739-1.453-.047-1.446-.137-1.406-.14-1.445-.235-1.36-.375-1.308-.328-1.309-.469-1.308-.511-1.309-.563-1.219-.652-1.168-.656-1.121-.747-1.121-.796-1.078-.84-1.027-.891-.985-.934-.933-.984-.934-1.027-.844-1.074-.746-1.125-.797-1.122-.652-1.214-.656-1.262-.559-1.215-.516-1.312-.468-1.309-.375-1.309-.324-1.355-.235-1.449-.14-1.403L0 328.856V26.887l.188-1.398.14-1.453.235-1.403.324-1.355.375-1.309.468-1.308.516-1.36.559-1.261.656-1.215.652-1.168.797-1.121.746-1.121.844-1.079.934-1.027.886-.984 1.032-.934 1.027-.89 1.078-.887 1.121-.75 1.121-.746 1.168-.653 1.219-.703 1.309-.515 1.308-.512 1.309-.469L21.32.844l1.403-.277 1.402-.238 1.406-.141 1.446-.187h746.918l1.402.187 1.406.141 1.445.234 1.407.281 1.308.418 1.309.469 1.308.516 1.215.515 1.219.699 1.215.657 1.168.746 1.121.75 1.031.887 1.074.89.985.934.933.98.887 1.031.844 1.075.793 1.074.75 1.172.652 1.168.656 1.215.559 1.261.516 1.356.468 1.308.329 1.313.371 1.355.238 1.403.184 1.449.093 1.402.047 1.449v299.067l-.047 1.449-.093 1.402-.184 1.403-.238 1.449-.371 1.359-.329 1.309-.468 1.309-.516 1.308-.559 1.215-.656 1.262-.652 1.218-.75 1.122-.793 1.121-.844 1.078-.887 1.027-.933.984-.985.934-1.074.887-1.031.844-1.121.793-1.168.75-1.215.652-1.219.656-1.215.559-1.308.515-1.309.469-1.308.328-1.407.371-1.445.235-1.406.14-1.402.141-1.45.047H28.43zm0-.422h743.992l1.433-.047 1.415-.094 1.386-.168 1.414-.242 1.364-.355 1.293-.336 1.293-.457 1.293-.504 1.222-.524 1.172-.648 1.223-.645 1.144-.765 1.106-.789 1.027-.793 1.027-.91.985-.911.91-.98.91-1.008.789-1.051.789-1.101.766-1.125.648-1.172.645-1.246.551-1.195.503-1.293.454-1.321.336-1.289.359-1.344.238-1.386.168-1.414.098-1.387.047-1.438V28.34l-.047-1.433-.098-1.391-.168-1.41-.238-1.391-.359-1.339-.336-1.293-.454-1.293-.503-1.317-.551-1.246-.645-1.195-.648-1.149-.766-1.148-.789-1.102-.789-1.031-.91-1.004-.91-1.008-.985-.91-1.027-.883-1.027-.863-1.106-.742-1.144-.742-1.223-.645-1.172-.672-1.222-.527-1.293-.504-1.293-.453-1.293-.406-1.364-.289-1.414-.239-1.386-.144-1.415-.168H26.992l-1.414.168-1.387.144-1.414.239-1.339.289-1.293.406-1.317.453-1.293.504-1.269.527-1.196.672-1.148.645-1.125.742-1.102.742-1.054.863-1.032.883-.98.91-.91 1.008-.906 1.004-.84 1.031-.743 1.102-.765 1.148-.649 1.149-.644 1.195-.551 1.246-.504 1.317-.453 1.293-.383 1.293-.312 1.339-.239 1.391-.167 1.41-.145 1.391v301.91l.145 1.387.167 1.414.239 1.386.312 1.344.383 1.289.453 1.321.504 1.293.551 1.195.644 1.246.649 1.172.765 1.125.743 1.101.84 1.051.906 1.008.91.98.98.911 1.032.91 1.054.793 1.102.789 1.125.765 1.148.645 1.196.648 1.269.524 1.293.504 1.317.457 1.293.336 1.339.355 1.414.242 1.387.168 1.414.094 1.438.047z"/>
    <path fill="#633a34" d="M772.418 341.356H27.664l-.672-.07-.719-.075-.695-.168-.644-.14-.649-.145-.668-.265-.648-.239-.598-.312-.574-.285-.598-.36-.625-.359-.551-.383-.5-.406-.48-.457-.5-.43-.457-.527-.453-.477-.41-.55-.383-.551-.406-.551-.309-.598-.336-.601-.266-.598-.238-.644-.262-.649-.191-.644-.144-.696-.122-.648-.07-.715-.074-.695V27.594l.074-.691.07-.672.122-.719.144-.644.191-.649.262-.644.238-.649.266-.597.336-.645.309-.578.406-.598.383-.527.41-.5.453-.504.457-.504.5-.43.48-.453.5-.457.551-.359.625-.406.598-.289.574-.36.598-.238.648-.238.668-.266.649-.191.644-.164.695-.075.719-.117.672-.051H773.16l.695.051.719.117.645.075.695.164.672.191.644.266.649.238.598.238.597.36.598.289.551.406.55.359.551.457.481.453.527.43.43.504.453.504.41.5.383.527.359.598.356.578.289.645.312.597.239.649.261.644.145.649.144.644.168.719.094.672.051.691v300.524l-.051.695-.094.715-.168.648-.144.696-.145.644-.261.649-.239.644-.312.598-.289.601-.356.598-.359.551-.383.551-.41.55-.453.477-.43.527-.527.43-.481.457-.551.406-.55.383-.551.359-.598.36-.597.285-.598.312-.649.239-.644.265-.672.145-.695.14-.645.168-.719.075-.695.07h-.742z"/>
    <path fill="#fff" fill-rule="evenodd" d="M159.133 281.954h19.055l.91-.098.886-.094.911-.168.886-.191.86-.238.863-.313.789-.289.789-.406.816-.36.743-.453.742-.48.719-.5.691-.504.648-.598.598-.601.598-.598.601-.691.547-.649.504-.719.457-.742.453-.742.406-.789.336-.813.36-.792.238-.86.266-.84.191-.91.141-.883.168-.91.05-.887.047-.957v-26.695l-.047-.957-.05-.887-.168-.957-.141-.836-.191-.91-.266-.84-.238-.859-.36-.793-.336-.859-.406-.743-.453-.742-.457-.742-.504-.719-.547-.695-.601-.644-.598-.649-.598-.598-.648-.55-.691-.551-.719-.504-.742-.43-.743-.453-.816-.41-.789-.332-.789-.359-.863-.243-.86-.261-.886-.192-.911-.144-.886-.168-.91-.047-.958-.047h-18.097v62.891zm-13.406 12.566h31.503l1.653-.047 1.605-.094 1.555-.191 1.555-.312 1.558-.336 1.485-.407 1.461-.504 1.386-.55 1.414-.645 1.34-.695 1.363-.742 1.247-.813 1.246-.887 1.195-.957 1.148-.933 1.102-1.055 1.055-1.101.957-1.149.933-1.195.91-1.246.813-1.246.742-1.364.695-1.34.645-1.339.551-1.461.504-1.438.406-1.508.336-1.531.312-1.558.192-1.555.117-1.582.051-1.653v-25.16l-.051-1.601-.117-1.582-.192-1.606-.312-1.554-.336-1.485-.406-1.508-.504-1.437-.551-1.461-.645-1.387-.695-1.34-.742-1.316-.813-1.293-.91-1.246-.933-1.149-.957-1.148-1.055-1.078-1.102-1.055-1.148-1.004-1.195-.957-1.246-.84-1.247-.859-1.363-.742-1.34-.695-1.414-.598-1.386-.551-1.461-.504-1.485-.453-1.558-.336-1.555-.265-1.555-.192-1.605-.144-1.653-.047h-31.503v88.027zm104.785-36.914h-.696l-.644-.047-.695-.121-.668-.094-.649-.144-.644-.192-.602-.215-.598-.242-.597-.261-.598-.289-.551-.36-.55-.332-.504-.359-.504-.407-.5-.433-.457-.406-.43-.504-.453-.453-.41-.528-.36-.504-.332-.55-.359-.551-.242-.598-.309-.551-.242-.644-.215-.598-.14-.648-.145-.672-.145-.645-.07-.644-.051-.696-.047-.695h26.813l-.094 1.391-.051.644-.14.645-.168.672-.145.648-.238.598-.215.644-.289.551-.312.598-.286.551-.359.55-.406.504-.336.528-.457.453-.453.504-.453.406-.504.433-.481.407-.5.359-.551.332-.55.36-.602.289-.621.261-.574.242-.621.215-.649.192-.644.144-.649.094-.691.121-.672.047h-.695zm-4.953-38.352.765-.289.789-.261.813-.239.84-.144.812-.145.84-.121.859-.047h1.797l.957.098.934.117.91.192.957.191.887.312.863.29.883.406.816.406.836.453.817.481.742.55.742.598.715.649.695.667.649.743 9.55-8.235-1.101-1.195-1.149-1.152-1.246-1.102-1.246-1.004-1.363-.933-1.34-.864-1.414-.789-1.434-.695-1.507-.645-1.512-.55-1.555-.504-1.578-.36-1.605-.285-1.606-.265-1.652-.141h-3.063l-1.437.094-1.461.215-1.387.191-1.414.336-1.387.359-1.34.453-1.367.504-.91.383-.883.406-.91.457-.84.504-.812.477-.84.504-.766.597-1.484 1.196-.719.648-.691.672-.649.691-.644.696-.598.742-.551.742-.55.813-.551.793-.504.789-.453.863-.41.836-.43.863-.359.883-.36.91-.238.887-.313.957-.238.957-.191.933-.168.961-.098.934-.094 1.004-.046.957-.051.98v12.594l.051 1.34.093 1.293.145 1.316.262 1.293.289 1.246.359 1.247.406 1.195.43 1.199.504 1.149 1.195 2.203.719 1.05.695.981.789 1.008.817.957.836.886.91.86.957.793.984.789 1.004.695 1.055.719 1.101.598 1.149.597 1.148.481 1.149.453 1.195.453 1.269.359 1.247.243 1.293.238 1.316.168 1.293.094 1.34.05 1.367-.05 1.289-.094 1.293-.168 1.316-.238 1.246-.243 1.2-.359 1.242-.453 1.148-.453 1.153-.481 1.148-.597 1.055-.598 1.097-.719 1.008-.695 1.004-.789.887-.793.957-.86.863-.886.789-.957.742-1.008.766-.981.648-1.05.645-1.102.551-1.101.551-1.149.453-1.199.41-1.195.332-1.247.312-1.246.239-1.293.144-1.316.121-1.293.047-1.34v-10.988h-39.43v-1.606l.047-.98.121-1.004.192-1.008.238-.933.36-.957.406-.887.457-.859.476-.84.602-.813.668-.742.648-.695.743-.645.812-.601.84-.5.91-.504.934-.407zm86.086-5.625-.743-.961-.859-.835-.84-.813-.957-.742-.91-.695-.981-.649-1.003-.598-1.055-.55-1.102-.453-1.101-.457-1.102-.336-1.148-.309-1.149-.191-1.199-.192-1.195-.097h-2.297l-1.055.097-1.054.145-1.051.14-1.055.266-1.008.285-.98.313-.957.382-.957.454-.887.457-.91.503-.86.551-.839.598-.789.644-.817.649-.691.691-.696.742-.718.77-.598.789-.598.836-.55.863-.551.887-.457.91-.383.934-.406 1.004-.36.957-.238 1.031-.266 1.004-.191 1.055-.141 1.05-.05 1.102-.047 1.101v42.422h12.594v-39.14l.046-.649.098-.644.117-.598.145-.598.144-.601.215-.598.238-.551.243-.597.308-.551.289-.504.309-.5.359-.504.383-.48.41-.453.406-.457.454-.407.433-.383.453-.359.504-.336.5-.359.551-.309.551-.289.551-.262.55-.191.598-.191.602-.215.597-.098.645-.144.601-.047.645-.047h1.316l.649.047.597.047.645.144.601.098.598.215.598.191.551.191 1.101.551 1.051.668.961.695.91.79.836.91.695.984.645 1.004.504 1.148.261.551.192.598.144.601.168.598.098.598.094.644.047.649v39.14h12.617v-62.89h-12.617v7.136zm48.863-7.136-.742.047-.696.05-.765.094-.645.098-.695.144-.695.215-.645.238-.648.262-.622.242-.648.36-.547.285-.601.406-.551.41-.551.383-.5.453-.504.457-.43.5-.457.551-.453.48-.406.551-.336.598-.359.598-.289.597-.309.649-.242.621-.215.695-.191.645-.145.695-.168.695-.047.696-.047.714-.046.743v38.523h-6.297v10.195h6.297v18.868h12.617v-18.868h9.453v-10.195h-9.453v-37.371l.093-.41.098-.36.094-.332.191-.359.168-.336.239-.312.265-.239.285-.261.313-.243.285-.191.359-.168.336-.141.407-.097.41-.047h5.91v-11.828h-7.875zm41.367 38.519-.645.098-.597.117-.551.195-.551.192-.504.308-.504.289-.429.407-.406.406-.407.43-.359.457-.289.504-.238.55-.215.551-.098.598-.094.597-.047.598.047.551.047.504.098.527.14.5.215.457.242.504.239.453.312.406.36.383.332.36.41.336.453.312.457.238.43.262.55.191.504.145.766.168.789.145.742.093.766.145.789.047.816.05.743.047h1.89l1.149-.097 1.101-.094 1.102-.145 1.101-.238 1.102-.266 1.051-.285 2.109-.718 1.051-.43 1.008-.504.933-.504 1.004-.551.957-.597.887-.645.91-.695 7.852 9.816-1.293 1.004-1.364.957-1.39.887-1.457.863-1.461.742-1.485.692-1.507.648-1.536.551-1.554.5-1.555.457-1.605.383-1.653.312-1.605.239-1.649.168-1.652.093-1.652.051h-1.149l-1.152-.051-1.149-.093-1.148-.098-1.149-.168-1.148-.191-1.102-.215-1.148-.239-.793-.238-.766-.219-.742-.285-.742-.312-.766-.285-.695-.411-.691-.355-.649-.434-.644-.406-.625-.504-.645-.43-.551-.55-.597-.504-.504-.551-.551-.598-.453-.597-.48-.598-.454-.648-.41-.668-.406-.696-.332-.648-.359-.742-.289-.692-.262-.742-.242-.766-.215-.742-.192-.742-.144-.816-.168-.789-.047-.743-.047-.863-.047-.789.047-.957.047-.887.121-.91.145-.883.191-.91.238-.84.262-.859.359-.793.336-.859.36-.743.453-.792.457-.743.476-.715.504-.695.551-.695.598-.645.601-.601.668-.598.649-.551.691-.55.695-.5.766-.457.789-.43.742-.406.817-.36.836-.336.863-.312.836-.239.91-.191.91-.168.887-.144.957-.047 13.359-.864.645-.046.601-.145.551-.141.551-.265.5-.285.504-.289.453-.36.387-.406.406-.453.336-.481.309-.504.214-.5.192-.601.144-.551.098-.598.047-.644-.047-.457-.051-.5-.094-.504-.097-.434-.141-.453-.219-.406-.238-.406-.262-.383-.289-.41-.308-.36-.289-.332-.407-.312-.359-.238-.43-.243-.41-.261-.453-.192-1.148-.359-1.102-.336-1.148-.309-1.2-.242-1.148-.215-1.195-.093-1.176-.098h-2.488l-1.293.098-1.317.14-1.293.266-1.246.238-1.242.359-1.199.407-1.219.48-1.199.5-1.149.602-1.101.597-1.102.696-1.054.765-1.051.789-.985.864-.957.883-8.855-8.93 1.41-1.293 1.438-1.242 1.507-1.223 1.559-1.078 1.648-1.004 1.653-.957 1.699-.84 1.75-.742 1.746-.715 1.797-.601 1.867-.477 1.844-.406 1.89-.36 1.915-.191 1.89-.145 1.942-.046h1.769l1.75.14 1.746.192 1.699.265 1.75.336 1.7.453 1.652.504 1.652.598 1.34.551 1.317.644 1.246.742 1.148.864 1.051.886 1.055 1.004.886 1.055.86 1.148.742 1.196.695 1.246.551 1.293.504 1.293.406 1.386.238 1.414.121.743.047.695.047.766.051.695-.051.933-.047.911-.093.882-.168.911-.192.91-.265.84-.286.836-.312.863-.336.789-.406.812-.406.743-.43.742-.504.742-.504.719-.551.648-.597.645-.598.648-.672.551-.644.598-.696.503-.765.5-.696.481-.789.406-.742.406-.863.383-.789.313-.864.285-.836.266-.91.191-.886.215-.911.097-.957.094-13.359.789zm43.715-3.136v1.437l.121 1.461.191 1.387.239 1.414.312 1.39.383 1.34.457 1.293.5 1.293.551 1.266.672 1.199.695 1.195.691 1.153.793 1.097.86 1.078.886 1.008.957 1.004.957.934 1.055.91 1.055.789 1.074.816 1.176.743 1.195.691 1.246.602 1.242.546 1.321.551 1.293.41 1.34.383 1.363.309 1.39.242 1.458.215 1.39.094 1.508.05 1.555-.05 1.558-.094 1.531-.266 1.555-.285 1.508-.359 1.437-.504 1.461-.5 1.414-.649 1.387-.695 1.34-.742 1.316-.86 1.247-.886 1.195-1.004 1.152-1.055 1.102-1.078 1.051-1.195-9.696-8.047-.621.648-.598.645-.648.551-.644.55-.696.551-.695.457-.766.383-.789.406-.742.36-.816.285-.836.265-.864.192-.789.191-.91.094-.836.121h-1.703l-.812-.121-.789-.094-.766-.098-.742-.191-.742-.215-.766-.238-.695-.313-.696-.285-.695-.359-.668-.383-.648-.41-1.196-.906-.551-.481-.55-.504-.551-.55-.504-.598-.453-.598-.43-.597-.41-.649-.359-.668-.332-.625-.36-.719-.242-.742-.262-.691-.238-.742-.144-.766-.168-.793-.094-.789-.051-.813v-9.48l.051-.793.094-.766.168-.789.144-.742.238-.742.262-.766.242-.695.36-.691.332-.696.359-.648.41-.598.43-.644.453-.625.504-.528.551-.547.55-.55.551-.457.598-.504.598-.453.648-.383.668-.36.695-.359.696-.336.695-.262.766-.238.742-.242.742-.168.766-.141.789-.097.812-.047h1.703l.836.094.91.097.789.145.864.215.836.285.816.312.742.289.789.407.766.453.695.429.696.504.644.551.648.598.598.601.621.645 9.696-8.02-1.051-1.148-1.102-1.149-1.152-1.054-1.195-.934-1.247-.957-1.316-.789-1.34-.816-1.387-.696-1.414-.597-1.461-.551-1.437-.453-1.508-.383-1.555-.313-1.531-.191-1.558-.094-1.555-.05h-1.508l-1.39.144-1.458.145-1.39.238-1.363.312-1.34.407-1.293.429-1.321.504-1.242.598-1.246.598-1.195.695-1.176.719-1.074.789-1.055.839-1.055.911-.957.957-.957.933-.886 1.051-.86 1.055-.793 1.148-.691 1.149-.695 1.152-.672 1.242-.551 1.246-.5 1.293-.457 1.293-.383 1.363-.312 1.34-.239 1.391-.191 1.461-.121 1.387v9.336zm75.39 52.644v-32.223l.743.887.859.91.84.789.91.743.957.695.981.644 1.007.602 1.051.551 1.102.453 1.101.406 1.102.359 1.148.29 1.149.238 1.199.168 1.148.094 1.223.05 1.074-.05 1.102-.047 1.054-.168 1.055-.192 1.051-.191 1.008-.313.98-.332.957-.359.957-.457.91-.43.887-.551.86-.55.839-.598.813-.598.742-.718.742-.696.719-.695.648-.789.645-.813.598-.793.55-.882 1.008-1.821.383-.933.406-.957.313-.985.285-1.004.266-1.003.191-1.032.094-1.101.097-1.055.047-1.098v-42.472h-12.593v38.519l-.047.649-.047.644-.051.598-.094.672-.168.597-.191.602-.192.574-.214.551-.551 1.098-.598 1.054-.742.957-.816.887-.883.813-.961.742-1.051.648-1.102.504-.597.238-.551.215-.602.145-.644.144-.598.094-.648.121-.598.047h-1.316l-.649-.047-.644-.121-.598-.094-.597-.144-.602-.145-.598-.215-.55-.238-1.102-.504-1.051-.648-.504-.356-.504-.386-.453-.356-.433-.457-.813-.887-.695-.957-.645-1.054-.55-1.098-.215-.551-.192-.574-.144-.602-.145-.597-.168-.672-.047-.598-.047-.644v-39.168h-12.593v88.027h12.593zm81.133-36.914h-.695l-.719-.047-.644-.121-.649-.094-.644-.144-.649-.192-.597-.215-.598-.242-.621-.261-.602-.289-.523-.36-.578-.332-.477-.359-.551-.407-.453-.433-.457-.406-.453-.504-.457-.453-.383-.528-.359-.504-.359-.55-.336-.551-.309-.598-.242-.551-.262-.644-.191-.598-.192-.648-.097-.672-.164-.645-.051-.644-.094-.696v-.695h26.813l-.047.695-.051.696-.07.644-.145.645-.141.672-.144.648-.266.598-.191.644-.309.551-.289.598-.312.551-.332.55-.817 1.032-.836.957-.457.406-.5.433-.504.407-.504.359-.55.332-.598.36-.551.289-.597.261-.598.242-.648.215-.598.192-.649.144-.668.094-.695.121-.644.047h-.696zm-5.004-38.352.789-.289.817-.261.789-.239.863-.144.789-.145.86-.121.839-.047h1.797l.957.098.911.117.933.192.906.191.961.312.836.29.91.406.789.406.864.453.789.481.742.55.766.598.695.649.695.667.645.743 9.578-8.235-1.102-1.195-1.148-1.152-1.27-1.102-1.246-1.004-1.34-.933-1.363-.864-1.39-.789-1.461-.695-1.485-.645-1.508-.55-1.554-.504-1.606-.36-1.601-.285-1.582-.265-1.653-.141h-3.062l-1.438.094-1.461.215-1.41.191-1.39.336-1.387.359-1.367.453-1.34.504-.91.383-.91.406-.887.457-.86.504-.789.477-.863.504-1.484 1.195-.766.598-.695.648-.696.672-.644.691-.648.696-.622.742-.597.742-.551.813-.504.793-.476.789-.458.863-.453.836-.406.863-.336.883-.359.91-.313.887-.476 1.914-.219.933-.141.961-.144.934-.047 1.004-.051.957-.047.98v12.594l.047 1.34.098 1.293.144 1.316.239 1.293.261 1.246.336 1.247.457 1.195.453 1.199.504 1.149 1.196 2.203.695 1.05.719.981.789 1.008.789.957.863.886.91.86.934.793 1.004.789 1.008.695 1.05.719 2.204 1.195 1.199.481 1.148.453 1.195.453 1.247.359 1.269.243 1.293.238 1.293.168 1.293.094 1.363.05 1.34-.05 1.317-.094 1.293-.168 1.292-.238 1.27-.243 1.195-.359 1.2-.453 1.195-.453 1.148-.481 1.153-.597 1.05-.598 1.055-.719 1.055-.695.933-.789.957-.793.911-.86.882-.886.817-.957.742-1.008.766-.981.621-1.05.672-1.102.55-1.101.551-1.149.43-1.199.406-1.195.359-1.247.29-1.246.261-1.293.145-1.316.094-1.293.05-1.34v-10.988h-39.406v-1.606l.047-.98.098-1.004.214-1.008.239-.933.359-.957.383-.887.453-.859.504-.84.598-.813.601-.742.692-.695.765-.645.793-.601.86-.5.886-.504.91-.407zm-530.55-63.023h14.148l14.219-62.891 17.308 62.891h9.434l17.383-62.891 14.148 62.891h14.196L165.344 68.18h-11.848l-16.519 63.656L120.41 68.18h-11.805l-22.046 88.051zm133.105-36.988h-.644l-.719-.047-.696-.098-.644-.094-.648-.168-.598-.191-.668-.191-.602-.262-.597-.242-.551-.309-.598-.289-.504-.359-.55-.383-.5-.406-.481-.407-.453-.457-.457-.476-.406-.457-.383-.5-.406-.551-.36-.551-.289-.551-.308-.55-.243-.602-.261-.598-.192-.644-.191-.649-.168-.597-.098-.696-.094-.644-.046-.695v-.668h26.761v.668l-.07.695-.094.644-.097.696-.145.597-.191.649-.215.644-.238.598-.266.602-.285.55-.36.551-.336.551-.765 1.051-.84.933-.5.457-.457.407-.551.406-.5.383-.551.359-.55.289-.598.309-.551.242-.648.262-.598.191-.648.191-.668.168-.649.094-.644.098-.696.047h-.695zm-4.953-38.328.789-.313.813-.238.792-.192.813-.214.836-.145.816-.094.836-.051h1.797l.957.098.957.094.934.219 1.82.476.887.36.863.359.836.383.813.457.793.551.789.55.765.547.696.649.691.644.601.742 9.622-8.187-1.172-1.242-1.149-1.149-1.195-1.101-1.293-.985-1.293-.957-1.414-.836-1.387-.816-1.461-.691-1.461-.649-1.531-.551-1.558-.453-1.555-.383-1.606-.312-1.652-.238-1.602-.098-1.628-.047-1.461.047-1.461.098-1.387.14-1.414.242-1.434.309-1.367.359-1.387.434-1.367.5-.883.41-.91.406-.84.43-.859.504-.84.5-.812.551-.793.551-.766.601-.742.598-.692.644-.695.649-.672.691-.644.742-.598.719-.551.793-.55.742-.551.813-.457.836-.477.793-.406.859-.41.887-.332.863-.36.883-.312.961-.238.91-.243.934-.214.957-.145.933-.141.957-.121 1.004-.047.984V107.2l.118 1.367.144 1.293.238 1.242.313 1.246.336 1.27.406 1.195.457 1.199.551 1.125.547 1.102.648 1.101.645 1.051.769 1.008.742.98.836.957.864.887.91.863.933.836.957.766 1.051.695 1.055.696 2.203 1.195 1.149.504 1.199.504 1.195.406 1.195.336 1.293.285 1.27.215 1.293.191 1.34.121h2.66l1.293-.121 1.316-.191 1.293-.215 1.242-.285 1.27-.336 1.199-.406 1.195-.504 1.149-.504 2.203-1.195 1.055-.696.98-.695 1.004-.766.957-.836.91-.863.84-.887.813-.957.789-.98.695-1.008.695-1.051.621-1.101.602-1.102.476-1.125.458-1.199.453-1.195.359-1.27.285-1.246.219-1.242.141-1.293.097-1.367.047-1.289V94.895h-39.355v-2.609l.14-.981.145-1.004.312-.961.285-.882.411-.911.453-.886.55-.813.551-.793.645-.742.695-.715.766-.648.789-.598.816-.551.887-.48.957-.406zm48.309 75.316h12.617v-12.594H263.02v12.594zm0-25.16h12.617V68.18H263.02v62.891zm44.125 0v-7.137l.742.91.859.887.84.789.91.766.957.695.981.648 1.007.598 1.051.551 1.055.453 1.101.457 1.149.336 1.148.285 1.149.215 1.199.191 1.148.121h2.297l1.102-.121 1.055-.144 1.05-.141 1.008-.265 1.055-.286.933-.359 1.004-.336.957-.453.911-.457.886-.504.86-.551.839-.597.813-.645.742-.648.742-.692.719-.742.649-.816.644-.789.598-.789.55-.911.504-.839.504-.958.383-.91.406-.98.313-1.004.285-1.008.266-.98.191-1.055.094-1.102.097-1.05.071-1.102V68.18h-12.617v38.496l-.047.645-.047.648-.051.645-.164.597-.098.598-.191.602-.191.597-.215.551-.551 1.102-.649 1.05-.691.985-.816.91-.887.789-1.004.695-1.004.668-1.101.528-.598.215-.602.191-.597.144-.598.168-.598.094-.648.098-.645.047h-1.316l-.602-.047-.644-.098-.598-.094-.648-.168-.551-.144-.598-.191-.597-.215-1.102-.528-1.004-.668-.504-.336-.504-.359-.453-.383-.457-.406-.789-.91-.742-.985-.598-1.05-.55-1.102-.215-.551-.192-.597-.191-.602-.121-.598-.145-.597-.047-.645-.046-.648V68.18h-12.618v62.891h12.618zm74.429-24.348-.597.047-.602.098-.598.191-.55.262-.504.238-.5.359-.457.336-.407.407-.382.457-.313.453-.285.48-.266.551-.191.551-.164.598-.098.597v1.149l.098.55.117.504.145.504.191.5.215.457.289.43.308.406.29.41.406.332.406.36.383.289.457.262.5.242.504.215.504.14.789.145.765.144.743.168.789.094.769.051.789.093h.813l.742.047 1.148-.047 1.102-.046 1.101-.145 1.102-.168 1.102-.191 1.101-.239 1.055-.312 1.101-.336.981-.406 1.055-.453 1.003-.457 1.004-.551.957-.551.934-.598.91-.644.887-.649 7.851 9.84-1.293 1.008-1.339.934-1.411.859-1.39.84-1.508.742-1.461.719-1.484.644-1.555.598-1.559.504-1.601.43-1.582.359-1.602.312-1.652.239-1.652.191-1.653.098-1.652.047-1.149-.047-1.148-.051-1.148-.094-1.153-.097-1.148-.141-1.102-.215-1.148-.195-1.102-.262-.812-.191-.789-.239-.766-.312-.742-.285-.695-.313-.696-.336-.719-.406-.644-.406-.695-.457-.598-.43-.598-.504-.601-.5-1.102-1.101-.5-.602-1.008-1.195-.406-.649-.43-.644-.359-.645-.406-.695-.289-.695-.309-.766-.289-.695-.262-.742-.191-.743-.195-.812-.164-.742-.098-.817-.094-.789-.051-.789v-1.746l.098-.961.094-.883.144-.91.215-.84.192-.91.312-.836.289-.812.356-.793.41-.789.383-.813.453-.742 1.008-1.391.546-.695.602-.621.598-.645.644-.601.695-.551.672-.523.743-.504.742-.457.765-.453.789-.407.789-.336.817-.359.836-.238.91-.266.863-.238.887-.145.957-.093.883-.122 13.406-.836.602-.05.621-.141.527-.168.551-.242.574-.238.43-.36.457-.359.453-.383.336-.453.359-.504.313-.504.238-.5.191-.551.168-.574.047-.625.047-.598v-.476l-.094-.504-.046-.457-.168-.453-.145-.457-.191-.43-.215-.406-.242-.406-.309-.383-.289-.36-.359-.289-.336-.359-.407-.262-.406-.238-.453-.242-.434-.168-1.101-.383-1.149-.359-1.171-.285-1.149-.266-1.199-.141-1.149-.144-1.195-.098h-1.199l-1.293.051-1.316.047-1.293.191-1.243.192-1.32.312-1.195.332-1.246.41-1.196.453-1.148.504-1.149.598-1.152.648-1.101.645-1.051.742-1.055.813-.957.839-.934.911-8.906-8.954 1.391-1.293 1.457-1.246 1.558-1.195 1.532-1.101 1.605-1.008 1.649-.934 1.703-.859 1.746-.742 1.746-.696 1.867-.597 1.797-.504 1.891-.407 1.867-.336 1.89-.191 1.965-.168 1.891-.047 1.75.047 1.746.098 1.746.215 1.75.238 1.723.359 1.699.453 1.699.481 1.653.598 1.339.55 1.293.649 1.2.765 1.171.836 1.079.957 1.003.934.957 1.101.84 1.102.766 1.199.648 1.242.598 1.293.453 1.368.406 1.339.243 1.387.093.742.098.719.047.742v.742l-.047.911-.051.933-.094.91-.144.911-.215.835-.238.864-.242.836-.309.84-.406.812-.336.793-.457.742-.453.766-.504.742-.504.691-.547.649-.602.644-.597.649-.645.597-.648.551-.695.551-.715.504-.743.453-.742.457-.816.383-.789.359-.863.285-.836.313-.864.238-.886.215-.907.191-.91.098-.887.094-13.406.863zm62.625-38.543h-.765l-.692.071-.695.097-.695.094-.719.144-.645.192-.695.262-.598.242-.648.308-.598.289-.621.36-.598.336-.527.406-.504.406-.551.43-.957.957-.453.551-.41.504-.383.597-.406.551-.312.598-.332.601-.266.645-.238.648-.266.645-.191.648-.141.715-.098.695-.117.696-.051.695v39.285h-6.297v10.223h6.297v18.863h12.571v-18.863h9.457v-10.223h-9.457V83.907l.047-.453.046-.336.098-.407.145-.359.168-.336.191-.312.191-.332.309-.266.242-.238.309-.266.359-.191.289-.141.406-.144.36-.122.383-.046h5.914V68.18h-7.856zm37.805 62.891v-7.137l.766.91.835.887.864.789.933.766.911.695 1.003.648.985.598 1.051.551 1.101.453 1.102.457 1.101.336 1.149.285 1.148.215 1.199.191 1.219.121h2.086l.906-.07.91-.098.887-.144.91-.145.836-.261.864-.239.886-.265.813-.332.84-.36.812-.336.789-.457.817-.453.742-.504.742-.5.719-.601-8.957-10.965-.907.695-.961.649-.98.551-1.004.453-1.101.336-1.102.261-1.148.145-1.149.047h-.648l-.672-.047-.645-.098-.597-.094-.598-.168-.602-.144-.597-.191-.551-.215-1.102-.528-1.05-.668-.504-.336-.504-.359-.43-.383-.406-.406-.863-.91-.696-.985-.644-1.05-.504-1.102-.238-.551-.215-.597-.145-.602-.144-.598-.121-.597-.094-.645-.047-.648V68.18H469.41v62.891h12.594zm66.195-51.113h-10.273l-.789.046-.813.122-.742.191-.695.238-.719.36-.645.406-.601.433-.551.5-.547.551-.457.602-.336.644-.359.696-.238.718-.215.789-.145.743v1.601l.145.793.215.766.238.742.359.644.336.649.457.644.547.551.551.504.601.453.645.383.719.313.695.289.742.214.813.094.789.051h18.101v-8.691l-.144-.743-.192-.789-.265-.718-.332-.696-.41-.644-.454-.602-.503-.551-.551-.5-.598-.433-.644-.406-.696-.36-.695-.238-.766-.191-.789-.122-.789-.046zm-3.16-11.778h-8.859l-.957.117-.934.098-.957.145-.91.191-.887.309-.91.242-.863.359-.836.406-.789.383-.817.453-.742.504-.742.551-.719.551-.691.597-.649.598-.644.649-.551.691-.625.695-.477.742-.503.817-.454.742-.406.836-.383.812-.359.887-.312.863-.239.887-.191.91-.168.957-.145.934-.047.957-.05.98.05.958.047.933.145.957.168.961.191.883.239.91.312.84.359.91.383.789.406.859.454.743.503.793.477.765.625.696.551.691.644.648.649.598.691.598.719.551.742.55.742.504.817.453.789.383.836.41.863.356.91.289.887.238.91.215.957.144.934.145.957.047.957.051h18.89v6.894l-.097.645-.145.597-.191.598-.215.551-.285.551-.36.504-.336.503-.406.43-.457.406-.5.36-.504.336-.551.312-.55.238-.598.168-.648.145-.86.141-.793.097-.859.094-.84.121-.859.047-.84.051-.863.047h-1.7l-.836-.047-.816-.051-.836-.047-.863-.121-.836-.094-.863-.097-.79-.141-.863-.191-.742-.266-.742-.406-.692-.43-.625-.551-.597-.597-.481-.649-.406-.719-9.957 7.852.551.793.644.812.649.743.715.695.695.644.742.649.817.598.789.55.836.504.863.5.91.383.887.41.906.36.961.238.98.238.957.215 1.102.191 1.101.168 1.149.145 1.101.094 1.102.097 1.148.047 1.102.047h2.25l2.203-.094 1.149-.097 1.101-.094 1.102-.145 1.101-.168 1.102-.191.91-.145.836-.214.84-.239.859-.312.793-.285.766-.36.789-.383.742-.406.719-.457.695-.504.691-.476.649-.504.668-.598.601-.551.598-.672.551-.574.551-.668.5-.695.433-.695.453-.692.407-.742.41-.769.285-.79.359-.789.239-.812.265-.793.192-.859.191-.84.168-.887.094-.859.047-.911V68.18h-12.614v6.488l-.433-.742-.453-.695-.551-.648-.551-.645-.598-.551-.648-.551-.668-.503-.695-.407-.742-.383-.743-.359-.765-.312-.789-.239-.864-.191-.789-.145-.863-.117h-.836zm55.469 87.047 1.484.453 1.508.406 1.508.336 1.555.313 1.535.191 1.554.145 1.555.117 1.559.047 1.554-.047 1.582-.117 1.555-.145 1.555-.191 1.508-.313 1.535-.336 1.508-.406 1.507-.453 1.387-.551 1.34-.601 1.32-.742 1.196-.86 1.148-.887 1.055-1.003 1.004-1.102.886-1.102.813-1.246.695-1.246.598-1.34.551-1.339.406-1.415.242-1.484.094-.691.121-.766.047-.742v-3.137l-.047-1.055-.121-1.003-.192-1.032-.285-.957-.359-1.004-.406-.886-.504-.91-.504-.84-.645-.813-.648-.742-.742-.695-.766-.645-.836-.598-.91-.55-.957-.457-.934-.407.934-.382.957-.454.91-.503.836-.598.766-.649.742-.695.648-.812.645-.789.504-.84.504-.86.406-.933.359-.957.285-1.008.192-.981.121-1.054.047-1.055V84.555l-.118-.84-.074-.91-.168-.836-.191-.863-.215-.789-.285-.789-.313-.817-.336-.742-.406-.742-.406-.766-.457-.695-.5-.644-.481-.645-.55-.648-.551-.598-.598-.551-.672-.551-.644-.55-.695-.453-.696-.458-.691-.429-.77-.36-.742-.336-.789-.312-.812-.285-.84-.266-.813-.14-.887-.145-.859-.144-.863-.071h-8.785v11.778h6.941l.645.121.601.14.551.242.551.262.55.289.454.406.453.383.41.453.383.457.308.551.242.551.262.551.145.597.093.645v24.852l-.093.644-.145.602-.262.55-.242.551-.308.551-.383.453-.41.453-.453.434-.454.359-.55.285-.551.266-.551.238-.601.168-.645.094h-8.5v11.828h8.5l.645.094.601.144.551.192 1.101.625.454.332.453.41.41.453.383.504.308.477.242.55.262.598.145.602.093.644v4.309l-.046.48-.094.453-.145.504-.168.457-.191.453-.238.383-.625.813-.285.336-.336.359-.407.289-.406.262-.41.238-.453.219-.481.191-1.004.285-1.003.313-1.055.191-1.055.215-1.051.145-1.054.093-1.055.051-1.027.047-1.055-.047-1.055-.051-1.051-.093-1.054-.145-.981-.215-1.054-.191-1.004-.313-1.055-.285-.453-.191-.457-.219-.43-.238-.406-.262-.359-.289-.411-.359-.285-.336-.312-.407-.239-.406-.261-.383-.192-.453-.191-.457-.098-.504-.121-.453-.047-.48-.047-.5V68.18h-12.593v69.188l.047.742v.742l.097.766.094.691.145.742.167.742.192.696.191.719.504 1.339.598 1.34.719 1.246.836 1.246.863 1.102.98 1.102 1.055 1.003 1.148.887 1.27.86 1.246.742 1.34.601 1.461.551zm80.82-35.984h-.691l-.696-.047-.671-.098-.696-.094-.644-.168-.598-.191-.648-.191-.598-.262-.598-.242-.55-.309-.551-.289-.551-.359-.551-.383-.504-.406-.5-.407-.457-.457-.453-.476-.383-.457-.41-.5-.406-.551-.336-.551-.309-.551-.289-.55-.261-.602-.239-.598-.218-.644-.192-.649-.14-.597-.098-.696-.121-.644-.047-.695v-.668h26.766v.668l-.047.695-.098.644-.094.696-.168.597-.191.649-.192.644-.265.598-.238.602-.313.55-.355.551-.336.551-.36.551-.383.5-.406.457-.457.476-.504.457-.453.407-.527.406-.504.383-.551.359-.574.289-.598.309-.551.242-.644.262-.602.191-.644.191-.645.168-.648.094-.645.098-.718.047h-.649zm-5.004-38.328.817-.313.789-.238.789-.192.816-.214.86-.145.789-.094.863-.051h1.797l.933.098.957.094.957.219.887.238.91.238.887.36.859.359.864.383.836.457.765.551.793.55.742.547.715.649.696.644.648.742 9.551-8.187-1.102-1.242-1.195-1.149-1.199-1.101-1.317-.985-1.293-.957-1.34-.836-1.46-.816-1.461-.691-1.434-.649-1.559-.551-1.554-.453-1.555-.383-1.582-.312-1.605-.238-1.649-.098-1.652-.047-1.461.047-1.438.098-1.414.14-1.386.242-1.415.309-1.386.359-1.414.434-1.34.5-.91.41-.887.406-.859.43-.84.504-.86.5-.793.551-.812.551-.742.601-.742.598-.719.644-.692.649-.648.691-.598.742-.597.719-.602.793-.551.742-.5.813-.504.836-.453.793-.457.859-.383.887-.359.863-.359.883-.286.961-.265.91-.238.934-.215.957-.145.933-.144.957-.094 1.004-.051.984V107.2l.098 1.367.191 1.293.215 1.242.289 1.246.359 1.27.407 1.195.504 1.199.476 1.125.551 1.102.648 1.101.668 1.051.743 1.008.742.98.863.957.836.887.91.863.957.836.934.766 2.109 1.391 2.203 1.195 1.149.504 1.195.504 1.199.406 1.219.336 1.293.285 1.246.215 1.293.191 1.363.121h2.633l1.367-.121 1.289-.191 1.246-.215 1.27-.285 1.246-.336 1.195-.406 1.2-.504 1.148-.504 2.203-1.195 1.051-.696 1.008-.695 1.004-.766.933-.836.91-.863.836-.887.817-.957.789-.98.695-1.008.719-1.051 1.195-2.203.504-1.125.504-1.199.406-1.195.336-1.27.309-1.246.191-1.242.145-1.293.097-1.367.047-1.289V94.895h-39.359V93.34l.047-1.054.121-.981.191-1.004.239-.961.312-.882.406-.911.434-.886.551-.813.55-.793.668-.742.696-.715.742-.648.812-.598.84-.551.836-.48.957-.406z"/>
  </g>
</svg>