<?xml version="1.0" encoding="UTF-8" standalone="no"?>
<svg
   xmlns:dc="http://purl.org/dc/elements/1.1/"
   xmlns:cc="http://creativecommons.org/ns#"
   xmlns:rdf="http://www.w3.org/1999/02/22-rdf-syntax-ns#"
   xmlns:svg="http://www.w3.org/2000/svg"
   xmlns="http://www.w3.org/2000/svg"
   viewBox="0 0 892.04016 1648.55"
   height="1648.55"
   width="892.04016"
   xml:space="preserve"
   version="1.1"
   id="svg19708"><metadata
     id="metadata19714"><rdf:RDF><cc:Work
         rdf:about=""><dc:format>image/svg+xml</dc:format><dc:type
           rdf:resource="http://purl.org/dc/dcmitype/StillImage" /><dc:title></dc:title></cc:Work></rdf:RDF></metadata><defs
     id="defs19712"><clipPath
       id="clipPath19724"
       clipPathUnits="userSpaceOnUse"><path
         id="path19726"
         d="m 136,1318.84 521,0 0,-1201 -521,0 0,1201 z" /></clipPath><clipPath
       id="clipPath19734"
       clipPathUnits="userSpaceOnUse"><path
         id="path19736"
         d="m 136,118 521,0 0,1201 -521,0 0,-1201 z" /></clipPath></defs><g
     transform="matrix(1.25,0,0,-1.25,0,1648.5501)"
     id="g19716"><g
       id="g19718" /><g
       id="g19720"><g
         clip-path="url(#clipPath19724)"
         id="g19722"><g
           transform="translate(0,-0.159912)"
           id="g19728"><g
             id="g19730"><g
               clip-path="url(#clipPath19734)"
               id="g19732"><g
                 id="g19738"><path
                   id="path19740"
                   style="fill:#f0c900;fill-opacity:1;fill-rule:nonzero;stroke:none"
                   d="m 186.484,1318.449 c -27.613,0 -50,-22.387 -50,-50 l 0,-1100 c 0,-27.613 22.387,-50 50,-50 l 422.5,0 c 27.614,0 47.5,22.387 47.5,50 l 0,1100 c 0,27.613 -19.886,50 -47.5,50 l -422.5,0 z" /></g></g></g></g><path
           id="path19742"
           style="fill:#000000;fill-opacity:1;fill-rule:nonzero;stroke:none"
           d="M 636.242,1032.418 156.484,755.43 l 0,-110.848 479.746,276.981 0.012,0.008 0,110.847 z M 636.23,810.715 156.484,533.731 l 0,-110.836 479.746,276.984 0,-0.004 0.012,0.008 c 0.012,85.832 -0.012,110.832 -0.012,110.832 z m 0.012,-221.687 -2.992,-1.723 -476.766,-275.258 0,-110.863 c 0,0 319.828,184.668 479.758,276.965 l 0,110.879 z" /></g></g><g
       id="g19744"><path
         id="path19746"
         style="fill:#656565;fill-opacity:1;fill-rule:nonzero;stroke:none"
         d="m 609.984,478.239 0,-1.469 3.528,0 0,1.469 -3.528,0 z m 5.887,0 0,-1.469 3.535,0 0,1.469 -3.535,0 z m 5.891,0 0,-1.469 3.531,0 0,1.469 -3.531,0 z m 5.894,0 0,-1.469 3.535,0 0,1.469 -3.535,0 z m 5.887,0 0,-1.469 3.527,0 0,1.469 -3.527,0 z m 5.891,0 0,-1.469 3.523,0 0,1.469 -3.523,0 z m 5.886,0 0,-1.469 3.535,0 0,1.469 -3.535,0 z m 5.887,0 0,-1.469 3.535,0 0,1.469 -3.535,0 z m 5.891,0 0,-1.469 3.535,0 0,1.469 -3.535,0 z m 5.89,0 0,-1.469 3.528,0 0,1.469 -3.528,0 z m 5.887,0 0,-1.469 3.527,0 0,1.469 -3.527,0 z m 6.477,0 0,-1.469 2.945,0 0,1.469 -2.945,0 z m 5.886,0 0,-1.469 2.946,0 0,1.469 -2.946,0 z m 5.887,0 0,-1.469 2.957,0 0,1.469 -2.957,0 z m 5.887,0 0,-1.469 2.949,0 0,1.469 -2.949,0 z m 5.894,0 0,-1.469 2.942,0 0,1.469 -2.942,0 z m 5.887,0 0,-1.469 2.953,0 0,1.469 -2.953,0 z m 5.891,0 0,-1.469 2.949,0 0,1.469 -2.949,0 z" /><path
         id="path19748"
         style="fill:#656565;fill-opacity:1;fill-rule:nonzero;stroke:none"
         d="m 609.984,119.762 0,-1.473 3.528,0 0,1.473 -3.528,0 z m 5.887,0 0,-1.473 3.535,0 0,1.473 -3.535,0 z m 5.891,0 0,-1.473 3.531,0 0,1.473 -3.531,0 z m 5.894,0 0,-1.473 3.535,0 0,1.473 -3.535,0 z m 5.887,0 0,-1.473 3.527,0 0,1.473 -3.527,0 z m 5.891,0 0,-1.473 3.523,0 0,1.473 -3.523,0 z m 5.886,0 0,-1.473 3.535,0 0,1.473 -3.535,0 z m 5.887,0 0,-1.473 3.535,0 0,1.473 -3.535,0 z m 5.891,0 0,-1.473 3.535,0 0,1.473 -3.535,0 z m 5.89,0 0,-1.473 3.528,0 0,1.473 -3.528,0 z m 5.887,0 0,-1.473 3.527,0 0,1.473 -3.527,0 z m 6.477,0 0,-1.473 2.945,0 0,1.473 -2.945,0 z m 5.886,0 0,-1.473 2.946,0 0,1.473 -2.946,0 z m 5.887,0 0,-1.473 2.957,0 0,1.473 -2.957,0 z m 5.887,0 0,-1.473 2.949,0 0,1.473 -2.949,0 z m 5.894,0 0,-1.473 2.942,0 0,1.473 -2.942,0 z m 5.887,0 0,-1.473 2.953,0 0,1.473 -2.953,0 z m 5.891,0 0,-1.473 2.949,0 0,1.473 -2.949,0 z" /><path
         id="path19750"
         style="fill:#656565;fill-opacity:1;fill-rule:nonzero;stroke:none"
         d="m 137.359,167.391 -1.472,0 0,-3.527 1.472,0 0,3.527 z m 0,-5.887 -1.472,0 0,-3.535 1.472,0 0,3.535 z m 0,-5.89 -1.472,0 0,-3.532 1.472,0 0,3.532 z m 0,-5.895 -1.472,0 0,-3.535 1.472,0 0,3.535 z m 0,-5.887 -1.472,0 0,-3.527 1.472,0 0,3.527 z m 0,-5.89 -1.472,0 0,-3.524 1.472,0 0,3.524 z m 0,-5.887 -1.472,0 0,-3.535 1.472,0 0,3.535 z m 0,-5.887 -1.472,0 0,-3.535 1.472,0 0,3.535 z m 0,-5.89 -1.472,0 0,-3.536 1.472,0 0,3.536 z m 0,-5.891 -1.472,0 0,-3.527 1.472,0 0,3.527 z m 0,-5.887 -1.472,0 0,-3.527 1.472,0 0,3.527 z m 0,-6.476 -1.472,0 0,-2.946 1.472,0 0,2.946 z m 0,-5.887 -1.472,0 0,-2.945 1.472,0 0,2.945 z m 0,-5.887 -1.472,0 0,-2.957 1.472,0 0,2.957 z m 0,-5.886 -1.472,0 0,-2.95 1.472,0 0,2.95 z m 0,-5.895 -1.472,0 0,-2.941 1.472,0 0,2.941 z m 0,-5.887 -1.472,0 0,-2.953 1.472,0 0,2.953 z m 0,-5.89 -1.472,0 0,-2.95 1.472,0 0,2.95 z" /><path
         id="path19752"
         style="fill:#656565;fill-opacity:1;fill-rule:nonzero;stroke:none"
         d="m 657.086,167.391 -1.473,0 0,-3.527 1.473,0 0,3.527 z m 0,-5.887 -1.473,0 0,-3.535 1.473,0 0,3.535 z m 0,-5.89 -1.473,0 0,-3.532 1.473,0 0,3.532 z m 0,-5.895 -1.473,0 0,-3.535 1.473,0 0,3.535 z m 0,-5.887 -1.473,0 0,-3.527 1.473,0 0,3.527 z m 0,-5.89 -1.473,0 0,-3.524 1.473,0 0,3.524 z m 0,-5.887 -1.473,0 0,-3.535 1.473,0 0,3.535 z m 0,-5.887 -1.473,0 0,-3.535 1.473,0 0,3.535 z m 0,-5.89 -1.473,0 0,-3.536 1.473,0 0,3.536 z m 0,-5.891 -1.473,0 0,-3.527 1.473,0 0,3.527 z m 0,-5.887 -1.473,0 0,-3.527 1.473,0 0,3.527 z m 0,-6.476 -1.473,0 0,-2.946 1.473,0 0,2.946 z m 0,-5.887 -1.473,0 0,-2.945 1.473,0 0,2.945 z m 0,-5.887 -1.473,0 0,-2.957 1.473,0 0,2.957 z m 0,-5.886 -1.473,0 0,-2.95 1.473,0 0,2.95 z m 0,-5.895 -1.473,0 0,-2.941 1.473,0 0,2.941 z m 0,-5.887 -1.473,0 0,-2.953 1.473,0 0,2.953 z m 0,-5.89 -1.473,0 0,-2.95 1.473,0 0,2.95 z" /><path
         id="path19754"
         style="fill:#656565;fill-opacity:1;fill-rule:nonzero;stroke:none"
         d="m 85.645,958.324 0,-1.472 3.527,0 0,1.472 -3.527,0 z m 5.886,0 0,-1.472 3.535,0 0,1.472 -3.535,0 z m 5.891,0 0,-1.472 3.531,0 0,1.472 -3.531,0 z m 5.894,0 0,-1.472 3.536,0 0,1.472 -3.536,0 z m 5.887,0 0,-1.472 3.527,0 0,1.472 -3.527,0 z m 5.891,0 0,-1.472 3.523,0 0,1.472 -3.523,0 z m 5.886,0 0,-1.472 3.536,0 0,1.472 -3.536,0 z m 5.887,0 0,-1.472 3.535,0 0,1.472 -3.535,0 z m 5.891,0 0,-1.472 3.535,0 0,1.472 -3.535,0 z m 5.89,0 0,-1.472 3.528,0 0,1.472 -3.528,0 z m 5.887,0 0,-1.472 3.527,0 0,1.472 -3.527,0 z m 6.477,0 0,-1.472 2.945,0 0,1.472 -2.945,0 z m 5.886,0 0,-1.472 2.946,0 0,1.472 -2.946,0 z m 5.887,0 0,-1.472 2.957,0 0,1.472 -2.957,0 z m 5.887,0 0,-1.472 2.949,0 0,1.472 -2.949,0 z m 5.894,0 0,-1.472 2.942,0 0,1.472 -2.942,0 z m 5.887,0 0,-1.472 2.953,0 0,1.472 -2.953,0 z m 5.891,0 0,-1.472 2.949,0 0,1.472 -2.949,0 z" /><path
         id="path19756"
         style="fill:#656565;fill-opacity:1;fill-rule:nonzero;stroke:none"
         d="m 85.645,1036.852 0,-1.473 3.527,0 0,1.473 -3.527,0 z m 5.886,0 0,-1.473 3.535,0 0,1.473 -3.535,0 z m 5.891,0 0,-1.473 3.531,0 0,1.473 -3.531,0 z m 5.894,0 0,-1.473 3.536,0 0,1.473 -3.536,0 z m 5.887,0 0,-1.473 3.527,0 0,1.473 -3.527,0 z m 5.891,0 0,-1.473 3.523,0 0,1.473 -3.523,0 z m 5.886,0 0,-1.473 3.536,0 0,1.473 -3.536,0 z m 5.887,0 0,-1.473 3.535,0 0,1.473 -3.535,0 z m 5.891,0 0,-1.473 3.535,0 0,1.473 -3.535,0 z m 5.89,0 0,-1.473 3.528,0 0,1.473 -3.528,0 z m 5.887,0 0,-1.473 3.527,0 0,1.473 -3.527,0 z m 6.477,0 0,-1.473 2.945,0 0,1.473 -2.945,0 z m 5.886,0 0,-1.473 2.946,0 0,1.473 -2.946,0 z m 5.887,0 0,-1.473 2.957,0 0,1.473 -2.957,0 z m 5.887,0 0,-1.473 2.949,0 0,1.473 -2.949,0 z m 5.894,0 0,-1.473 2.942,0 0,1.473 -2.942,0 z m 5.887,0 0,-1.473 2.953,0 0,1.473 -2.953,0 z m 5.891,0 0,-1.473 2.949,0 0,1.473 -2.949,0 z" /><path
         id="path19758"
         style="fill:#656565;fill-opacity:1;fill-rule:nonzero;stroke:none"
         d="m 85.645,1091.196 0,-1.473 3.527,0 0,1.473 -3.527,0 z m 5.886,0 0,-1.473 3.535,0 0,1.473 -3.535,0 z m 5.891,0 0,-1.473 3.531,0 0,1.473 -3.531,0 z m 5.894,0 0,-1.473 3.536,0 0,1.473 -3.536,0 z m 5.887,0 0,-1.473 3.527,0 0,1.473 -3.527,0 z m 5.891,0 0,-1.473 3.523,0 0,1.473 -3.523,0 z m 5.886,0 0,-1.473 3.536,0 0,1.473 -3.536,0 z m 5.887,0 0,-1.473 3.535,0 0,1.473 -3.535,0 z m 5.891,0 0,-1.473 3.535,0 0,1.473 -3.535,0 z m 5.89,0 0,-1.473 3.528,0 0,1.473 -3.528,0 z m 5.887,0 0,-1.473 3.527,0 0,1.473 -3.527,0 z m 6.477,0 0,-1.473 2.945,0 0,1.473 -2.945,0 z m 5.886,0 0,-1.473 2.946,0 0,1.473 -2.946,0 z m 5.887,0 0,-1.473 2.957,0 0,1.473 -2.957,0 z m 5.887,0 0,-1.473 2.949,0 0,1.473 -2.949,0 z m 5.894,0 0,-1.473 2.942,0 0,1.473 -2.942,0 z m 5.887,0 0,-1.473 2.953,0 0,1.473 -2.953,0 z m 5.891,0 0,-1.473 2.949,0 0,1.473 -2.949,0 z" /><path
         id="path19760"
         style="fill:#656565;fill-opacity:1;fill-rule:nonzero;stroke:none"
         d="m 107.156,1149.344 c 0.774,-0.199 1.156,-0.637 1.156,-1.32 0,-0.575 -0.132,-1.008 -0.398,-1.305 -0.277,-0.289 -0.594,-0.43 -0.949,-0.43 -0.18,0 -0.383,0.028 -0.61,0.086 l -13.988,3.739 0.223,-0.25 c 0.129,-0.168 0.226,-0.34 0.297,-0.52 0.066,-0.18 0.101,-0.348 0.101,-0.504 0,-0.168 -0.047,-0.348 -0.148,-0.535 -0.106,-0.176 -0.242,-0.344 -0.399,-0.504 -0.16,-0.148 -0.336,-0.273 -0.535,-0.371 -0.199,-0.09 -0.394,-0.133 -0.594,-0.133 -0.414,0 -0.8,0.223 -1.156,0.668 l -3.07,3.887 c -0.227,0.285 -0.344,0.594 -0.344,0.918 0,0.269 0.043,0.5 0.121,0.699 0.078,0.195 0.188,0.363 0.325,0.504 0.128,0.137 0.273,0.238 0.433,0.297 0.156,0.07 0.324,0.101 0.504,0.101 0.176,0 0.363,-0.027 0.563,-0.086 l 18.468,-4.941 z" /><path
         id="path19762"
         style="fill:#656565;fill-opacity:1;fill-rule:nonzero;stroke:none"
         d="m 105.051,1154.774 c -0.16,-0.032 -0.309,-0.043 -0.446,-0.043 -0.406,0 -0.742,0.14 -1.007,0.429 -0.27,0.286 -0.403,0.711 -0.403,1.274 0,0.715 0.418,1.16 1.246,1.336 0.25,0.058 0.438,0.246 0.567,0.562 0.117,0.317 0.176,0.68 0.176,1.086 0,0.434 -0.114,0.899 -0.34,1.395 -0.239,0.504 -0.574,1.008 -1.008,1.511 -0.438,0.504 -0.965,1 -1.59,1.485 -0.621,0.484 -1.324,0.933 -2.105,1.347 0.285,-0.898 0.429,-1.906 0.429,-3.023 0,-0.852 -0.117,-1.633 -0.355,-2.344 -0.246,-0.715 -0.598,-1.328 -1.055,-1.84 -0.465,-0.503 -1.023,-0.902 -1.676,-1.187 -0.664,-0.277 -1.41,-0.414 -2.238,-0.414 -0.676,0 -1.336,0.082 -1.988,0.25 -0.653,0.168 -1.274,0.391 -1.856,0.668 -0.582,0.285 -1.121,0.625 -1.617,1.008 -0.504,0.386 -0.945,0.808 -1.32,1.261 -1.168,1.426 -1.75,3.125 -1.75,5.106 0,0.84 0.137,1.59 0.414,2.254 0.277,0.672 0.683,1.242 1.219,1.707 0.523,0.472 1.172,0.832 1.941,1.082 0.773,0.258 1.652,0.387 2.641,0.387 0.711,0 1.48,-0.067 2.3,-0.196 0.821,-0.117 1.7,-0.301 2.641,-0.547 0.93,-0.257 1.832,-0.586 2.715,-0.98 0.871,-0.387 1.691,-0.832 2.461,-1.336 0.762,-0.504 1.465,-1.051 2.109,-1.645 0.641,-0.586 1.192,-1.203 1.645,-1.855 0.457,-0.652 0.812,-1.324 1.07,-2.02 0.254,-0.691 0.383,-1.382 0.383,-2.074 0,-0.586 -0.074,-1.144 -0.223,-1.676 -0.148,-0.527 -0.359,-0.992 -0.636,-1.394 -0.278,-0.406 -0.614,-0.75 -1.008,-1.024 -0.407,-0.269 -0.852,-0.453 -1.336,-0.55 z m -10.324,12.074 c -0.575,0.101 -1.172,0.148 -1.797,0.148 -1.067,0 -1.86,-0.175 -2.371,-0.531 -0.516,-0.348 -0.774,-0.957 -0.774,-1.824 0,-1.27 0.367,-2.336 1.098,-3.207 0.722,-0.871 1.777,-1.492 3.16,-1.867 0.187,-0.051 0.375,-0.09 0.562,-0.121 0.18,-0.02 0.368,-0.028 0.567,-0.028 0.762,0 1.34,0.215 1.734,0.653 0.395,0.433 0.594,1.066 0.594,1.898 0,0.516 -0.035,1.008 -0.105,1.484 -0.079,0.485 -0.215,0.934 -0.415,1.348 -0.207,0.426 -0.488,0.813 -0.847,1.16 -0.356,0.344 -0.809,0.637 -1.363,0.875 l -0.028,0 c 0,0.012 -0.008,0.012 -0.015,0.012 z" /><path
         id="path19764"
         style="fill:#656565;fill-opacity:1;fill-rule:nonzero;stroke:none"
         d="m 86.715,1181.313 c 0,0.773 0.168,1.476 0.504,2.109 0.336,0.633 0.816,1.172 1.437,1.617 0.625,0.453 1.367,0.805 2.227,1.051 0.859,0.246 1.808,0.371 2.847,0.371 1.149,0 2.305,-0.137 3.473,-0.414 1.156,-0.269 2.274,-0.641 3.352,-1.113 1.07,-0.465 2.074,-1.024 3.011,-1.676 0.942,-0.644 1.758,-1.34 2.45,-2.094 0.691,-0.742 1.242,-1.523 1.644,-2.343 0.399,-0.821 0.594,-1.645 0.594,-2.477 0,-0.762 -0.16,-1.457 -0.488,-2.09 -0.336,-0.637 -0.813,-1.18 -1.426,-1.633 -0.613,-0.445 -1.348,-0.793 -2.211,-1.039 -0.867,-0.246 -1.836,-0.371 -2.906,-0.371 -1.129,0 -2.27,0.133 -3.426,0.399 -1.156,0.269 -2.27,0.636 -3.34,1.101 -1.078,0.465 -2.086,1.016 -3.023,1.66 -0.942,0.641 -1.762,1.336 -2.465,2.078 -0.703,0.75 -1.25,1.536 -1.645,2.356 -0.406,0.824 -0.609,1.66 -0.609,2.508 z m 3.129,0.402 c -0.039,-0.09 -0.059,-0.223 -0.059,-0.402 0,-0.512 0.168,-1.047 0.504,-1.602 0.328,-0.555 0.777,-1.094 1.352,-1.617 0.562,-0.516 1.218,-1.004 1.972,-1.469 0.75,-0.453 1.551,-0.859 2.403,-1.215 0.839,-0.347 1.711,-0.625 2.613,-0.832 0.887,-0.199 1.754,-0.297 2.594,-0.297 0.593,0 1.136,0.051 1.632,0.149 0.485,0.098 0.899,0.238 1.247,0.414 0.336,0.18 0.601,0.391 0.8,0.641 0.188,0.257 0.282,0.543 0.282,0.859 0,0.516 -0.164,1.043 -0.489,1.586 -0.336,0.547 -0.785,1.074 -1.351,1.59 -0.563,0.523 -1.219,1.019 -1.973,1.484 -0.75,0.461 -1.551,0.875 -2.402,1.231 -0.852,0.355 -1.723,0.632 -2.614,0.828 -0.898,0.211 -1.773,0.312 -2.625,0.312 -1.046,0 -1.918,-0.148 -2.609,-0.445 -0.691,-0.297 -1.117,-0.703 -1.277,-1.215 z" /><path
         id="path19766"
         style="fill:#656565;fill-opacity:1;fill-rule:nonzero;stroke:none"
         d="m 85.645,1241.723 0,-1.469 3.527,0 0,1.469 -3.527,0 z m 5.886,0 0,-1.469 3.535,0 0,1.469 -3.535,0 z m 5.891,0 0,-1.469 3.531,0 0,1.469 -3.531,0 z m 5.894,0 0,-1.469 3.536,0 0,1.469 -3.536,0 z m 5.887,0 0,-1.469 3.527,0 0,1.469 -3.527,0 z m 5.891,0 0,-1.469 3.523,0 0,1.469 -3.523,0 z m 5.886,0 0,-1.469 3.536,0 0,1.469 -3.536,0 z m 5.887,0 0,-1.469 3.535,0 0,1.469 -3.535,0 z m 5.891,0 0,-1.469 3.535,0 0,1.469 -3.535,0 z m 5.89,0 0,-1.469 3.528,0 0,1.469 -3.528,0 z m 5.887,0 0,-1.469 3.527,0 0,1.469 -3.527,0 z m 6.477,0 0,-1.469 2.945,0 0,1.469 -2.945,0 z m 5.886,0 0,-1.469 2.946,0 0,1.469 -2.946,0 z m 5.887,0 0,-1.469 2.957,0 0,1.469 -2.957,0 z m 5.887,0 0,-1.469 2.949,0 0,1.469 -2.949,0 z m 5.894,0 0,-1.469 2.942,0 0,1.469 -2.942,0 z m 5.887,0 0,-1.469 2.953,0 0,1.469 -2.953,0 z m 5.891,0 0,-1.469 2.949,0 0,1.469 -2.949,0 z" /><path
         id="path19768"
         style="fill:#656565;fill-opacity:1;fill-rule:nonzero;stroke:none"
         d="m 97.52,1234.426 -7.383,-25.883 6.64,1.348 0,-19.297 1.477,0 0,19.297 6.637,-1.348 -7.371,25.883 z" /><path
         id="path19770"
         style="fill:#656565;fill-opacity:1;fill-rule:nonzero;stroke:none"
         d="m 97.52,1096.235 -7.383,25.882 6.64,-1.347 0,19.301 1.477,0 0,-19.301 6.637,1.347 -7.371,-25.882 z" /><path
         id="path19772"
         style="fill:#656565;fill-opacity:1;fill-rule:nonzero;stroke:none"
         d="m 0,1318.832 0,-1.472 4.25,0 0,1.472 -4.25,0 z m 5.887,0 0,-1.472 4.254,0 0,1.472 -4.254,0 z m 5.894,0 0,-1.472 4.25,0 0,1.472 -4.25,0 z m 5.887,0 0,-1.472 4.254,0 0,1.472 -4.254,0 z m 5.887,0 0,-1.472 4.25,0 0,1.472 -4.25,0 z m 5.886,0 0,-1.472 4.25,0 0,1.472 -4.25,0 z m 5.887,0 0,-1.472 4.262,0 0,1.472 -4.262,0 z m 5.899,0 0,-1.472 4.25,0 0,1.472 -4.25,0 z m 5.886,0 0,-1.472 4.254,0 0,1.472 -4.254,0 z m 5.887,0 0,-1.472 4.25,0 0,1.472 -4.25,0 z m 5.891,0 0,-1.472 4.25,0 0,1.472 -4.25,0 z m 5.886,0 0,-1.472 4.254,0 0,1.472 -4.254,0 z m 5.891,0 0,-1.472 4.25,0 0,1.472 -4.25,0 z m 5.887,0 0,-1.472 3.531,0 0,1.472 -3.531,0 z m 5.89,0 0,-1.472 3.528,0 0,1.472 -3.528,0 z m 5.887,0 0,-1.472 3.535,0 0,1.472 -3.535,0 z m 5.887,0 0,-1.472 3.535,0 0,1.472 -3.535,0 z m 5.898,0 0,-1.472 3.535,0 0,1.472 -3.535,0 z m 5.887,0 0,-1.472 3.527,0 0,1.472 -3.527,0 z m 5.887,0 0,-1.472 3.527,0 0,1.472 -3.527,0 z m 5.89,0 0,-1.472 3.531,0 0,1.472 -3.531,0 z m 5.887,0 0,-1.472 3.535,0 0,1.472 -3.535,0 z m 5.891,0 0,-1.472 3.535,0 0,1.472 -3.535,0 z m 5.886,0 0,-1.472 3.532,0 0,1.472 -3.532,0 z m 5.891,0 0,-1.472 3.527,0 0,1.472 -3.527,0 z m 6.476,0 0,-1.472 2.946,0 0,1.472 -2.946,0 z m 5.887,0 0,-1.472 2.946,0 0,1.472 -2.946,0 z m 5.887,0 0,-1.472 2.957,0 0,1.472 -2.957,0 z m 5.887,0 0,-1.472 2.949,0 0,1.472 -2.949,0 z m 5.894,0 0,-1.472 2.942,0 0,1.472 -2.942,0 z m 5.887,0 0,-1.472 2.949,0 0,1.472 -2.949,0 z m 5.891,0 0,-1.472 2.949,0 0,1.472 -2.949,0 z" /><path
         id="path19774"
         style="fill:#656565;fill-opacity:1;fill-rule:nonzero;stroke:none"
         d="m 0,119.16 0,-1.472 4.25,0 0,1.472 -4.25,0 z m 5.887,0 0,-1.472 4.254,0 0,1.472 -4.254,0 z m 5.894,0 0,-1.472 4.25,0 0,1.472 -4.25,0 z m 5.887,0 0,-1.472 4.254,0 0,1.472 -4.254,0 z m 5.887,0 0,-1.472 4.25,0 0,1.472 -4.25,0 z m 5.886,0 0,-1.472 4.25,0 0,1.472 -4.25,0 z m 5.887,0 0,-1.472 4.262,0 0,1.472 -4.262,0 z m 5.899,0 0,-1.472 4.25,0 0,1.472 -4.25,0 z m 5.886,0 0,-1.472 4.254,0 0,1.472 -4.254,0 z m 5.887,0 0,-1.472 4.25,0 0,1.472 -4.25,0 z m 5.891,0 0,-1.472 4.25,0 0,1.472 -4.25,0 z m 5.886,0 0,-1.472 4.254,0 0,1.472 -4.254,0 z m 5.891,0 0,-1.472 4.25,0 0,1.472 -4.25,0 z m 5.887,0 0,-1.472 3.531,0 0,1.472 -3.531,0 z m 5.89,0 0,-1.472 3.528,0 0,1.472 -3.528,0 z m 5.887,0 0,-1.472 3.535,0 0,1.472 -3.535,0 z m 5.887,0 0,-1.472 3.535,0 0,1.472 -3.535,0 z m 5.898,0 0,-1.472 3.535,0 0,1.472 -3.535,0 z m 5.887,0 0,-1.472 3.527,0 0,1.472 -3.527,0 z m 5.887,0 0,-1.472 3.527,0 0,1.472 -3.527,0 z m 5.89,0 0,-1.472 3.531,0 0,1.472 -3.531,0 z m 5.887,0 0,-1.472 3.535,0 0,1.472 -3.535,0 z m 5.891,0 0,-1.472 3.535,0 0,1.472 -3.535,0 z m 5.886,0 0,-1.472 3.532,0 0,1.472 -3.532,0 z m 5.891,0 0,-1.472 3.527,0 0,1.472 -3.527,0 z m 6.476,0 0,-1.472 2.946,0 0,1.472 -2.946,0 z m 5.887,0 0,-1.472 2.946,0 0,1.472 -2.946,0 z m 5.887,0 0,-1.472 2.957,0 0,1.472 -2.957,0 z m 5.887,0 0,-1.472 2.949,0 0,1.472 -2.949,0 z m 5.894,0 0,-1.472 2.942,0 0,1.472 -2.942,0 z m 5.887,0 0,-1.472 2.949,0 0,1.472 -2.949,0 z m 5.891,0 0,-1.472 2.949,0 0,1.472 -2.949,0 z" /><path
         id="path19776"
         style="fill:#656565;fill-opacity:1;fill-rule:nonzero;stroke:none"
         d="m 23.082,1312.196 -7.375,-25.879 6.641,1.343 0,-535.125 1.476,0 0,535.125 6.641,-1.343 -7.383,25.879 z m -0.734,-628.215 0,-535.121 -6.641,1.343 7.375,-25.879 7.383,25.879 -6.641,-1.343 0,535.121 -1.476,0 z" /><path
         id="path19778"
         style="fill:#656565;fill-opacity:1;fill-rule:nonzero;stroke:none"
         d="m 32.73,692.387 c 0.77,-0.199 1.157,-0.637 1.157,-1.32 0,-0.575 -0.133,-1.008 -0.403,-1.305 -0.277,-0.289 -0.593,-0.43 -0.949,-0.43 -0.176,0 -0.379,0.028 -0.605,0.086 l -13.992,3.742 0.222,-0.254 c 0.129,-0.167 0.227,-0.339 0.297,-0.519 0.07,-0.18 0.105,-0.348 0.105,-0.504 0,-0.168 -0.05,-0.348 -0.148,-0.535 -0.109,-0.176 -0.242,-0.344 -0.402,-0.504 -0.157,-0.148 -0.336,-0.273 -0.535,-0.371 -0.196,-0.09 -0.395,-0.133 -0.59,-0.133 -0.418,0 -0.801,0.223 -1.16,0.668 l -3.071,3.887 c -0.226,0.285 -0.34,0.594 -0.34,0.918 0,0.269 0.039,0.5 0.118,0.699 0.082,0.195 0.187,0.367 0.328,0.504 0.129,0.137 0.269,0.238 0.429,0.297 0.157,0.07 0.325,0.101 0.504,0.101 0.18,0 0.367,-0.027 0.563,-0.086 l 18.472,-4.941 z" /><path
         id="path19780"
         style="fill:#656565;fill-opacity:1;fill-rule:nonzero;stroke:none"
         d="m 12.285,713.188 c 0,1.027 0.516,1.543 1.543,1.543 1.02,0 1.527,-0.516 1.527,-1.543 l 0,-8.012 4.985,-1.336 c -0.246,0.762 -0.367,1.547 -0.367,2.359 0,0.75 0.136,1.442 0.414,2.075 0.277,0.644 0.664,1.199 1.156,1.664 0.484,0.472 1.055,0.84 1.707,1.097 0.652,0.266 1.363,0.399 2.137,0.399 0.75,0 1.476,-0.106 2.179,-0.324 0.704,-0.219 1.364,-0.52 1.989,-0.907 0.621,-0.386 1.195,-0.839 1.718,-1.363 0.528,-0.516 0.981,-1.074 1.368,-1.676 0.375,-0.605 0.668,-1.238 0.875,-1.898 0.207,-0.656 0.312,-1.309 0.312,-1.961 0,-0.594 -0.086,-1.16 -0.254,-1.707 -0.176,-0.531 -0.429,-1.016 -0.758,-1.453 -0.324,-0.426 -0.714,-0.797 -1.171,-1.114 -0.465,-0.316 -0.977,-0.55 -1.543,-0.71 -0.196,-0.047 -0.391,-0.075 -0.579,-0.075 -0.187,0 -0.363,0.035 -0.531,0.106 -0.168,0.078 -0.316,0.191 -0.445,0.34 -0.129,0.148 -0.231,0.328 -0.297,0.535 -0.082,0.219 -0.121,0.465 -0.121,0.742 0,0.633 0.383,1.066 1.144,1.305 0.504,0.136 0.879,0.386 1.125,0.742 0.239,0.355 0.36,0.785 0.36,1.289 0,0.375 -0.07,0.762 -0.211,1.156 -0.137,0.399 -0.328,0.778 -0.578,1.145 -0.246,0.375 -0.539,0.726 -0.875,1.054 -0.336,0.336 -0.696,0.625 -1.082,0.875 -0.395,0.246 -0.817,0.446 -1.262,0.594 -0.453,0.145 -0.91,0.219 -1.363,0.219 -0.703,0 -1.266,-0.18 -1.692,-0.547 -0.425,-0.367 -0.64,-0.898 -0.64,-1.602 0,-0.289 0.023,-0.558 0.062,-0.816 0.039,-0.258 0.113,-0.531 0.223,-0.816 0.098,-0.278 0.242,-0.59 0.43,-0.934 0.187,-0.348 0.429,-0.762 0.726,-1.246 0.098,-0.16 0.172,-0.309 0.223,-0.445 0.047,-0.141 0.074,-0.289 0.074,-0.446 0,-0.265 -0.039,-0.5 -0.121,-0.699 -0.078,-0.195 -0.18,-0.363 -0.309,-0.504 -0.129,-0.129 -0.273,-0.222 -0.429,-0.281 -0.161,-0.059 -0.325,-0.09 -0.493,-0.09 -0.089,-0.008 -0.183,-0.008 -0.281,0 -0.098,0.02 -0.203,0.047 -0.312,0.074 l -9.344,2.493 c -0.813,0.16 -1.219,0.667 -1.219,1.531 l 0,9.168 z" /><path
         id="path19782"
         style="fill:#656565;fill-opacity:1;fill-rule:nonzero;stroke:none"
         d="m 12.285,724.774 c 0,0.769 0.168,1.472 0.504,2.105 0.336,0.633 0.816,1.172 1.441,1.617 0.622,0.453 1.364,0.805 2.223,1.055 0.863,0.246 1.813,0.367 2.852,0.367 1.144,0 2.304,-0.137 3.468,-0.414 1.161,-0.265 2.278,-0.637 3.356,-1.113 1.066,-0.465 2.07,-1.024 3.012,-1.676 0.937,-0.641 1.754,-1.34 2.445,-2.09 0.691,-0.742 1.242,-1.523 1.648,-2.344 0.395,-0.824 0.594,-1.648 0.594,-2.48 0,-0.762 -0.164,-1.457 -0.492,-2.09 -0.336,-0.633 -0.809,-1.176 -1.422,-1.633 -0.613,-0.445 -1.352,-0.789 -2.211,-1.039 -0.871,-0.246 -1.84,-0.371 -2.906,-0.371 -1.129,0 -2.274,0.137 -3.43,0.403 -1.156,0.265 -2.269,0.632 -3.336,1.097 -1.078,0.465 -2.09,1.02 -3.027,1.66 -0.942,0.645 -1.762,1.336 -2.461,2.078 -0.703,0.75 -1.254,1.54 -1.648,2.36 -0.407,0.82 -0.61,1.656 -0.61,2.508 z m 3.133,0.398 c -0.043,-0.09 -0.063,-0.223 -0.063,-0.398 0,-0.516 0.168,-1.051 0.508,-1.606 0.325,-0.551 0.774,-1.09 1.348,-1.613 0.562,-0.516 1.223,-1.004 1.973,-1.469 0.754,-0.457 1.554,-0.863 2.402,-1.219 0.844,-0.343 1.711,-0.621 2.613,-0.832 0.891,-0.195 1.754,-0.296 2.598,-0.296 0.59,0 1.137,0.05 1.629,0.148 0.484,0.102 0.902,0.238 1.246,0.418 0.336,0.176 0.605,0.391 0.801,0.637 0.187,0.257 0.285,0.543 0.285,0.859 0,0.516 -0.164,1.043 -0.492,1.59 -0.336,0.543 -0.786,1.07 -1.348,1.586 -0.566,0.523 -1.223,1.019 -1.977,1.484 -0.75,0.465 -1.55,0.875 -2.402,1.231 -0.848,0.355 -1.719,0.632 -2.609,0.832 -0.903,0.207 -1.778,0.312 -2.625,0.312 -1.051,0 -1.922,-0.148 -2.614,-0.445 -0.691,-0.297 -1.117,-0.703 -1.273,-1.219 z" /><path
         id="path19784"
         style="fill:#656565;fill-opacity:1;fill-rule:nonzero;stroke:none"
         d="m 12.285,742.039 c 0,0.774 0.168,1.477 0.504,2.11 0.336,0.632 0.816,1.172 1.441,1.617 0.622,0.453 1.364,0.805 2.223,1.051 0.863,0.246 1.813,0.371 2.852,0.371 1.144,0 2.304,-0.137 3.468,-0.414 1.161,-0.27 2.278,-0.641 3.356,-1.114 1.066,-0.464 2.07,-1.023 3.012,-1.675 0.937,-0.645 1.754,-1.34 2.445,-2.094 0.691,-0.742 1.242,-1.524 1.648,-2.344 0.395,-0.82 0.594,-1.644 0.594,-2.476 0,-0.762 -0.164,-1.457 -0.492,-2.09 -0.336,-0.637 -0.809,-1.18 -1.422,-1.633 -0.613,-0.445 -1.352,-0.793 -2.211,-1.039 -0.871,-0.246 -1.84,-0.371 -2.906,-0.371 -1.129,0 -2.274,0.133 -3.43,0.402 -1.156,0.266 -2.269,0.633 -3.336,1.098 -1.078,0.465 -2.09,1.015 -3.027,1.66 -0.942,0.641 -1.762,1.336 -2.461,2.078 -0.703,0.75 -1.254,1.535 -1.648,2.355 -0.407,0.825 -0.61,1.661 -0.61,2.508 z m 3.133,0.403 c -0.043,-0.09 -0.063,-0.223 -0.063,-0.403 0,-0.511 0.168,-1.047 0.508,-1.601 0.325,-0.555 0.774,-1.094 1.348,-1.617 0.562,-0.512 1.223,-1.004 1.973,-1.469 0.754,-0.453 1.554,-0.86 2.402,-1.215 0.844,-0.348 1.711,-0.625 2.613,-0.832 0.891,-0.199 1.754,-0.297 2.598,-0.297 0.59,0 1.137,0.051 1.629,0.148 0.484,0.098 0.902,0.239 1.246,0.415 0.336,0.179 0.605,0.39 0.801,0.64 0.187,0.258 0.285,0.543 0.285,0.86 0,0.515 -0.164,1.043 -0.492,1.585 -0.336,0.547 -0.786,1.075 -1.348,1.59 -0.566,0.524 -1.223,1.02 -1.977,1.485 -0.75,0.465 -1.55,0.875 -2.402,1.23 -0.848,0.356 -1.719,0.633 -2.609,0.828 -0.903,0.211 -1.778,0.313 -2.625,0.313 -1.051,0 -1.922,-0.149 -2.614,-0.446 -0.691,-0.296 -1.117,-0.703 -1.273,-1.214 z" /><path
         id="path19786"
         style="fill:#656565;fill-opacity:1;fill-rule:nonzero;stroke:none"
         d="m 91.73,1052.719 c 0.782,-0.227 1.172,-0.664 1.172,-1.305 0,-0.574 -0.136,-1.011 -0.402,-1.308 -0.277,-0.297 -0.598,-0.446 -0.965,-0.446 -0.176,0 -0.375,0.032 -0.594,0.09 l -3.097,0.817 c -0.754,0.207 -1.129,0.703 -1.129,1.484 l 0,8.961 c 0,1.019 0.515,1.527 1.543,1.527 0.367,0 0.66,-0.093 0.89,-0.281 l 18.336,-10.758 c 0.555,-0.316 0.828,-0.711 0.828,-1.183 0,-0.239 -0.042,-0.461 -0.132,-0.668 -0.098,-0.211 -0.215,-0.399 -0.356,-0.567 -0.148,-0.156 -0.312,-0.281 -0.488,-0.371 -0.18,-0.086 -0.344,-0.133 -0.492,-0.133 -0.274,0 -0.578,0.094 -0.903,0.282 l -16.156,9.464 0,-5.085 1.945,-0.52 z" /><path
         id="path19788"
         style="fill:#656565;fill-opacity:1;fill-rule:nonzero;stroke:none"
         d="m 86.715,1072.848 c 0,0.773 0.168,1.476 0.504,2.109 0.336,0.633 0.816,1.172 1.437,1.617 0.625,0.454 1.367,0.805 2.227,1.051 0.859,0.25 1.808,0.371 2.847,0.371 1.149,0 2.305,-0.136 3.473,-0.414 1.156,-0.265 2.274,-0.636 3.352,-1.113 1.07,-0.465 2.074,-1.023 3.011,-1.676 0.942,-0.644 1.758,-1.34 2.45,-2.094 0.691,-0.738 1.242,-1.523 1.644,-2.343 0.399,-0.821 0.594,-1.645 0.594,-2.477 0,-0.762 -0.16,-1.457 -0.488,-2.09 -0.336,-0.633 -0.813,-1.179 -1.426,-1.633 -0.613,-0.445 -1.348,-0.792 -2.211,-1.039 -0.867,-0.246 -1.836,-0.371 -2.906,-0.371 -1.129,0 -2.27,0.133 -3.426,0.403 -1.156,0.265 -2.27,0.632 -3.34,1.097 -1.078,0.465 -2.086,1.016 -3.023,1.66 -0.942,0.645 -1.762,1.336 -2.465,2.079 -0.703,0.75 -1.25,1.535 -1.645,2.359 -0.406,0.82 -0.609,1.656 -0.609,2.504 z m 3.129,0.402 c -0.039,-0.09 -0.059,-0.222 -0.059,-0.402 0,-0.512 0.168,-1.047 0.504,-1.602 0.328,-0.554 0.777,-1.093 1.352,-1.617 0.562,-0.512 1.218,-1.004 1.972,-1.469 0.75,-0.453 1.551,-0.859 2.403,-1.214 0.839,-0.348 1.711,-0.625 2.613,-0.832 0.887,-0.196 1.754,-0.297 2.594,-0.297 0.593,0 1.136,0.05 1.632,0.148 0.485,0.102 0.899,0.238 1.247,0.418 0.336,0.176 0.601,0.391 0.8,0.637 0.188,0.258 0.282,0.543 0.282,0.859 0,0.516 -0.164,1.043 -0.489,1.586 -0.336,0.547 -0.785,1.074 -1.351,1.59 -0.563,0.523 -1.219,1.019 -1.973,1.484 -0.75,0.465 -1.551,0.875 -2.402,1.231 -0.852,0.355 -1.723,0.633 -2.614,0.832 -0.898,0.207 -1.773,0.308 -2.625,0.308 -1.046,0 -1.918,-0.148 -2.609,-0.445 -0.691,-0.297 -1.117,-0.699 -1.277,-1.215 z" /><path
         id="path19790"
         style="fill:#656565;fill-opacity:1;fill-rule:nonzero;stroke:none"
         d="m 107.156,979.821 c 0.774,-0.2 1.156,-0.637 1.156,-1.321 0,-0.574 -0.132,-1.008 -0.398,-1.304 -0.277,-0.29 -0.594,-0.43 -0.949,-0.43 -0.18,0 -0.383,0.027 -0.61,0.09 l -13.988,3.738 0.223,-0.254 c 0.129,-0.168 0.226,-0.34 0.297,-0.519 0.066,-0.176 0.101,-0.348 0.101,-0.504 0,-0.168 -0.047,-0.348 -0.148,-0.536 -0.106,-0.175 -0.242,-0.343 -0.399,-0.503 -0.16,-0.149 -0.336,-0.274 -0.535,-0.372 -0.199,-0.089 -0.394,-0.132 -0.594,-0.132 -0.414,0 -0.8,0.222 -1.156,0.668 l -3.07,3.886 c -0.227,0.286 -0.344,0.594 -0.344,0.918 0,0.27 0.043,0.5 0.121,0.7 0.078,0.199 0.188,0.367 0.325,0.503 0.128,0.137 0.273,0.239 0.433,0.297 0.156,0.071 0.324,0.106 0.504,0.106 0.176,0 0.363,-0.031 0.563,-0.09 l 18.468,-4.941 z" /><path
         id="path19792"
         style="fill:#656565;fill-opacity:1;fill-rule:nonzero;stroke:none"
         d="m 86.715,995.711 c 0,0.77 0.168,1.473 0.504,2.106 0.336,0.632 0.816,1.172 1.437,1.617 0.625,0.453 1.367,0.805 2.227,1.051 0.859,0.25 1.808,0.371 2.847,0.371 1.149,0 2.305,-0.137 3.473,-0.414 1.156,-0.266 2.274,-0.637 3.352,-1.114 1.07,-0.464 2.074,-1.023 3.011,-1.675 0.942,-0.645 1.758,-1.34 2.45,-2.09 0.691,-0.742 1.242,-1.524 1.644,-2.344 0.399,-0.824 0.594,-1.648 0.594,-2.48 0,-0.762 -0.16,-1.458 -0.488,-2.09 -0.336,-0.633 -0.813,-1.18 -1.426,-1.633 -0.613,-0.445 -1.348,-0.793 -2.211,-1.039 -0.867,-0.246 -1.836,-0.371 -2.906,-0.371 -1.129,0 -2.27,0.133 -3.426,0.402 -1.156,0.266 -2.27,0.633 -3.34,1.098 -1.078,0.465 -2.086,1.019 -3.023,1.66 -0.942,0.644 -1.762,1.336 -2.465,2.078 -0.703,0.75 -1.25,1.539 -1.645,2.359 -0.406,0.821 -0.609,1.657 -0.609,2.508 z m 3.129,0.399 c -0.039,-0.09 -0.059,-0.223 -0.059,-0.399 0,-0.515 0.168,-1.051 0.504,-1.605 0.328,-0.551 0.777,-1.09 1.352,-1.617 0.562,-0.512 1.218,-1.004 1.972,-1.469 0.75,-0.453 1.551,-0.86 2.403,-1.215 0.839,-0.348 1.711,-0.621 2.613,-0.832 0.887,-0.195 1.754,-0.297 2.594,-0.297 0.593,0 1.136,0.051 1.632,0.148 0.485,0.102 0.899,0.239 1.247,0.418 0.336,0.176 0.601,0.391 0.8,0.637 0.188,0.258 0.282,0.543 0.282,0.86 0,0.515 -0.164,1.042 -0.489,1.589 -0.336,0.543 -0.785,1.071 -1.351,1.586 -0.563,0.524 -1.219,1.02 -1.973,1.485 -0.75,0.465 -1.551,0.875 -2.402,1.23 -0.852,0.356 -1.723,0.633 -2.614,0.832 -0.898,0.207 -1.773,0.309 -2.625,0.309 -1.046,0 -1.918,-0.149 -2.609,-0.446 -0.691,-0.293 -1.117,-0.699 -1.277,-1.214 z" /><path
         id="path19794"
         style="fill:#656565;fill-opacity:1;fill-rule:nonzero;stroke:none"
         d="m 86.715,1012.977 c 0,0.773 0.168,1.472 0.504,2.105 0.336,0.637 0.816,1.172 1.437,1.617 0.625,0.457 1.367,0.809 2.227,1.055 0.859,0.246 1.808,0.371 2.847,0.371 1.149,0 2.305,-0.136 3.473,-0.414 1.156,-0.269 2.274,-0.64 3.352,-1.113 1.07,-0.465 2.074,-1.024 3.011,-1.676 0.942,-0.644 1.758,-1.34 2.45,-2.094 0.691,-0.742 1.242,-1.523 1.644,-2.343 0.399,-0.821 0.594,-1.645 0.594,-2.477 0,-0.762 -0.16,-1.461 -0.488,-2.094 -0.336,-0.633 -0.813,-1.175 -1.426,-1.629 -0.613,-0.445 -1.348,-0.793 -2.211,-1.039 -0.867,-0.246 -1.836,-0.371 -2.906,-0.371 -1.129,0 -2.27,0.133 -3.426,0.399 -1.156,0.269 -2.27,0.632 -3.34,1.097 -1.078,0.465 -2.086,1.02 -3.023,1.664 -0.942,0.641 -1.762,1.336 -2.465,2.075 -0.703,0.754 -1.25,1.539 -1.645,2.359 -0.406,0.82 -0.609,1.656 -0.609,2.508 z m 3.129,0.402 c -0.039,-0.09 -0.059,-0.223 -0.059,-0.402 0,-0.512 0.168,-1.047 0.504,-1.602 0.328,-0.554 0.777,-1.094 1.352,-1.617 0.562,-0.516 1.218,-1.004 1.972,-1.469 0.75,-0.453 1.551,-0.859 2.403,-1.215 0.839,-0.347 1.711,-0.625 2.613,-0.832 0.887,-0.199 1.754,-0.296 2.594,-0.296 0.593,0 1.136,0.05 1.632,0.148 0.485,0.098 0.899,0.238 1.247,0.414 0.336,0.18 0.601,0.391 0.8,0.641 0.188,0.254 0.282,0.543 0.282,0.859 0,0.516 -0.164,1.043 -0.489,1.586 -0.336,0.547 -0.785,1.074 -1.351,1.59 -0.563,0.523 -1.219,1.015 -1.973,1.48 -0.75,0.465 -1.551,0.875 -2.402,1.235 -0.852,0.355 -1.723,0.632 -2.614,0.828 -0.898,0.207 -1.773,0.312 -2.625,0.312 -1.046,0 -1.918,-0.148 -2.609,-0.445 -0.691,-0.297 -1.117,-0.703 -1.277,-1.215 z" /><path
         id="path19796"
         style="fill:#656565;fill-opacity:1;fill-rule:nonzero;stroke:none"
         d="m 168.43,90.524 -25.875,-7.379 25.875,-7.379 -1.34,6.644 196.691,0 0,1.473 -196.691,0 1.34,6.641 z m 456.242,0 1.34,-6.641 -196.688,0 0,-1.473 196.688,0 -1.34,-6.644 25.875,7.379 -25.875,7.379 z" /><path
         id="path19798"
         style="fill:#656565;fill-opacity:1;fill-rule:nonzero;stroke:none"
         d="m 387.828,90.711 c 0.031,-0.156 0.047,-0.305 0.047,-0.445 0,-0.406 -0.148,-0.746 -0.445,-1.024 -0.289,-0.265 -0.719,-0.398 -1.293,-0.398 -0.711,0 -1.153,0.418 -1.321,1.258 -0.046,0.23 -0.23,0.406 -0.546,0.535 -0.309,0.141 -0.668,0.207 -1.082,0.207 -0.426,0 -0.891,-0.113 -1.395,-0.34 -0.496,-0.219 -0.996,-0.543 -1.5,-0.98 -0.504,-0.426 -1.004,-0.95 -1.5,-1.571 -0.484,-0.625 -0.934,-1.339 -1.348,-2.152 0.93,0.289 1.977,0.43 3.145,0.43 0.832,0 1.594,-0.129 2.285,-0.387 0.691,-0.254 1.285,-0.617 1.781,-1.082 0.504,-0.465 0.895,-1.027 1.172,-1.691 0.285,-0.661 0.43,-1.407 0.43,-2.239 0,-0.664 -0.086,-1.32 -0.254,-1.972 -0.168,-0.645 -0.395,-1.254 -0.684,-1.825 -0.285,-0.574 -0.625,-1.113 -1.023,-1.617 -0.383,-0.496 -0.793,-0.922 -1.231,-1.277 -0.722,-0.594 -1.511,-1.039 -2.371,-1.336 -0.851,-0.285 -1.761,-0.43 -2.73,-0.43 -0.84,0 -1.598,0.141 -2.27,0.414 -0.672,0.278 -1.242,0.68 -1.707,1.203 -0.465,0.536 -0.82,1.188 -1.07,1.957 -0.246,0.774 -0.367,1.657 -0.367,2.657 0,1.394 0.246,3.043 0.738,4.941 0.238,0.91 0.551,1.793 0.938,2.656 0.394,0.868 0.839,1.684 1.332,2.446 0.496,0.773 1.039,1.48 1.632,2.121 0.606,0.652 1.231,1.215 1.887,1.679 0.652,0.465 1.324,0.825 2.016,1.082 0.691,0.258 1.39,0.383 2.094,0.383 0.582,0 1.128,-0.07 1.644,-0.218 0.516,-0.141 0.977,-0.348 1.379,-0.625 0.418,-0.278 0.762,-0.618 1.039,-1.024 0.289,-0.394 0.48,-0.84 0.578,-1.336 z M 375.77,80.387 c -0.051,-0.356 -0.09,-0.684 -0.122,-0.981 -0.019,-0.296 -0.027,-0.562 -0.027,-0.8 0,-0.543 0.039,-1.012 0.117,-1.41 0.09,-0.395 0.223,-0.719 0.403,-0.977 0.187,-0.258 0.429,-0.449 0.726,-0.578 0.305,-0.129 0.672,-0.195 1.098,-0.195 1.246,0 2.305,0.363 3.172,1.082 0.883,0.734 1.515,1.785 1.902,3.16 0.106,0.379 0.16,0.758 0.16,1.144 0,0.684 -0.191,1.227 -0.578,1.633 -0.383,0.414 -0.973,0.645 -1.766,0.695 -0.55,0 -1.085,-0.039 -1.601,-0.117 -0.516,-0.07 -0.988,-0.203 -1.422,-0.402 -0.437,-0.188 -0.832,-0.465 -1.187,-0.832 -0.348,-0.356 -0.629,-0.813 -0.848,-1.379 -0.02,-0.02 -0.027,-0.035 -0.027,-0.043 z" /><path
         id="path19800"
         style="fill:#656565;fill-opacity:1;fill-rule:nonzero;stroke:none"
         d="m 403.82,93.914 c 1.032,0 1.543,-0.511 1.543,-1.539 0,-1.019 -0.511,-1.531 -1.543,-1.531 l -8.008,0 -1.335,-4.984 c 0.761,0.25 1.546,0.371 2.359,0.371 0.75,0 1.441,-0.137 2.074,-0.414 0.645,-0.278 1.199,-0.664 1.664,-1.157 0.473,-0.484 0.84,-1.054 1.098,-1.707 0.266,-0.652 0.398,-1.363 0.398,-2.136 0,-0.75 -0.109,-1.477 -0.324,-2.18 -0.219,-0.703 -0.519,-1.367 -0.906,-1.988 -0.387,-0.625 -0.84,-1.196 -1.363,-1.723 -0.516,-0.523 -1.075,-0.977 -1.68,-1.363 -0.602,-0.375 -1.235,-0.668 -1.899,-0.875 -0.652,-0.207 -1.304,-0.313 -1.957,-0.313 -0.593,0 -1.164,0.086 -1.707,0.254 -0.531,0.176 -1.019,0.43 -1.453,0.754 -0.426,0.328 -0.797,0.719 -1.113,1.172 -0.316,0.465 -0.555,0.98 -0.711,1.543 -0.051,0.199 -0.074,0.391 -0.074,0.578 0,0.191 0.035,0.367 0.105,0.535 0.078,0.168 0.192,0.317 0.34,0.445 0.149,0.129 0.324,0.227 0.535,0.297 0.215,0.078 0.465,0.118 0.739,0.118 0.636,0 1.07,-0.379 1.308,-1.141 0.137,-0.504 0.383,-0.879 0.742,-1.129 0.356,-0.234 0.786,-0.355 1.289,-0.355 0.375,0 0.762,0.07 1.157,0.207 0.394,0.14 0.777,0.332 1.144,0.582 0.375,0.246 0.727,0.539 1.051,0.875 0.336,0.336 0.629,0.695 0.875,1.082 0.25,0.394 0.445,0.816 0.594,1.261 0.148,0.453 0.222,0.911 0.222,1.364 0,0.703 -0.183,1.265 -0.546,1.691 -0.368,0.426 -0.903,0.637 -1.602,0.637 -0.289,0 -0.559,-0.02 -0.816,-0.059 -0.258,-0.039 -0.532,-0.113 -0.817,-0.222 -0.277,-0.098 -0.59,-0.243 -0.933,-0.43 -0.348,-0.188 -0.762,-0.43 -1.247,-0.727 -0.16,-0.097 -0.308,-0.172 -0.445,-0.222 -0.14,-0.051 -0.289,-0.075 -0.445,-0.075 -0.27,0 -0.5,0.039 -0.699,0.118 -0.196,0.082 -0.368,0.183 -0.504,0.312 -0.129,0.129 -0.223,0.274 -0.282,0.43 -0.058,0.16 -0.089,0.324 -0.089,0.492 -0.008,0.086 -0.008,0.18 0,0.281 0.019,0.098 0.043,0.203 0.074,0.309 l 2.492,9.347 c 0.16,0.813 0.668,1.215 1.527,1.215 l 9.168,0 z" /><path
         id="path19802"
         style="fill:#656565;fill-opacity:1;fill-rule:nonzero;stroke:none"
         d="m 415.406,93.914 c 0.774,0 1.477,-0.168 2.11,-0.504 0.632,-0.336 1.172,-0.816 1.617,-1.437 0.453,-0.625 0.805,-1.363 1.051,-2.227 0.25,-0.859 0.371,-1.808 0.371,-2.847 0,-1.149 -0.137,-2.305 -0.414,-3.473 -0.266,-1.156 -0.637,-2.273 -1.114,-3.352 -0.465,-1.066 -1.023,-2.07 -1.675,-3.011 -0.645,-0.938 -1.34,-1.754 -2.094,-2.446 -0.738,-0.695 -1.52,-1.242 -2.344,-1.648 -0.82,-0.395 -1.644,-0.594 -2.476,-0.594 -0.762,0 -1.458,0.164 -2.09,0.489 -0.633,0.335 -1.18,0.812 -1.633,1.425 -0.445,0.614 -0.793,1.352 -1.039,2.211 -0.246,0.871 -0.371,1.84 -0.371,2.906 0,1.129 0.133,2.27 0.402,3.43 0.266,1.156 0.633,2.27 1.098,3.336 0.465,1.078 1.015,2.086 1.66,3.027 0.644,0.938 1.336,1.758 2.078,2.461 0.75,0.704 1.535,1.254 2.359,1.649 0.821,0.406 1.657,0.605 2.504,0.605 z m 0.403,-3.129 c -0.09,0.039 -0.223,0.059 -0.403,0.059 -0.511,0 -1.047,-0.168 -1.601,-0.504 -0.555,-0.324 -1.094,-0.777 -1.617,-1.348 -0.512,-0.566 -1.004,-1.222 -1.469,-1.976 -0.453,-0.75 -0.86,-1.551 -1.215,-2.402 -0.348,-0.84 -0.625,-1.711 -0.832,-2.61 -0.195,-0.89 -0.297,-1.758 -0.297,-2.598 0,-0.593 0.051,-1.136 0.148,-1.632 0.102,-0.485 0.239,-0.899 0.418,-1.246 0.176,-0.336 0.391,-0.602 0.637,-0.801 0.258,-0.188 0.543,-0.281 0.86,-0.281 0.515,0 1.042,0.164 1.589,0.492 0.543,0.336 1.071,0.785 1.586,1.347 0.524,0.563 1.02,1.223 1.485,1.973 0.464,0.754 0.875,1.555 1.23,2.402 0.356,0.852 0.633,1.723 0.832,2.614 0.207,0.898 0.309,1.773 0.309,2.625 0,1.047 -0.149,1.918 -0.446,2.613 -0.296,0.691 -0.699,1.117 -1.214,1.273 z" /><path
         id="path19804"
         style="fill:#656565;fill-opacity:1;fill-rule:nonzero;stroke:none"
         d="m 692.375,471.645 -7.379,-25.875 6.641,1.34 0,-121.629 1.472,0 0,121.629 6.645,-1.34 -7.379,25.875 z m -0.738,-201.461 0,-121.625 -6.641,1.336 7.379,-25.875 7.379,25.875 -6.645,-1.336 0,121.625 -1.472,0 z" /><path
         id="path19806"
         style="fill:#656565;fill-opacity:1;fill-rule:nonzero;stroke:none"
         d="m 693.516,284.223 c -0.77,0.207 -1.157,0.648 -1.157,1.32 0,0.574 0.137,1.004 0.414,1.289 0.27,0.297 0.586,0.446 0.95,0.446 0.179,0 0.367,-0.028 0.566,-0.09 l 1.973,-0.504 c 0.156,0.832 0.656,1.246 1.496,1.246 1.031,0 1.543,-0.508 1.543,-1.527 l 0,-0.52 2.687,-0.695 c 0.782,-0.199 1.172,-0.633 1.172,-1.309 0,-0.57 -0.133,-1.008 -0.402,-1.305 -0.278,-0.285 -0.598,-0.429 -0.965,-0.429 -0.086,0 -0.176,0 -0.266,0.015 -0.097,0.012 -0.203,0.032 -0.312,0.059 l -1.914,0.504 0,-7.121 c 0,-0.266 -0.047,-0.504 -0.149,-0.711 -0.097,-0.207 -0.222,-0.391 -0.371,-0.551 -0.148,-0.148 -0.304,-0.262 -0.472,-0.34 -0.168,-0.07 -0.332,-0.101 -0.489,-0.101 -0.16,0.007 -0.324,0.043 -0.492,0.101 -0.176,0.059 -0.351,0.16 -0.519,0.297 l -14.625,11.602 c -0.438,0.355 -0.653,0.742 -0.653,1.156 0,0.207 0.047,0.41 0.149,0.609 0.097,0.2 0.226,0.375 0.382,0.535 0.161,0.157 0.333,0.286 0.52,0.383 0.18,0.102 0.352,0.149 0.52,0.149 0.316,0 0.648,-0.133 0.996,-0.399 l 12.117,-9.66 0,4.836 -2.699,0.715 z" /><path
         id="path19808"
         style="fill:#656565;fill-opacity:1;fill-rule:nonzero;stroke:none"
         d="m 681.605,305.035 c 0,1.028 0.512,1.543 1.543,1.543 1.016,0 1.528,-0.515 1.528,-1.543 l 0,-8.011 4.984,-1.336 c -0.246,0.761 -0.371,1.551 -0.371,2.359 0,0.754 0.137,1.445 0.414,2.078 0.277,0.645 0.664,1.196 1.156,1.66 0.485,0.477 1.055,0.844 1.707,1.098 0.653,0.27 1.368,0.402 2.137,0.402 0.75,0 1.481,-0.109 2.18,-0.328 0.703,-0.215 1.367,-0.519 1.988,-0.902 0.625,-0.387 1.199,-0.844 1.723,-1.367 0.523,-0.512 0.976,-1.071 1.363,-1.676 0.375,-0.602 0.668,-1.234 0.875,-1.898 0.207,-0.653 0.313,-1.305 0.313,-1.958 0,-0.593 -0.086,-1.164 -0.254,-1.707 -0.176,-0.535 -0.43,-1.019 -0.754,-1.453 -0.328,-0.425 -0.719,-0.797 -1.172,-1.113 -0.465,-0.316 -0.981,-0.555 -1.543,-0.711 -0.199,-0.051 -0.391,-0.074 -0.578,-0.074 -0.188,0 -0.367,0.031 -0.535,0.101 -0.168,0.079 -0.317,0.196 -0.446,0.344 -0.129,0.149 -0.226,0.324 -0.297,0.531 -0.078,0.219 -0.117,0.465 -0.117,0.743 0,0.632 0.379,1.07 1.141,1.304 0.504,0.141 0.879,0.387 1.129,0.743 0.234,0.355 0.355,0.789 0.355,1.292 0,0.375 -0.07,0.762 -0.207,1.157 -0.14,0.394 -0.332,0.777 -0.578,1.14 -0.25,0.379 -0.539,0.727 -0.875,1.055 -0.34,0.336 -0.699,0.629 -1.086,0.875 -0.394,0.246 -0.816,0.445 -1.262,0.594 -0.453,0.148 -0.906,0.222 -1.363,0.222 -0.703,0 -1.265,-0.183 -1.691,-0.55 -0.426,-0.364 -0.637,-0.899 -0.637,-1.602 0,-0.285 0.02,-0.558 0.059,-0.816 0.039,-0.254 0.113,-0.528 0.222,-0.817 0.098,-0.273 0.242,-0.586 0.43,-0.933 0.187,-0.344 0.43,-0.762 0.726,-1.246 0.102,-0.157 0.176,-0.305 0.223,-0.446 0.051,-0.136 0.074,-0.285 0.074,-0.445 0,-0.266 -0.039,-0.5 -0.117,-0.695 -0.078,-0.2 -0.183,-0.368 -0.312,-0.504 -0.129,-0.129 -0.274,-0.223 -0.43,-0.281 -0.16,-0.063 -0.32,-0.09 -0.488,-0.09 -0.09,-0.012 -0.184,-0.012 -0.285,0 -0.098,0.019 -0.204,0.043 -0.309,0.074 l -9.348,2.492 c -0.812,0.156 -1.215,0.668 -1.215,1.527 l 0,9.168 z" /><path
         id="path19810"
         style="fill:#656565;fill-opacity:1;fill-rule:nonzero;stroke:none"
         d="m 681.605,316.621 c 0,0.774 0.168,1.473 0.504,2.106 0.336,0.633 0.817,1.172 1.438,1.617 0.625,0.457 1.367,0.809 2.226,1.055 0.86,0.246 1.809,0.371 2.848,0.371 1.149,0 2.305,-0.137 3.473,-0.414 1.156,-0.27 2.273,-0.641 3.351,-1.114 1.067,-0.464 2.071,-1.023 3.012,-1.675 0.938,-0.645 1.754,-1.34 2.449,-2.094 0.692,-0.742 1.239,-1.524 1.645,-2.344 0.394,-0.82 0.594,-1.644 0.594,-2.476 0,-0.762 -0.165,-1.461 -0.489,-2.094 -0.336,-0.633 -0.812,-1.176 -1.426,-1.629 -0.613,-0.445 -1.351,-0.793 -2.21,-1.039 -0.872,-0.246 -1.84,-0.371 -2.907,-0.371 -1.129,0 -2.269,0.133 -3.425,0.398 -1.161,0.27 -2.274,0.633 -3.34,1.098 -1.078,0.465 -2.086,1.019 -3.028,1.664 -0.937,0.641 -1.758,1.336 -2.461,2.074 -0.703,0.754 -1.25,1.539 -1.648,2.36 -0.402,0.82 -0.606,1.656 -0.606,2.507 z m 3.129,0.403 c -0.039,-0.09 -0.058,-0.223 -0.058,-0.403 0,-0.515 0.168,-1.047 0.504,-1.601 0.324,-0.555 0.777,-1.094 1.347,-1.617 0.567,-0.516 1.223,-1.004 1.977,-1.469 0.75,-0.453 1.551,-0.86 2.402,-1.215 0.84,-0.348 1.711,-0.625 2.61,-0.832 0.89,-0.199 1.757,-0.297 2.597,-0.297 0.594,0 1.137,0.051 1.633,0.149 0.484,0.097 0.899,0.238 1.246,0.414 0.336,0.179 0.602,0.39 0.801,0.64 0.187,0.254 0.281,0.543 0.281,0.86 0,0.515 -0.164,1.043 -0.488,1.586 -0.34,0.546 -0.789,1.074 -1.352,1.589 -0.562,0.524 -1.222,1.016 -1.972,1.481 -0.754,0.465 -1.555,0.875 -2.403,1.234 -0.851,0.356 -1.722,0.633 -2.613,0.828 -0.898,0.207 -1.773,0.313 -2.625,0.313 -1.047,0 -1.918,-0.149 -2.609,-0.445 -0.696,-0.297 -1.121,-0.704 -1.278,-1.215 z" /><path
         id="path19812"
         style="fill:#ffffff;fill-opacity:1;fill-rule:nonzero;stroke:none"
         d="m 252.965,775.239 c -0.766,-0.215 -1.32,-0.028 -1.664,0.562 -0.285,0.496 -0.387,0.941 -0.305,1.332 0.098,0.387 0.301,0.668 0.609,0.848 0.153,0.09 0.344,0.164 0.571,0.226 l 13.984,3.758 -0.32,0.106 c -0.195,0.082 -0.367,0.183 -0.516,0.3 -0.148,0.121 -0.262,0.25 -0.344,0.387 -0.082,0.145 -0.128,0.324 -0.136,0.535 0.004,0.211 0.035,0.422 0.094,0.637 0.062,0.207 0.156,0.406 0.277,0.59 0.129,0.176 0.277,0.312 0.449,0.41 0.359,0.211 0.805,0.211 1.336,0.004 l 4.602,-1.832 c 0.339,-0.137 0.589,-0.344 0.753,-0.625 0.133,-0.235 0.215,-0.453 0.247,-0.664 0.031,-0.211 0.019,-0.41 -0.032,-0.602 -0.039,-0.183 -0.117,-0.34 -0.222,-0.472 -0.102,-0.137 -0.231,-0.25 -0.387,-0.34 -0.152,-0.09 -0.328,-0.157 -0.531,-0.207 l -18.465,-4.953 z" /><path
         id="path19814"
         style="fill:#ffffff;fill-opacity:1;fill-rule:nonzero;stroke:none"
         d="m 262.305,763.004 c 0.519,-0.902 0.34,-1.605 -0.543,-2.113 -0.891,-0.516 -1.598,-0.324 -2.114,0.578 l -4.593,7.953 c -0.508,0.879 -0.317,1.578 0.574,2.094 0.41,0.238 0.836,0.277 1.281,0.121 l 15.133,-4.195 c 0.586,-0.164 1.145,-0.231 1.672,-0.2 0.535,0.024 1.031,0.168 1.484,0.43 0.524,0.301 0.832,0.692 0.934,1.172 0.109,0.484 0.008,0.992 -0.297,1.523 -0.188,0.329 -0.434,0.625 -0.738,0.895 -0.301,0.262 -0.637,0.488 -1.012,0.684 -0.371,0.183 -0.762,0.332 -1.176,0.433 -0.402,0.102 -0.797,0.152 -1.187,0.156 -0.641,0.004 -1.086,0.219 -1.328,0.637 -0.118,0.207 -0.192,0.422 -0.219,0.645 -0.016,0.23 -0.004,0.449 0.035,0.652 0.043,0.207 0.109,0.395 0.207,0.566 0.105,0.176 0.227,0.301 0.363,0.379 0.266,0.157 0.602,0.235 1.008,0.242 0.406,0.004 0.836,-0.039 1.289,-0.128 0.461,-0.09 0.918,-0.215 1.367,-0.379 0.453,-0.172 0.852,-0.348 1.196,-0.524 1.246,-0.676 2.195,-1.582 2.855,-2.722 0.348,-0.606 0.57,-1.239 0.664,-1.895 0.102,-0.648 0.074,-1.285 -0.078,-1.91 -0.144,-0.621 -0.414,-1.199 -0.812,-1.738 -0.387,-0.539 -0.895,-0.996 -1.528,-1.36 -0.367,-0.215 -0.773,-0.383 -1.211,-0.511 -0.429,-0.133 -0.883,-0.223 -1.367,-0.274 -0.476,-0.047 -0.965,-0.051 -1.469,-0.012 -0.496,0.047 -0.988,0.133 -1.484,0.258 l -11.613,3.231 2.707,-4.688 z" /><path
         id="path19816"
         style="fill:#ffffff;fill-opacity:1;fill-rule:nonzero;stroke:none"
         d="m 286.238,758.492 c 0.387,-0.668 0.59,-1.363 0.617,-2.078 0.024,-0.715 -0.121,-1.422 -0.437,-2.121 -0.313,-0.703 -0.781,-1.379 -1.402,-2.023 -0.621,-0.645 -1.383,-1.227 -2.282,-1.746 -0.992,-0.575 -2.062,-1.032 -3.214,-1.375 -1.133,-0.348 -2.29,-0.586 -3.458,-0.715 -1.16,-0.129 -2.308,-0.149 -3.449,-0.051 -1.133,0.086 -2.187,0.281 -3.164,0.586 -0.969,0.297 -1.836,0.699 -2.597,1.207 -0.754,0.512 -1.336,1.129 -1.754,1.848 -0.379,0.66 -0.586,1.347 -0.621,2.058 -0.024,0.715 0.113,1.422 0.418,2.125 0.308,0.692 0.773,1.36 1.394,2.004 0.629,0.649 1.406,1.242 2.332,1.774 0.977,0.566 2.031,1.019 3.168,1.367 1.137,0.347 2.281,0.586 3.441,0.719 1.165,0.136 2.317,0.16 3.45,0.074 1.136,-0.086 2.195,-0.278 3.172,-0.567 0.984,-0.3 1.851,-0.707 2.605,-1.218 0.762,-0.508 1.355,-1.133 1.781,-1.868 z m -2.511,-1.914 c -0.008,0.098 -0.059,0.223 -0.149,0.379 -0.258,0.446 -0.668,0.821 -1.238,1.133 -0.559,0.316 -1.219,0.559 -1.977,0.727 -0.746,0.164 -1.558,0.257 -2.441,0.285 -0.879,0.019 -1.777,-0.031 -2.692,-0.149 -0.902,-0.121 -1.792,-0.316 -2.675,-0.586 -0.871,-0.273 -1.668,-0.621 -2.399,-1.043 -0.511,-0.293 -0.961,-0.609 -1.34,-0.941 -0.367,-0.328 -0.66,-0.656 -0.871,-0.984 -0.199,-0.321 -0.324,-0.641 -0.375,-0.953 -0.031,-0.317 0.032,-0.614 0.188,-0.887 0.258,-0.445 0.664,-0.82 1.219,-1.129 0.562,-0.301 1.214,-0.535 1.961,-0.699 0.75,-0.172 1.566,-0.274 2.453,-0.297 0.882,-0.028 1.781,0.015 2.695,0.133 0.914,0.117 1.809,0.312 2.676,0.586 0.883,0.269 1.695,0.617 2.429,1.043 0.911,0.523 1.59,1.089 2.039,1.691 0.454,0.605 0.618,1.168 0.497,1.691 z" /><path
         id="path19818"
         style="fill:#ffffff;fill-opacity:1;fill-rule:nonzero;stroke:none"
         d="m 246.855,806.567 4.149,-21.946 5.074,4.485 1.277,0.738 6.426,2.152 -16.926,14.571 z" /><path
         id="path19820"
         style="fill:#ffffff;fill-opacity:1;fill-rule:nonzero;stroke:none"
         d="m 293.969,726.145 -16.934,14.566 6.422,2.153 1.277,0.738 5.075,4.484 4.16,-21.941 z" /><path
         id="path19822"
         style="fill:#ffffff;fill-opacity:1;fill-rule:nonzero;stroke:none"
         d="m 252.965,553.707 c -0.766,-0.215 -1.32,-0.027 -1.664,0.563 -0.285,0.496 -0.387,0.941 -0.305,1.332 0.098,0.387 0.301,0.668 0.609,0.847 0.153,0.09 0.344,0.165 0.571,0.227 l 13.984,3.758 -0.32,0.105 c -0.195,0.082 -0.367,0.184 -0.516,0.301 -0.148,0.121 -0.262,0.25 -0.344,0.387 -0.082,0.144 -0.128,0.324 -0.136,0.535 0.004,0.211 0.035,0.422 0.094,0.637 0.062,0.207 0.156,0.406 0.277,0.59 0.129,0.175 0.277,0.312 0.449,0.41 0.359,0.211 0.805,0.211 1.336,0.004 l 4.602,-1.832 c 0.339,-0.137 0.589,-0.344 0.753,-0.625 0.133,-0.231 0.215,-0.454 0.247,-0.665 0.031,-0.21 0.019,-0.41 -0.032,-0.601 -0.039,-0.184 -0.117,-0.34 -0.222,-0.473 -0.102,-0.136 -0.231,-0.25 -0.387,-0.34 -0.152,-0.089 -0.328,-0.156 -0.531,-0.207 l -18.465,-4.953 z" /><path
         id="path19824"
         style="fill:#ffffff;fill-opacity:1;fill-rule:nonzero;stroke:none"
         d="m 262.305,541.473 c 0.519,-0.899 0.34,-1.606 -0.543,-2.113 -0.891,-0.516 -1.598,-0.325 -2.114,0.578 l -4.593,7.953 c -0.508,0.879 -0.317,1.578 0.574,2.094 0.41,0.238 0.836,0.277 1.281,0.121 l 15.133,-4.196 c 0.586,-0.164 1.145,-0.23 1.672,-0.199 0.535,0.024 1.031,0.168 1.484,0.43 0.524,0.301 0.832,0.691 0.934,1.172 0.109,0.484 0.008,0.992 -0.297,1.523 -0.188,0.328 -0.434,0.625 -0.738,0.895 -0.301,0.261 -0.637,0.488 -1.012,0.683 -0.371,0.188 -0.762,0.332 -1.176,0.434 -0.402,0.101 -0.797,0.152 -1.187,0.156 -0.641,0.004 -1.086,0.219 -1.328,0.637 -0.118,0.207 -0.192,0.422 -0.219,0.644 -0.016,0.231 -0.004,0.45 0.035,0.653 0.043,0.207 0.109,0.394 0.207,0.566 0.105,0.176 0.227,0.301 0.363,0.379 0.266,0.156 0.602,0.234 1.008,0.242 0.406,0.004 0.836,-0.035 1.289,-0.129 0.461,-0.09 0.918,-0.215 1.367,-0.379 0.453,-0.171 0.852,-0.347 1.196,-0.523 1.246,-0.676 2.195,-1.582 2.855,-2.723 0.348,-0.605 0.57,-1.238 0.664,-1.894 0.102,-0.649 0.074,-1.285 -0.078,-1.91 -0.144,-0.621 -0.414,-1.2 -0.812,-1.739 -0.387,-0.539 -0.895,-0.992 -1.528,-1.359 -0.367,-0.215 -0.773,-0.383 -1.211,-0.512 -0.429,-0.133 -0.883,-0.222 -1.367,-0.273 -0.476,-0.047 -0.965,-0.051 -1.469,-0.012 -0.496,0.047 -0.988,0.133 -1.484,0.258 l -11.613,3.23 2.707,-4.687 z" /><path
         id="path19826"
         style="fill:#ffffff;fill-opacity:1;fill-rule:nonzero;stroke:none"
         d="m 286.238,536.961 c 0.387,-0.668 0.59,-1.363 0.617,-2.078 0.024,-0.715 -0.121,-1.422 -0.437,-2.121 -0.313,-0.703 -0.781,-1.379 -1.402,-2.023 -0.621,-0.645 -1.383,-1.227 -2.282,-1.747 -0.992,-0.574 -2.062,-1.031 -3.214,-1.375 -1.133,-0.347 -2.29,-0.586 -3.458,-0.714 -1.16,-0.129 -2.308,-0.149 -3.449,-0.051 -1.133,0.086 -2.187,0.281 -3.164,0.586 -0.969,0.297 -1.836,0.699 -2.597,1.207 -0.754,0.511 -1.336,1.129 -1.754,1.847 -0.379,0.661 -0.586,1.348 -0.621,2.059 -0.024,0.715 0.113,1.422 0.418,2.125 0.308,0.691 0.773,1.359 1.394,2.004 0.629,0.648 1.406,1.242 2.332,1.773 0.977,0.567 2.031,1.02 3.168,1.368 1.137,0.347 2.281,0.585 3.441,0.718 1.165,0.137 2.317,0.16 3.45,0.075 1.136,-0.086 2.195,-0.278 3.172,-0.567 0.984,-0.301 1.851,-0.707 2.605,-1.219 0.762,-0.507 1.355,-1.132 1.781,-1.867 z m -2.511,-1.914 c -0.008,0.098 -0.059,0.223 -0.149,0.379 -0.258,0.445 -0.668,0.82 -1.238,1.133 -0.559,0.316 -1.219,0.558 -1.977,0.726 -0.746,0.164 -1.558,0.258 -2.441,0.286 -0.879,0.019 -1.777,-0.032 -2.692,-0.149 -0.902,-0.121 -1.792,-0.316 -2.675,-0.586 -0.871,-0.273 -1.668,-0.621 -2.399,-1.039 -0.511,-0.297 -0.961,-0.613 -1.34,-0.945 -0.367,-0.328 -0.66,-0.656 -0.871,-0.985 -0.199,-0.32 -0.324,-0.64 -0.375,-0.953 -0.031,-0.316 0.032,-0.609 0.188,-0.886 0.258,-0.446 0.664,-0.821 1.219,-1.129 0.562,-0.301 1.214,-0.535 1.961,-0.7 0.75,-0.171 1.566,-0.273 2.453,-0.296 0.882,-0.028 1.781,0.015 2.695,0.132 0.914,0.118 1.809,0.313 2.676,0.586 0.883,0.27 1.695,0.618 2.429,1.043 0.911,0.528 1.59,1.09 2.039,1.692 0.454,0.605 0.618,1.168 0.497,1.691 z" /><path
         id="path19828"
         style="fill:#ffffff;fill-opacity:1;fill-rule:nonzero;stroke:none"
         d="m 246.855,585.035 4.149,-21.945 5.074,4.484 1.277,0.739 6.426,2.152 -16.926,14.57 z" /><path
         id="path19830"
         style="fill:#ffffff;fill-opacity:1;fill-rule:nonzero;stroke:none"
         d="m 293.969,504.614 -16.934,14.566 6.422,2.152 1.277,0.739 5.075,4.484 4.16,-21.941 z" /><path
         id="path19832"
         style="fill:#ffffff;fill-opacity:1;fill-rule:nonzero;stroke:none"
         d="m 252.965,331.305 c -0.766,-0.215 -1.32,-0.027 -1.664,0.566 -0.285,0.496 -0.387,0.942 -0.305,1.328 0.098,0.391 0.301,0.672 0.609,0.848 0.153,0.09 0.344,0.168 0.571,0.231 l 13.984,3.753 -0.32,0.11 c -0.195,0.082 -0.367,0.18 -0.516,0.301 -0.148,0.121 -0.262,0.246 -0.344,0.382 -0.082,0.149 -0.128,0.329 -0.136,0.54 0.004,0.207 0.035,0.421 0.094,0.636 0.062,0.207 0.156,0.403 0.277,0.59 0.129,0.176 0.277,0.313 0.449,0.41 0.359,0.207 0.805,0.207 1.336,0 l 4.602,-1.828 c 0.339,-0.137 0.589,-0.344 0.753,-0.629 0.133,-0.23 0.215,-0.449 0.247,-0.66 0.031,-0.211 0.019,-0.414 -0.032,-0.602 -0.039,-0.183 -0.117,-0.343 -0.222,-0.472 -0.102,-0.141 -0.231,-0.254 -0.387,-0.344 -0.152,-0.086 -0.328,-0.156 -0.531,-0.203 l -18.465,-4.957 z" /><path
         id="path19834"
         style="fill:#ffffff;fill-opacity:1;fill-rule:nonzero;stroke:none"
         d="m 262.305,319.071 c 0.519,-0.899 0.34,-1.602 -0.543,-2.114 -0.891,-0.511 -1.598,-0.32 -2.114,0.578 l -4.593,7.954 c -0.508,0.882 -0.317,1.582 0.574,2.093 0.41,0.239 0.836,0.282 1.281,0.125 l 15.133,-4.195 c 0.586,-0.164 1.145,-0.231 1.672,-0.199 0.535,0.023 1.031,0.164 1.484,0.429 0.524,0.301 0.832,0.692 0.934,1.172 0.109,0.485 0.008,0.992 -0.297,1.524 -0.188,0.324 -0.434,0.621 -0.738,0.89 -0.301,0.262 -0.637,0.493 -1.012,0.684 -0.371,0.187 -0.762,0.332 -1.176,0.437 -0.402,0.098 -0.797,0.153 -1.187,0.153 -0.641,0.008 -1.086,0.219 -1.328,0.64 -0.118,0.204 -0.192,0.418 -0.219,0.645 -0.016,0.23 -0.004,0.445 0.035,0.652 0.043,0.207 0.109,0.395 0.207,0.563 0.105,0.176 0.227,0.304 0.363,0.383 0.266,0.152 0.602,0.234 1.008,0.238 0.406,0.008 0.836,-0.035 1.289,-0.129 0.461,-0.086 0.918,-0.211 1.367,-0.375 0.453,-0.172 0.852,-0.348 1.196,-0.527 1.246,-0.672 2.195,-1.578 2.855,-2.719 0.348,-0.609 0.57,-1.238 0.664,-1.895 0.102,-0.648 0.074,-1.285 -0.078,-1.91 -0.144,-0.621 -0.414,-1.199 -0.812,-1.738 -0.387,-0.543 -0.895,-0.996 -1.528,-1.363 -0.367,-0.211 -0.773,-0.383 -1.211,-0.508 -0.429,-0.133 -0.883,-0.227 -1.367,-0.278 -0.476,-0.046 -0.965,-0.046 -1.469,-0.007 -0.496,0.047 -0.988,0.132 -1.484,0.257 l -11.613,3.231 2.707,-4.691 z" /><path
         id="path19836"
         style="fill:#ffffff;fill-opacity:1;fill-rule:nonzero;stroke:none"
         d="m 286.238,314.559 c 0.387,-0.668 0.59,-1.36 0.617,-2.074 0.024,-0.719 -0.121,-1.426 -0.437,-2.121 -0.313,-0.708 -0.781,-1.379 -1.402,-2.024 -0.621,-0.644 -1.383,-1.226 -2.282,-1.746 -0.992,-0.574 -2.062,-1.031 -3.214,-1.375 -1.133,-0.348 -2.29,-0.586 -3.458,-0.715 -1.16,-0.133 -2.308,-0.148 -3.449,-0.055 -1.133,0.09 -2.187,0.286 -3.164,0.59 -0.969,0.297 -1.836,0.696 -2.597,1.207 -0.754,0.512 -1.336,1.129 -1.754,1.848 -0.379,0.66 -0.586,1.344 -0.621,2.055 -0.024,0.718 0.113,1.425 0.418,2.125 0.308,0.695 0.773,1.363 1.394,2.007 0.629,0.649 1.406,1.239 2.332,1.774 0.977,0.562 2.031,1.019 3.168,1.367 1.137,0.348 2.281,0.586 3.441,0.719 1.165,0.137 2.317,0.16 3.45,0.074 1.136,-0.09 2.195,-0.277 3.172,-0.57 0.984,-0.297 1.851,-0.703 2.605,-1.219 0.762,-0.508 1.355,-1.129 1.781,-1.867 z m -2.511,-1.91 c -0.008,0.097 -0.059,0.222 -0.149,0.375 -0.258,0.445 -0.668,0.824 -1.238,1.136 -0.559,0.317 -1.219,0.559 -1.977,0.727 -0.746,0.16 -1.558,0.258 -2.441,0.285 -0.879,0.016 -1.777,-0.031 -2.692,-0.148 -0.902,-0.121 -1.792,-0.317 -2.675,-0.586 -0.871,-0.274 -1.668,-0.621 -2.399,-1.043 -0.511,-0.297 -0.961,-0.61 -1.34,-0.946 -0.367,-0.328 -0.66,-0.652 -0.871,-0.98 -0.199,-0.324 -0.324,-0.641 -0.375,-0.953 -0.031,-0.317 0.032,-0.613 0.188,-0.887 0.258,-0.445 0.664,-0.82 1.219,-1.129 0.562,-0.304 1.214,-0.539 1.961,-0.699 0.75,-0.172 1.566,-0.273 2.453,-0.301 0.882,-0.027 1.781,0.02 2.695,0.137 0.914,0.117 1.809,0.312 2.676,0.586 0.883,0.269 1.695,0.617 2.429,1.043 0.911,0.523 1.59,1.086 2.039,1.691 0.454,0.602 0.618,1.168 0.497,1.692 z" /><path
         id="path19838"
         style="fill:#ffffff;fill-opacity:1;fill-rule:nonzero;stroke:none"
         d="m 246.855,362.637 4.149,-21.949 5.074,4.488 1.277,0.738 6.426,2.153 -16.926,14.57 z" /><path
         id="path19840"
         style="fill:#ffffff;fill-opacity:1;fill-rule:nonzero;stroke:none"
         d="m 293.969,282.211 -16.934,14.567 6.422,2.152 1.277,0.738 5.075,4.488 4.16,-21.945 z" /><path
         id="path19842"
         style="fill:#656565;fill-opacity:1;fill-rule:nonzero;stroke:none"
         d="m 176.398,179.637 c -0.367,-0.535 -0.769,-0.801 -1.214,-0.801 -0.219,0 -0.43,0.043 -0.641,0.133 -0.207,0.098 -0.391,0.223 -0.547,0.371 -0.16,0.149 -0.289,0.305 -0.387,0.473 -0.097,0.179 -0.148,0.351 -0.148,0.519 0,0.297 0.098,0.621 0.297,0.965 0.207,0.348 0.465,0.684 0.773,1.008 0.317,0.336 0.657,0.648 1.024,0.937 0.375,0.297 0.726,0.543 1.05,0.743 1.18,0.691 2.391,1.035 3.637,1.035 0.723,0 1.387,-0.121 2,-0.371 0.625,-0.246 1.164,-0.59 1.617,-1.035 0.457,-0.438 0.813,-0.961 1.071,-1.575 0.265,-0.601 0.398,-1.265 0.398,-1.988 0,-0.602 -0.082,-1.191 -0.25,-1.766 -0.168,-0.574 -0.406,-1.121 -0.711,-1.644 -0.308,-0.516 -0.683,-1 -1.129,-1.457 -0.445,-0.445 -0.933,-0.844 -1.468,-1.199 0.367,-0.485 0.636,-0.981 0.816,-1.485 0.176,-0.504 0.266,-1.062 0.266,-1.676 0,-0.632 -0.098,-1.25 -0.297,-1.855 -0.188,-0.602 -0.453,-1.176 -0.801,-1.719 -0.348,-0.547 -0.758,-1.051 -1.231,-1.515 -0.476,-0.454 -0.996,-0.852 -1.558,-1.188 -0.555,-0.336 -1.141,-0.598 -1.766,-0.785 -0.621,-0.188 -1.254,-0.281 -1.898,-0.281 -0.672,0 -1.321,0.113 -1.942,0.34 -0.613,0.23 -1.152,0.55 -1.617,0.964 -0.465,0.418 -0.836,0.911 -1.113,1.485 -0.277,0.574 -0.418,1.203 -0.418,1.883 0,0.484 0.137,0.851 0.402,1.097 0.278,0.258 0.684,0.387 1.215,0.387 0.891,0 1.375,-0.473 1.457,-1.426 0.039,-0.512 0.231,-0.922 0.578,-1.23 0.356,-0.297 0.836,-0.446 1.438,-0.446 0.504,0 1.019,0.121 1.543,0.356 0.535,0.25 1.019,0.57 1.453,0.965 0.437,0.398 0.793,0.851 1.07,1.367 0.278,0.512 0.414,1.047 0.414,1.601 0,0.602 -0.183,1.067 -0.551,1.395 -0.363,0.324 -0.843,0.488 -1.437,0.488 -0.207,0 -0.398,0.039 -0.578,0.121 -0.168,0.078 -0.32,0.188 -0.461,0.325 -0.137,0.14 -0.246,0.3 -0.324,0.488 -0.071,0.191 -0.106,0.387 -0.106,0.594 0,0.211 0.035,0.402 0.106,0.578 0.078,0.191 0.183,0.351 0.308,0.492 0.141,0.137 0.293,0.246 0.461,0.324 0.18,0.09 0.367,0.137 0.563,0.137 0.508,0.008 1.027,0.133 1.558,0.367 0.535,0.25 1.02,0.57 1.453,0.965 0.438,0.398 0.793,0.848 1.071,1.351 0.277,0.516 0.414,1.047 0.414,1.602 0,0.266 -0.043,0.516 -0.133,0.742 -0.078,0.227 -0.203,0.426 -0.371,0.594 -0.156,0.168 -0.367,0.301 -0.621,0.398 -0.258,0.11 -0.555,0.164 -0.891,0.164 -0.355,0 -0.722,-0.058 -1.097,-0.175 -0.368,-0.121 -0.723,-0.289 -1.071,-0.504 -0.336,-0.211 -0.652,-0.457 -0.949,-0.742 -0.285,-0.278 -0.527,-0.575 -0.727,-0.891 z" /><path
         id="path19844"
         style="fill:#656565;fill-opacity:1;fill-rule:nonzero;stroke:none"
         d="m 196.5,185.02 c 0.773,0 1.473,-0.168 2.105,-0.504 0.633,-0.336 1.172,-0.817 1.618,-1.438 0.457,-0.625 0.808,-1.367 1.054,-2.226 0.246,-0.86 0.371,-1.809 0.371,-2.848 0,-1.148 -0.136,-2.305 -0.414,-3.473 -0.269,-1.156 -0.64,-2.273 -1.113,-3.351 -0.465,-1.066 -1.023,-2.07 -1.676,-3.012 -0.644,-0.937 -1.34,-1.754 -2.093,-2.449 -0.743,-0.691 -1.524,-1.238 -2.344,-1.645 -0.82,-0.394 -1.645,-0.593 -2.477,-0.593 -0.761,0 -1.461,0.164 -2.093,0.488 -0.633,0.336 -1.176,0.812 -1.629,1.426 -0.446,0.613 -0.793,1.347 -1.039,2.211 -0.25,0.871 -0.372,1.84 -0.372,2.906 0,1.129 0.133,2.269 0.399,3.426 0.269,1.16 0.633,2.269 1.098,3.34 0.464,1.078 1.019,2.086 1.664,3.027 0.64,0.937 1.336,1.758 2.074,2.461 0.754,0.703 1.539,1.25 2.359,1.648 0.82,0.403 1.656,0.606 2.508,0.606 z m 0.402,-3.129 c -0.09,0.039 -0.222,0.058 -0.402,0.058 -0.516,0 -1.047,-0.168 -1.602,-0.503 -0.554,-0.325 -1.093,-0.778 -1.617,-1.352 -0.515,-0.563 -1.004,-1.219 -1.469,-1.973 -0.453,-0.75 -0.859,-1.55 -1.214,-2.402 -0.348,-0.84 -0.625,-1.711 -0.832,-2.609 -0.2,-0.891 -0.297,-1.758 -0.297,-2.598 0,-0.594 0.051,-1.137 0.148,-1.633 0.098,-0.484 0.238,-0.898 0.414,-1.246 0.18,-0.336 0.391,-0.602 0.641,-0.801 0.254,-0.187 0.543,-0.281 0.859,-0.281 0.516,0 1.043,0.164 1.586,0.488 0.543,0.336 1.074,0.789 1.59,1.352 0.523,0.562 1.016,1.223 1.481,1.973 0.464,0.753 0.874,1.554 1.234,2.402 0.355,0.851 0.633,1.723 0.828,2.613 0.207,0.899 0.312,1.774 0.312,2.625 0,1.047 -0.148,1.918 -0.445,2.61 -0.297,0.695 -0.703,1.117 -1.215,1.277 z" /><path
         id="path19846"
         style="fill:#656565;fill-opacity:1;fill-rule:nonzero;stroke:none"
         d="m 210.496,185.02 c 3.242,0 5.891,-2.645 5.891,-5.891 0,-3.242 -2.649,-5.89 -5.891,-5.89 -3.246,0 -5.891,2.648 -5.891,5.89 0,3.246 2.645,5.891 5.891,5.891 z m 0,-1.637 c -2.359,0 -4.254,-1.894 -4.254,-4.254 0,-2.355 1.895,-4.25 4.254,-4.25 2.356,0 4.25,1.895 4.25,4.25 0,2.36 -1.894,4.254 -4.25,4.254 z" /><path
         id="path19848"
         style="fill:#656565;fill-opacity:1;fill-rule:nonzero;stroke:none"
         d="m 156.484,201.207 0,-1.472 3.532,0 0,1.472 -3.532,0 z m 5.891,0 0,-1.472 3.531,0 0,1.472 -3.531,0 z m 5.887,0 0,-1.472 3.535,0 0,1.472 -3.535,0 z m 5.894,0 0,-1.472 3.535,0 0,1.472 -3.535,0 z m 5.891,0 0,-1.472 3.523,0 0,1.472 -3.523,0 z m 5.887,0 0,-1.472 3.523,0 0,1.472 -3.523,0 z m 5.886,0 0,-1.472 3.535,0 0,1.472 -3.535,0 z m 5.887,0 0,-1.472 3.535,0 0,1.472 -3.535,0 z m 5.895,0 0,-1.472 3.531,0 0,1.472 -3.531,0 z m 5.886,0 0,-1.472 3.528,0 0,1.472 -3.528,0 z m 5.887,0 0,-1.472 3.527,0 0,1.472 -3.527,0 z m 6.477,0 0,-1.472 2.945,0 0,1.472 -2.945,0 z m 5.886,0 0,-1.472 2.95,0 0,1.472 -2.95,0 z m 5.887,0 0,-1.472 2.957,0 0,1.472 -2.957,0 z m 5.891,0 0,-1.472 2.945,0 0,1.472 -2.945,0 z m 5.89,0 0,-1.472 2.942,0 0,1.472 -2.942,0 z m 5.887,0 0,-1.472 2.953,0 0,1.472 -2.953,0 z m 5.895,0 0,-1.472 2.945,0 0,1.472 -2.945,0 z" /><path
         id="path19850"
         style="fill:#ffffff;fill-opacity:1;fill-rule:nonzero;stroke:none"
         d="m 252.965,331.305 c -0.766,-0.215 -1.32,-0.027 -1.664,0.566 -0.285,0.496 -0.387,0.942 -0.305,1.328 0.098,0.391 0.301,0.672 0.609,0.848 0.153,0.09 0.344,0.168 0.571,0.231 l 13.984,3.753 -0.32,0.11 c -0.195,0.082 -0.367,0.18 -0.516,0.301 -0.148,0.121 -0.262,0.246 -0.344,0.382 -0.082,0.149 -0.128,0.329 -0.136,0.54 0.004,0.207 0.035,0.421 0.094,0.636 0.062,0.207 0.156,0.403 0.277,0.59 0.129,0.176 0.277,0.313 0.449,0.41 0.359,0.207 0.805,0.207 1.336,0 l 4.602,-1.828 c 0.339,-0.137 0.589,-0.344 0.753,-0.629 0.133,-0.23 0.215,-0.449 0.247,-0.66 0.031,-0.211 0.019,-0.414 -0.032,-0.602 -0.039,-0.183 -0.117,-0.343 -0.222,-0.472 -0.102,-0.141 -0.231,-0.254 -0.387,-0.344 -0.152,-0.086 -0.328,-0.156 -0.531,-0.203 l -18.465,-4.957 z" /><path
         id="path19852"
         style="fill:#ffffff;fill-opacity:1;fill-rule:nonzero;stroke:none"
         d="m 262.305,319.071 c 0.519,-0.899 0.34,-1.602 -0.543,-2.114 -0.891,-0.511 -1.598,-0.32 -2.114,0.578 l -4.593,7.954 c -0.508,0.882 -0.317,1.582 0.574,2.093 0.41,0.239 0.836,0.282 1.281,0.125 l 15.133,-4.195 c 0.586,-0.164 1.145,-0.231 1.672,-0.199 0.535,0.023 1.031,0.164 1.484,0.429 0.524,0.301 0.832,0.692 0.934,1.172 0.109,0.485 0.008,0.992 -0.297,1.524 -0.188,0.324 -0.434,0.621 -0.738,0.89 -0.301,0.262 -0.637,0.493 -1.012,0.684 -0.371,0.187 -0.762,0.332 -1.176,0.437 -0.402,0.098 -0.797,0.153 -1.187,0.153 -0.641,0.008 -1.086,0.219 -1.328,0.64 -0.118,0.204 -0.192,0.418 -0.219,0.645 -0.016,0.23 -0.004,0.445 0.035,0.652 0.043,0.207 0.109,0.395 0.207,0.563 0.105,0.176 0.227,0.304 0.363,0.383 0.266,0.152 0.602,0.234 1.008,0.238 0.406,0.008 0.836,-0.035 1.289,-0.129 0.461,-0.086 0.918,-0.211 1.367,-0.375 0.453,-0.172 0.852,-0.348 1.196,-0.527 1.246,-0.672 2.195,-1.578 2.855,-2.719 0.348,-0.609 0.57,-1.238 0.664,-1.895 0.102,-0.648 0.074,-1.285 -0.078,-1.91 -0.144,-0.621 -0.414,-1.199 -0.812,-1.738 -0.387,-0.543 -0.895,-0.996 -1.528,-1.363 -0.367,-0.211 -0.773,-0.383 -1.211,-0.508 -0.429,-0.133 -0.883,-0.227 -1.367,-0.278 -0.476,-0.046 -0.965,-0.046 -1.469,-0.007 -0.496,0.047 -0.988,0.132 -1.484,0.257 l -11.613,3.231 2.707,-4.691 z" /><path
         id="path19854"
         style="fill:#ffffff;fill-opacity:1;fill-rule:nonzero;stroke:none"
         d="m 286.238,314.559 c 0.387,-0.668 0.59,-1.36 0.617,-2.074 0.024,-0.719 -0.121,-1.426 -0.437,-2.121 -0.313,-0.708 -0.781,-1.379 -1.402,-2.024 -0.621,-0.644 -1.383,-1.226 -2.282,-1.746 -0.992,-0.574 -2.062,-1.031 -3.214,-1.375 -1.133,-0.348 -2.29,-0.586 -3.458,-0.715 -1.16,-0.133 -2.308,-0.148 -3.449,-0.055 -1.133,0.09 -2.187,0.286 -3.164,0.59 -0.969,0.297 -1.836,0.696 -2.597,1.207 -0.754,0.512 -1.336,1.129 -1.754,1.848 -0.379,0.66 -0.586,1.344 -0.621,2.055 -0.024,0.718 0.113,1.425 0.418,2.125 0.308,0.695 0.773,1.363 1.394,2.007 0.629,0.649 1.406,1.239 2.332,1.774 0.977,0.562 2.031,1.019 3.168,1.367 1.137,0.348 2.281,0.586 3.441,0.719 1.165,0.137 2.317,0.16 3.45,0.074 1.136,-0.09 2.195,-0.277 3.172,-0.57 0.984,-0.297 1.851,-0.703 2.605,-1.219 0.762,-0.508 1.355,-1.129 1.781,-1.867 z m -2.511,-1.91 c -0.008,0.097 -0.059,0.222 -0.149,0.375 -0.258,0.445 -0.668,0.824 -1.238,1.136 -0.559,0.317 -1.219,0.559 -1.977,0.727 -0.746,0.16 -1.558,0.258 -2.441,0.285 -0.879,0.016 -1.777,-0.031 -2.692,-0.148 -0.902,-0.121 -1.792,-0.317 -2.675,-0.586 -0.871,-0.274 -1.668,-0.621 -2.399,-1.043 -0.511,-0.297 -0.961,-0.61 -1.34,-0.946 -0.367,-0.328 -0.66,-0.652 -0.871,-0.98 -0.199,-0.324 -0.324,-0.641 -0.375,-0.953 -0.031,-0.317 0.032,-0.613 0.188,-0.887 0.258,-0.445 0.664,-0.82 1.219,-1.129 0.562,-0.304 1.214,-0.539 1.961,-0.699 0.75,-0.172 1.566,-0.273 2.453,-0.301 0.882,-0.027 1.781,0.02 2.695,0.137 0.914,0.117 1.809,0.312 2.676,0.586 0.883,0.269 1.695,0.617 2.429,1.043 0.911,0.523 1.59,1.086 2.039,1.691 0.454,0.602 0.618,1.168 0.497,1.692 z" /><path
         id="path19856"
         style="fill:#ffffff;fill-opacity:1;fill-rule:nonzero;stroke:none"
         d="m 246.855,362.637 4.149,-21.949 5.074,4.488 1.277,0.738 6.426,2.153 -16.926,14.57 z" /><path
         id="path19858"
         style="fill:#ffffff;fill-opacity:1;fill-rule:nonzero;stroke:none"
         d="m 293.969,282.211 -16.934,14.567 6.422,2.152 1.277,0.738 5.075,4.488 4.16,-21.945 z" /><path
         id="path19860"
         style="fill:#656565;fill-opacity:1;fill-rule:nonzero;stroke:none"
         d="m 207.094,227.356 4.152,-21.95 5.074,4.489 1.278,0.738 6.422,2.152 -16.926,14.571 z" /><path
         id="path19862"
         style="fill:#000000;fill-opacity:1;fill-rule:nonzero;stroke:none"
         d="m 399.566,1.055 c 0,-0.328 -0.089,-0.488 -0.281,-0.488 -0.781,0 -1.734,0.031 -2.855,0.101 -1.075,0.071 -1.969,0.106 -2.684,0.106 -0.711,0 -1.582,-0.035 -2.613,-0.106 -1.074,-0.07 -2.004,-0.101 -2.785,-0.101 -0.211,0 -0.317,0.16 -0.317,0.488 0,0.293 0.094,0.453 0.281,0.476 1.368,0.161 2.297,0.415 2.79,0.754 0.5,0.34 0.753,0.985 0.753,1.934 l 0,0.281 -0.738,17.028 -8.453,-21.243 C 382.598,0.094 382.434,0 382.176,0 c -0.27,0 -0.43,0.094 -0.473,0.285 L 373.742,20.684 372.48,4.5 c -0.023,-0.199 -0.035,-0.375 -0.035,-0.527 0,-0.785 0.266,-1.348 0.805,-1.688 0.539,-0.339 1.496,-0.586 2.875,-0.738 0.164,-0.023 0.246,-0.187 0.246,-0.492 0,-0.328 -0.105,-0.488 -0.316,-0.488 -0.606,0 -1.438,0.031 -2.489,0.101 -0.98,0.071 -1.742,0.106 -2.281,0.106 -0.582,0 -1.379,-0.035 -2.383,-0.106 -0.972,-0.07 -1.718,-0.101 -2.246,-0.101 -0.16,0 -0.242,0.16 -0.242,0.488 0,0.293 0.102,0.453 0.313,0.476 1.472,0.172 2.492,0.45 3.05,0.825 0.575,0.375 0.903,1.09 0.985,2.144 l 1.824,16.539 c 0.012,0.211 0.016,0.395 0.016,0.559 0,0.762 -0.27,1.312 -0.805,1.652 -0.539,0.344 -1.516,0.598 -2.93,0.774 -0.164,0 -0.246,0.164 -0.246,0.492 0,0.117 0.035,0.226 0.106,0.336 0.07,0.101 0.14,0.156 0.211,0.156 0.433,0 1.046,-0.035 1.839,-0.105 0.68,-0.071 1.176,-0.106 1.493,-0.106 0.41,0 0.992,0.035 1.75,0.106 0.785,0.07 1.394,0.105 1.824,0.105 l 7.523,-19.559 7.785,19.559 c 0.469,0 1.082,-0.035 1.84,-0.105 0.692,-0.071 1.235,-0.106 1.633,-0.106 0.488,0 1.078,0.035 1.77,0.106 0.714,0.07 1.328,0.105 1.839,0.105 0.211,0 0.317,-0.164 0.317,-0.492 0,-0.328 -0.094,-0.492 -0.281,-0.492 -1.368,-0.164 -2.301,-0.418 -2.805,-0.754 -0.488,-0.34 -0.735,-0.985 -0.735,-1.934 l 0,-0.297 0.805,-16.539 c 0.035,-0.82 0.156,-1.394 0.367,-1.722 0.223,-0.329 0.598,-0.59 1.121,-0.789 0.528,-0.188 1.282,-0.34 2.262,-0.458 0.192,-0.023 0.281,-0.183 0.281,-0.476 z" /><path
         id="path19864"
         style="fill:#000000;fill-opacity:1;fill-rule:nonzero;stroke:none"
         d="m 412.828,0.18 c -0.652,0 -1.226,0.164 -1.719,0.488 -0.476,0.317 -0.804,0.75 -0.98,1.301 -1.25,-1.289 -2.887,-1.93 -4.91,-1.93 -1.051,0 -1.91,0.321 -2.574,0.965 -0.668,0.656 -1.004,1.469 -1.004,2.442 0,2.402 2.843,4.343 8.523,5.832 l 0.106,2.742 0,0.09 c 0,0.843 -0.211,1.511 -0.633,2.004 -0.41,0.503 -0.957,0.753 -1.645,0.753 -0.691,0 -1.277,-0.168 -1.754,-0.511 -0.48,-0.325 -0.726,-0.742 -0.738,-1.246 -0.012,-0.746 -0.211,-1.336 -0.594,-1.758 -0.379,-0.418 -0.879,-0.633 -1.511,-0.633 -0.372,0 -0.676,0.113 -0.911,0.336 -0.234,0.223 -0.351,0.519 -0.351,0.894 0,0.903 0.82,1.848 2.453,2.832 1.641,0.993 3.156,1.493 4.559,1.493 1.265,0 2.285,-0.375 3.07,-1.125 0.785,-0.746 1.176,-1.758 1.176,-3.02 l 0,-0.211 -0.246,-7.945 0,-0.121 c 0,-1.235 0.398,-1.848 1.191,-1.848 0.387,0 0.836,0.235 1.352,0.703 l 0.121,0.035 c 0.093,0 0.183,-0.066 0.265,-0.191 0.082,-0.117 0.121,-0.246 0.121,-0.387 0,-0.34 -0.355,-0.758 -1.07,-1.246 C 414.426,0.426 413.66,0.18 412.828,0.18 Z m -2.699,7.906 c -3.414,-0.777 -5.121,-2.051 -5.121,-3.832 0,-1.664 0.644,-2.496 1.93,-2.496 0.621,0 1.226,0.152 1.824,0.457 0.605,0.32 1.015,0.703 1.226,1.16 l 0.141,4.711 z" /><path
         id="path19866"
         style="fill:#000000;fill-opacity:1;fill-rule:nonzero;stroke:none"
         d="m 434,7.629 c 0,-2.172 -0.523,-3.98 -1.574,-5.433 -1.039,-1.438 -2.297,-2.157 -3.77,-2.157 -0.89,0 -1.613,0.297 -2.176,0.895 -0.562,0.597 -0.839,1.379 -0.839,2.336 0,0.668 0.164,1.199 0.488,1.597 0.328,0.414 0.773,0.618 1.332,0.618 0.41,0 0.762,-0.141 1.055,-0.422 0.304,-0.282 0.457,-0.633 0.457,-1.055 0,-0.516 -0.254,-0.922 -0.754,-1.211 -0.364,-0.215 -0.547,-0.453 -0.547,-0.723 0,-0.609 0.281,-0.91 0.844,-0.91 1.308,0 1.961,2.153 1.961,6.465 0,2.262 -0.485,4.145 -1.454,5.66 -0.957,1.52 -2.226,2.282 -3.804,2.282 -0.188,0 -0.281,0.164 -0.281,0.492 0,0.328 0.093,0.492 0.281,0.492 1.168,0 2.09,0.406 2.769,1.215 0.68,0.816 1.016,1.906 1.016,3.269 0,2.528 -0.828,3.793 -2.488,3.793 -0.875,0 -1.664,-0.558 -2.368,-1.668 -0.687,-1.101 -1.035,-2.359 -1.035,-3.781 l 0,-14.883 c 0,-1.125 0.117,-1.883 0.352,-2.269 0.246,-0.375 0.738,-0.61 1.473,-0.7 0.187,-0.023 0.281,-0.183 0.281,-0.476 0,-0.328 -0.094,-0.488 -0.281,-0.488 -0.481,0 -1.028,0.031 -1.649,0.101 -0.687,0.071 -1.32,0.106 -1.891,0.106 -0.586,0 -1.265,-0.035 -2.035,-0.106 -0.691,-0.07 -1.273,-0.101 -1.754,-0.101 -0.187,0 -0.281,0.16 -0.281,0.488 0,0.293 0.094,0.453 0.281,0.476 0.993,0.129 1.629,0.368 1.911,0.719 0.292,0.352 0.437,1.102 0.437,2.25 l 0,8.399 c 0,0.328 -0.141,0.492 -0.422,0.492 l -1.785,0 c -0.234,0 -0.352,0.152 -0.352,0.457 0,0.305 0.106,0.484 0.317,0.527 1.496,0.34 2.242,0.668 2.242,0.985 0,3.07 0.66,5.621 1.981,7.66 1.324,2.054 3.035,3.078 5.14,3.078 1.473,0 2.676,-0.445 3.61,-1.336 0.949,-0.891 1.421,-1.969 1.421,-3.234 0,-2.332 -1.386,-4.082 -4.156,-5.254 1.777,-0.489 3.227,-1.555 4.348,-3.18 C 433.438,11.465 434,9.645 434,7.629 Z" /><path
         id="path19868"
         style="fill:#000000;fill-opacity:1;fill-rule:nonzero;stroke:none"
         d="m 450.625,10.547 c 0,-0.332 -0.207,-0.492 -0.629,-0.492 l -9.609,0 c -0.071,-0.633 -0.102,-1.293 -0.102,-1.969 0,-1.89 0.442,-3.34 1.332,-4.359 0.899,-1.008 2.172,-1.512 3.821,-1.512 0.832,0 1.664,0.223 2.507,0.668 0.84,0.445 1.52,1.012 2.035,1.703 l 0.086,0.039 c 0.106,0 0.207,-0.066 0.297,-0.195 0.106,-0.129 0.16,-0.281 0.16,-0.457 0,-0.246 -0.375,-0.762 -1.121,-1.547 -0.75,-0.773 -1.562,-1.363 -2.437,-1.773 -0.879,-0.411 -1.797,-0.614 -2.754,-0.614 -2.106,0 -3.875,0.77 -5.313,2.317 -1.437,1.547 -2.156,3.445 -2.156,5.695 0,2.293 0.699,4.242 2.102,5.832 1.414,1.594 3.203,2.391 5.367,2.391 1.812,0 3.332,-0.598 4.559,-1.789 1.238,-1.188 1.855,-2.496 1.855,-3.938 z m -3.187,1.543 c 0,0.879 -0.305,1.606 -0.911,2.18 -0.601,0.586 -1.371,0.879 -2.316,0.879 -0.899,0 -1.684,-0.379 -2.352,-1.145 -0.652,-0.746 -1.097,-1.738 -1.332,-2.969 l 4.875,0.145 c 0.735,0.008 1.258,0.078 1.563,0.207 0.312,0.133 0.473,0.367 0.473,0.703 z" /><path
         id="path19870"
         style="fill:#000000;fill-opacity:1;fill-rule:nonzero;stroke:none"
         d="m 467.59,22.301 c 0,-0.492 -0.18,-0.918 -0.543,-1.281 -0.348,-0.364 -0.777,-0.547 -1.281,-0.547 -0.5,0 -0.934,0.183 -1.297,0.547 -0.348,0.363 -0.524,0.789 -0.524,1.281 0,0.516 0.176,0.949 0.524,1.301 0.351,0.351 0.785,0.527 1.297,0.527 0.504,0 0.933,-0.176 1.281,-0.527 0.363,-0.352 0.543,-0.785 0.543,-1.301 z m 2.457,-21.246 c 0,-0.328 -0.094,-0.488 -0.281,-0.488 -0.481,0 -1.094,0.031 -1.84,0.101 -0.844,0.071 -1.551,0.106 -2.121,0.106 -0.586,0 -1.289,-0.035 -2.106,-0.106 -0.738,-0.07 -1.344,-0.101 -1.824,-0.101 -0.187,0 -0.281,0.16 -0.281,0.488 0,0.293 0.094,0.453 0.281,0.476 0.996,0.129 1.629,0.368 1.91,0.719 0.293,0.352 0.438,1.102 0.438,2.25 l 0,6.504 c 0,0.934 -0.121,1.551 -0.368,1.844 -0.234,0.293 -0.753,0.484 -1.558,0.582 -0.188,0 -0.281,0.148 -0.281,0.453 0,0.281 0.093,0.422 0.281,0.422 1.226,0.316 2.23,0.648 3.015,1 0.786,0.363 1.274,0.664 1.473,0.898 0.117,0.141 0.246,0.211 0.387,0.211 0.328,0 0.488,-0.093 0.488,-0.281 -0.187,-2.621 -0.277,-4.664 -0.277,-6.113 l 0,-5.52 c 0,-1.148 0.137,-1.898 0.418,-2.25 0.293,-0.351 0.949,-0.59 1.965,-0.719 0.187,-0.023 0.281,-0.183 0.281,-0.476 z" /><path
         id="path19872"
         style="fill:#000000;fill-opacity:1;fill-rule:nonzero;stroke:none"
         d="m 489.535,1.055 c 0,-0.328 -0.094,-0.488 -0.281,-0.488 -0.465,0 -1.039,0.031 -1.715,0.101 -0.75,0.071 -1.41,0.106 -1.984,0.106 -0.582,0 -1.254,-0.035 -2.016,-0.106 -0.691,-0.07 -1.269,-0.101 -1.734,-0.101 -0.188,0 -0.282,0.16 -0.282,0.488 0,0.293 0.094,0.453 0.282,0.476 0.804,0.09 1.332,0.321 1.578,0.684 0.258,0.363 0.387,1.125 0.387,2.285 l 0,5.867 c 0,1.317 -0.258,2.274 -0.774,2.883 -0.516,0.61 -1.308,0.914 -2.383,0.914 -0.679,0 -1.281,-0.125 -1.808,-0.386 -0.512,-0.258 -1.071,-0.711 -1.664,-1.372 l 0,-7.906 c 0,-1.16 0.121,-1.922 0.367,-2.285 0.258,-0.363 0.789,-0.594 1.594,-0.684 0.191,-0.023 0.281,-0.183 0.281,-0.476 0,-0.328 -0.09,-0.488 -0.281,-0.488 -0.477,0 -1.063,0.031 -1.75,0.101 -0.762,0.071 -1.426,0.106 -2,0.106 -0.563,0 -1.215,-0.035 -1.965,-0.106 -0.688,-0.07 -1.274,-0.101 -1.754,-0.101 -0.184,0 -0.278,0.16 -0.278,0.488 0,0.293 0.094,0.453 0.278,0.476 1.008,0.129 1.656,0.368 1.949,0.719 0.293,0.367 0.438,1.114 0.438,2.25 l 0,6.504 c 0,0.934 -0.125,1.551 -0.368,1.844 -0.234,0.293 -0.769,0.484 -1.597,0.582 -0.188,0 -0.282,0.148 -0.282,0.453 0,0.281 0.094,0.422 0.282,0.422 1.156,0.293 2.121,0.625 2.894,0.984 0.77,0.375 1.258,0.68 1.453,0.914 0.118,0.141 0.246,0.211 0.387,0.211 0.328,0 0.492,-0.093 0.492,-0.281 l -0.14,-2.215 c 1.683,1.571 3.25,2.356 4.699,2.356 1.59,0 2.828,-0.457 3.715,-1.371 0.902,-0.914 1.351,-2.141 1.351,-3.688 l 0,-6.715 c 0,-1.148 0.141,-1.898 0.422,-2.25 0.289,-0.351 0.934,-0.59 1.926,-0.719 0.187,-0.023 0.281,-0.183 0.281,-0.476 z" /><path
         id="path19874"
         style="fill:#000000;fill-opacity:1;fill-rule:nonzero;stroke:none"
         d="m 531.824,1.055 c 0,-0.328 -0.097,-0.488 -0.281,-0.488 -0.785,0 -1.738,0.031 -2.859,0.101 -1.075,0.071 -1.969,0.106 -2.684,0.106 -0.711,0 -1.582,-0.035 -2.609,-0.106 -1.079,-0.07 -2.004,-0.101 -2.789,-0.101 -0.211,0 -0.317,0.16 -0.317,0.488 0,0.293 0.094,0.453 0.281,0.476 1.368,0.161 2.297,0.415 2.786,0.754 0.503,0.34 0.757,0.985 0.757,1.934 l 0,0.281 -0.738,17.028 -8.449,-21.243 C 514.852,0.094 514.688,0 514.43,0 c -0.27,0 -0.426,0.094 -0.477,0.285 L 505.996,20.684 504.734,4.5 c -0.023,-0.199 -0.035,-0.375 -0.035,-0.527 0,-0.785 0.27,-1.348 0.805,-1.688 0.539,-0.339 1.496,-0.586 2.875,-0.738 0.164,-0.023 0.246,-0.187 0.246,-0.492 0,-0.328 -0.105,-0.488 -0.313,-0.488 -0.609,0 -1.441,0.031 -2.492,0.101 -0.984,0.071 -1.742,0.106 -2.277,0.106 -0.586,0 -1.383,-0.035 -2.387,-0.106 -0.968,-0.07 -1.718,-0.101 -2.242,-0.101 -0.168,0 -0.246,0.16 -0.246,0.488 0,0.293 0.105,0.453 0.316,0.476 1.473,0.172 2.489,0.45 3.047,0.825 0.574,0.375 0.903,1.09 0.985,2.144 l 1.82,16.539 c 0.012,0.211 0.019,0.395 0.019,0.559 0,0.762 -0.269,1.312 -0.804,1.652 -0.539,0.344 -1.516,0.598 -2.93,0.774 -0.164,0 -0.246,0.164 -0.246,0.492 0,0.117 0.035,0.226 0.105,0.336 0.071,0.101 0.141,0.156 0.211,0.156 0.43,0 1.047,-0.035 1.84,-0.105 0.68,-0.071 1.176,-0.106 1.492,-0.106 0.411,0 0.993,0.035 1.754,0.106 0.782,0.07 1.391,0.105 1.825,0.105 l 7.519,-19.559 7.785,19.559 c 0.465,0 1.082,-0.035 1.84,-0.105 0.692,-0.071 1.234,-0.106 1.633,-0.106 0.488,0 1.078,0.035 1.769,0.106 0.715,0.07 1.329,0.105 1.844,0.105 0.207,0 0.313,-0.164 0.313,-0.492 0,-0.328 -0.094,-0.492 -0.282,-0.492 -1.367,-0.164 -2.3,-0.418 -2.804,-0.754 -0.492,-0.34 -0.735,-0.985 -0.735,-1.934 l 0,-0.297 0.805,-16.539 c 0.035,-0.82 0.16,-1.394 0.367,-1.722 0.223,-0.329 0.598,-0.59 1.125,-0.789 0.524,-0.188 1.278,-0.34 2.262,-0.458 0.184,-0.023 0.281,-0.183 0.281,-0.476 z" /><path
         id="path19876"
         style="fill:#000000;fill-opacity:1;fill-rule:nonzero;stroke:none"
         d="m 539.438,22.301 c 0,-0.492 -0.18,-0.918 -0.543,-1.281 -0.352,-0.364 -0.778,-0.547 -1.282,-0.547 -0.504,0 -0.933,0.183 -1.297,0.547 -0.351,0.363 -0.523,0.789 -0.523,1.281 0,0.516 0.172,0.949 0.523,1.301 0.352,0.351 0.782,0.527 1.297,0.527 0.504,0 0.93,-0.176 1.282,-0.527 0.363,-0.352 0.543,-0.785 0.543,-1.301 z m 2.457,-21.246 c 0,-0.328 -0.098,-0.488 -0.282,-0.488 -0.48,0 -1.093,0.031 -1.843,0.101 -0.84,0.071 -1.547,0.106 -2.122,0.106 -0.586,0 -1.285,-0.035 -2.105,-0.106 -0.734,-0.07 -1.344,-0.101 -1.824,-0.101 -0.184,0 -0.278,0.16 -0.278,0.488 0,0.293 0.094,0.453 0.278,0.476 0.996,0.129 1.633,0.368 1.914,0.719 0.293,0.352 0.437,1.102 0.437,2.25 l 0,6.504 c 0,0.934 -0.121,1.551 -0.367,1.844 -0.234,0.293 -0.754,0.484 -1.562,0.582 -0.184,0 -0.282,0.148 -0.282,0.453 0,0.281 0.098,0.422 0.282,0.422 1.23,0.316 2.234,0.648 3.015,1 0.785,0.363 1.274,0.664 1.473,0.898 0.117,0.141 0.25,0.211 0.387,0.211 0.328,0 0.492,-0.093 0.492,-0.281 -0.188,-2.621 -0.281,-4.664 -0.281,-6.113 l 0,-5.52 c 0,-1.148 0.14,-1.898 0.421,-2.25 0.293,-0.351 0.946,-0.59 1.965,-0.719 0.184,-0.023 0.282,-0.183 0.282,-0.476 z" /><path
         id="path19878"
         style="fill:#000000;fill-opacity:1;fill-rule:nonzero;stroke:none"
         d="m 551.301,1.09 c 0,-0.328 -0.094,-0.492 -0.281,-0.492 -0.477,0 -1.094,0.031 -1.84,0.09 -0.844,0.054 -1.551,0.086 -2.121,0.086 -0.563,0 -1.258,-0.032 -2.086,-0.086 -0.75,-0.059 -1.364,-0.09 -1.844,-0.09 -0.188,0 -0.281,0.164 -0.281,0.492 0,0.293 0.093,0.449 0.281,0.473 0.992,0.121 1.637,0.351 1.93,0.707 0.304,0.363 0.457,1.117 0.457,2.265 l 0,16.325 c 0,0.949 -0.118,1.57 -0.352,1.863 -0.234,0.293 -0.773,0.488 -1.613,0.582 -0.188,0.023 -0.281,0.168 -0.281,0.437 0,0.282 0.093,0.422 0.281,0.422 1.226,0.317 2.234,0.649 3.015,1 0.782,0.367 1.274,0.672 1.473,0.914 0.117,0.133 0.246,0.196 0.387,0.196 0.324,0 0.492,-0.094 0.492,-0.282 -0.191,-2.625 -0.281,-4.66 -0.281,-6.117 l 0,-15.34 c 0,-1.148 0.144,-1.902 0.437,-2.265 0.293,-0.356 0.942,-0.586 1.946,-0.707 0.187,-0.024 0.281,-0.18 0.281,-0.473 z" /><path
         id="path19880"
         style="fill:#000000;fill-opacity:1;fill-rule:nonzero;stroke:none"
         d="m 560.41,1.09 c 0,-0.328 -0.094,-0.492 -0.281,-0.492 -0.477,0 -1.094,0.031 -1.84,0.09 -0.844,0.054 -1.551,0.086 -2.121,0.086 -0.563,0 -1.258,-0.032 -2.086,-0.086 -0.75,-0.059 -1.363,-0.09 -1.844,-0.09 -0.187,0 -0.281,0.164 -0.281,0.492 0,0.293 0.094,0.449 0.281,0.473 0.992,0.121 1.637,0.351 1.93,0.707 0.305,0.363 0.457,1.117 0.457,2.265 l 0,16.325 c 0,0.949 -0.121,1.57 -0.352,1.863 -0.234,0.293 -0.773,0.488 -1.613,0.582 -0.187,0.023 -0.281,0.168 -0.281,0.437 0,0.282 0.094,0.422 0.281,0.422 1.227,0.317 2.235,0.649 3.016,1 0.781,0.367 1.273,0.672 1.472,0.914 0.118,0.133 0.247,0.196 0.387,0.196 0.324,0 0.488,-0.094 0.488,-0.282 -0.183,-2.625 -0.277,-4.66 -0.277,-6.117 l 0,-15.34 c 0,-1.148 0.145,-1.902 0.438,-2.265 0.293,-0.356 0.941,-0.586 1.945,-0.707 0.187,-0.024 0.281,-0.18 0.281,-0.473 z" /><path
         id="path19882"
         style="fill:#000000;fill-opacity:1;fill-rule:nonzero;stroke:none"
         d="m 567.449,22.301 c 0,-0.492 -0.179,-0.918 -0.543,-1.281 -0.351,-0.364 -0.777,-0.547 -1.281,-0.547 -0.5,0 -0.934,0.183 -1.297,0.547 -0.351,0.363 -0.527,0.789 -0.527,1.281 0,0.516 0.176,0.949 0.527,1.301 0.352,0.351 0.785,0.527 1.297,0.527 0.504,0 0.93,-0.176 1.281,-0.527 0.364,-0.352 0.543,-0.785 0.543,-1.301 z m 2.457,-21.246 c 0,-0.328 -0.094,-0.488 -0.281,-0.488 -0.48,0 -1.094,0.031 -1.844,0.101 -0.84,0.071 -1.547,0.106 -2.121,0.106 -0.586,0 -1.285,-0.035 -2.101,-0.106 -0.739,-0.07 -1.348,-0.101 -1.825,-0.101 -0.187,0 -0.281,0.16 -0.281,0.488 0,0.293 0.094,0.453 0.281,0.476 0.993,0.129 1.629,0.368 1.911,0.719 0.293,0.352 0.437,1.102 0.437,2.25 l 0,6.504 c 0,0.934 -0.121,1.551 -0.367,1.844 -0.235,0.293 -0.754,0.484 -1.563,0.582 -0.183,0 -0.277,0.148 -0.277,0.453 0,0.281 0.094,0.422 0.277,0.422 1.231,0.316 2.235,0.648 3.016,1 0.785,0.363 1.277,0.664 1.477,0.898 0.113,0.141 0.246,0.211 0.382,0.211 0.328,0 0.493,-0.093 0.493,-0.281 -0.188,-2.621 -0.282,-4.664 -0.282,-6.113 l 0,-5.52 c 0,-1.148 0.141,-1.898 0.422,-2.25 0.293,-0.351 0.945,-0.59 1.965,-0.719 0.187,-0.023 0.281,-0.183 0.281,-0.476 z" /><path
         id="path19884"
         style="fill:#000000;fill-opacity:1;fill-rule:nonzero;stroke:none"
         d="m 599.18,1.055 c 0,-0.328 -0.094,-0.488 -0.282,-0.488 -0.468,0 -1.043,0.031 -1.718,0.101 -0.75,0.071 -1.414,0.106 -2,0.106 -0.571,0 -1.231,-0.035 -1.981,-0.106 -0.679,-0.07 -1.258,-0.101 -1.734,-0.101 -0.188,0 -0.281,0.16 -0.281,0.488 0,0.293 0.093,0.453 0.281,0.476 0.793,0.09 1.312,0.321 1.558,0.684 0.247,0.363 0.368,1.125 0.368,2.285 l 0,5.867 c 0,1.325 -0.25,2.286 -0.754,2.883 -0.5,0.61 -1.289,0.914 -2.364,0.914 -1.418,0 -2.585,-0.48 -3.507,-1.441 l 0,-8.223 c 0,-1.16 0.129,-1.922 0.382,-2.285 0.258,-0.363 0.786,-0.594 1.582,-0.684 0.184,-0.023 0.278,-0.183 0.278,-0.476 0,-0.328 -0.094,-0.488 -0.278,-0.488 -0.468,0 -1.011,0.031 -1.632,0.101 -0.68,0.071 -1.297,0.106 -1.86,0.106 -0.586,0 -1.222,-0.035 -1.91,-0.106 -0.621,-0.07 -1.164,-0.101 -1.633,-0.101 -0.187,0 -0.277,0.16 -0.277,0.488 0,0.293 0.09,0.453 0.277,0.476 0.809,0.09 1.336,0.321 1.578,0.684 0.258,0.363 0.387,1.125 0.387,2.285 l 0,5.867 c 0,1.317 -0.258,2.274 -0.769,2.883 -0.516,0.61 -1.313,0.914 -2.387,0.914 -0.68,0 -1.277,-0.125 -1.805,-0.386 -0.515,-0.258 -1.07,-0.711 -1.668,-1.372 l 0,-7.906 c 0,-1.16 0.125,-1.922 0.371,-2.285 0.258,-0.363 0.789,-0.594 1.594,-0.684 0.188,-0.023 0.281,-0.183 0.281,-0.476 0,-0.328 -0.093,-0.488 -0.281,-0.488 -0.476,0 -1.062,0.031 -1.754,0.101 -0.758,0.071 -1.426,0.106 -1.996,0.106 -0.586,0 -1.254,-0.035 -2,-0.106 -0.664,-0.07 -1.238,-0.101 -1.719,-0.101 -0.187,0 -0.277,0.16 -0.277,0.488 0,0.293 0.09,0.453 0.277,0.476 0.996,0.129 1.633,0.368 1.911,0.719 0.292,0.352 0.437,1.102 0.437,2.25 l 0,6.504 c 0,0.934 -0.121,1.551 -0.367,1.844 -0.235,0.293 -0.754,0.484 -1.559,0.582 -0.187,0 -0.281,0.148 -0.281,0.453 0,0.281 0.094,0.422 0.281,0.422 1.156,0.293 2.121,0.625 2.895,0.984 0.769,0.375 1.254,0.68 1.453,0.914 0.117,0.141 0.246,0.211 0.387,0.211 0.324,0 0.488,-0.093 0.488,-0.281 l -0.141,-2.215 c 1.684,1.571 3.254,2.356 4.699,2.356 2.223,0 3.731,-0.856 4.524,-2.567 1.777,1.711 3.516,2.567 5.211,2.567 1.601,0 2.844,-0.457 3.734,-1.371 0.899,-0.914 1.348,-2.141 1.348,-3.688 l 0,-6.715 c 0,-1.148 0.141,-1.898 0.422,-2.25 0.293,-0.351 0.937,-0.59 1.929,-0.719 0.188,-0.023 0.282,-0.183 0.282,-0.476 z" /><path
         id="path19886"
         style="fill:#000000;fill-opacity:1;fill-rule:nonzero;stroke:none"
         d="m 614.457,10.547 c 0,-0.332 -0.211,-0.492 -0.633,-0.492 l -9.609,0 c -0.07,-0.633 -0.106,-1.293 -0.106,-1.969 0,-1.89 0.446,-3.34 1.332,-4.359 0.903,-1.008 2.176,-1.512 3.825,-1.512 0.832,0 1.664,0.223 2.507,0.668 0.84,0.445 1.52,1.012 2.032,1.703 l 0.09,0.039 c 0.105,0 0.203,-0.066 0.296,-0.195 0.106,-0.129 0.161,-0.281 0.161,-0.457 0,-0.246 -0.375,-0.762 -1.125,-1.547 -0.747,-0.773 -1.559,-1.363 -2.438,-1.773 -0.875,-0.411 -1.793,-0.614 -2.75,-0.614 -2.105,0 -3.875,0.77 -5.312,2.317 -1.438,1.547 -2.157,3.445 -2.157,5.695 0,2.293 0.7,4.242 2.102,5.832 1.414,1.594 3.203,2.391 5.367,2.391 1.813,0 3.332,-0.598 4.559,-1.789 1.238,-1.188 1.859,-2.496 1.859,-3.938 z m -3.191,1.543 c 0,0.879 -0.305,1.606 -0.914,2.18 -0.594,0.586 -1.368,0.879 -2.313,0.879 -0.902,0 -1.684,-0.379 -2.351,-1.145 -0.653,-0.746 -1.098,-1.738 -1.333,-2.969 l 4.875,0.145 c 0.739,0.008 1.258,0.078 1.559,0.207 0.316,0.133 0.477,0.367 0.477,0.703 z" /><path
         id="path19888"
         style="fill:#000000;fill-opacity:1;fill-rule:nonzero;stroke:none"
         d="m 627.875,14.555 c 0,-0.637 -0.148,-0.953 -0.453,-0.953 l -5.227,0.14 0,-8.433 c 0,-2.203 0.785,-3.305 2.352,-3.305 0.969,0 1.851,0.227 2.648,0.688 0.09,0 0.172,-0.067 0.243,-0.196 0.082,-0.117 0.124,-0.246 0.124,-0.386 0,-0.293 -0.437,-0.692 -1.316,-1.196 -0.863,-0.488 -1.84,-0.734 -2.93,-0.734 -1.332,0 -2.394,0.402 -3.187,1.207 -0.797,0.824 -1.191,1.898 -1.191,3.238 l 0,0.156 0.066,8.54 c 0,0.332 -0.137,0.496 -0.418,0.496 l -1.332,0 c -0.258,0 -0.387,0.148 -0.387,0.453 0,0.234 0.106,0.41 0.317,0.527 1.625,0.961 3.039,2.317 4.242,4.059 0.129,0.187 0.289,0.285 0.488,0.285 0.328,0 0.492,-0.098 0.492,-0.285 l -0.14,-3.356 5.156,0 c 0.305,0 0.453,-0.316 0.453,-0.945 z" /><path
         id="path19890"
         style="fill:#000000;fill-opacity:1;fill-rule:nonzero;stroke:none"
         d="m 643.77,10.547 c 0,-0.332 -0.211,-0.492 -0.633,-0.492 l -9.606,0 c -0.07,-0.633 -0.105,-1.293 -0.105,-1.969 0,-1.89 0.441,-3.34 1.332,-4.359 0.898,-1.008 2.172,-1.512 3.82,-1.512 0.832,0 1.668,0.223 2.508,0.668 0.844,0.445 1.519,1.012 2.035,1.703 l 0.086,0.039 c 0.105,0 0.207,-0.066 0.297,-0.195 0.109,-0.129 0.16,-0.281 0.16,-0.457 0,-0.246 -0.375,-0.762 -1.121,-1.547 -0.75,-0.773 -1.563,-1.363 -2.438,-1.773 -0.878,-0.411 -1.793,-0.614 -2.753,-0.614 -2.106,0 -3.875,0.77 -5.313,2.317 -1.437,1.547 -2.156,3.445 -2.156,5.695 0,2.293 0.703,4.242 2.105,5.832 1.414,1.594 3.2,2.391 5.364,2.391 1.812,0 3.332,-0.598 4.558,-1.789 1.242,-1.188 1.86,-2.496 1.86,-3.938 z m -3.192,1.543 c 0,0.879 -0.305,1.606 -0.91,2.18 -0.598,0.586 -1.367,0.879 -2.316,0.879 -0.899,0 -1.684,-0.379 -2.348,-1.145 -0.656,-0.746 -1.102,-1.738 -1.332,-2.969 l 4.871,0.145 c 0.738,0.008 1.258,0.078 1.562,0.207 0.313,0.133 0.473,0.367 0.473,0.703 z" /><path
         id="path19892"
         style="fill:#000000;fill-opacity:1;fill-rule:nonzero;stroke:none"
         d="m 648.496,6.821 c 0,-1.829 0,-3.059 -0.039,-4.219 0,-0.457 -0.242,-0.668 -0.769,-0.668 l -1.368,0 c -0.316,0 -0.386,-0.07 -0.386,-0.317 l 0,-0.597 c 0,-0.281 0.07,-0.352 0.211,-0.352 0.21,0 1.683,0.106 3.855,0.106 1.895,0 3.508,-0.106 3.719,-0.106 0.14,0 0.176,0.106 0.176,0.317 l 0,0.632 c 0,0.211 -0.036,0.317 -0.247,0.317 l -1.648,0 c -0.734,0 -0.98,0.351 -0.98,1.441 l 0,7.379 c 0,0.106 0.14,0.738 0.351,1.125 0.594,1.125 1.508,1.477 2.067,1.477 0.457,0 0.878,-0.106 1.16,-0.282 0.277,-0.14 0.629,-0.281 1.015,-0.281 0.629,0 1.473,0.707 1.473,1.723 0,0.808 -0.594,1.547 -1.789,1.547 -1.508,0 -3.156,-1.442 -4.207,-3.059 l -0.141,0 -0.176,2.426 c 0,0.211 -0.035,0.422 -0.246,0.422 -0.14,0 -0.277,-0.035 -0.488,-0.141 l -3.473,-1.793 c -0.211,-0.101 -0.281,-0.176 -0.281,-0.316 l 0,-0.211 c 0,-0.141 0.07,-0.176 0.281,-0.246 l 0.668,-0.352 c 0.981,-0.527 1.262,-0.875 1.262,-2.672 l 0,-3.3 z" /><path
         id="path19894"
         style="fill:#000000;fill-opacity:1;fill-rule:nonzero;stroke:none"
         d="m 451.195,956.852 0,50.527 c 0,8.887 -2.34,16.375 -8.422,22.301 -4.679,4.519 -11.851,7.172 -19.961,7.172 -10.449,0 -18.402,-3.742 -24.792,-11.539 -4.993,7.64 -12.633,11.539 -22.458,11.539 -7.953,0 -15.75,-3.117 -21.054,-8.887 l 0,7.953 -15.594,0 0,-79.066 15.906,0 0,48.187 c 0,12.164 7.485,17.621 16.375,17.621 8.887,0 15.907,-5.3 15.907,-17.621 l 0,-48.187 15.906,0 0,48.969 c 0,11.382 7.797,16.839 16.375,16.839 8.887,0 15.906,-5.3 15.906,-17.621 l 0,-48.187 15.906,0 z" /><path
         id="path19896"
         style="fill:#000000;fill-opacity:1;fill-rule:nonzero;stroke:none"
         d="m 440.383,1131.367 c 0,-5.691 -1.113,-11.105 -3.332,-16.242 -2.223,-4.996 -5.207,-9.367 -8.953,-13.117 -3.75,-3.746 -8.192,-6.73 -13.328,-8.953 -4.997,-2.219 -10.34,-3.332 -16.032,-3.332 -5.832,0 -11.312,1.113 -16.449,3.332 -4.996,2.223 -9.371,5.207 -13.117,8.953 -3.75,3.75 -6.734,8.121 -8.953,13.117 -2.082,5.137 -3.125,10.551 -3.125,16.242 l 0,68.715 c 0,5.692 1.043,11.035 3.125,16.032 2.219,5.136 5.203,9.578 8.953,13.324 3.746,3.75 8.121,6.734 13.117,8.957 5.137,2.219 10.617,3.328 16.449,3.328 5.692,0 11.035,-1.109 16.032,-3.328 5.136,-2.223 9.578,-5.207 13.328,-8.957 3.746,-3.746 6.73,-8.188 8.953,-13.324 2.219,-4.997 3.332,-10.34 3.332,-16.032 l 0,-68.715 z m -41.645,89.536 c -5.832,0 -10.758,-2.012 -14.785,-6.039 -4.023,-4.024 -6.039,-8.954 -6.039,-14.782 l 0,-68.715 c 0,-5.828 2.016,-10.757 6.039,-14.781 4.027,-4.027 8.953,-6.039 14.785,-6.039 5.828,0 10.758,2.012 14.782,6.039 4.027,4.024 6.039,8.953 6.039,14.781 l 0,68.715 c 0,5.828 -2.012,10.758 -6.039,14.782 -4.024,4.027 -8.954,6.039 -14.782,6.039 z" /><path
         id="path19898"
         style="fill:#000000;fill-opacity:1;fill-rule:nonzero;stroke:none"
         d="m 544.898,1131.367 c 0,-5.691 -1.109,-11.105 -3.332,-16.242 -2.222,-4.996 -5.207,-9.367 -8.953,-13.117 -3.75,-3.746 -8.191,-6.73 -13.328,-8.953 -4.996,-2.219 -10.34,-3.332 -16.031,-3.332 -5.828,0 -11.313,1.113 -16.449,3.332 -4.996,2.223 -9.367,5.207 -13.117,8.953 -3.75,3.75 -6.735,8.121 -8.954,13.117 -2.082,5.137 -3.125,10.551 -3.125,16.242 l 0,68.715 c 0,5.692 1.043,11.035 3.125,16.032 2.219,5.136 5.204,9.578 8.954,13.324 3.75,3.75 8.121,6.734 13.117,8.957 5.136,2.219 10.621,3.328 16.449,3.328 5.691,0 11.035,-1.109 16.031,-3.328 5.137,-2.223 9.578,-5.207 13.328,-8.957 3.746,-3.746 6.731,-8.188 8.953,-13.324 2.223,-4.997 3.332,-10.34 3.332,-16.032 l 0,-68.715 z m -41.644,89.536 c -5.828,0 -10.758,-2.012 -14.785,-6.039 -4.024,-4.024 -6.031,-8.954 -6.031,-14.782 l 0,-68.715 c 0,-5.828 2.007,-10.757 6.031,-14.781 4.027,-4.027 8.957,-6.039 14.785,-6.039 5.832,0 10.758,2.012 14.785,6.039 4.023,4.024 6.035,8.953 6.035,14.781 l 0,68.715 c 0,5.828 -2.012,10.758 -6.035,14.782 -4.027,4.027 -8.953,6.039 -14.785,6.039 z" /><path
         id="path19900"
         style="fill:#000000;fill-opacity:1;fill-rule:nonzero;stroke:none"
         d="m 282.195,1177.239 7.328,0 c 7.118,0 12.7,1.953 16.75,5.863 4.188,4.047 6.282,9.14 6.282,15.281 0,3.07 -0.559,5.863 -1.676,8.375 -1.117,2.652 -2.723,4.957 -4.817,6.91 -1.953,1.953 -4.257,3.488 -6.91,4.606 -2.652,1.117 -5.441,1.675 -8.375,1.675 -4.465,0 -8.722,-1.464 -12.769,-4.398 -4.047,-2.93 -6.629,-7.465 -7.746,-13.609 l -21.356,0 c 0.418,5.304 1.813,10.332 4.188,15.078 2.371,4.742 5.375,8.929 9.004,12.558 3.765,3.629 8.023,6.493 12.769,8.586 4.746,2.094 9.77,3.141 15.074,3.141 6.7,0 12.704,-1.188 18.004,-3.559 5.446,-2.375 10.051,-5.586 13.821,-9.632 3.906,-3.907 6.91,-8.446 9.004,-13.61 2.093,-5.023 3.14,-10.258 3.14,-15.699 0,-5.727 -1.117,-11.309 -3.351,-16.75 -2.094,-5.305 -6.282,-9.981 -12.563,-14.027 6.281,-4.051 10.75,-9.004 13.399,-14.868 2.793,-5.722 4.187,-11.652 4.187,-17.796 0,-6.977 -1.184,-13.258 -3.559,-18.84 -2.23,-5.586 -5.441,-10.399 -9.628,-14.45 -4.047,-3.906 -8.864,-6.976 -14.45,-9.21 -5.441,-2.094 -11.304,-3.141 -17.586,-3.141 -5.023,0 -9.91,0.836 -14.656,2.512 -4.605,1.675 -8.793,4.117 -12.558,7.328 -3.77,3.211 -6.981,7.187 -9.633,11.933 -2.653,4.746 -4.465,10.262 -5.442,16.539 l 21.352,0 c 1.957,-5.164 4.609,-9.281 7.957,-12.351 3.351,-3.07 8.098,-4.606 14.238,-4.606 2.93,0 5.723,0.559 8.375,1.676 2.789,1.117 5.235,2.652 7.328,4.606 2.094,2.093 3.766,4.605 5.024,7.535 1.258,2.933 1.883,6.215 1.883,9.844 0,7.535 -2.301,13.328 -6.907,17.375 -4.468,4.187 -9.84,6.281 -16.121,6.281 l -9.004,0 0,18.844 z" /><path
         id="path19902"
         style="fill:#000000;fill-opacity:1;fill-rule:nonzero;stroke:none"
         d="m 186.109,1309.629 c -22.097,0 -41.613,-19.496 -41.613,-41.57 l 0,-1099.539 c 0,-22.074 19.516,-41.571 41.613,-41.571 l 420.789,0 c 22.098,0 41.575,19.497 41.575,41.571 l 0,1099.539 c 0,22.074 -17.875,41.57 -39.973,41.57 l -422.391,0 z m 3.211,-20.004 414.629,0 c 14.942,0 24.739,-11.722 24.739,-26.961 l -0.43,-545.191 0.43,-545.234 c 0,-15.239 -11.395,-25.29 -26.336,-25.29 l -413.032,0 c -14.941,0 -24.609,10.051 -24.609,25.29 l -0.43,272.285 0.43,818.14 c 0,15.239 9.668,26.961 24.609,26.961 z" /></g></g></svg>