<?xml version="1.0" encoding="UTF-8" standalone="no"?>
<svg
   xmlns:dc="http://purl.org/dc/elements/1.1/"
   xmlns:cc="http://creativecommons.org/ns#"
   xmlns:rdf="http://www.w3.org/1999/02/22-rdf-syntax-ns#"
   xmlns:svg="http://www.w3.org/2000/svg"
   xmlns="http://www.w3.org/2000/svg"
   viewBox="0 0 1251.4893 1601.4948"
   height="1601.4948"
   width="1251.4893"
   xml:space="preserve"
   id="svg9394"
   version="1.1"><metadata
     id="metadata9400"><rdf:RDF><cc:Work
         rdf:about=""><dc:format>image/svg+xml</dc:format><dc:type
           rdf:resource="http://purl.org/dc/dcmitype/StillImage" /><dc:title></dc:title></cc:Work></rdf:RDF></metadata><defs
     id="defs9398" /><g
     transform="matrix(1.3333333,0,0,-1.3333333,0,1601.4948)"
     id="g9402"><g
       id="g9404"><path
         id="path9406"
         style="fill:#ffffff;fill-opacity:1;fill-rule:nonzero;stroke:none"
         d="m 45.039,1200.57 c -24.508,0 -44.461,-19.953 -44.461,-44.461 V 44.992 C 0.578,20.52 20.531,0.57 45.039,0.57 h 848.578 c 24.508,0 44.426,19.95 44.426,44.422 v 1111.117 c 0,24.508 -19.918,44.461 -44.426,44.461 z" /><path
         id="path9408"
         style="fill:#000000;fill-opacity:1;fill-rule:nonzero;stroke:none"
         d="M 45.039,1201.121 C 20.223,1201.121 0,1180.898 0,1156.082 V 44.973 C 0,20.191 20.223,0 45.039,0 h 848.609 c 24.817,0 44.969,20.191 44.969,44.973 v 1111.109 c 0,24.813 -20.152,45.039 -44.969,45.039 z m 0,-0.551 h 848.578 c 24.508,0 44.426,-19.953 44.426,-44.461 V 44.992 C 938.043,20.52 918.125,0.57 893.617,0.57 H 45.039 C 20.531,0.57 0.582,20.52 0.582,44.992 v 1111.117 c 0,24.508 19.949,44.461 44.457,44.461 z" /><path
         id="path9410"
         style="fill:#000000;fill-opacity:1;fill-rule:nonzero;stroke:none"
         d="m 45.562,1189.379 c -18.644,0 -33.792,-15.149 -33.792,-33.793 V 45.594 c 0,-18.649 15.148,-33.762 33.792,-33.762 h 847.379 c 18.645,0 33.762,15.113 33.762,33.762 v 1109.992 c 0,18.644 -15.117,33.793 -33.762,33.793 z m 0,-15.016 h 847.379 c 10.348,0 18.754,-8.402 18.754,-18.785 V 45.586 c 0,-10.348 -8.406,-18.75 -18.754,-18.75 H 45.562 c -10.343,0 -18.75,8.402 -18.75,18.75 v 1109.992 c 0,10.383 8.407,18.785 18.75,18.785 z" /><path
         id="path9412"
         style="fill:#000000;fill-opacity:1;fill-rule:nonzero;stroke:none"
         d="m 26.254,837.078 641.918,337.801 h 48.766 L 26.254,762 v 15.008 l 358.18,207.961 -56.676,3 L 26.254,822.035 Z m 0,108.832 574.328,228.969 h 48.805 L 26.254,870.836 Z" /><path
         id="path9414"
         style="fill:#154889;fill-opacity:1;fill-rule:nonzero;stroke:none"
         d="m 720.711,804.215 h 44.105 v -15.961 h 15.008 v 15.961 h 8.438 v 14.09 h -8.438 V 848.32 H 764.816 V 818.305 H 737.59 l 35.664,75.039 h -16.879 l -35.664,-75.992 z m -78.82,-15.961 h 60.07 v 15.008 h -40.363 l 33.757,42.269 c 10.383,12.926 8.262,31.852 -4.695,42.199 -12.961,10.344 -31.851,8.262 -42.199,-4.699 -4.273,-5.332 -6.57,-11.933 -6.57,-18.75 h 15.007 c 0,8.301 6.711,15.008 15.008,15.008 8.301,0 15.008,-6.707 15.008,-15.008 0,-3.39 -1.129,-6.707 -3.246,-9.355 l -41.777,-52.582 z m -93.86,105.09 v -68.473 c 0,-20.762 16.809,-37.535 37.535,-37.535 20.731,0 37.539,16.773 37.539,37.535 v 68.473 h -15.96 v -68.473 c 0,-11.933 -9.641,-21.609 -21.579,-21.609 -11.898,0 -21.574,9.676 -21.574,21.609 v 68.473 z m -1.484,-120.098 c -11.617,0 -21.047,9.391 -21.047,21.012 v 93.082 c 0,11.617 9.43,21.047 21.047,21.047 h 243.234 c 11.617,0 21.012,-9.43 21.012,-21.047 v -93.082 c 0,-11.621 -9.395,-21.012 -21.012,-21.012 z" /><path
         id="path9416"
         style="fill:#154889;fill-opacity:1;fill-rule:nonzero;stroke:none"
         d="m 332.703,656.879 -29.027,-23.836 c -11.196,12.254 -30.227,13.066 -42.446,1.871 -6.214,-5.684 -9.746,-13.734 -9.746,-22.141 h 15.008 c 0,8.297 6.746,15.008 15.043,15.008 3.918,0 7.699,-1.519 10.488,-4.273 l -59.289,-48.66 v 67.023 h -15.961 v -68.508 c 0,-11.933 -9.675,-21.574 -21.578,-21.574 -11.937,0 -21.574,9.641 -21.574,21.574 v 68.508 h -15.965 v -68.508 c 0,-17.371 11.867,-32.453 28.746,-36.511 l -18.433,-15.114 h -15.574 c -11.618,0 -21.008,9.426 -21.008,21.008 v 93.121 c 0,11.617 9.39,21.012 21.008,21.012 z" /><path
         id="path9418"
         style="fill:#154889;fill-opacity:1;fill-rule:nonzero;stroke:none"
         d="m 380.055,656.879 h 15.574 c 11.617,0 21.008,-9.395 21.008,-21.012 v -93.121 c 0,-11.582 -9.391,-21.008 -21.008,-21.008 H 215.32 l 37.504,30.758 -1.344,-1.66 v -14.09 h 60.067 v 15.043 h -40.328 l 33.761,42.234 c 0.778,0.954 1.481,1.942 2.118,3 l 23.414,19.211 c -0.106,-1.129 -0.176,-2.296 -0.176,-3.461 h 15.008 c 0,8.297 6.707,15.008 15.008,15.008 8.296,0 15.007,-6.711 15.007,-15.008 0,-3.39 -1.132,-6.675 -3.25,-9.324 l -41.773,-52.613 v -14.09 h 60.066 v 15.043 h -40.363 l 33.758,42.234 c 10.383,12.957 8.265,31.852 -4.695,42.2 -4.661,3.742 -10.348,6 -16.317,6.496 z" /><path
         id="path9420"
         style="fill:#af151b;fill-opacity:1;fill-rule:nonzero;stroke:none"
         d="m 131.379,491.711 266.223,218.41 19.07,-23.203 L 150.41,468.512 Z" /><path
         id="path9422"
         style="fill:#154889;fill-opacity:1;fill-rule:nonzero;stroke:none"
         d="m 525.5,185.781 h 60.066 v 15.008 H 545.242 L 579,243.059 c 10.348,12.925 8.262,31.816 -4.695,42.199 -12.961,10.347 -31.856,8.262 -42.2,-4.696 -4.273,-5.332 -6.605,-11.937 -6.605,-18.789 h 15.043 c 0,8.301 6.711,15.043 15.008,15.043 8.301,0 15.008,-6.742 15.008,-15.043 0,-3.39 -1.129,-6.671 -3.247,-9.32 L 525.5,199.871 Z m -78.816,0 h 60.066 v 15.008 h -40.363 l 33.793,42.27 c 10.347,12.925 8.23,31.816 -4.731,42.199 -12.926,10.347 -31.816,8.262 -42.199,-4.696 -4.238,-5.332 -6.566,-11.937 -6.566,-18.789 h 15.007 c 0,8.301 6.743,15.043 15.043,15.043 8.262,0 15.008,-6.742 15.008,-15.043 0,-3.39 -1.164,-6.671 -3.285,-9.32 l -41.773,-52.582 z m -93.829,105.09 v -68.504 c 0,-20.73 16.809,-37.539 37.54,-37.539 20.726,0 37.535,16.809 37.535,37.539 v 68.504 h -15.961 v -68.504 c 0,-11.902 -9.676,-21.578 -21.574,-21.578 -11.938,0 -21.614,9.676 -21.614,21.578 v 68.504 z m -5.261,-120.098 c -11.617,0 -21.047,9.43 -21.047,21.012 v 93.082 c 0,11.621 9.43,21.047 21.047,21.047 h 243.234 c 11.621,0 21.012,-9.426 21.012,-21.047 v -93.082 c 0,-11.582 -9.391,-21.012 -21.012,-21.012 z" /><path
         id="path9424"
         style="fill:#000000;fill-opacity:1;fill-rule:nonzero;stroke:none"
         d="m 224.535,668.141 -67.058,75.039 -32.7,-25.141 7.313,81.465 87.855,-8.227 -29.769,-22.882 103.363,-100.254 H 282.73 l -103.996,100.886 21.508,16.563 -61.34,5.758 -5.121,-56.891 24.649,18.965 76.172,-85.281 z m 417.504,251.496 h 49.758 l 24.258,63.812 -55.086,98.239 20.691,16.738 -51.805,8.898 -14.089,-62.254 20.695,16.774 28.816,-85.883 z M 439.168,317.168 v 110.738 l -73.77,82.563 h 10.067 l 66.883,-74.864 22.918,55.512 -40.399,39.125 c 1.164,2.578 2.012,5.297 2.508,8.055 L 468.336,498.566 576.992,762 h 54.914 L 499.234,412.863 v -95.695 z m 0,-157.637 h 60.066 V 26.258 h -60.066 z" /></g></g></svg>