<?xml version="1.0" encoding="UTF-8" standalone="no"?>
<svg
   xmlns:dc="http://purl.org/dc/elements/1.1/"
   xmlns:cc="http://creativecommons.org/ns#"
   xmlns:rdf="http://www.w3.org/1999/02/22-rdf-syntax-ns#"
   xmlns:svg="http://www.w3.org/2000/svg"
   xmlns="http://www.w3.org/2000/svg"
   viewBox="0 0 1337.3394 959.99994"
   height="959.99994"
   width="1337.3394"
   xml:space="preserve"
   id="svg9420"
   version="1.1"><metadata
     id="metadata9426"><rdf:RDF><cc:Work
         rdf:about=""><dc:format>image/svg+xml</dc:format><dc:type
           rdf:resource="http://purl.org/dc/dcmitype/StillImage" /><dc:title></dc:title></cc:Work></rdf:RDF></metadata><defs
     id="defs9424" /><g
     transform="matrix(1.3333333,0,0,-1.3333333,0,959.99992)"
     id="g9428"><g
       id="g9430"><path
         id="path9432"
         style="fill:#ffffff;fill-opacity:1;fill-rule:nonzero;stroke:none"
         d="M 36.141,0.352 C 16.367,0.352 0.348,16.461 0.348,36.328 v 647.359 c 0,19.868 16.019,35.961 35.793,35.961 h 930.726 c 19.77,0 35.789,-16.093 35.789,-35.961 V 36.328 c 0,-19.867 -16.019,-35.976 -35.789,-35.976 z" /><path
         id="path9434"
         style="fill:#231f20;fill-opacity:1;fill-rule:nonzero;stroke:none"
         d="m 36.156,-0.004 c -19.961,0 -36.148,16.266 -36.148,36.32 v 647.379 c 0,20.055 16.187,36.317 36.148,36.317 h 930.723 c 19.957,0 36.113,-16.262 36.113,-36.317 V 36.316 c 0,-20.054 -16.156,-36.32 -36.113,-36.32 z m 0,0.711 h 930.723 c 19.582,0 35.445,15.937 35.445,35.609 v 647.379 c 0,19.676 -15.863,35.61 -35.445,35.61 H 36.156 c -19.582,0 -35.445,-15.934 -35.445,-35.61 V 36.316 C 0.711,16.644 16.574,0.707 36.156,0.707 Z" /><path
         id="path9436"
         style="fill:#154889;fill-opacity:1;fill-rule:nonzero;stroke:none"
         d="m 36.141,18.328 c -9.887,0 -17.899,8.066 -17.899,18 v 647.359 c 0,9.934 8.012,17.981 17.899,17.981 h 930.726 c 9.867,0 17.895,-8.047 17.895,-17.981 V 36.328 c 0,-9.934 -8.028,-18 -17.895,-18 H 36.141" /><path
         id="path9438"
         style="fill:#ffffff;fill-opacity:1;fill-rule:nonzero;stroke:none"
         d="m 143.547,611.754 h 715.93 V 377.988 h -715.93 z" /><path
         id="path9440"
         style="fill:#ffffff;fill-opacity:1;fill-rule:nonzero;stroke:none"
         d="m 272.762,90.266 h -91.641 l 68.731,215.789 h 30.777 z m 25.777,0 -7.883,215.789 h 30.793 l 23.145,-72.715 c 17.57,19.301 40.031,33.437 64.98,40.867 l -27.636,23.328 c -1.047,0.922 -1.641,2.266 -1.641,3.66 0,2.684 2.164,4.86 4.832,4.86 h 91.84 c 2.668,0 4.836,-2.176 4.836,-4.86 0,-0.652 -0.129,-1.285 -0.379,-1.886 l -35.559,-85.075 c -0.758,-1.793 -2.523,-2.972 -4.472,-2.972 -2.075,0 -3.915,1.324 -4.583,3.3 l -13.675,40.977 c -26.985,-9.859 -47.262,-30.141 -51.485,-51.473 l -0.14,-0.797 c -4.133,-21.367 -1.047,-51.109 8.351,-80.632 L 390.18,90.266 h -91.641" /><path
         id="path9442"
         style="fill:#ffffff;fill-opacity:1;fill-rule:nonzero;stroke:none"
         d="m 696.598,324.031 c -69.2,0 -125.301,-56.347 -125.301,-125.871 0,-69.527 56.101,-125.875 125.301,-125.875 69.183,0 125.285,56.348 125.285,125.875 0,69.524 -56.102,125.871 -125.285,125.871 z m 0,-13.484 c 61.785,0 111.863,-50.313 111.863,-112.387 0,-62.078 -50.078,-112.391 -111.863,-112.391 -61.786,0 -111.879,50.313 -111.879,112.391 0,62.074 50.093,112.387 111.879,112.387 z" /><path
         id="path9444"
         style="fill:#ffffff;fill-opacity:1;fill-rule:nonzero;stroke:none"
         d="m 619.824,138.984 v 15.86 l 46.828,59.211 c 2.364,2.988 3.645,6.707 3.645,10.531 0,9.332 -7.524,16.906 -16.832,16.906 -9.289,0 -16.828,-7.574 -16.828,-16.906 h -16.813 c 0,18.664 15.063,33.801 33.641,33.801 18.601,0 33.664,-15.137 33.664,-33.801 0,-7.688 -2.598,-15.137 -7.359,-21.117 l -37.868,-47.575 h 45.227 v -16.91 z m 96.746,0 39.973,101.442 h -31.551 v -16.91 H 708.16 v 33.816 h 67.309 v -15.84 L 735.508,138.984 H 716.57" /><path
         id="path9446"
         style="fill:#000000;fill-opacity:1;fill-rule:nonzero;stroke:none"
         d="m 198.348,431.941 46.539,127.539 h 15.922 l 46.535,-127.539 h -20.293 l -9.797,28.778 H 228.879 L 218.73,431.941 Z m 36.218,45.836 h 36.914 c -2.683,7.871 -4.812,14.024 -6.386,18.457 -1.516,4.489 -2.86,8.457 -4.024,11.895 -1.109,3.441 -2.246,6.941 -3.414,10.5 -1.164,3.555 -2.711,8.367 -4.633,14.433 -2.043,-6.3 -3.675,-11.343 -4.898,-15.132 -1.227,-3.735 -2.422,-7.348 -3.59,-10.848 -1.105,-3.5 -2.418,-7.406 -3.933,-11.723 -1.461,-4.316 -3.473,-10.175 -6.036,-17.582 z" /><path
         id="path9448"
         style="fill:#000000;fill-opacity:1;fill-rule:nonzero;stroke:none"
         d="m 319.16,462.293 v 60.359 h 18.281 v -54.148 c 0,-6.18 1.692,-10.992 5.075,-14.434 3.441,-3.383 7.785,-5.074 13.035,-5.074 5.07,0 9.301,1.691 12.683,5.074 3.442,3.442 5.161,8.254 5.161,14.434 v 54.148 h 18.281 v -90.8 h -18.281 v 9.621 h -0.352 c -5.656,-7.114 -13.469,-10.672 -23.441,-10.672 -7.172,0 -14.055,2.656 -20.645,7.961 -6.531,5.367 -9.797,13.211 -9.797,23.531 z" /><path
         id="path9450"
         style="fill:#000000;fill-opacity:1;fill-rule:nonzero;stroke:none"
         d="m 422.223,522.652 v 27.555 h 18.285 v -27.555 h 13.297 V 508.656 H 440.508 V 455.82 c 0,-4.547 2.156,-6.824 6.472,-6.824 h 6.825 v -17.144 h -9.535 c -6.36,0 -11.637,1.925 -15.836,5.773 -4.141,3.848 -6.211,9.359 -6.211,16.535 v 54.496 h -9.094 v 13.996 z" /><path
         id="path9452"
         style="fill:#000000;fill-opacity:1;fill-rule:nonzero;stroke:none"
         d="m 473.539,477.34 c 0,9.738 0.758,17 2.277,21.781 1.516,4.781 4.024,9.098 7.524,12.945 2.504,2.743 5.945,5.368 10.32,7.875 4.434,2.508 10.207,3.762 17.32,3.762 6.997,0 12.715,-1.254 17.145,-3.762 4.434,-2.507 7.902,-5.132 10.41,-7.875 3.5,-3.847 6.008,-8.164 7.524,-12.945 1.515,-4.781 2.273,-12.043 2.273,-21.781 0,-9.914 -0.758,-17.262 -2.273,-22.043 -1.516,-4.785 -4.024,-9.098 -7.524,-12.949 -2.508,-2.797 -5.976,-5.422 -10.41,-7.871 -4.43,-2.45 -10.148,-3.676 -17.145,-3.676 -7.113,0 -12.886,1.226 -17.32,3.676 -4.375,2.449 -7.816,5.074 -10.32,7.871 -3.5,3.851 -6.008,8.164 -7.524,12.949 -1.519,4.781 -2.277,12.129 -2.277,22.043 z m 56.598,-0.176 c 0,6.59 -0.348,11.227 -1.051,13.91 -0.641,2.68 -1.777,5.246 -3.41,7.695 -3.207,4.434 -8.106,6.649 -14.696,6.649 -6.707,0 -11.605,-2.215 -14.695,-6.649 -1.75,-2.449 -2.945,-5.015 -3.586,-7.695 -0.586,-2.683 -0.875,-7.262 -0.875,-13.734 0,-6.649 0.289,-11.344 0.875,-14.086 0.641,-2.68 1.836,-5.219 3.586,-7.61 3.09,-4.429 7.988,-6.648 14.695,-6.648 6.59,0 11.489,2.219 14.696,6.648 1.633,2.391 2.769,4.93 3.41,7.61 0.703,2.683 1.051,7.32 1.051,13.91 z" /><path
         id="path9454"
         style="fill:#000000;fill-opacity:1;fill-rule:nonzero;stroke:none"
         d="m 571.98,431.852 v 127.453 h 18.286 v -46.364 h 0.347 c 5.657,7.172 13.532,10.762 23.621,10.762 7.055,0 13.848,-2.684 20.379,-8.051 6.59,-5.363 9.887,-13.179 9.887,-23.441 v -60.359 h -18.281 v 54.058 c 0,6.125 -1.723,10.906 -5.164,14.348 -3.383,3.441 -7.61,5.16 -12.684,5.16 -5.246,0 -9.594,-1.719 -13.031,-5.16 -3.383,-3.442 -5.074,-8.223 -5.074,-14.348 v -54.058 z" /><path
         id="path9456"
         style="fill:#000000;fill-opacity:1;fill-rule:nonzero;stroke:none"
         d="m 668.188,477.34 c 0,9.738 0.757,17 2.273,21.781 1.516,4.781 4.023,9.098 7.523,12.945 2.508,2.743 5.95,5.368 10.321,7.875 4.433,2.508 10.207,3.762 17.32,3.762 7,0 12.715,-1.254 17.145,-3.762 4.433,-2.507 7.902,-5.132 10.41,-7.875 3.5,-3.847 6.008,-8.164 7.523,-12.945 1.516,-4.781 2.274,-12.043 2.274,-21.781 0,-9.914 -0.758,-17.262 -2.274,-22.043 -1.515,-4.785 -4.023,-9.098 -7.523,-12.949 -2.508,-2.797 -5.977,-5.422 -10.41,-7.871 -4.43,-2.45 -10.145,-3.676 -17.145,-3.676 -7.113,0 -12.887,1.226 -17.32,3.676 -4.371,2.449 -7.813,5.074 -10.321,7.871 -3.5,3.851 -6.007,8.164 -7.523,12.949 -1.516,4.781 -2.273,12.129 -2.273,22.043 z m 56.593,-0.176 c 0,6.59 -0.347,11.227 -1.047,13.91 -0.644,2.68 -1.781,5.246 -3.414,7.695 -3.207,4.434 -8.105,6.649 -14.695,6.649 -6.707,0 -11.605,-2.215 -14.695,-6.649 -1.75,-2.449 -2.946,-5.015 -3.586,-7.695 -0.582,-2.683 -0.875,-7.262 -0.875,-13.734 0,-6.649 0.293,-11.344 0.875,-14.086 0.64,-2.68 1.836,-5.219 3.586,-7.61 3.09,-4.429 7.988,-6.648 14.695,-6.648 6.59,0 11.488,2.219 14.695,6.648 1.633,2.391 2.77,4.93 3.414,7.61 0.7,2.683 1.047,7.32 1.047,13.91 z" /><path
         id="path9458"
         style="fill:#000000;fill-opacity:1;fill-rule:nonzero;stroke:none"
         d="m 768.176,431.852 v 76.804 h -9.184 v 13.996 h 9.184 v 11.985 c 0,8.457 2.336,14.668 7,18.632 4.664,4.024 10.554,6.036 17.672,6.036 h 11.808 V 542.16 h -10.324 c -5.305,0 -7.961,-2.508 -7.961,-7.523 v -11.985 h 18.285 v -13.996 h -18.285 v -76.804 z" /></g></g></svg>