<?xml version="1.0" encoding="UTF-8" standalone="no"?>
<svg
   xmlns:dc="http://purl.org/dc/elements/1.1/"
   xmlns:cc="http://creativecommons.org/ns#"
   xmlns:rdf="http://www.w3.org/1999/02/22-rdf-syntax-ns#"
   xmlns:svg="http://www.w3.org/2000/svg"
   xmlns="http://www.w3.org/2000/svg"
   viewBox="0 0 1174.4199 840.90802"
   height="840.90802"
   width="1174.4199"
   xml:space="preserve"
   id="svg11034"
   version="1.1"><metadata
     id="metadata11040"><rdf:RDF><cc:Work
         rdf:about=""><dc:format>image/svg+xml</dc:format><dc:type
           rdf:resource="http://purl.org/dc/dcmitype/StillImage" /><dc:title></dc:title></cc:Work></rdf:RDF></metadata><defs
     id="defs11038" /><g
     transform="matrix(1.3333333,0,0,-1.3333333,0,840.90804)"
     id="g11042"><g
       id="g11044"><path
         id="path11046"
         style="fill:#f0c900;fill-opacity:1;fill-rule:evenodd;stroke:none"
         d="m 21.895,630.251 c -11.825,0 -21.45,-9.64 -21.45,-21.48 V 21.911 c 0,-11.839 9.625,-21.48 21.45,-21.48 h 837.023 c 11.84,0 21.469,9.641 21.469,21.48 v 586.86 c 0,11.84 -9.629,21.48 -21.469,21.48" /><path
         id="path11048"
         style="fill:#000000;fill-opacity:1;fill-rule:evenodd;stroke:none"
         d="m 21.895,623.38 c -8.079,0 -14.598,-6.515 -14.598,-14.609 V 21.911 c 0,-8.093 6.519,-14.597 14.598,-14.597 h 837.023 c 8.078,0 14.598,6.504 14.598,14.597 v 586.86 c 0,8.094 -6.52,14.609 -14.598,14.609 z m 0,-10.961 h 837.023 c 2.039,0 3.668,-1.609 3.668,-3.648 V 329.587 H 18.246 v 279.184 c 0,2.039 1.609,3.648 3.649,3.648 z M 18.246,318.622 h 844.34 V 173.931 H 18.246 Z m 0,-155.656 h 844.34 V 21.911 c 0,-2.042 -1.629,-3.648 -3.668,-3.648 H 21.895 c -2.04,0 -3.649,1.606 -3.649,3.648 z" /><path
         id="path11050"
         style="fill:#000000;fill-opacity:1;fill-rule:evenodd;stroke:none"
         d="m 191.145,499.357 c -4.766,0 -8.625,-3.852 -8.625,-8.621 v -39.469 c 0,-4.766 3.859,-8.621 8.625,-8.621 h 81.312 c 4.77,0 8.621,3.855 8.621,8.621 v 39.469 c 0,4.769 -3.851,8.621 -8.621,8.621 z m 0,-3.68 h 81.312 c 2.711,0 4.926,-2.211 4.926,-4.941 v -39.469 c 0,-2.727 -2.215,-4.922 -4.926,-4.922 h -81.312 c -2.711,0 -4.926,2.195 -4.926,4.922 v 39.469 c 0,2.73 2.215,4.941 4.926,4.941 z" /><path
         id="path11052"
         style="fill:#000000;fill-opacity:1;fill-rule:evenodd;stroke:none"
         d="m 221.324,463.904 c 0,3.093 1.496,6.007 4.016,7.793 -2.137,1.687 -3.395,4.285 -3.395,7.027 0,5.434 4.414,9.863 9.864,9.863 5.433,0 9.847,-4.429 9.847,-9.863 0,-2.742 -1.261,-5.34 -3.394,-7.027 2.519,-1.786 4,-4.7 4,-7.793 0,-5.785 -4.688,-10.469 -10.453,-10.469 -5.801,0 -10.485,4.684 -10.485,10.469 z m 10.485,-5.543 c 3.043,0 5.527,2.48 5.527,5.543 0,3.078 -2.484,5.562 -5.527,5.562 -3.079,0 -5.559,-2.484 -5.559,-5.562 0,-3.063 2.48,-5.543 5.559,-5.543 z m 0,15.425 c 2.707,0 4.906,2.196 4.906,4.938 0,2.707 -2.199,4.922 -4.906,4.922 -2.739,0 -4.942,-2.215 -4.942,-4.922 0,-2.742 2.203,-4.938 4.942,-4.938" /><path
         id="path11054"
         style="fill:#000000;fill-opacity:1;fill-rule:evenodd;stroke:none"
         d="m 542.672,566.779 c -3.859,0 -6.981,-3.121 -6.981,-6.977 h 13.957 c 0,3.856 -3.136,6.977 -6.976,6.977 z m -2.598,-20.043 c 1.082,-0.45 2.246,-0.672 3.41,-0.672 2.696,0 5.227,1.18 6.977,3.219 l 4.988,-4.286 c -2.996,-3.488 -7.359,-5.496 -11.965,-5.496 -2.007,0 -3.984,0.383 -5.851,1.133 -5.145,2.055 -8.524,7.043 -8.524,12.586 v 6.582 c 0,7.492 6.071,13.559 13.563,13.559 7.473,0 13.543,-6.067 13.543,-13.559 v -5.75 h -20.524 v -0.832 c 0,-2.851 1.739,-5.418 4.383,-6.484 z m -45.461,26.211 h 6.977 l 7.808,-23.008 7.809,23.008 h 6.981 L 512.281,540.06 h -5.75 z m -25.468,-13.145 c 0,3.856 3.125,6.977 6.996,6.977 3.859,0 6.98,-3.121 6.98,-6.977 v -6.582 c 0,-3.855 -3.121,-6.996 -6.98,-6.996 -3.871,0 -6.996,3.141 -6.996,6.996 z m -6.547,0 v -6.582 c 0,-7.488 6.054,-13.559 13.543,-13.559 7.492,0 13.547,6.071 13.547,13.559 v 6.582 c 0,7.488 -6.055,13.559 -13.547,13.559 -7.489,0 -13.543,-6.071 -13.543,-13.559 z m -28.746,13.145 v -3.711 c 2.101,2.613 5.273,4.125 8.605,4.125 6.133,0 11.086,-4.969 11.086,-11.086 V 540.06 h -6.563 v 20.156 c 0,3.633 -2.945,6.563 -6.582,6.563 -3.601,0 -6.546,-2.93 -6.546,-6.563 V 540.06 h -6.567 v 32.887 z m -36.141,0 v -3.711 c 2.105,2.613 5.273,4.125 8.617,4.125 6.121,0 11.094,-4.969 11.094,-11.086 V 540.06 h -6.567 v 20.156 c 0,3.633 -2.949,6.563 -6.582,6.563 -3.617,0 -6.562,-2.93 -6.562,-6.563 V 540.06 h -6.566 v 32.887 z m -27.109,-26.723 c 2.281,0 4.113,1.852 4.113,4.113 v 4.11 h -9.449 c -2.262,0 -4.098,-1.832 -4.098,-4.11 0,-2.261 1.836,-4.113 4.098,-4.113 z m -1.641,-6.164 h -4.109 c -5.434,0 -9.868,4.43 -9.868,9.879 0,5.433 4.434,9.863 9.868,9.863 h 9.863 v 3.285 c 0,1.797 -1.289,3.34 -3.059,3.645 -1.164,0.211 -2.328,0.304 -3.508,0.304 -1.179,0 -2.359,-0.089 -3.519,-0.304 -1.164,-0.207 -2.152,-0.953 -2.66,-1.992 l -5.215,4.097 c 1.566,2.309 4,3.887 6.742,4.367 1.527,0.27 3.09,0.415 4.652,0.415 1.547,0 3.11,-0.145 4.641,-0.415 4.906,-0.859 8.492,-5.132 8.492,-10.117 V 540.06 h -6.566 v 3.406 c -1.164,-2.101 -3.363,-3.406 -5.754,-3.406 z m -55.039,46.051 h 6.996 V 566.38 h 18.883 v 19.731 h 6.996 V 540.06 h -6.996 v 20.156 H 320.918 V 540.06 h -6.996 z m 257.894,-13.164 v -3.711 c 2.102,2.613 5.274,4.125 8.622,4.125 2.546,0 5.019,-0.86 6.996,-2.469 l -4.672,-5.766 c -1.207,1.067 -2.754,1.653 -4.364,1.653 -3.632,0 -6.582,-2.93 -6.582,-6.563 V 540.06 h -6.566 v 32.887" /><path
         id="path11056"
         style="fill:#000000;fill-opacity:1;fill-rule:evenodd;stroke:none"
         d="m 590.719,500.603 v -3.715 c 2.101,2.598 5.273,4.113 8.617,4.113 2.551,0 5.023,-0.859 6.98,-2.472 l -4.668,-5.75 c -1.195,1.066 -2.757,1.656 -4.367,1.656 -3.617,0 -6.562,-2.945 -6.562,-6.578 v -20.145 h -6.567 v 32.891 z m -36.145,-13.149 c 0,3.856 3.125,6.981 6.981,6.981 3.855,0 6.98,-3.125 6.98,-6.981 v -6.593 c 0,-3.856 -3.125,-6.981 -6.98,-6.981 -3.856,0 -6.981,3.125 -6.981,6.981 z m -6.566,0 v -6.593 c 0,-7.477 6.074,-13.547 13.547,-13.547 7.488,0 13.562,6.07 13.562,13.547 v 6.593 c 0,7.477 -6.074,13.547 -13.562,13.547 -7.473,0 -13.547,-6.07 -13.547,-13.547 z m -28.746,0.403 c 0,3.633 2.933,6.578 6.566,6.578 3.633,0 6.567,-2.945 6.567,-6.578 v -7.395 c 0,-3.652 -2.934,-6.582 -6.567,-6.582 -3.633,0 -6.566,2.93 -6.566,6.582 z m 13.133,-16.434 v -3.711 h 6.578 v 46.039 h -6.578 v -16.863 c -2.106,2.598 -5.278,4.113 -8.622,4.113 -6.121,0 -11.093,-4.957 -11.093,-11.093 v -11.504 c 0,-6.133 4.972,-11.09 11.093,-11.09 3.344,0 6.516,1.512 8.622,4.109 z m -30.375,-3.711 c -4.094,0 -7.407,3.317 -7.407,7.395 v 38.644 h 6.578 v -37.816 c 0,-1.133 0.926,-2.055 2.055,-2.055 h 2.867 v -6.168 z m -29.989,26.723 c -3.843,0 -6.98,-3.125 -6.98,-6.981 h 13.961 c 0,3.856 -3.125,6.981 -6.981,6.981 z m -2.582,-20.047 c 1.071,-0.445 2.231,-0.668 3.41,-0.668 2.676,0 5.227,1.164 6.965,3.219 l 4.989,-4.305 c -2.997,-3.473 -7.368,-5.496 -11.954,-5.496 -2.007,0 -4,0.398 -5.863,1.133 -5.148,2.055 -8.512,7.043 -8.512,12.59 v 6.593 c 0,7.477 6.059,13.547 13.547,13.547 7.489,0 13.563,-6.07 13.563,-13.547 v -5.765 h -20.543 v -0.828 c 0,-2.852 1.734,-5.418 4.398,-6.473 z m -34.582,13.481 c -1.734,0.105 -3.07,1.546 -3.07,3.269 0,1.531 1.035,2.852 2.516,3.203 1.066,0.25 2.152,0.379 3.238,0.379 3.117,0 6.16,-1.066 8.617,-3.027 l 4.094,5.148 c -3.617,2.883 -8.11,4.461 -12.711,4.461 -1.613,0 -3.207,-0.191 -4.77,-0.555 -4.429,-1.07 -7.566,-5.035 -7.566,-9.609 0,-5.215 4.062,-9.516 9.258,-9.836 l 6.961,-0.441 c 1.722,-0.117 3.089,-1.547 3.089,-3.285 0,-1.372 -0.859,-2.598 -2.132,-3.075 -1.547,-0.586 -3.188,-0.879 -4.84,-0.879 -3.653,0 -7.156,1.438 -9.758,4.016 l -4.617,-4.664 c 3.824,-3.797 8.988,-5.93 14.375,-5.93 2.433,0 4.855,0.446 7.137,1.289 3.855,1.45 6.402,5.129 6.402,9.243 0,5.21 -4.043,9.527 -9.242,9.847 z m -33.668,0 c -1.734,0.105 -3.078,1.546 -3.078,3.269 0,1.531 1.039,2.852 2.52,3.203 1.054,0.25 2.136,0.379 3.218,0.379 3.141,0 6.2,-1.066 8.637,-3.027 l 4.113,5.148 c -3.617,2.883 -8.113,4.461 -12.75,4.461 -1.589,0 -3.187,-0.191 -4.761,-0.555 -4.434,-1.07 -7.555,-5.035 -7.555,-9.609 0,-5.215 4.062,-9.516 9.258,-9.836 l 6.98,-0.441 c 1.735,-0.117 3.074,-1.547 3.074,-3.285 0,-1.372 -0.859,-2.598 -2.132,-3.075 -1.547,-0.586 -3.188,-0.879 -4.864,-0.879 -3.648,0 -7.14,1.438 -9.722,4.016 l -4.633,-4.664 c 3.824,-3.797 8.969,-5.93 14.355,-5.93 2.454,0 4.875,0.446 7.172,1.289 3.84,1.45 6.391,5.129 6.391,9.243 0,5.21 -4.047,9.527 -9.242,9.847 z m -29.765,25.882 h 6.562 v -6.566 h -6.562 z m -13.149,0 h 6.567 v -6.566 h -6.567 z m 16.43,-42.328 c -2.121,-2.597 -5.293,-4.109 -8.637,-4.109 -6.101,0 -11.094,4.957 -11.094,11.09 v 22.199 h 6.582 v -20.141 c 0,-3.652 2.934,-6.582 6.582,-6.582 3.618,0 6.567,2.93 6.567,6.582 v 20.141 h 6.566 v -32.891 h -6.566 z m -53.797,35.762 v -32.891 h 9.449 c 5.211,0 9.434,4.239 9.434,9.45 v 13.972 c 0,5.227 -4.223,9.469 -9.434,9.469 z m -6.996,6.566 h 16.445 c 9.067,0 16.43,-7.367 16.43,-16.433 v -13.16 c 0,-9.082 -7.363,-16.446 -16.43,-16.446 h -16.445 z m 298.976,-18.488 h -3.3 v 5.34 h 3.3 v 4.941 c 0,4.52 3.665,8.207 8.207,8.207 h 4.938 v -6.168 h -4.523 c -1.133,0 -2.055,-0.914 -2.055,-2.039 v -4.941 h 6.578 v -5.34 h -6.578 v -27.551 h -6.567" /><path
         id="path11058"
         style="fill:#000000;fill-opacity:1;fill-rule:evenodd;stroke:none"
         d="m 679.379,552.806 15.601,33.305 h 7.395 L 686.773,553.22 h 11.922 v 13.16 h 6.547 v -13.16 h 3.715 v -6.168 h -3.715 v -6.992 h -6.547 v 6.992 h -19.316 z m -22.992,28.363 6.562,4.942 h 6.567 V 540.06 h -6.567 v 39.07 l -6.562,-4.937 z m 86.176,-1.64 h -18.485 v -10.391 c 2.106,1.676 4.715,2.582 7.41,2.582 6.563,0 11.887,-5.34 11.887,-11.918 v -6.996 c 0,-7.266 -5.883,-13.145 -13.133,-13.145 -6.769,0 -12.445,5.161 -13.078,11.918 h 6.625 c 0.59,-3.109 3.301,-5.355 6.453,-5.355 3.617,0 6.582,2.965 6.582,6.582 v 5.754 c 0,3.648 -2.965,6.578 -6.582,6.578 -2.515,0 -4.812,-1.434 -5.894,-3.695 h -6.422 v 24.668 h 24.637" /><path
         id="path11060"
         style="fill:#000000;fill-opacity:1;fill-rule:evenodd;stroke:none"
         d="m 702.422,501.001 c 0,3.649 -2.934,6.582 -6.582,6.582 -3.617,0 -6.567,-2.933 -6.567,-6.582 h -6.562 c 0,7.282 5.879,13.16 13.129,13.16 7.265,0 13.164,-5.878 13.164,-13.16 0,-2.98 -1.039,-5.867 -2.887,-8.207 l -14.789,-18.5 h 17.676 v -6.582 h -26.293 v 6.168 l 18.277,23.043 c 0.942,1.164 1.434,2.594 1.434,4.078 z m -43.535,7.825 6.582,4.925 h 6.547 v -46.039 h -6.547 v 39.059 l -6.582,-4.942 z m 70.957,-34.946 c 3.844,0 6.98,3.125 6.98,6.981 v 0.828 c 0,3.871 -3.136,6.996 -6.98,6.996 h -2.883 v 5.75 h 2.883 c 3.617,0 6.551,2.949 6.551,6.566 0,3.649 -2.934,6.582 -6.551,6.582 -3.168,0 -5.879,-2.25 -6.469,-5.339 h -6.629 c 0.641,6.757 6.313,11.917 13.098,11.917 7.238,0 13.133,-5.878 13.133,-13.16 0,-3.726 -1.817,-7.234 -4.879,-9.402 3.3,-2.211 5.277,-5.926 5.277,-9.91 v -0.828 c 0,-7.477 -6.055,-13.547 -13.531,-13.547 -6.867,0 -12.633,5.117 -13.461,11.922 h 6.676 c 0.746,-3.141 3.55,-5.356 6.785,-5.356" /><path
         id="path11062"
         style="fill:#000000;fill-opacity:1;fill-rule:evenodd;stroke:none"
         d="m 763.102,574.411 h 4.894 v -21.46 l 9.496,11.664 h 5.832 l -8.269,-9.532 9.496,-15.023 h -6.137 l -6.437,11.359 -3.981,-4.3 v -7.059 h -4.894 z m 30.628,-12.585 c 1.579,1.96 3.938,3.089 6.438,3.089 2.629,0 5.098,-1.273 6.676,-3.394 1.734,2.156 4.351,3.394 7.109,3.394 5.082,0 9.195,-4.125 9.195,-9.207 V 540.06 h -4.914 v 15.023 c 0,2.727 -2.195,4.926 -4.886,4.926 -2.711,0 -4.91,-2.199 -4.91,-4.926 V 540.06 h -4.895 v 15.023 c 0,2.727 -2.195,4.926 -4.906,4.926 -2.707,0 -4.907,-2.199 -4.907,-4.926 V 540.06 h -4.894 v 24.555 h 4.894" /><path
         id="path11064"
         style="fill:#000000;fill-opacity:1;fill-rule:evenodd;stroke:none"
         d="m 763.102,502.068 h 4.894 v -21.465 l 9.496,11.648 h 5.832 l -8.269,-9.511 9.496,-15.028 h -6.137 l -6.437,11.348 -3.981,-4.289 v -7.059 h -4.894 z m 30.628,-12.586 c 1.579,1.945 3.938,3.074 6.438,3.074 2.629,0 5.098,-1.258 6.676,-3.379 1.734,2.133 4.351,3.379 7.109,3.379 5.082,0 9.195,-4.125 9.195,-9.195 v -15.649 h -4.914 v 15.028 c 0,2.711 -2.195,4.906 -4.886,4.906 -2.711,0 -4.91,-2.195 -4.91,-4.906 v -15.028 h -4.895 v 15.028 c 0,2.711 -2.195,4.906 -4.906,4.906 -2.707,0 -4.907,-2.195 -4.907,-4.906 v -15.028 h -4.894 v 24.539 h 4.894" /><path
         id="path11066"
         style="fill:#ffffff;fill-opacity:1;fill-rule:nonzero;stroke:none"
         d="M 313.922,441.404 H 761.539 V 355.896 H 313.922 Z" /><path
         id="path11068"
         style="fill:#000000;fill-opacity:1;fill-rule:evenodd;stroke:none"
         d="m 685.992,395.783 c 0,3.613 2.93,6.582 6.563,6.582 3.633,0 6.582,-2.969 6.582,-6.582 v -7.411 c 0,-3.632 -2.949,-6.582 -6.582,-6.582 -3.633,0 -6.563,2.95 -6.563,6.582 z m 13.145,-16.446 v -3.695 h 6.566 v 46.035 h -6.566 v -16.875 c -2.117,2.609 -5.274,4.125 -8.637,4.125 -6.117,0 -11.07,-4.969 -11.07,-11.105 v -11.508 c 0,-6.117 4.953,-11.106 11.07,-11.106 3.363,0 6.52,1.532 8.637,4.129 z m -48.473,29.176 v -3.711 c 2.117,2.609 5.289,4.125 8.637,4.125 6.117,0 11.094,-4.969 11.094,-11.105 v -22.18 h -6.586 v 20.141 c 0,3.613 -2.93,6.582 -6.563,6.582 -3.633,0 -6.582,-2.969 -6.582,-6.582 v -20.141 h -6.566 v 32.871 z m -26.262,13.164 h 6.563 v -6.582 h -6.563 z m -13.144,0 h 6.562 v -6.582 h -6.562 z m 12.316,-39.887 c 2.262,0 4.098,1.848 4.098,4.125 v 4.098 h -9.434 c -2.265,0 -4.113,-1.832 -4.113,-4.098 0,-2.277 1.848,-4.125 4.113,-4.125 z m -1.64,-6.148 h -4.114 c -5.449,0 -9.847,4.398 -9.847,9.859 0,5.45 4.398,9.868 9.847,9.868 h 9.852 v 3.281 c 0,1.801 -1.281,3.328 -3.047,3.648 -1.164,0.192 -2.34,0.289 -3.52,0.289 -1.179,0 -2.359,-0.105 -3.523,-0.289 -1.148,-0.207 -2.137,-0.937 -2.664,-2.008 l -5.191,4.114 c 1.558,2.308 3.984,3.89 6.722,4.363 1.547,0.285 3.094,0.414 4.656,0.414 1.559,0 3.106,-0.129 4.653,-0.414 4.91,-0.84 8.476,-5.129 8.476,-10.117 v -23.008 h -6.562 v 3.375 c -1.152,-2.086 -3.348,-3.375 -5.738,-3.375 z m -23.012,0 c -4.078,0 -7.391,3.293 -7.391,7.391 v 38.644 h 6.578 v -37.828 c 0,-1.137 0.926,-2.059 2.055,-2.059 h 2.867 v -6.148 z m -29.973,26.723 c -3.855,0 -6.98,-3.141 -6.98,-6.996 h 13.961 c 0,3.855 -3.125,6.996 -6.981,6.996 z m -2.582,-20.067 c 1.082,-0.429 2.231,-0.668 3.41,-0.668 2.676,0 5.227,1.18 6.965,3.223 l 4.988,-4.289 c -2.996,-3.492 -7.367,-5.5 -11.953,-5.5 -2.027,0 -4,0.367 -5.863,1.133 -5.148,2.054 -8.512,7.043 -8.512,12.589 v 6.583 c 0,7.488 6.059,13.558 13.547,13.558 7.489,0 13.563,-6.07 13.563,-13.558 v -5.77 h -20.543 v -0.816 c 0,-2.868 1.734,-5.43 4.398,-6.485 z m -39.726,13.485 c 0,3.613 2.949,6.582 6.582,6.582 3.632,0 6.566,-2.969 6.566,-6.582 v -7.411 c 0,-3.632 -2.934,-6.582 -6.566,-6.582 -3.633,0 -6.582,2.95 -6.582,6.582 z m 5.754,-33.911 c 2.324,0 4.621,0.524 6.707,1.579 4.445,2.23 7.265,6.789 7.265,11.757 v 33.305 h -6.578 v -3.711 c -2.109,2.609 -5.262,4.125 -8.621,4.125 -6.121,0 -11.074,-4.969 -11.074,-11.105 v -11.508 c 0,-6.117 4.953,-11.106 11.074,-11.106 3.359,0 6.512,1.532 8.621,4.129 v -4.129 c 0,-2.488 -1.406,-4.765 -3.621,-5.882 -1.18,-0.571 -2.469,-0.875 -3.773,-0.875 -2.536,0 -4.926,1.132 -6.52,3.105 l -5.098,-4.141 c 2.836,-3.523 7.125,-5.543 11.618,-5.543 z m -34.09,40.493 c -3.856,0 -6.977,-3.141 -6.977,-6.996 h 13.961 c 0,3.855 -3.109,6.996 -6.984,6.996 z m -2.578,-20.067 c 1.082,-0.429 2.246,-0.668 3.41,-0.668 2.679,0 5.226,1.18 6.976,3.223 l 4.989,-4.289 c -2.997,-3.492 -7.36,-5.5 -11.965,-5.5 -2.008,0 -4,0.367 -5.867,1.133 -5.129,2.054 -8.504,7.043 -8.504,12.589 v 6.583 c 0,7.488 6.066,13.558 13.539,13.558 7.492,0 13.562,-6.07 13.562,-13.558 v -5.77 h -20.539 v -0.816 c 0,-2.868 1.754,-5.43 4.399,-6.485 z m -34.579,13.485 c -1.722,0.113 -3.078,1.543 -3.078,3.281 0,1.512 1.039,2.836 2.52,3.203 1.051,0.238 2.137,0.383 3.234,0.383 3.141,0 6.168,-1.071 8.621,-3.028 l 4.114,5.133 c -3.618,2.883 -8.114,4.477 -12.735,4.477 -1.613,0 -3.203,-0.207 -4.765,-0.574 -4.43,-1.067 -7.567,-5.036 -7.567,-9.594 0,-5.211 4.043,-9.528 9.258,-9.848 l 6.965,-0.445 c 1.734,-0.106 3.09,-1.531 3.09,-3.27 0,-1.367 -0.86,-2.593 -2.137,-3.09 -1.563,-0.574 -3.203,-0.878 -4.844,-0.878 -3.652,0 -7.156,1.449 -9.75,4.019 l -4.625,-4.656 c 3.809,-3.809 8.989,-5.945 14.375,-5.945 2.442,0 4.86,0.449 7.156,1.308 3.84,1.449 6.391,5.117 6.391,9.242 0,5.215 -4.051,9.516 -9.23,9.832 z m -33.656,0 c -1.734,0.113 -3.09,1.543 -3.09,3.281 0,1.512 1.051,2.836 2.516,3.203 1.051,0.238 2.133,0.383 3.234,0.383 3.141,0 6.184,-1.071 8.637,-3.028 l 4.082,5.133 c -3.605,2.883 -8.098,4.477 -12.719,4.477 -1.609,0 -3.203,-0.207 -4.765,-0.574 -4.426,-1.067 -7.551,-5.036 -7.551,-9.594 0,-5.211 4.047,-9.528 9.242,-9.848 l 6.981,-0.445 c 1.722,-0.106 3.074,-1.531 3.074,-3.27 0,-1.367 -0.844,-2.593 -2.117,-3.09 -1.563,-0.574 -3.203,-0.878 -4.864,-0.878 -3.648,0 -7.152,1.449 -9.734,4.019 l -4.637,-4.656 c 3.809,-3.809 8.989,-5.945 14.371,-5.945 2.438,0 4.864,0.449 7.157,1.308 3.839,1.449 6.386,5.117 6.386,9.242 0,5.215 -4.043,9.516 -9.222,9.832 z m -31.84,6.582 c -3.855,0 -6.976,-3.141 -6.976,-6.996 h 13.957 c 0,3.855 -3.121,6.996 -6.981,6.996 z m -2.582,-20.067 c 1.086,-0.429 2.231,-0.668 3.41,-0.668 2.68,0 5.227,1.18 6.969,3.223 l 4.985,-4.289 c -2.993,-3.492 -7.344,-5.5 -11.954,-5.5 -2.003,0 -3.996,0.367 -5.863,1.133 -5.148,2.054 -8.508,7.043 -8.508,12.589 v 6.583 c 0,7.488 6.055,13.558 13.543,13.558 7.493,0 13.563,-6.07 13.563,-13.558 v -5.77 h -20.539 v -0.816 c 0,-2.868 1.734,-5.43 4.394,-6.485 z m -59.437,39.379 h 6.582 l 13.144,-30.023 13.149,30.023 h 6.566 v -46.035 h -6.996 v 29.176 l -9.848,-22.614 h -5.75 l -9.847,22.614 v -29.176 h -7 z m 394.652,-19.312 c -3.855,0 -6.98,-3.141 -6.98,-6.996 h 13.972 c 0,3.855 -3.136,6.996 -6.992,6.996 z m -2.582,-20.067 c 1.082,-0.429 2.246,-0.668 3.41,-0.668 2.676,0 5.227,1.18 6.977,3.223 l 4.988,-4.289 c -2.996,-3.492 -7.359,-5.5 -11.965,-5.5 -2.008,0 -4,0.367 -5.863,1.133 -5.148,2.054 -8.512,7.043 -8.512,12.589 v 6.583 c 0,7.488 6.071,13.558 13.547,13.558 7.488,0 13.559,-6.07 13.559,-13.558 v -5.77 h -20.539 v -0.816 c 0,-2.868 1.754,-5.43 4.398,-6.485" /><path
         id="path11070"
         style="fill:#000000;fill-opacity:1;fill-rule:evenodd;stroke:none"
         d="m 57.672,472.091 46.004,46.055 45.988,-46.055 v -22.097 l -36.793,36.839 V 423.861 H 94.465 v 62.972 L 57.672,449.994" /><path
         id="path11072"
         style="fill:#000000;fill-opacity:1;fill-rule:evenodd;stroke:none"
         d="m 582.797,249.99 c -3.859,0 -6.981,-3.137 -6.981,-6.996 h 13.961 c 0,3.859 -3.14,6.996 -6.98,6.996 z m -2.598,-20.059 c 1.082,-0.43 2.246,-0.652 3.41,-0.652 2.676,0 5.227,1.16 6.965,3.199 l 5,-4.285 c -2.992,-3.508 -7.379,-5.5 -11.965,-5.5 -2.007,0 -3.984,0.383 -5.851,1.117 -5.145,2.07 -8.524,7.062 -8.524,12.605 v 6.579 c 0,7.492 6.071,13.562 13.563,13.562 7.473,0 13.547,-6.07 13.547,-13.562 v -5.75 h -20.528 v -0.829 c 0,-2.851 1.719,-5.418 4.383,-6.484 z m -34.582,13.48 c -1.734,0.114 -3.07,1.543 -3.07,3.282 0,1.527 1.035,2.836 2.516,3.203 1.066,0.254 2.152,0.383 3.234,0.383 3.121,0 6.183,-1.071 8.621,-3.028 l 4.109,5.145 c -3.617,2.887 -8.113,4.445 -12.73,4.445 -1.609,0 -3.203,-0.172 -4.766,-0.555 -4.445,-1.07 -7.57,-5.035 -7.57,-9.593 0,-5.215 4.062,-9.512 9.262,-9.848 l 6.961,-0.43 c 1.754,-0.117 3.089,-1.546 3.089,-3.285 0,-1.371 -0.859,-2.609 -2.132,-3.09 -1.547,-0.574 -3.188,-0.863 -4.844,-0.863 -3.664,0 -7.152,1.438 -9.734,4.02 l -4.637,-4.668 c 3.824,-3.813 8.984,-5.93 14.371,-5.93 2.437,0 4.859,0.43 7.152,1.289 3.844,1.434 6.391,5.133 6.391,9.242 0,5.211 -4.047,9.512 -9.242,9.852 z m -26.484,-16.429 c -2.102,-2.617 -5.274,-4.129 -8.637,-4.129 -6.117,0 -11.07,4.957 -11.07,11.109 v 22.196 h 6.566 v -20.157 c 0,-3.632 2.946,-6.566 6.578,-6.566 3.618,0 6.563,2.934 6.563,6.566 v 20.157 h 6.566 v -32.891 h -6.566 z m -39.422,2.453 c 2.262,0 4.094,1.832 4.094,4.113 v 4.094 h -9.434 c -2.258,0 -4.109,-1.836 -4.109,-4.094 0,-2.281 1.851,-4.113 4.109,-4.113 z m -1.641,-6.168 h -4.113 c -5.449,0 -9.863,4.414 -9.863,9.863 0,5.453 4.414,9.864 9.863,9.864 h 9.848 v 3.281 c 0,1.804 -1.274,3.347 -3.059,3.652 -1.164,0.211 -2.324,0.305 -3.504,0.305 -1.164,0 -2.344,-0.102 -3.508,-0.305 -1.16,-0.207 -2.148,-0.941 -2.675,-1.992 l -5.196,4.113 c 1.563,2.309 4,3.871 6.739,4.348 1.531,0.273 3.093,0.418 4.64,0.418 1.563,0 3.106,-0.145 4.653,-0.418 4.91,-0.844 8.496,-5.133 8.496,-10.121 v -23.008 h -6.586 v 3.379 c -1.145,-2.09 -3.344,-3.379 -5.735,-3.379 z m -41.062,46.039 v -16.863 c 2.101,2.601 5.273,4.113 8.621,4.113 6.117,0 11.086,-4.973 11.086,-11.094 v -22.195 h -6.578 v 20.144 c 0,3.633 -2.934,6.579 -6.567,6.579 -3.617,0 -6.562,-2.946 -6.562,-6.579 v -20.144 h -6.567 v 46.039 z m -36.141,-25.895 c 0,3.633 2.946,6.579 6.563,6.579 3.648,0 6.582,-2.946 6.582,-6.579 v -7.41 c 0,-3.632 -2.934,-6.566 -6.582,-6.566 -3.617,0 -6.563,2.934 -6.563,6.566 z m 5.75,-33.914 c 2.328,0 4.617,0.543 6.692,1.579 4.461,2.23 7.265,6.789 7.265,11.777 v 33.305 h -6.562 v -3.715 c -2.106,2.601 -5.278,4.113 -8.625,4.113 -6.133,0 -11.086,-4.973 -11.086,-11.094 v -11.5 c 0,-6.152 4.953,-11.109 11.086,-11.109 3.347,0 6.519,1.512 8.625,4.129 v -4.129 c 0,-2.484 -1.403,-4.781 -3.637,-5.895 -1.16,-0.574 -2.453,-0.879 -3.758,-0.879 -2.519,0 -4.922,1.129 -6.515,3.11 L 395,215.029 c 2.836,-3.493 7.105,-5.532 11.617,-5.532 z m -41.066,46.661 v -3.715 c 2.101,2.601 5.273,4.113 8.621,4.113 6.133,0 11.094,-4.973 11.094,-11.094 v -22.195 h -6.567 v 20.144 c 0,3.633 -2.949,6.579 -6.582,6.579 -3.617,0 -6.566,-2.946 -6.566,-6.579 v -20.144 h -6.567 v 32.891 z m -22.992,13.148 h 6.566 v -6.582 h -6.566 z m 0,-13.148 h 6.566 v -32.891 h -6.566 z m -12.336,-32.891 c -4.078,0 -7.379,3.301 -7.379,7.394 v 38.645 h 6.566 V 231.49 c 0,-1.133 0.926,-2.055 2.059,-2.055 h 2.867 v -6.168 z m -41.875,46.039 h 6.566 v -28.781 l 12.727,15.633 h 7.808 l -11.09,-12.747 12.735,-20.144 h -8.223 l -8.621,15.203 -5.336,-5.754 v -9.449 h -6.566 z m -32.735,-27.551 c 0,8.172 6.629,14.801 14.789,14.801 4.399,0 8.559,-1.961 11.379,-5.34 l -5.051,-4.207 c -1.562,1.883 -3.89,2.981 -6.328,2.981 -4.539,0 -8.207,-3.68 -8.207,-8.235 v -4.113 c 0,-4.527 3.668,-8.207 8.207,-8.207 2.438,0 4.766,1.086 6.328,2.961 l 5.051,-4.203 c -2.82,-3.379 -6.98,-5.34 -11.379,-5.34 -8.16,0 -14.789,6.629 -14.789,14.789 z m -20.937,8.235 c -3.856,0 -6.977,-3.137 -6.977,-6.996 h 13.957 c 0,3.859 -3.125,6.996 -6.98,6.996 z m -2.598,-20.059 c 1.086,-0.43 2.231,-0.652 3.43,-0.652 2.676,0 5.222,1.16 6.961,3.199 l 4.988,-4.285 c -2.996,-3.508 -7.363,-5.5 -11.949,-5.5 -2.028,0 -4.004,0.383 -5.867,1.117 -5.145,2.07 -8.528,7.062 -8.528,12.605 v 6.579 c 0,7.492 6.075,13.562 13.563,13.562 7.472,0 13.558,-6.07 13.558,-13.562 v -5.75 h -20.535 v -0.829 c 0,-2.851 1.735,-5.418 4.379,-6.484 z m -31.074,33.207 H 189.5 v -13.977 h 11.504 c 3.844,0 6.98,3.125 6.98,6.997 0,3.839 -3.136,6.98 -6.98,6.98 z m 0.402,6.168 c 7.266,0 13.141,-5.898 13.141,-13.148 0,-5.661 -3.586,-10.661 -8.918,-12.477 l 10.562,-20.414 h -8.207 l -9.449,19.727 H 189.5 v -19.727 h -6.98 v 46.039 z m 410.535,-13.148 v -3.715 c 2.102,2.601 5.274,4.113 8.622,4.113 6.132,0 11.089,-4.973 11.089,-11.094 v -22.195 h -6.566 v 20.144 c 0,3.633 -2.949,6.579 -6.563,6.579 -3.632,0 -6.582,-2.946 -6.582,-6.579 v -20.144 h -6.566 v 32.891" /><path
         id="path11074"
         style="fill:#000000;fill-opacity:1;fill-rule:evenodd;stroke:none"
         d="m 677.957,229.435 c 3.859,0 6.981,3.125 6.981,6.98 v 0.829 c 0,3.855 -3.122,6.98 -6.981,6.98 h -2.879 v 5.766 h 2.879 c 3.637,0 6.586,2.933 6.586,6.566 0,3.633 -2.949,6.582 -6.586,6.582 -3.152,0 -5.863,-2.246 -6.449,-5.34 h -6.629 c 0.637,6.754 6.309,11.918 13.078,11.918 7.27,0 13.148,-5.894 13.148,-13.16 0,-3.746 -1.832,-7.25 -4.875,-9.398 3.301,-2.219 5.29,-5.93 5.29,-9.914 v -0.829 c 0,-7.488 -6.067,-13.562 -13.563,-13.562 -6.848,0 -12.617,5.117 -13.445,11.922 h 6.676 c 0.75,-3.145 3.554,-5.34 6.769,-5.34 z m 27.523,6.566 v 2.055 c 0,3.633 2.934,6.578 6.567,6.578 3.633,0 6.566,-2.945 6.566,-6.578 v -2.055 c 0,-3.632 -2.933,-6.566 -6.566,-6.566 -3.633,0 -6.567,2.934 -6.567,6.566 z m 4.973,13.59 9.801,19.715 h -7.379 L 700.27,243.904 c -0.891,-1.817 -1.372,-3.809 -1.372,-5.848 v -2.055 c 0,-7.269 5.895,-13.148 13.149,-13.148 7.25,0 13.144,5.879 13.144,13.148 v 3.711 c 0,5.899 -4.781,10.676 -10.675,10.676 -1.403,0 -2.774,-0.269 -4.063,-0.797" /><path
         id="path11076"
         style="fill:#000000;fill-opacity:1;fill-rule:evenodd;stroke:none"
         d="m 744.902,257.607 h 4.911 v -21.461 l 9.496,11.648 h 5.816 l -8.27,-9.5 9.497,-15.027 h -6.133 l -6.442,11.348 -3.964,-4.305 v -7.043 h -4.911 z m 30.645,-12.586 c 1.562,1.957 3.937,3.09 6.422,3.09 2.644,0 5.113,-1.274 6.679,-3.395 1.735,2.149 4.348,3.395 7.106,3.395 5.082,0 9.191,-4.125 9.191,-9.211 v -15.633 h -4.886 v 15.027 c 0,2.696 -2.204,4.891 -4.914,4.891 -2.704,0 -4.907,-2.195 -4.907,-4.891 v -15.027 h -4.906 v 15.027 c 0,2.696 -2.184,4.891 -4.891,4.891 -2.711,0 -4.894,-2.195 -4.894,-4.891 v -15.027 h -4.906 v 24.527 h 4.906" /><path
         id="path11078"
         style="fill:#000000;fill-opacity:1;fill-rule:evenodd;stroke:none"
         d="m 103.676,200.24 -46.004,46.035 46.004,46.039 h 22.07 L 88.949,255.486 h 60.715 V 237.068 H 88.949 l 36.797,-36.828" /><path
         id="path11080"
         style="fill:#000000;fill-opacity:1;fill-rule:evenodd;stroke:none"
         d="m 472.75,94.322 c -3.859,0 -6.98,-3.137 -6.98,-6.981 h 13.96 c 0,3.844 -3.125,6.981 -6.98,6.981 z m -2.582,-20.067 c 1.082,-0.426 2.242,-0.648 3.41,-0.648 2.676,0 5.227,1.164 6.961,3.203 l 5.004,-4.289 c -2.992,-3.488 -7.379,-5.496 -11.965,-5.496 -2.008,0 -4,0.398 -5.863,1.129 -5.152,2.058 -8.512,7.047 -8.512,12.593 v 6.594 c 0,7.477 6.07,13.547 13.547,13.547 7.488,0 13.559,-6.07 13.559,-13.547 V 81.576 H 465.77 v -0.829 c 0,-2.855 1.734,-5.421 4.398,-6.488 z M 430.453,87.74 c 0,3.613 2.949,6.582 6.582,6.582 3.617,0 6.567,-2.969 6.567,-6.582 v -7.395 c 0,-3.648 -2.95,-6.578 -6.567,-6.578 -3.633,0 -6.582,2.93 -6.582,6.578 z m 5.754,-33.911 c 2.328,0 4.609,0.543 6.695,1.594 4.461,2.231 7.266,6.77 7.266,11.758 v 33.309 h -6.566 v -3.715 c -2.122,2.597 -5.274,4.113 -8.622,4.113 -6.117,0 -11.089,-4.961 -11.089,-11.094 V 78.275 c 0,-6.121 4.972,-11.094 11.089,-11.094 3.348,0 6.5,1.516 8.622,4.129 v -4.129 c 0,-2.48 -1.418,-4.777 -3.633,-5.879 -1.164,-0.586 -2.453,-0.891 -3.762,-0.891 -2.531,0 -4.926,1.145 -6.516,3.122 l -5.097,-4.161 c 2.832,-3.503 7.121,-5.543 11.613,-5.543 z M 404.18,73.767 c 2.261,0 4.093,1.832 4.093,4.105 v 4.114 h -9.433 c -2.262,0 -4.094,-1.848 -4.094,-4.114 0,-2.273 1.832,-4.105 4.094,-4.105 z m -1.641,-6.168 h -4.113 c -5.434,0 -9.848,4.414 -9.848,9.863 0,5.449 4.414,9.879 9.848,9.879 h 9.847 v 3.266 c 0,1.816 -1.273,3.347 -3.043,3.668 -1.164,0.176 -2.343,0.285 -3.503,0.285 -1.18,0 -2.36,-0.113 -3.524,-0.285 -1.164,-0.211 -2.148,-0.957 -2.664,-2.012 l -5.211,4.113 c 1.578,2.309 4.004,3.887 6.742,4.364 1.532,0.277 3.094,0.402 4.657,0.402 1.543,0 3.089,-0.129 4.636,-0.402 4.907,-0.86 8.492,-5.129 8.492,-10.133 V 67.599 h -6.582 v 3.391 c -1.144,-2.086 -3.347,-3.391 -5.734,-3.391 z m -60.777,29.176 c 2.101,2.597 5.273,4.113 8.621,4.113 3.519,0 6.851,-1.676 8.937,-4.527 2.344,2.867 5.852,4.527 9.532,4.527 6.82,0 12.336,-5.516 12.336,-12.336 V 67.599 h -6.567 V 87.74 c 0,3.613 -2.949,6.582 -6.582,6.582 -3.617,0 -6.566,-2.969 -6.566,-6.582 V 67.599 h -6.567 V 87.74 c 0,3.613 -2.949,6.582 -6.582,6.582 -3.613,0 -6.562,-2.969 -6.562,-6.582 V 67.599 h -6.567 v 32.891 h 6.567 z m -27.106,3.715 v -3.715 c 2.102,2.597 5.274,4.113 8.621,4.113 2.532,0 5,-0.863 6.981,-2.473 l -4.656,-5.769 c -1.207,1.086 -2.774,1.676 -4.379,1.676 -3.633,0 -6.567,-2.969 -6.567,-6.582 V 67.599 h -6.582 v 32.891 z m -36.14,-13.149 c 0,3.844 3.121,6.981 6.976,6.981 3.86,0 6.985,-3.137 6.985,-6.981 v -6.597 c 0,-3.856 -3.125,-6.977 -6.985,-6.977 -3.855,0 -6.976,3.121 -6.976,6.977 z m -6.567,0 v -6.597 c 0,-7.489 6.055,-13.563 13.543,-13.563 7.492,0 13.563,6.074 13.563,13.563 v 6.597 c 0,7.477 -6.071,13.547 -13.563,13.547 -7.488,0 -13.543,-6.07 -13.543,-13.547 z m -34.082,19.727 V 74.161 h 9.43 c 5.226,0 9.449,4.243 9.449,9.465 v 13.977 c 0,5.211 -4.223,9.465 -9.449,9.465 z m -6.984,6.566 h 16.414 c 9.086,0 16.43,-7.363 16.43,-16.43 V 84.04 c 0,-9.082 -7.344,-16.441 -16.43,-16.441 H 230.883 Z M 501.91,100.49 v -3.715 c 2.102,2.597 5.274,4.113 8.621,4.113 6.121,0 11.09,-4.961 11.09,-11.094 V 67.599 h -6.562 V 87.74 c 0,3.613 -2.95,6.582 -6.567,6.582 -3.633,0 -6.582,-2.969 -6.582,-6.582 V 67.599 h -6.566 v 32.891" /><path
         id="path11082"
         style="fill:#000000;fill-opacity:1;fill-rule:evenodd;stroke:none"
         d="m 554.48,80.345 15.602,33.289 h 7.395 l -15.602,-32.89 h 11.898 v 13.164 h 6.582 V 80.744 h 3.684 v -6.153 h -3.684 v -6.992 h -6.582 v 6.992 H 554.48 Z m 57.493,20.543 c 0,3.648 -2.95,6.582 -6.582,6.582 -3.614,0 -6.563,-2.934 -6.563,-6.582 h -6.566 c 0,7.266 5.879,13.16 13.129,13.16 7.269,0 13.148,-5.894 13.148,-13.16 0,-2.98 -1.019,-5.883 -2.883,-8.207 l -14.773,-18.52 h 17.656 v -6.562 h -26.277 v 6.168 l 18.277,23.023 c 0.922,1.18 1.434,2.614 1.434,4.098" /><path
         id="path11084"
         style="fill:#000000;fill-opacity:1;fill-rule:evenodd;stroke:none"
         d="m 638.25,101.939 h 4.906 V 80.47 l 9.496,11.652 h 5.821 l -8.274,-9.496 9.5,-15.027 h -6.121 l -6.437,11.344 -3.985,-4.285 v -7.059 h -4.906 z m 30.641,-12.574 c 1.562,1.941 3.937,3.074 6.437,3.074 2.629,0 5.102,-1.254 6.664,-3.375 1.754,2.133 4.352,3.375 7.121,3.375 5.071,0 9.196,-4.129 9.196,-9.192 V 67.599 h -4.907 v 15.027 c 0,2.707 -2.203,4.907 -4.894,4.907 -2.707,0 -4.906,-2.2 -4.906,-4.907 V 67.599 h -4.907 v 15.027 c 0,2.707 -2.199,4.907 -4.89,4.907 -2.711,0 -4.914,-2.2 -4.914,-4.907 V 67.599 h -4.907 v 24.523 h 4.907" /><path
         id="path11086"
         style="fill:#000000;fill-opacity:1;fill-rule:evenodd;stroke:none"
         d="M 777.141,136.658 823.148,90.607 777.141,44.572 H 755.07 l 36.793,36.839 h -60.711 v 18.407 h 60.711 l -36.793,36.84" /></g></g></svg>