<?xml version="1.0" encoding="UTF-8" standalone="no"?>
<svg
   xmlns:dc="http://purl.org/dc/elements/1.1/"
   xmlns:cc="http://creativecommons.org/ns#"
   xmlns:rdf="http://www.w3.org/1999/02/22-rdf-syntax-ns#"
   xmlns:svg="http://www.w3.org/2000/svg"
   xmlns="http://www.w3.org/2000/svg"
   viewBox="0 0 1251 1601.9473"
   height="1601.9473"
   width="1251"
   xml:space="preserve"
   version="1.1"
   id="svg3791"><metadata
     id="metadata3797"><rdf:RDF><cc:Work
         rdf:about=""><dc:format>image/svg+xml</dc:format><dc:type
           rdf:resource="http://purl.org/dc/dcmitype/StillImage" /><dc:title></dc:title></cc:Work></rdf:RDF></metadata><defs
     id="defs3795" /><g
     transform="matrix(1.25,0,0,-1.25,0,1601.9473)"
     id="g3799"><g
       id="g3801"><path
         id="path3803"
         style="fill:#ffffff;fill-opacity:1;fill-rule:nonzero;stroke:none"
         d="m 47.234,1281.159 c -25.828,0 -46.832,-21.007 -46.832,-46.836 l 0,-1187.066 C 0.402,21.429 21.406,0.402 47.234,0.402 l 906.332,0 c 25.829,0 46.836,21.027 46.836,46.855 l 0,1187.066 c 0,25.829 -21.007,46.836 -46.836,46.836 l -906.332,0 z" /><path
         id="path3805"
         style="fill:#000000;fill-opacity:1;fill-rule:nonzero;stroke:none"
         d="m 48.504,12.433 c -19.942,0 -36.106,16.183 -36.106,36.105 l 0,1184.539 c 0,19.922 16.164,36.082 36.106,36.082 l 903.793,0 c 19.941,0 36.105,-16.16 36.105,-36.082 l 0,-1184.539 c 0,-19.922 -16.164,-36.105 -36.105,-36.105" /><path
         id="path3807"
         style="fill:#ffffff;fill-opacity:1;fill-rule:nonzero;stroke:none"
         d="m 48.504,28.484 c -11.066,0 -20.055,8.961 -20.055,20.054 l 0,1184.539 c 0,11.071 8.989,20.055 20.055,20.055 l 903.793,0 c 11.07,0 20.055,-8.984 20.055,-20.055 l 0,-1184.539 c 0,-11.093 -8.985,-20.054 -20.055,-20.054" /><path
         id="path3809"
         style="fill:#000000;fill-opacity:1;fill-rule:nonzero;stroke:none"
         d="M 47.234,1281.558 C 21.191,1281.558 0,1260.366 0,1234.323 L 0,47.257 C 0,21.214 21.188,-0.001 47.234,-0.001 l 906.332,0 c 26.043,0 47.235,21.215 47.235,47.258 l 0,1187.066 c 0,26.043 -21.192,47.235 -47.235,47.235 l -906.332,0 z m 0,-0.399 906.332,0 c 25.829,0 46.832,-21.007 46.832,-46.836 l 0,-1187.066 c 0,-25.828 -21.003,-46.855 -46.832,-46.855 l -906.332,0 C 21.406,0.402 0.398,21.429 0.398,47.257 l 0,1187.066 c 0,25.829 21.008,46.836 46.836,46.836 z" /><path
         id="path3811"
         style="fill:#000000;fill-opacity:1;fill-rule:evenodd;stroke:none"
         d="m 264.449,234.882 36,9.297 c 7.156,1.848 13.629,-4.742 11.649,-11.863 -0.274,-0.989 -0.703,-1.922 -1.274,-2.774 L 240.449,124.484 170.07,229.542 c -4.109,6.141 -0.031,14.43 7.34,14.922 1.024,0.067 2.047,-0.027 3.039,-0.285 l 36,-9.297 0,777.602 48,0 0,-777.602 z m 300.969,604.508 -32.027,18.879 c -6.368,3.754 -6.282,12.992 0.148,16.629 0.895,0.504 1.859,0.859 2.863,1.058 l 124.047,24.528 -24.527,-124.047 c -1.434,-7.25 -10.18,-10.227 -15.738,-5.36 -0.77,0.672 -1.43,1.465 -1.95,2.348 l -18.882,32.027 -36.844,-36.851 c -9,-9 -14.059,-21.211 -14.059,-33.942 l 0,-27.984 c -15.91,2.414 -32.09,2.414 -48,0 l 0,27.984 c 0,25.461 10.113,49.879 28.117,67.883 l 36.852,36.848 z m -16.969,-570.906 -48,0 0,121.812 c 15.91,-2.414 32.09,-2.414 48,0 l 0,-121.812 z m 188,777.601 -36,-9.297 c -7.156,-1.847 -13.629,4.746 -11.648,11.864 0.273,0.988 0.703,1.921 1.269,2.773 l 70.379,105.059 70.375,-105.059 c 4.114,-6.141 0.035,-14.43 -7.34,-14.918 -1.019,-0.07 -2.043,0.027 -3.035,0.281 l -36,9.297 0,-777.601 -48,0 0,777.601 z" /><path
         id="path3813"
         style="fill:#154889;fill-opacity:1;fill-rule:evenodd;stroke:none"
         d="m 620.02,666.679 c -42.227,34.144 -99.465,43.168 -150.145,23.668 -50.684,-19.496 -87.117,-64.555 -95.57,-118.195 -6.7,-42.477 4.91,-85.801 31.949,-119.239 l 30.824,30.832 c -5.789,7.047 -9.34,15.661 -10.195,24.743 l 23.058,0 c 0.575,-3.012 1.75,-5.879 3.454,-8.426 l 40.488,40.488 c -5.988,16.547 -27.641,20.402 -38.973,6.945 -1.215,-1.441 -2.246,-3.027 -3.07,-4.722 l -22.305,0 0,85.711 85.715,0 0,-22.856 -64.281,0 -0.004,-36.09 c 19.488,15.426 48.082,10.34 61.055,-10.859 l 23.23,23.238 0.008,2.278 c 0,26.125 21.851,46.933 47.941,45.66 l 36.817,36.828 0.004,-0.004 z m 22.625,-22.625 c 34.144,-42.227 43.167,-99.461 23.667,-150.145 -19.496,-50.683 -64.554,-87.117 -118.195,-95.57 -42.476,-6.695 -85.801,4.91 -119.238,31.949 l 37.207,37.211 c 27.488,-3.832 52.019,17.52 52.019,45.274 l 0,6.808 17.145,17.078 0.008,-23.886 c 0,-35.192 38.094,-57.184 68.566,-39.59 14.145,8.168 22.856,23.258 22.856,39.59 l 0,71.422 c 0,11.679 -4.469,22.914 -12.489,31.398 l 28.457,28.461 -0.003,0 z m -84.54,-84.539 39.911,39.906 c 3.742,-4.191 5.808,-9.609 5.808,-15.226 l 0,-71.422 c 0,-17.594 -19.047,-28.594 -34.285,-19.793 -7.07,4.082 -11.426,11.625 -11.426,19.793 l -0.008,46.742 z" /><path
         id="path3815"
         style="fill:#c1121c;fill-opacity:1;fill-rule:nonzero;stroke:none"
         d="m 642.645,644.054 c -6.723,8.316 -14.309,15.902 -22.625,22.625 L 406.254,452.913 c 6.723,-8.316 14.308,-15.902 22.625,-22.625 l 213.769,213.766 -0.003,0 z" /></g></g></svg>