<?xml version="1.0" standalone="no"?>
<!DOCTYPE svg PUBLIC "-//W3C//DTD SVG 1.1//EN" "http://www.w3.org/Graphics/SVG/1.1/DTD/svg11.dtd">
<svg width="1250" height="1600" version="1.1" xmlns="http://www.w3.org/2000/svg">
<path fill="white" stroke="black" stroke-width="1" d="M60 1600A60 60 0 0 1 0 1540L0 60A60 60 0 0 1 60 0L1190 0A60 60 0 0 1 1250 60L1250 1540A60 60 0 0 1 1190 1600L60 1600Z" />
<path fill="black" stroke="none" d="M60 1585A45 45 0 0 1 15 1540L15 60A45 45 0 0 1 60 15L1190 15A45 45 0 0 1 1235 60L1235 1540A45 45 0 0 1 1190 1585L60 1585Z" />
<path fill="white" stroke="none" d="M60 1565A25 25 0 0 1 35 1540L35 60A25 25 0 0 1 60 35L1190 35A25 25 0 0 1 1215 60L1215 1540A25 25 0 0 1 1190 1565L60 1565Z" />
<path fill="black" stroke="none" fill-rule="evenodd" d="M180 1318.5L221.249909320412 1307.84931921171A11 11 0 0 1 234.598805470052 1321.44369200291A11 11 0 0 1 233.140295121757 1324.62004943503L152.5 1445L71.8597048782432 1324.62004943503A11 11 0 0 1 80.2700292777274 1307.52424750896A11 11 0 0 1 83.7500906795876 1307.84931921171L125 1318.5L125 335L180 335L180 1318.5ZM365 1318.5L406.249909320412 1307.84931921171A11 11 0 0 1 419.598805470052 1321.44369200291A11 11 0 0 1 418.140295121757 1324.62004943503L337.5 1445L256.859704878243 1324.62004943503A11 11 0 0 1 265.270029277727 1307.52424750896A11 11 0 0 1 268.750090679588 1307.84931921171L310 1318.5L310 335L365 335L365 1318.5ZM550 1318.5L591.249909320412 1307.84931921171A11 11 0 0 1 604.598805470052 1321.44369200291A11 11 0 0 1 603.140295121757 1324.62004943503L522.5 1445L441.859704878243 1324.62004943503A11 11 0 0 1 450.270029277727 1307.52424750896A11 11 0 0 1 453.750090679588 1307.84931921171L495 1318.5L495 335L550 335L550 1318.5ZM700 281.5L658.750090679588 292.15068078829A11 11 0 0 1 645.401194529948 278.556307997089A11 11 0 0 1 646.859704878243 275.379950564972L727.5 155L808.140295121757 275.379950564972A11 11 0 0 1 799.729970722273 292.475752491042A11 11 0 0 1 796.249909320412 292.15068078829L755 281.5L755 1265L700 1265L700 281.5ZM885 281.5L843.750090679588 292.15068078829A11 11 0 0 1 830.401194529948 278.556307997089A11 11 0 0 1 831.859704878243 275.379950564972L912.5 155L993.140295121757 275.379950564972A11 11 0 0 1 984.729970722273 292.475752491042A11 11 0 0 1 981.249909320412 292.15068078829L940 281.5L940 1265L885 1265L885 281.5ZM1070 281.5L1028.75009067959 292.15068078829A11 11 0 0 1 1015.40119452995 278.556307997089A11 11 0 0 1 1016.85970487824 275.379950564972L1097.5 155L1178.14029512176 275.379950564972A11 11 0 0 1 1169.72997072227 292.475752491042A11 11 0 0 1 1166.24990932041 292.15068078829L1125 281.5L1125 1265L1070 1265L1070 281.5Z" />
</svg>
