<?xml version="1.0" encoding="UTF-8" standalone="no"?>
<svg
   xmlns:dc="http://purl.org/dc/elements/1.1/"
   xmlns:cc="http://creativecommons.org/ns#"
   xmlns:rdf="http://www.w3.org/1999/02/22-rdf-syntax-ns#"
   xmlns:svg="http://www.w3.org/2000/svg"
   xmlns="http://www.w3.org/2000/svg"
   viewBox="0 0 1251 1601.9473"
   height="1601.9473"
   width="1251"
   xml:space="preserve"
   version="1.1"
   id="svg8984"><metadata
     id="metadata8990"><rdf:RDF><cc:Work
         rdf:about=""><dc:format>image/svg+xml</dc:format><dc:type
           rdf:resource="http://purl.org/dc/dcmitype/StillImage" /><dc:title></dc:title></cc:Work></rdf:RDF></metadata><defs
     id="defs8988" /><g
     transform="matrix(1.25,0,0,-1.25,0,1601.9473)"
     id="g8992"><g
       id="g8994"><path
         id="path8996"
         style="fill:#ffffff;fill-opacity:1;fill-rule:nonzero;stroke:none"
         d="m 47.234,1281.159 c -25.828,0 -46.832,-21.007 -46.832,-46.836 l 0,-1187.066 C 0.402,21.429 21.406,0.402 47.234,0.402 l 906.332,0 c 25.829,0 46.836,21.027 46.836,46.855 l 0,1187.066 c 0,25.829 -21.007,46.836 -46.836,46.836 l -906.332,0 z" /><path
         id="path8998"
         style="fill:#000000;fill-opacity:1;fill-rule:nonzero;stroke:none"
         d="m 48.504,12.433 c -19.942,0 -36.106,16.183 -36.106,36.105 l 0,1184.539 c 0,19.922 16.164,36.082 36.106,36.082 l 903.793,0 c 19.941,0 36.105,-16.16 36.105,-36.082 l 0,-1184.539 c 0,-19.922 -16.164,-36.105 -36.105,-36.105" /><path
         id="path9000"
         style="fill:#ffffff;fill-opacity:1;fill-rule:nonzero;stroke:none"
         d="m 48.504,28.484 c -11.066,0 -20.055,8.961 -20.055,20.054 l 0,1184.539 c 0,11.071 8.989,20.055 20.055,20.055 l 903.793,0 c 11.07,0 20.055,-8.984 20.055,-20.055 l 0,-1184.539 c 0,-11.093 -8.985,-20.054 -20.055,-20.054" /><path
         id="path9002"
         style="fill:#000000;fill-opacity:1;fill-rule:nonzero;stroke:none"
         d="M 47.234,1281.558 C 21.191,1281.558 0,1260.366 0,1234.323 L 0,47.257 C 0,21.214 21.188,-0.001 47.234,-0.001 l 906.332,0 c 26.043,0 47.235,21.215 47.235,47.258 l 0,1187.066 c 0,26.043 -21.192,47.235 -47.235,47.235 l -906.332,0 z m 0,-0.399 906.332,0 c 25.829,0 46.832,-21.007 46.832,-46.836 l 0,-1187.066 c 0,-25.828 -21.003,-46.855 -46.832,-46.855 l -906.332,0 C 21.406,0.402 0.398,21.429 0.398,47.257 l 0,1187.066 c 0,25.829 21.008,46.836 46.836,46.836 z" /><path
         id="path9004"
         style="fill:#ffffff;fill-opacity:1;fill-rule:nonzero;stroke:none"
         d="m 48.352,28.484 c -11.047,0 -20,8.953 -20,20 l 0,1184 c 0,11.047 8.953,20 20,20 l 904,0 c 11.046,0 20,-8.953 20,-20 l 0,-1184 c 0,-11.047 -8.954,-20 -20,-20 l -904,0 z" /><path
         id="path9006"
         style="fill:#000000;fill-opacity:1;fill-rule:evenodd;stroke:none"
         d="m 268.352,234.882 36,9.297 c 7.156,1.848 13.628,-4.742 11.648,-11.863 -0.273,-0.989 -0.703,-1.922 -1.27,-2.774 L 244.352,124.484 173.977,229.542 c -4.114,6.141 -0.036,14.43 7.339,14.922 1.02,0.067 2.043,-0.027 3.036,-0.285 l 36,-9.297 0,777.602 48,0 0,-777.602 z m 224,811.203 -36,-9.297 c -7.157,-1.847 -13.629,4.746 -11.649,11.864 0.274,0.988 0.703,1.921 1.274,2.773 l 70.375,105.059 70.378,-105.059 c 4.11,-6.141 0.032,-14.43 -7.339,-14.918 -1.024,-0.07 -2.047,0.027 -3.039,0.281 l -36,9.297 -0.266,-111.371 c -15.734,2.359 -31.734,2.359 -47.469,0 l -0.265,111.371 z m 192,-661.722 0,-67.879 -163.883,163.886 c -18.004,18.004 -28.117,42.422 -28.117,67.883 l 0.265,70 c 15.735,-2.359 31.735,-2.359 47.469,0 l 0.266,-70 c 0,-12.73 5.058,-24.941 14.058,-33.941 L 684.352,384.363 Z m 48,661.722 -36,-9.297 c -7.157,-1.847 -13.629,4.746 -11.649,11.864 0.274,0.988 0.703,1.921 1.274,2.773 l 70.375,105.059 70.378,-105.059 c 4.11,-6.141 0.032,-14.43 -7.339,-14.918 -1.024,-0.07 -2.047,0.027 -3.039,0.281 l -36,9.297 0,-921.601 -48,0 0,921.601 z" /><path
         id="path9008"
         style="fill:#154889;fill-opacity:1;fill-rule:nonzero;stroke:none"
         d="m 668.352,776.484 c 0,-83.946 -68.051,-152 -152,-152 -83.946,0 -152,68.054 -152,152 0,83.949 68.054,152 152,152 83.949,0 152,-68.051 152,-152 z" /><path
         id="path9010"
         style="fill:#ffffff;fill-opacity:1;fill-rule:evenodd;stroke:none"
         d="m 421.441,770.773 0,85.711 85.711,0 0,-22.856 -64.281,0 -0.004,-36.09 c 25.008,19.797 62.067,5.098 66.707,-26.457 0.293,-1.996 0.442,-4.011 0.442,-6.027 l -0.008,-24.281 c 0,-35.192 -38.094,-57.184 -68.567,-39.59 -12.824,7.406 -21.269,20.562 -22.656,35.305 l 23.059,0 c 3.301,-17.286 24.07,-24.516 37.39,-13.016 5.028,4.34 7.918,10.656 7.918,17.301 l 0,20 c 0,17.593 -19.047,28.59 -34.285,19.793 -3.949,-2.282 -7.129,-5.692 -9.125,-9.793 l -22.301,0 z m 105.711,-30 0.008,71.422 c 0,35.191 38.094,57.183 68.567,39.589 14.144,-8.168 22.859,-23.257 22.859,-39.589 l 0,-71.422 c 0,-35.192 -38.094,-57.184 -68.57,-39.59 -14.145,8.168 -22.856,23.258 -22.856,39.59 l -0.008,0 z m 22.856,0 0.008,71.422 c 0,17.597 19.046,28.593 34.285,19.796 7.07,-4.085 11.426,-11.628 11.426,-19.796 l 0,-71.422 c 0,-17.594 -19.047,-28.594 -34.282,-19.793 -7.074,4.082 -11.429,11.625 -11.429,19.793 l -0.008,0 z" /></g></g></svg>