<?xml version="1.0" encoding="UTF-8" standalone="no"?>
<svg
   viewBox="0 0 944.9721 236.85335"
   height="236.85335"
   width="944.97211"
   xml:space="preserve"
   version="1.1"
   id="svg9833"
   sodipodi:docname="DE:625-22.svg"
   inkscape:version="1.1.2 (0a00cf5339, 2022-02-04)"
   xmlns:inkscape="http://www.inkscape.org/namespaces/inkscape"
   xmlns:sodipodi="http://sodipodi.sourceforge.net/DTD/sodipodi-0.dtd"
   xmlns="http://www.w3.org/2000/svg"
   xmlns:svg="http://www.w3.org/2000/svg"
   xmlns:rdf="http://www.w3.org/1999/02/22-rdf-syntax-ns#"
   xmlns:cc="http://creativecommons.org/ns#"
   xmlns:dc="http://purl.org/dc/elements/1.1/"><sodipodi:namedview
     id="namedview31"
     pagecolor="#ffffff"
     bordercolor="#666666"
     borderopacity="1.0"
     inkscape:pageshadow="2"
     inkscape:pageopacity="0.0"
     inkscape:pagecheckerboard="0"
     showgrid="false"
     inkscape:zoom="0.33171744"
     inkscape:cx="-556.19626"
     inkscape:cy="313.51984"
     inkscape:window-width="1920"
     inkscape:window-height="1011"
     inkscape:window-x="0"
     inkscape:window-y="32"
     inkscape:window-maximized="1"
     inkscape:current-layer="svg9833" /><metadata
     id="metadata9839"><rdf:RDF><cc:Work
         rdf:about=""><dc:format>image/svg+xml</dc:format><dc:type
           rdf:resource="http://purl.org/dc/dcmitype/StillImage" /></cc:Work></rdf:RDF></metadata><defs
     id="defs9837"><clipPath
       id="clipPath9851"
       clipPathUnits="userSpaceOnUse"><path
         id="path9853"
         d="M 0,0 H 1602 V 402 H 0 Z" /></clipPath><clipPath
       id="clipPath9863"
       clipPathUnits="userSpaceOnUse"><path
         id="path9865"
         d="M 0,0 H 1602 V 402 H 0 Z" /></clipPath><clipPath
       id="clipPath9875"
       clipPathUnits="userSpaceOnUse"><path
         id="path9877"
         d="M 0,0 H 1602 V 402 H 0 Z" /></clipPath></defs><g
     transform="matrix(0.59010487,0,0,-0.59010487,0,236.85417)"
     id="g9841"><g
       id="g9843"><g
         transform="translate(0,-0.623596)"
         id="g9845"><g
           id="g9847"><g
             clip-path="url(#clipPath9851)"
             id="g9849"><g
               id="g9855"><g
                 id="g9857"><g
                   id="g9859"><g
                     clip-path="url(#clipPath9863)"
                     id="g9861"><g
                       id="g9867"><g
                         id="g9869"><g
                           id="g9871"><g
                             clip-path="url(#clipPath9875)"
                             id="g9873"><g
                               id="g9879"><path
                                 id="path9881"
                                 style="fill:#ffffff;fill-opacity:1;fill-rule:nonzero;stroke:none"
                                 d="M 1568.562,2.254 H 32.844 C 15.602,2.254 1.633,16.176 1.633,33.41 v 335.805 c 0,17.234 13.969,31.156 31.211,31.156 h 1535.718 c 17.243,0 31.215,-13.922 31.215,-31.156 V 33.41 c 0,-17.234 -13.972,-31.156 -31.215,-31.156 z" /><path
                                 id="path9883"
                                 style="fill:#231f20;fill-opacity:1;fill-rule:nonzero;stroke:none"
                                 d="m 1568.562,0.625 c 18.106,0 32.801,14.687 32.801,32.785 v 335.805 c 0,18.097 -14.695,32.785 -32.801,32.785 H 32.844 C 14.738,402 0,387.312 0,369.215 V 33.41 C 0,15.312 14.738,0.625 32.844,0.625 Z m 0,1.629 H 32.844 C 15.602,2.254 1.633,16.176 1.633,33.41 v 335.805 c 0,17.234 13.969,31.156 31.211,31.156 h 1535.718 c 17.243,0 31.215,-13.922 31.215,-31.156 V 33.41 c 0,-17.234 -13.972,-31.156 -31.215,-31.156 z" /><path
                                 id="path9885"
                                 style="fill:#c1121c;fill-opacity:1;fill-rule:nonzero;stroke:none"
                                 d="M 200.793,1.434 400.766,201.297 200.793,401.184 H 32.824 c -8.484,0 -16.636,-3.364 -22.64,-9.364 L 200.793,201.297 10.184,10.797 C 16.188,4.793 24.34,1.434 32.824,1.434 h 167.969" /><path
                                 id="path9887"
                                 style="fill:#c1121c;fill-opacity:1;fill-rule:nonzero;stroke:none"
                                 d="M 400.766,1.434 H 600.742 L 800.691,201.297 600.742,401.184 H 400.766 L 600.742,201.297 400.766,1.434" /><path
                                 id="path9889"
                                 style="fill:#c1121c;fill-opacity:1;fill-rule:nonzero;stroke:none"
                                 d="m 800.691,1.434 h 199.977 l 199.973,199.863 -199.973,199.887 H 800.691 L 1000.668,201.297 800.691,1.434" /><path
                                 id="path9891"
                                 style="fill:#c1121c;fill-opacity:1;fill-rule:nonzero;stroke:none"
                                 d="m 1200.641,1.434 h 199.976 l 199.949,199.863 -199.949,199.887 H 1200.641 L 1400.617,201.297 1200.641,1.434" /></g></g></g></g></g></g></g></g></g></g></g></g></g></g></svg>
