<?xml version="1.0" encoding="UTF-8" standalone="no"?>
<!-- Created with Inkscape (http://www.inkscape.org/) -->

<svg
   version="1.1"
   width="362.71399"
   height="526.39099"
   viewBox="-31.5 -10 362.71399 526.39099"
   id="svg2"
   xml:space="preserve"
   xmlns:xlink="http://www.w3.org/1999/xlink"
   xmlns="http://www.w3.org/2000/svg"
   xmlns:svg="http://www.w3.org/2000/svg"
   xmlns:rdf="http://www.w3.org/1999/02/22-rdf-syntax-ns#"
   xmlns:cc="http://creativecommons.org/ns#"
   xmlns:dc="http://purl.org/dc/elements/1.1/"><metadata
   id="metadata134"><rdf:RDF><cc:Work
       rdf:about=""><dc:format>image/svg+xml</dc:format><dc:type
         rdf:resource="http://purl.org/dc/dcmitype/StillImage" /></cc:Work></rdf:RDF></metadata><defs
   id="defs132"><linearGradient
     xlink:href="#rect5530_6_"
     id="linearGradient16825"
     gradientUnits="userSpaceOnUse"
     x1="715.05878"
     y1="214.0977"
     x2="795.12128"
     y2="214.0977"
     gradientTransform="matrix(0.15624766,0,0,1,637.10896,0)" /><linearGradient
     xlink:href="#rect5530_6_"
     id="linearGradient17643"
     gradientUnits="userSpaceOnUse"
     x1="715.05878"
     y1="214.0977"
     x2="795.12128"
     y2="214.0977" /></defs>
<g
   id="Pfosten"
   transform="translate(-605.23277)">
	<linearGradient
   x1="718.73853"
   y1="191.80569"
   x2="791.44171"
   y2="191.80569"
   id="rect5530_4_"
   gradientUnits="userSpaceOnUse">
		<stop
   id="stop12"
   style="stop-color:#868686;stop-opacity:1"
   offset="0" />
		<stop
   id="stop14"
   style="stop-color:#939393;stop-opacity:1"
   offset="0.0299" />
		<stop
   id="stop16"
   style="stop-color:#bababa;stop-opacity:1"
   offset="0.1279" />
		<stop
   id="stop18"
   style="stop-color:#d8d8d8;stop-opacity:1"
   offset="0.2251" />
		<stop
   id="stop20"
   style="stop-color:#eeeeee;stop-opacity:1"
   offset="0.3202" />
		<stop
   id="stop22"
   style="stop-color:#fbfbfb;stop-opacity:1"
   offset="0.412" />
		<stop
   id="stop24"
   style="stop-color:#ffffff;stop-opacity:1"
   offset="0.49689999" />
		<stop
   id="stop26"
   style="stop-color:#fbfbfb;stop-opacity:1"
   offset="0.58560002" />
		<stop
   id="stop28"
   style="stop-color:#f1f1f1;stop-opacity:1"
   offset="0.66399997" />
		<stop
   id="stop30"
   style="stop-color:#dfdfdf;stop-opacity:1"
   offset="0.73860002" />
		<stop
   id="stop32"
   style="stop-color:#c5c5c5;stop-opacity:1"
   offset="0.8107" />
		<stop
   id="stop34"
   style="stop-color:#a4a4a4;stop-opacity:1"
   offset="0.88120002" />
		<stop
   id="stop36"
   style="stop-color:#7d7d7d;stop-opacity:1"
   offset="0.94950002" />
		<stop
   id="stop38"
   style="stop-color:#5a5a5a;stop-opacity:1"
   offset="1" />
	</linearGradient>
	<path
   d="m 718.739,19.398 h 72.703 v 475.94798 c -12.052,2.251 -23.765,10.612 -36.531,0 -12.057,-11.298 -24.114,-4.383 -36.172,0 z"
   id="rect5530"
   style="display:inline;fill:url(#rect5530_4_)" />
	
	<path
   d="M 718.739,495.34598 V 19.398 h 72.703 v 475.94798"
   id="rect5530_2_"
   style="fill:none;stroke:#000000;stroke-width:1.5;stroke-linecap:round" /><path
   d="m 717.057,13.464 c 24.342,-3.34 51.063,-3.791 76.066,0 V 56.99 h -76.066 z"
   id="rect5542"
   style="fill:#1a1a1a" />
</g><g
   id="Ringe"
   transform="translate(-605.23277)">
	
	
	
	
	<linearGradient
   x1="715.05878"
   y1="107.4014"
   x2="795.12128"
   y2="107.4014"
   id="rect5530_5_"
   gradientUnits="userSpaceOnUse">
		<stop
   id="stop56"
   style="stop-color:#868686;stop-opacity:1"
   offset="0" />
		<stop
   id="stop58"
   style="stop-color:#939393;stop-opacity:1"
   offset="0.0299" />
		<stop
   id="stop60"
   style="stop-color:#bababa;stop-opacity:1"
   offset="0.1279" />
		<stop
   id="stop62"
   style="stop-color:#d8d8d8;stop-opacity:1"
   offset="0.2251" />
		<stop
   id="stop64"
   style="stop-color:#eeeeee;stop-opacity:1"
   offset="0.3202" />
		<stop
   id="stop66"
   style="stop-color:#fbfbfb;stop-opacity:1"
   offset="0.412" />
		<stop
   id="stop68"
   style="stop-color:#ffffff;stop-opacity:1"
   offset="0.49689999" />
		<stop
   id="stop70"
   style="stop-color:#fbfbfb;stop-opacity:1"
   offset="0.58560002" />
		<stop
   id="stop72"
   style="stop-color:#f1f1f1;stop-opacity:1"
   offset="0.66399997" />
		<stop
   id="stop74"
   style="stop-color:#dfdfdf;stop-opacity:1"
   offset="0.73860002" />
		<stop
   id="stop76"
   style="stop-color:#c5c5c5;stop-opacity:1"
   offset="0.8107" />
		<stop
   id="stop78"
   style="stop-color:#a4a4a4;stop-opacity:1"
   offset="0.88120002" />
		<stop
   id="stop80"
   style="stop-color:#7d7d7d;stop-opacity:1"
   offset="0.94950002" />
		<stop
   id="stop82"
   style="stop-color:#5a5a5a;stop-opacity:1"
   offset="1" />
	</linearGradient>
	
	<linearGradient
   x1="715.05878"
   y1="214.0977"
   x2="795.12128"
   y2="214.0977"
   id="rect5530_6_"
   gradientUnits="userSpaceOnUse">
		<stop
   id="stop86"
   style="stop-color:#868686;stop-opacity:1"
   offset="0" />
		<stop
   id="stop88"
   style="stop-color:#939393;stop-opacity:1"
   offset="0.0299" />
		<stop
   id="stop90"
   style="stop-color:#bababa;stop-opacity:1"
   offset="0.1279" />
		<stop
   id="stop92"
   style="stop-color:#d8d8d8;stop-opacity:1"
   offset="0.2251" />
		<stop
   id="stop94"
   style="stop-color:#eeeeee;stop-opacity:1"
   offset="0.3202" />
		<stop
   id="stop96"
   style="stop-color:#fbfbfb;stop-opacity:1"
   offset="0.412" />
		<stop
   id="stop98"
   style="stop-color:#ffffff;stop-opacity:1"
   offset="0.49689999" />
		<stop
   id="stop100"
   style="stop-color:#fbfbfb;stop-opacity:1"
   offset="0.58560002" />
		<stop
   id="stop102"
   style="stop-color:#f1f1f1;stop-opacity:1"
   offset="0.66399997" />
		<stop
   id="stop104"
   style="stop-color:#dfdfdf;stop-opacity:1"
   offset="0.73860002" />
		<stop
   id="stop106"
   style="stop-color:#c5c5c5;stop-opacity:1"
   offset="0.8107" />
		<stop
   id="stop108"
   style="stop-color:#a4a4a4;stop-opacity:1"
   offset="0.88120002" />
		<stop
   id="stop110"
   style="stop-color:#7d7d7d;stop-opacity:1"
   offset="0.94950002" />
		<stop
   id="stop112"
   style="stop-color:#5a5a5a;stop-opacity:1"
   offset="1" />
	</linearGradient>
	
<path
   d="m 715.05897,79.166342 h 80.062 V 379.1216 h -80.062 z"
   id="rect5530_1_"
   style="display:inline;fill:url(#linearGradient17643);stroke:#000000;stroke-width:1.5;stroke-opacity:1" /><path
   d="m 748.83525,228.646 2e-5,-149.479658 h 12.5095 V 379.1216 h -12.5095 z"
   id="path16623"
   style="display:inline;fill:url(#linearGradient16825);stroke:#000000;stroke-width:1.5;stroke-miterlimit:4;stroke-dasharray:none;stroke-opacity:1" /></g><g
   id="Tafel"
   transform="translate(-961.10727,-3.4368896e-4)"
   style="display:inline">
	<rect
   style="fill:#ffffff;fill-opacity:1;stroke-width:2;stroke-linecap:round;stroke-linejoin:round"
   id="rect3523"
   width="299.9556"
   height="299.95526"
   x="960.98627"
   y="79.166344"
   ry="27.276308" />
	
		
	
	
	
	
<path
   id="path1619"
   style="fill:#008754;fill-opacity:1;fill-rule:nonzero;stroke:none;stroke-width:5.57858"
   d="m 988.26057,92.802026 c -7.5311,0 -13.6386,6.10953 -13.6386,13.640624 l -1e-4,245.40461 c -10e-6,7.53671 6.1076,13.63867 13.6387,13.63867 h 245.40693 c 7.5311,0 13.6387,-6.10196 13.6387,-13.63867 V 106.44265 c 0,-7.531098 -6.1076,-13.640628 -13.6387,-13.640628 z m 0,6.82422 245.40693,-4e-6 c 3.7655,0 6.8165,3.056418 6.8165,6.816408 v 245.3968 c 0,3.77111 -3.051,6.82226 -6.8165,6.82226 H 988.26057 c -3.7655,0 -6.8145,-3.05115 -6.8145,-6.82226 l 1e-4,-245.3968 c 0,-3.75999 3.0489,-6.816404 6.8144,-6.816404 z" /><rect
   style="display:inline;fill:none;fill-opacity:1;stroke:#000000;stroke-width:1.5;stroke-linecap:round;stroke-linejoin:round;stroke-miterlimit:4;stroke-dasharray:none;stroke-opacity:1"
   id="rect3879"
   width="299.9556"
   height="299.95526"
   x="960.98627"
   y="79.166344"
   ry="27.276308" /></g>





<path
   id="path5658-6"
   style="display:inline;fill:#008754;fill-opacity:1;fill-rule:nonzero;stroke:none;stroke-width:0.330683"
   d="M 132.0827,316.88736 H 114.324 c -0.305,0 -0.6005,-0.0647 -0.8756,-0.18485 -1.0877,-0.48445 -1.5774,-1.75659 -1.0877,-2.84455 l 7.9453,-17.7881 c -0.199,-0.0635 -0.3978,-0.11642 -0.5982,-0.16931 -9.2098,-2.37827 -18.6085,3.16068 -20.9904,12.37484 -2.377,9.21381 3.1646,18.6125 12.3766,20.98993 9.212,2.37745 18.6107,-3.16414 20.9887,-12.37796 z m -7.8293,-19.08672 -6.6071,14.78254 h 14.9852 c 0,-6.0568 -3.1864,-11.67079 -8.3781,-14.78254 z m 12.6824,14.78254 h 4.3078 l -10.7678,-28.71388 -4.4615,9.97736 c 6.7492,3.82204 10.9215,10.97836 10.9215,18.73652 z m 8.8226,-0.22982 26.9685,-29.91791 h -38.1872 z m 22.8634,7.34083 c 3.9282,8.66886 14.1354,12.50644 22.8043,8.58222 8.6648,-3.92818 12.5067,-14.13934 8.5785,-22.80424 -3.2476,-7.16657 -10.941,-11.22239 -18.6875,-9.85336 l 5.0518,16.32484 c 0.3554,1.14085 -0.2814,2.34453 -1.4183,2.69738 -1.1352,0.34985 -2.3432,-0.28571 -2.693,-1.41831 l -5.0572,-16.32881 c -8.6636,3.92422 -12.5054,14.13539 -8.5786,22.80028 z M 94.9261,305.90867 c 3.6864,-11.30904 15.843,-17.48719 27.1484,-13.79942 l 6.2492,-13.9816 -1.6173,-4.30813 h -4.8465 v -4.30385 h 18.304 c 0.4996,0 0.9338,0.33829 1.0502,0.82406 0.1393,0.58002 -0.2199,1.15871 -0.7986,1.29826 l -9.1077,2.18284 1.6131,4.30682 h 38.4704 l -1.7268,-5.57895 c -0.5608,-1.80587 -2.2272,-3.03303 -4.1157,-3.03303 h -7.0773 v -4.30813 h 7.0773 c 3.7771,0 7.1136,2.45696 8.2284,6.06604 l 6.2558,20.20672 c 10.0383,-2.03834 20.1214,3.27708 24.1128,12.70915 4.6361,10.95256 -0.4895,23.59093 -11.441,28.22579 -10.9525,4.63452 -23.5893,-0.48577 -28.2255,-11.437 -4.6348,-10.95257 0.4858,-23.59094 11.4423,-28.2258 l -1.7129,-5.531 -25.4587,28.24761 c -0.8177,0.90674 -1.979,1.41832 -3.1983,1.41832 h -9.0524 c -0.1618,0.80586 -0.372,1.59521 -0.6254,2.37032 -3.6864,11.31036 -15.843,17.48851 -27.1484,13.80073 C 97.4152,329.3756 91.2419,317.21937 94.9248,305.90867" /><path
   style="display:inline;fill:#008754;fill-opacity:1;stroke:none;stroke-width:0.396783px;stroke-linecap:butt;stroke-linejoin:miter;stroke-opacity:1"
   d="m 162.29395,234.09024 v -66.1561 l 42.5594,42.5594 -1e-5,-31.3999 -54.99653,-54.9966 -54.99656,54.9966 2e-5,31.3999 42.55938,-42.5594 v 66.1561 z"
   id="path3089" /></svg>
