<?xml version="1.0" encoding="UTF-8" standalone="no"?>
<svg
   id="svg4129"
   viewBox="0 0 1054.3846 400.01999"
   version="1.1"
   sodipodi:docname="Luxembourg_road_sign_diagram_E,4a_(8).svg"
   width="1054.3846"
   height="400.01999"
   inkscape:version="1.1.2 (0a00cf5339, 2022-02-04)"
   xmlns:inkscape="http://www.inkscape.org/namespaces/inkscape"
   xmlns:sodipodi="http://sodipodi.sourceforge.net/DTD/sodipodi-0.dtd"
   xmlns="http://www.w3.org/2000/svg"
   xmlns:svg="http://www.w3.org/2000/svg">
  <sodipodi:namedview
     id="namedview32"
     pagecolor="#ffffff"
     bordercolor="#666666"
     borderopacity="1.0"
     inkscape:pageshadow="2"
     inkscape:pageopacity="0.0"
     inkscape:pagecheckerboard="0"
     showgrid="false"
     inkscape:zoom="0.33293722"
     inkscape:cx="695.32629"
     inkscape:cy="321.38191"
     inkscape:window-width="1920"
     inkscape:window-height="1011"
     inkscape:window-x="0"
     inkscape:window-y="1472"
     inkscape:window-maximized="1"
     inkscape:current-layer="svg4129" />
  <defs
     id="defs4">
    <style
       id="style2">
      .cls-1 {
        fill: #000;
      }

      .cls-1, .cls-2 {
        stroke-width: 0px;
      }

      .cls-3 {
        stroke-miterlimit: 10;
        stroke-width: 3px;
      }

      .cls-3, .cls-2 {
        fill: #eec700;
      }

      .cls-3, .cls-4 {
        stroke: #000;
      }

      .cls-2, .cls-5 {
        fill-rule: evenodd;
      }

      .cls-4 {
        fill: #fff;
        stroke-width: 8.5px;
      }

      .cls-5 {
        fill: #211e1e;
        stroke: #fff;
        stroke-miterlimit: 22.93;
        stroke-width: 1.36px;
      }
    </style>
  </defs>
  <path
     id="fond_noir"
     data-name="fond noir"
     class="cls-5"
     d="M 1029.0458,399.33 H 221.91579 c -6.01,0 -10.99,-1.9 -15.82,-6.01 C 140.47579,335.76 75.005788,277.9 9.5257885,220.19 c -11.86,-10.4 -11.72,-29.59 0,-39.99 C 74.855788,122.21 140.62579,64.64 206.09579,6.9299996 c 4.54,-3.95 9.96,-6.01 15.82,-6.01 582.38,-0.32 224.75,-0.32 807.13001,0 13.33,0 24.61,11.7200004 24.61,25.9300004 0,115.57 0.11,230.99 0,346.56 0,14.5 -38.09,25.93 -24.61,25.93 v 0 z"
     sodipodi:nodetypes="csccccccscscc" />
  <path
     id="fond_blanc"
     data-name="fond blanc"
     class="cls-2"
     d="M 1027.6258,383.51 H 234.95579 L 80.425788,200.13 234.95579,16.75 h 792.68001 c 4.39,0 8.06,4.1 8.06,8.79 0.11,116.45 0.11,232.75 0,349.19 0,4.69 -3.66,8.79 -8.06,8.79"
     sodipodi:nodetypes="ccccsccc" />
  <g
     id="g27"
     transform="translate(0.00578847,0.0099996)">
    <rect
       id="Autoroute"
       class="cls-3"
       x="765.84003"
       y="125.18"
       width="223.03999"
       height="149.64"
       rx="16.780001"
       ry="16.780001" />
    <g
       id="g25">
      <path
         class="cls-1"
         d="m 832.44,235.78 h -37.13 v -12.89 l 32.89,-71.56 h 18.53 v 71.56 h 4.32 v 12.89 h -4.32 v 15.53 h -14.28 v -15.53 z m 0,-12.89 v -46.73 l -21.53,46.73 z"
         id="path19" />
      <path
         class="cls-1"
         d="m 884.51,151.33 v 99.98 h -14.28 v -76.32 h -8.35 v -8.5 l 8.35,-15.16 z"
         id="path21" />
      <path
         class="cls-1"
         d="m 938.12,203.99 c -2.49,1.27 -4.42,2.15 -5.79,2.64 -2.15,0.78 -4.61,1.17 -7.4,1.17 -7.91,0 -14.11,-2.73 -18.6,-8.2 -3.56,-4.34 -5.35,-9.35 -5.35,-15.01 v -8.5 c 0,-6.59 2.03,-12.25 6.08,-16.99 5.22,-6.15 11.79,-9.23 19.7,-9.23 6.45,0 12.06,2.03 16.85,6.08 5.86,4.88 8.79,11.6 8.79,20.14 v 50.68 c 0,5.42 -1.2,10.08 -3.59,13.99 -2.1,3.47 -5.03,6.28 -8.79,8.42 -4.15,2.39 -8.57,3.59 -13.26,3.59 -4.39,0 -8.5,-1.04 -12.3,-3.11 -3.81,-2.08 -6.91,-4.94 -9.3,-8.61 -2.78,-4.25 -4.17,-9.01 -4.17,-14.28 v -3.96 h 14.28 v 5.64 c 0,2.64 0.85,5.05 2.56,7.25 2.29,2.78 5.27,4.17 8.94,4.17 4.3,0 7.59,-1.78 9.89,-5.35 0.98,-1.51 1.46,-3.54 1.46,-6.08 v -24.46 z m 0,-19.41 v -9.74 c 0,-3.27 -0.88,-5.96 -2.64,-8.06 -2.2,-2.73 -5.08,-4.1 -8.64,-4.1 -3.81,0 -6.86,1.46 -9.16,4.39 -1.61,2.05 -2.42,4.64 -2.42,7.76 v 9.74 c 0,2.49 0.81,4.86 2.42,7.1 2.2,3.13 5.27,4.69 9.23,4.69 4.35,0 7.57,-1.85 9.67,-5.57 1.03,-1.76 1.54,-3.83 1.54,-6.23 z"
         id="path23" />
    </g>
  </g>
</svg>
