<?xml version="1.0" encoding="UTF-8" standalone="no"?>
<svg
   xmlns:dc="http://purl.org/dc/elements/1.1/"
   xmlns:cc="http://creativecommons.org/ns#"
   xmlns:rdf="http://www.w3.org/1999/02/22-rdf-syntax-ns#"
   xmlns:svg="http://www.w3.org/2000/svg"
   xmlns="http://www.w3.org/2000/svg"
   viewBox="0 0 501.0043 250.97134"
   height="250.97134"
   width="501.0043"
   xml:space="preserve"
   version="1.1"
   id="svg9575"><metadata
     id="metadata9581"><rdf:RDF><cc:Work
         rdf:about=""><dc:format>image/svg+xml</dc:format><dc:type
           rdf:resource="http://purl.org/dc/dcmitype/StillImage" /><dc:title></dc:title></cc:Work></rdf:RDF></metadata><defs
     id="defs9579" /><g
     transform="matrix(1.25,0,0,-1.25,0,250.97134)"
     id="g9583"><g
       id="g9585"><path
         id="path9587"
         style="fill:#ffffff;fill-opacity:1;fill-rule:nonzero;stroke:none"
         d="m 368.402,200.379 c 32.852,-0.2 31.996,-31.977 31.996,-31.977 l 0,-136 c 0,0 0.063,-32 -31.996,-32 l -336,0 c -32.472,0 -32,32 -32,32 l 0,136 c 0,32.176 32,31.977 32,31.977 l 336,0 z" /><path
         id="path9589"
         style="fill:#000000;fill-opacity:1;fill-rule:nonzero;stroke:none"
         d="m 368.402,192.402 c 24.368,0 24,-24 24,-24 l 0,-136 c 0,0 0.332,-24 -24,-24 l -336.004,0 c -24.328,0 -23.996,24 -23.996,24 l 0,136 c 0,0 -0.148,24 23.996,24 l 336.004,0 z m 0,-12 -336.004,0 c 0,0 -11.996,-0.277 -11.996,-12 l 0,-136 c 0,0 -0.078,-12 11.996,-12 l 336.004,0 c 11.645,0 12,12 12,12 l 0,136 c 0,0 -0.023,12 -12,12 z" /><path
         id="path9591"
         style="fill:#000000;fill-opacity:1;fill-rule:nonzero;stroke:none"
         d="m 32.402,200.777 c -0.007,0 -8.086,0.055 -16.179,-3.965 C 8.125,192.793 0,184.621 0,168.402 l 0,-136 C 0,32.39 -0.121,24.316 3.867,16.222 7.855,8.125 16.035,0 32.402,0 l 336,0 c 16.161,0 24.336,8.125 28.379,16.222 4.039,8.094 4.02,16.18 4.02,16.18 l 0,136 c 0,0.016 0.215,8.027 -3.719,16.09 -3.945,8.066 -12.121,16.187 -28.68,16.285 l -336.004,0 0.008,0 -0.008,0 0.004,0 z m 0,-0.398 336,0 c 32.852,-0.2 32,-31.977 32,-31.977 l 0,-136 c 0,0 0.059,-32 -32,-32 l -336,0 c -32.472,0 -32,32 -32,32 l 0,136 c 0,32.176 32,31.977 32,31.977 z" /><path
         id="path9593"
         style="fill:#000000;fill-opacity:1;fill-rule:nonzero;stroke:none"
         d="m 148.883,111.543 0,25.285 c 0,2.164 -0.426,4.215 -1.27,6.168 -0.84,1.894 -1.976,3.555 -3.398,4.976 -1.422,1.422 -3.082,2.555 -4.977,3.399 -1.949,0.844 -4.004,1.265 -6.164,1.265 -1.472,0 -2.871,-0.183 -4.187,-0.554 -1.317,-0.367 -2.559,-0.871 -3.715,-1.5 l 0,2.054 -7.902,0 0,-41.093 7.902,0 0,25.285 c 0,2.215 0.762,4.086 2.293,5.613 1.523,1.527 3.394,2.289 5.609,2.289 2.211,0 4.082,-0.762 5.61,-2.289 1.531,-1.527 2.293,-3.398 2.293,-5.613 l 0,-25.285 7.906,0 z" /><path
         id="path9595"
         style="fill:#000000;fill-opacity:1;fill-rule:nonzero;stroke:none"
         d="m 207.543,152.633 c 0,0 -16.371,0.089 -16.391,-20.7 -0.015,-20.785 17.629,-20.39 17.629,-20.39 2.707,0 5.301,0.492 7.778,1.468 2.504,1.008 4.746,2.672 6.73,4.993 l -5.84,5.297 c -2.554,-2.583 -5.496,-3.872 -8.82,-3.872 -7.637,0.004 -9.172,6.118 -9.481,8.582 l 24.743,0 c -0.024,2.641 0.023,5.407 0,7.797 l 0,0.106 c -0.051,5.078 -1.524,9.117 -4.778,12.117 -3.3,3.07 -7.16,4.602 -11.57,4.602 z m 0,-7.872 c 7.719,0.024 8.402,-7.492 8.465,-8.847 l -16.93,0 c 0.063,1.351 0.75,8.824 8.465,8.847 z" /><path
         id="path9597"
         style="fill:#000000;fill-opacity:1;fill-rule:nonzero;stroke:none"
         d="m 328.059,152.636 c -1.504,0 -2.93,-0.187 -4.274,-0.566 -1.34,-0.375 -2.605,-0.91 -3.785,-1.613 l 0,2.179 -8.059,0 0,-41.093 8.059,0 0,25.3 c 0.105,2.149 0.914,3.973 2.418,5.477 1.559,1.504 3.437,2.258 5.641,2.258 1.183,0 2.254,-0.242 3.222,-0.723 0.805,-0.34 1.524,-0.801 2.16,-1.371 l 3.743,7.289 c -0.766,0.531 -1.579,1.004 -2.442,1.41 -2.039,0.969 -4.265,1.453 -6.683,1.453 z" /><path
         id="path9599"
         style="fill:#000000;fill-opacity:1;fill-rule:nonzero;stroke:none"
         d="m 247.934,152.941 c -3.094,0 -5.621,-0.543 -7.579,-1.621 -1.957,-1.086 -3.492,-2.246 -4.601,-3.48 -1.547,-1.704 -2.652,-3.61 -3.324,-5.723 -0.668,-2.113 -1.004,-5.363 -1.004,-9.742 0,-4.305 0.336,-8.11 1.004,-10.219 0.672,-2.117 1.777,-4.02 3.324,-5.723 1.109,-1.211 2.644,-2.371 4.601,-3.48 1.958,-1.106 4.485,-1.66 7.579,-1.66 3.113,0.144 5.964,0.652 8.359,2.082 -0.012,-2.766 -0.066,-10.793 -8.07,-10.867 -8.098,0.109 -13.352,4.605 -13.352,4.605 l -4.805,-7.031 c 9.164,-5.664 17.817,-5.668 17.817,-5.668 0,0 16.691,-0.071 16.562,19.582 0.039,15.09 0,16.777 0,38.945 l -8.078,0 0.008,-2.086 c -0.254,0.156 -0.516,0.309 -0.789,0.465 -1.957,1.078 -4.508,1.621 -7.652,1.621 z m 0,-8.039 c 2.964,0 5.129,-0.98 6.496,-2.941 0.773,-1.055 1.3,-2.176 1.582,-3.36 0.258,-1.215 0.386,-3.289 0.386,-6.226 0,-2.864 -0.128,-5.481 -0.386,-6.664 -0.282,-1.188 -0.809,-2.317 -1.582,-3.403 -1.367,-1.957 -3.532,-2.937 -6.496,-2.937 -2.914,0 -4.692,1.109 -6.11,3.066 -0.722,1.082 -1.222,2.219 -1.508,3.403 -0.308,1.183 -0.464,3.828 -0.464,6.742 0,2.91 0.156,4.961 0.464,6.144 0.286,1.188 0.786,2.309 1.508,3.364 1.418,1.961 3.196,2.812 6.11,2.812 z" /><path
         id="path9601"
         style="fill:#000000;fill-opacity:1;fill-rule:nonzero;stroke:none"
         d="m 63.617,111.543 20.469,56.105 7.008,0 20.469,-56.105 -8.926,0 -4.313,12.66 -21.281,0 -4.465,-12.66 -8.961,0 m 15.934,20.164 16.234,0 c -1.18,3.465 -2.117,6.172 -2.812,8.117 -0.66,1.98 -1.25,3.727 -1.77,5.234 -0.48,1.516 -0.984,3.055 -1.5,4.621 -0.508,1.563 -1.191,3.68 -2.035,6.348 -0.902,-2.769 -1.617,-4.988 -2.152,-6.656 -0.547,-1.641 -1.071,-3.235 -1.586,-4.774 -0.485,-1.539 -1.059,-3.257 -1.727,-5.156 -0.644,-1.898 -1.523,-4.476 -2.652,-7.734" /><path
         id="path9603"
         style="fill:#000000;fill-opacity:1;fill-rule:nonzero;stroke:none"
         d="m 157.664,167.648 7.902,0 0,-56.105 -7.902,0 0,56.105 z" /><path
         id="path9605"
         style="fill:#000000;fill-opacity:1;fill-rule:nonzero;stroke:none"
         d="m 182.371,159.633 -8.019,0 0,8.015 8.019,0 0,-8.015 z m 0,-48.09 -8.019,0 0,41.093 8.019,0 0,-41.093 z" /><path
         id="path9607"
         style="fill:#000000;fill-opacity:1;fill-rule:nonzero;stroke:none"
         d="m 288.621,152.633 c 0,0 -16.371,0.089 -16.391,-20.7 -0.015,-20.785 17.629,-20.39 17.629,-20.39 2.707,0 5.301,0.492 7.778,1.468 2.5,1.008 4.746,2.672 6.73,4.993 l -5.84,5.297 c -2.554,-2.583 -5.496,-3.872 -8.824,-3.872 -7.633,0.004 -9.168,6.118 -9.476,8.582 l 24.742,0 c -0.024,2.641 0.023,5.407 0,7.797 l 0,0.106 c -0.055,5.078 -1.528,9.117 -4.781,12.117 -3.301,3.07 -7.157,4.602 -11.567,4.602 z m 0,-7.872 c 7.715,0.024 8.402,-7.492 8.465,-8.847 l -16.93,0 c 0.063,1.351 0.746,8.824 8.465,8.847 z" /><path
         id="path9609"
         style="fill:#000000;fill-opacity:1;fill-rule:nonzero;stroke:none"
         d="m 160.078,73.129 8.074,0 0,-7.996 -8.074,0 0,-32 -8.008,0 0,32 -3.918,0 0,7.996 3.918,0 0,4 c 0,1.652 0.325,3.203 0.965,4.644 0.641,1.492 1.496,2.774 2.563,3.836 1.113,1.07 2.394,1.922 3.84,2.563 1.492,0.64 3.066,0.961 4.722,0.961 l 3.992,0 0,-8 -3.992,0 c -1.121,0 -2.09,-0.403 -2.887,-1.2 -0.8,-0.804 -1.195,-1.734 -1.195,-2.804 l 0,-4 z" /><path
         id="path9611"
         style="fill:#000000;fill-opacity:1;fill-rule:nonzero;stroke:none"
         d="m 219.047,74.144 c 0,0 -16.344,0.086 -16.359,-20.66 -0.02,-20.746 17.593,-20.351 17.593,-20.351 2.703,0 5.289,0.488 7.762,1.464 2.496,1.004 4.738,2.664 6.719,4.985 l -5.828,5.285 c -2.551,-2.578 -5.489,-3.863 -8.809,-3.863 -7.617,0.004 -9.148,6.101 -9.457,8.566 l 24.691,0 c -0.019,2.633 0.028,5.395 0.004,7.781 l 0,0.106 -0.004,0 c -0.05,5.066 -1.519,9.097 -4.765,12.094 -3.297,3.062 -7.149,4.593 -11.547,4.593 z m 0,-7.855 c 7.699,0.019 8.387,-7.481 8.445,-8.832 l -16.894,0 c 0.062,1.347 0.746,8.808 8.449,8.832 z" /><path
         id="path9613"
         style="fill:#000000;fill-opacity:1;fill-rule:nonzero;stroke:none"
         d="m 191.023,74.144 c -1.5,0 -2.921,-0.187 -4.261,-0.562 -1.34,-0.375 -2.602,-0.91 -3.778,-1.61 l 0,2.172 -8.043,0 0,-41.011 8.043,0 0,25.25 c 0.106,2.144 0.911,3.968 2.411,5.468 1.554,1.5 3.433,2.25 5.628,2.25 1.184,0 2.254,-0.238 3.219,-0.722 0.801,-0.336 1.52,-0.793 2.156,-1.364 l 3.735,7.274 c -0.762,0.531 -1.574,1 -2.434,1.406 -2.039,0.965 -4.261,1.449 -6.676,1.449 z" /><path
         id="path9615"
         style="fill:#000000;fill-opacity:1;fill-rule:nonzero;stroke:none"
         d="m 252.648,81.129 -8,0 0,8.004 8,0 0,-8.004 z m 0,-47.996 -8,0 0,41.011 8,0 0,-41.011 z" /></g></g></svg>